<?xml version="1.0" encoding="utf-8"?>
<!-- Generator: Adobe Illustrator 26.3.1, SVG Export Plug-In . SVG Version: 6.00 Build 0)  -->
<svg version="1.1" id="Layer_1" xmlns:svg="http://www.w3.org/2000/svg"
	 xmlns="http://www.w3.org/2000/svg" xmlns:xlink="http://www.w3.org/1999/xlink" x="0px" y="0px" viewBox="0 0 1190.5 841.9"
	 style="enable-background:new 0 0 1190.5 841.9;" xml:space="preserve">
<style type="text/css">
	.st0{fill-opacity:0;stroke:#000000;stroke-width:0.3402;stroke-linecap:round;stroke-linejoin:round;stroke-miterlimit:10;}
	.st1{fill:#231F20;stroke:#000000;stroke-width:0.3402;stroke-linecap:round;stroke-linejoin:round;stroke-miterlimit:10;}
	.st2{fill:#231F20;stroke:#000000;stroke-width:0.4252;stroke-linecap:round;stroke-linejoin:round;stroke-miterlimit:10;}
</style>
<path id="path76" class="st0" d="M493.1,342.1V230.2V221V109.1c0-3,2.4-5.4,5.4-5.4h70.2c40.9-20.6,85.9-32.1,131.7-33.5h10.8h5.4
	c64.5,0.1,127.8,17.2,183.6,49.6c6,0,10.8,4.8,10.8,10.8v216c-0.2,6-5.2,10.8-11.2,10.7C828.6,377.6,755,388.5,681,389.7l-13.5,5.4
	l-27,10.8L560.4,438c-15.4,6-32.7-1.6-38.7-16.9l-26.5-69.2C493.9,348.8,493.2,345.4,493.1,342.1z"/>
<rect x="475.9" y="319.3" class="st1" width="34" height="18.4"/>
<rect x="495.1" y="108.6" class="st2" width="6.8" height="15.6"/>
</svg>
