<?xml version="1.0" encoding="utf-8"?>
<!-- Generator: Adobe Illustrator 26.3.1, SVG Export Plug-In . SVG Version: 6.00 Build 0)  -->
<svg version="1.1"
	 id="svg1094" xmlns:svg="http://www.w3.org/2000/svg" xmlns:sodipodi="http://sodipodi.sourceforge.net/DTD/sodipodi-0.dtd" xmlns:inkscape="http://www.inkscape.org/namespaces/inkscape" sodipodi:docname="Junco-Edge_Cuts.svg" inkscape:version="1.2.1 (9c6d41e, 2022-07-14)"
	 xmlns="http://www.w3.org/2000/svg" xmlns:xlink="http://www.w3.org/1999/xlink" x="0px" y="0px" viewBox="0 0 1190.5 841.9"
	 style="enable-background:new 0 0 1190.5 841.9;" xml:space="preserve">
<style type="text/css">
	.st0{fill-opacity:0;stroke:#000000;stroke-width:0.7087;stroke-linecap:round;stroke-linejoin:round;stroke-miterlimit:10;}
</style>
<path id="path76" class="st0" d="M493.1,342.1V230.2V221V109.1c0-3,2.4-5.4,5.4-5.4h70.2c40.9-20.6,85.9-32.1,131.7-33.5h10.8h5.4
	c64.5,0.1,127.8,17.2,183.6,49.6c6,0,10.8,4.8,10.8,10.8v216c-0.2,6-5.2,10.8-11.2,10.7C828.6,377.6,755,388.5,681,389.7l-13.5,5.4
	l-27,10.8L560.4,438c-15.4,6-32.7-1.6-38.7-16.9l-26.5-69.2C493.9,348.8,493.2,345.4,493.1,342.1z"/>
<path id="path84" class="st0" d="M340.6,405.9l-27-10.8l-13.5-5.4c-74-1.2-147.5-12.1-218.7-32.4c-6,0.2-11.1-4.6-11.2-10.7v-216
	c0-6,4.8-10.8,10.8-10.8c55.8-32.4,119.1-49.5,183.6-49.6h5.4h10.8c45.8,1.4,90.8,12.8,131.7,33.5h70.2c3,0,5.4,2.4,5.4,5.4V221v9.2
	v111.9c-0.1,3.4-0.8,6.7-2.2,9.8l-26.5,69.2c-6,15.4-23.3,23-38.7,16.9L340.6,405.9z"/>
<path class="st0" d="M469.9,269.4v47.8h-39.1v-47.8H469.9z"/>
<path class="st0" d="M550.4,269.4v47.8h-39.1v-47.8H550.4z"/>
<path class="st0" d="M127.8,339.4v-39.7H88.2v39.7H127.8z"/>
<path class="st0" d="M893,339.4v-39.7h-39.7v39.7H893z"/>
<path class="st0" d="M426.1,347.9l36.8,14.9L448,399.6l-36.8-14.9L426.1,347.9z"/>
<path class="st0" d="M397.8,312.5v-39.7h-39.7v39.7H397.8z"/>
<path class="st0" d="M839,339.4v-39.7h-39.7v39.7H839z"/>
<path class="st0" d="M181.8,339.4v-39.7h-39.7v39.7H181.8z"/>
<path class="st0" d="M839,177.4v-39.7h-39.7v39.7H839z"/>
<path class="st0" d="M235.8,143.4v-39.7h-39.7v39.7H235.8z"/>
<path class="st0" d="M785,305.4v-39.7h-39.7v39.7H785z"/>
<path class="st0" d="M893,231.4v-39.7h-39.7v39.7H893z"/>
<path class="st0" d="M343.8,251.4v-39.7h-39.7v39.7H343.8z"/>
<path class="st0" d="M839,231.4v-39.7h-39.7v39.7H839z"/>
<path class="st0" d="M369.9,341.8l36.8,14.9l-14.9,36.8L355,378.6L369.9,341.8z"/>
<path class="st0" d="M893,177.4v-39.7h-39.7v39.7H893z"/>
<path class="st0" d="M731,289.8v-39.7h-39.7v39.7H731z"/>
<path class="st0" d="M574.8,356.9l36.8-14.9l14.9,36.8l-36.8,14.9L574.8,356.9z"/>
<path class="st0" d="M731,343.8v-39.7h-39.7v39.7H731z"/>
<path class="st0" d="M343.8,359.4v-39.7h-39.7v39.7H343.8z"/>
<path class="st0" d="M731,181.8v-39.7h-39.7v39.7H731z"/>
<path class="st0" d="M397.8,150.5v-39.7h-39.7v39.7H397.8z"/>
<path class="st0" d="M731,235.8v-39.7h-39.7v39.7H731z"/>
<path class="st0" d="M235.8,359.4v-39.7h-39.7v39.7H235.8z"/>
<path class="st0" d="M893,285.4v-39.7h-39.7v39.7H893z"/>
<path class="st0" d="M181.8,285.4v-39.7h-39.7v39.7H181.8z"/>
<path class="st0" d="M127.8,285.4v-39.7H88.2v39.7H127.8z"/>
<path class="st0" d="M289.8,127.8V88.2h-39.7v39.7L289.8,127.8L289.8,127.8z"/>
<path class="st0" d="M289.8,235.8v-39.7h-39.7v39.7H289.8z"/>
<path class="st0" d="M343.8,143.4v-39.7h-39.7v39.7H343.8z"/>
<path class="st0" d="M623,150.5v-39.7h-39.7v39.7H623z"/>
<path class="st0" d="M235.8,305.4v-39.7h-39.7v39.7H235.8z"/>
<path class="st0" d="M785,359.4v-39.7h-39.7v39.7H785z"/>
<path class="st0" d="M623,258.5v-39.7h-39.7v39.7H623z"/>
<path class="st0" d="M397.8,258.5v-39.7h-39.7v39.7H397.8z"/>
<path class="st0" d="M785,251.4v-39.7h-39.7v39.7H785z"/>
<path class="st0" d="M623,312.5v-39.7h-39.7v39.7H623z"/>
<path class="st0" d="M785,197.4v-39.7h-39.7v39.7H785z"/>
<path class="st0" d="M518.5,363l36.8-14.9l14.9,36.8l-36.8,14.9L518.5,363z"/>
<path class="st0" d="M677,251.4v-39.7h-39.7v39.7H677z"/>
<path class="st0" d="M397.8,204.5v-39.7h-39.7v39.7H397.8z"/>
<path class="st0" d="M289.8,343.8v-39.7h-39.7v39.7H289.8z"/>
<path class="st0" d="M731,127.8V88.2h-39.7v39.7L731,127.8L731,127.8z"/>
<path class="st0" d="M343.8,305.4v-39.7h-39.7v39.7H343.8z"/>
<path class="st0" d="M289.8,181.8v-39.7h-39.7v39.7H289.8z"/>
<path class="st0" d="M235.8,251.4v-39.7h-39.7v39.7H235.8z"/>
<path class="st0" d="M677,143.4v-39.7h-39.7v39.7H677z"/>
<path class="st0" d="M677,359.4v-39.7h-39.7v39.7H677z"/>
<path class="st0" d="M181.8,231.4v-39.7h-39.7v39.7H181.8z"/>
<path class="st0" d="M289.8,289.8v-39.7h-39.7v39.7H289.8z"/>
<path class="st0" d="M839,285.4v-39.7h-39.7v39.7H839z"/>
<path class="st0" d="M623,204.5v-39.7h-39.7v39.7H623z"/>
<path class="st0" d="M235.8,197.4v-39.7h-39.7v39.7H235.8z"/>
<path class="st0" d="M677,197.4v-39.7h-39.7v39.7H677z"/>
<path class="st0" d="M677,305.4v-39.7h-39.7v39.7H677z"/>
<path class="st0" d="M785,143.4v-39.7h-39.7v39.7H785z"/>
<path class="st0" d="M343.8,197.4v-39.7h-39.7v39.7H343.8z"/>
<path class="st0" d="M127.8,177.4v-39.7H88.2v39.7H127.8z"/>
<path class="st0" d="M127.8,231.4v-39.7H88.2v39.7H127.8z"/>
<path class="st0" d="M181.8,177.4v-39.7h-39.7v39.7H181.8z"/>
</svg>
