<?xml version="1.0" standalone="no"?>
 <!DOCTYPE svg PUBLIC "-//W3C//DTD SVG 1.1//EN" 
 "http://www.w3.org/Graphics/SVG/1.1/DTD/svg11.dtd"> 
<svg
  xmlns:svg="http://www.w3.org/2000/svg"
  xmlns="http://www.w3.org/2000/svg"
  xmlns:xlink="http://www.w3.org/1999/xlink"
  version="1.1"
  width="41.998900cm" height="29.700220cm" viewBox="0 0 419989000 297002200">
<title>SVG Picture created as Junco-F_Courtyard.svg date 2022/12/03 21:25:10 </title>
  <desc>Picture generated by PCBNEW </desc>
<g style="fill:#000000; fill-opacity:1.000000;stroke:#000000; stroke-opacity:1.000000;
stroke-linecap:round; stroke-linejoin:round;"
 transform="translate(0 0) scale(1 1)">
</g>
<g style="fill:#000000; fill-opacity:0.0; 
stroke:#000000; stroke-width:0.000000; stroke-opacity:1; 
stroke-linecap:round; stroke-linejoin:round;">
</g>
<g style="fill:#000000; fill-opacity:0.0; 
stroke:#000000; stroke-width:120000.000000; stroke-opacity:1; 
stroke-linecap:round; stroke-linejoin:round;">
<path d="M31100000 105750000
L45100000 105750000
" />
<path d="M45100000 105750000
L45100000 119750000
" />
<path d="M45100000 119750000
L31100000 119750000
" />
<path d="M31100000 119750000
L31100000 105750000
" />
<path d="M31600000 122025000
L44600000 122025000
" />
<path d="M44600000 122025000
L44600000 105150000
" />
<path d="M44600000 105150000
L31600000 105150000
" />
<path d="M31600000 105150000
L31600000 122025000
" />
<path d="M301037200 105750000
L315037200 105750000
" />
<path d="M315037200 105750000
L315037200 119750000
" />
<path d="M315037200 119750000
L301037200 119750000
" />
<path d="M301037200 119750000
L301037200 105750000
" />
<path d="M301537200 122025000
L314537200 122025000
" />
<path d="M314537200 122025000
L314537200 105150000
" />
<path d="M314537200 105150000
L301537200 105150000
" />
<path d="M301537200 105150000
L301537200 122025000
" />
<path d="M151958600 111925000
L165758600 111925000
" />
<path d="M165758600 111925000
L165758600 95050000
" />
<path d="M165758600 95050000
L151958600 95050000
" />
<path d="M151958600 95050000
L151958600 111925000
" />
<path d="M180378600 111925000
L194178600 111925000
" />
<path d="M194178600 111925000
L194178600 95050000
" />
<path d="M194178600 95050000
L180378600 95050000
" />
<path d="M180378600 95050000
L180378600 111925000
" />
</g>
<g style="fill:#000000; fill-opacity:0.0; 
stroke:#000000; stroke-width:50000.000000; stroke-opacity:1; 
stroke-linecap:round; stroke-linejoin:round;">
<path d="M163312533 127958559
L150331959 122714067
" />
<path d="M158068041 140939133
L163312533 127958559
" />
<path d="M150331959 122714067
L145087467 135694641
" />
<path d="M145087467 135694641
L158068041 140939133
" />
<path d="M140350000 110250000
L140350000 96250000
" />
<path d="M140350000 96250000
L126350000 96250000
" />
<path d="M126350000 110250000
L140350000 110250000
" />
<path d="M126350000 96250000
L126350000 110250000
" />
<path d="M295987200 119750000
L295987200 105750000
" />
<path d="M295987200 105750000
L281987200 105750000
" />
<path d="M281987200 119750000
L295987200 119750000
" />
<path d="M281987200 105750000
L281987200 119750000
" />
<path d="M64150000 119750000
L64150000 105750000
" />
<path d="M64150000 105750000
L50150000 105750000
" />
<path d="M50150000 119750000
L64150000 119750000
" />
<path d="M50150000 105750000
L50150000 119750000
" />
<path d="M295987200 62600000
L295987200 48600000
" />
<path d="M295987200 48600000
L281987200 48600000
" />
<path d="M281987200 62600000
L295987200 62600000
" />
<path d="M281987200 48600000
L281987200 62600000
" />
<path d="M83200000 50600000
L83200000 36600000
" />
<path d="M83200000 36600000
L69200000 36600000
" />
<path d="M69200000 50600000
L83200000 50600000
" />
<path d="M69200000 36600000
L69200000 50600000
" />
<path d="M276937200 107750000
L276937200 93750000
" />
<path d="M276937200 93750000
L262937200 93750000
" />
<path d="M262937200 107750000
L276937200 107750000
" />
<path d="M262937200 93750000
L262937200 107750000
" />
<path d="M315037200 81650000
L315037200 67650000
" />
<path d="M315037200 67650000
L301037200 67650000
" />
<path d="M301037200 81650000
L315037200 81650000
" />
<path d="M301037200 67650000
L301037200 81650000
" />
<path d="M121300000 88700000
L121300000 74700000
" />
<path d="M121300000 74700000
L107300000 74700000
" />
<path d="M107300000 88700000
L121300000 88700000
" />
<path d="M107300000 74700000
L107300000 88700000
" />
<path d="M295987200 81650000
L295987200 67650000
" />
<path d="M295987200 67650000
L281987200 67650000
" />
<path d="M281987200 81650000
L295987200 81650000
" />
<path d="M281987200 67650000
L281987200 81650000
" />
<path d="M143462533 125822259
L130481959 120577767
" />
<path d="M138218041 138802833
L143462533 125822259
" />
<path d="M130481959 120577767
L125237467 133558341
" />
<path d="M125237467 133558341
L138218041 138802833
" />
<path d="M315037200 62600000
L315037200 48600000
" />
<path d="M315037200 48600000
L301037200 48600000
" />
<path d="M301037200 62600000
L315037200 62600000
" />
<path d="M301037200 48600000
L301037200 62600000
" />
<path d="M257887200 102250000
L257887200 88250000
" />
<path d="M257887200 88250000
L243887200 88250000
" />
<path d="M243887200 102250000
L257887200 102250000
" />
<path d="M243887200 88250000
L243887200 102250000
" />
<path d="M215749077 120673443
L202768503 125917935
" />
<path d="M220993569 133654017
L215749077 120673443
" />
<path d="M202768503 125917935
L208012995 138898509
" />
<path d="M208012995 138898509
L220993569 133654017
" />
<path d="M257887200 121300000
L257887200 107300000
" />
<path d="M257887200 107300000
L243887200 107300000
" />
<path d="M243887200 121300000
L257887200 121300000
" />
<path d="M243887200 107300000
L243887200 121300000
" />
<path d="M121300000 126800000
L121300000 112800000
" />
<path d="M121300000 112800000
L107300000 112800000
" />
<path d="M107300000 126800000
L121300000 126800000
" />
<path d="M107300000 112800000
L107300000 126800000
" />
<path d="M257887200 64150000
L257887200 50150000
" />
<path d="M257887200 50150000
L243887200 50150000
" />
<path d="M243887200 64150000
L257887200 64150000
" />
<path d="M243887200 50150000
L243887200 64150000
" />
<path d="M140350000 53100000
L140350000 39100000
" />
<path d="M140350000 39100000
L126350000 39100000
" />
<path d="M126350000 53100000
L140350000 53100000
" />
<path d="M126350000 39100000
L126350000 53100000
" />
<path d="M257887200 83200000
L257887200 69200000
" />
<path d="M257887200 69200000
L243887200 69200000
" />
<path d="M243887200 83200000
L257887200 83200000
" />
<path d="M243887200 69200000
L243887200 83200000
" />
<path d="M83200000 126800000
L83200000 112800000
" />
<path d="M83200000 112800000
L69200000 112800000
" />
<path d="M69200000 126800000
L83200000 126800000
" />
<path d="M69200000 112800000
L69200000 126800000
" />
<path d="M315037200 100700000
L315037200 86700000
" />
<path d="M315037200 86700000
L301037200 86700000
" />
<path d="M301037200 100700000
L315037200 100700000
" />
<path d="M301037200 86700000
L301037200 100700000
" />
<path d="M64150000 100700000
L64150000 86700000
" />
<path d="M64150000 86700000
L50150000 86700000
" />
<path d="M50150000 100700000
L64150000 100700000
" />
<path d="M50150000 86700000
L50150000 100700000
" />
<path d="M45100000 100700000
L45100000 86700000
" />
<path d="M45100000 86700000
L31100000 86700000
" />
<path d="M31100000 100700000
L45100000 100700000
" />
<path d="M31100000 86700000
L31100000 100700000
" />
<path d="M102250000 45100000
L102250000 31100000
" />
<path d="M102250000 31100000
L88250000 31100000
" />
<path d="M88250000 45100000
L102250000 45100000
" />
<path d="M88250000 31100000
L88250000 45100000
" />
<path d="M102250000 83200000
L102250000 69200000
" />
<path d="M102250000 69200000
L88250000 69200000
" />
<path d="M88250000 83200000
L102250000 83200000
" />
<path d="M88250000 69200000
L88250000 83200000
" />
<path d="M121300000 50600000
L121300000 36600000
" />
<path d="M121300000 36600000
L107300000 36600000
" />
<path d="M107300000 50600000
L121300000 50600000
" />
<path d="M107300000 36600000
L107300000 50600000
" />
<path d="M219787200 53100000
L219787200 39100000
" />
<path d="M219787200 39100000
L205787200 39100000
" />
<path d="M205787200 53100000
L219787200 53100000
" />
<path d="M205787200 39100000
L205787200 53100000
" />
<path d="M83200000 107750000
L83200000 93750000
" />
<path d="M83200000 93750000
L69200000 93750000
" />
<path d="M69200000 107750000
L83200000 107750000
" />
<path d="M69200000 93750000
L69200000 107750000
" />
<path d="M276937200 126800000
L276937200 112800000
" />
<path d="M276937200 112800000
L262937200 112800000
" />
<path d="M262937200 126800000
L276937200 126800000
" />
<path d="M262937200 112800000
L262937200 126800000
" />
<path d="M219787200 91200000
L219787200 77200000
" />
<path d="M219787200 77200000
L205787200 77200000
" />
<path d="M205787200 91200000
L219787200 91200000
" />
<path d="M205787200 77200000
L205787200 91200000
" />
<path d="M140350000 91200000
L140350000 77200000
" />
<path d="M140350000 77200000
L126350000 77200000
" />
<path d="M126350000 91200000
L140350000 91200000
" />
<path d="M126350000 77200000
L126350000 91200000
" />
<path d="M276937200 88700000
L276937200 74700000
" />
<path d="M276937200 74700000
L262937200 74700000
" />
<path d="M262937200 88700000
L276937200 88700000
" />
<path d="M262937200 74700000
L262937200 88700000
" />
<path d="M219787200 110250000
L219787200 96250000
" />
<path d="M219787200 96250000
L205787200 96250000
" />
<path d="M205787200 110250000
L219787200 110250000
" />
<path d="M205787200 96250000
L205787200 110250000
" />
<path d="M276937200 69650000
L276937200 55650000
" />
<path d="M276937200 55650000
L262937200 55650000
" />
<path d="M262937200 69650000
L276937200 69650000
" />
<path d="M262937200 55650000
L262937200 69650000
" />
<path d="M195899077 122809743
L182918503 128054235
" />
<path d="M201143569 135790317
L195899077 122809743
" />
<path d="M182918503 128054235
L188162995 141034809
" />
<path d="M188162995 141034809
L201143569 135790317
" />
<path d="M238837200 88700000
L238837200 74700000
" />
<path d="M238837200 74700000
L224837200 74700000
" />
<path d="M224837200 88700000
L238837200 88700000
" />
<path d="M224837200 74700000
L224837200 88700000
" />
<path d="M140350000 72150000
L140350000 58150000
" />
<path d="M140350000 58150000
L126350000 58150000
" />
<path d="M126350000 72150000
L140350000 72150000
" />
<path d="M126350000 58150000
L126350000 72150000
" />
<path d="M102250000 121300000
L102250000 107300000
" />
<path d="M102250000 107300000
L88250000 107300000
" />
<path d="M88250000 121300000
L102250000 121300000
" />
<path d="M88250000 107300000
L88250000 121300000
" />
<path d="M257887200 45100000
L257887200 31100000
" />
<path d="M257887200 31100000
L243887200 31100000
" />
<path d="M243887200 45100000
L257887200 45100000
" />
<path d="M243887200 31100000
L243887200 45100000
" />
<path d="M121300000 107750000
L121300000 93750000
" />
<path d="M121300000 93750000
L107300000 93750000
" />
<path d="M107300000 107750000
L121300000 107750000
" />
<path d="M107300000 93750000
L107300000 107750000
" />
<path d="M102250000 64150000
L102250000 50150000
" />
<path d="M102250000 50150000
L88250000 50150000
" />
<path d="M88250000 64150000
L102250000 64150000
" />
<path d="M88250000 50150000
L88250000 64150000
" />
<path d="M83200000 88700000
L83200000 74700000
" />
<path d="M83200000 74700000
L69200000 74700000
" />
<path d="M69200000 88700000
L83200000 88700000
" />
<path d="M69200000 74700000
L69200000 88700000
" />
<path d="M238837200 50600000
L238837200 36600000
" />
<path d="M238837200 36600000
L224837200 36600000
" />
<path d="M224837200 50600000
L238837200 50600000
" />
<path d="M224837200 36600000
L224837200 50600000
" />
<path d="M238837200 126800000
L238837200 112800000
" />
<path d="M238837200 112800000
L224837200 112800000
" />
<path d="M224837200 126800000
L238837200 126800000
" />
<path d="M224837200 112800000
L224837200 126800000
" />
<path d="M64150000 81650000
L64150000 67650000
" />
<path d="M64150000 67650000
L50150000 67650000
" />
<path d="M50150000 81650000
L64150000 81650000
" />
<path d="M50150000 67650000
L50150000 81650000
" />
<path d="M102250000 102250000
L102250000 88250000
" />
<path d="M102250000 88250000
L88250000 88250000
" />
<path d="M88250000 102250000
L102250000 102250000
" />
<path d="M88250000 88250000
L88250000 102250000
" />
<path d="M295987200 100700000
L295987200 86700000
" />
<path d="M295987200 86700000
L281987200 86700000
" />
<path d="M281987200 100700000
L295987200 100700000
" />
<path d="M281987200 86700000
L281987200 100700000
" />
<path d="M219787200 72150000
L219787200 58150000
" />
<path d="M219787200 58150000
L205787200 58150000
" />
<path d="M205787200 72150000
L219787200 72150000
" />
<path d="M205787200 58150000
L205787200 72150000
" />
<path d="M83200000 69650000
L83200000 55650000
" />
<path d="M83200000 55650000
L69200000 55650000
" />
<path d="M69200000 69650000
L83200000 69650000
" />
<path d="M69200000 55650000
L69200000 69650000
" />
<path d="M238837200 69650000
L238837200 55650000
" />
<path d="M238837200 55650000
L224837200 55650000
" />
<path d="M224837200 69650000
L238837200 69650000
" />
<path d="M224837200 55650000
L224837200 69650000
" />
<path d="M238837200 107750000
L238837200 93750000
" />
<path d="M238837200 93750000
L224837200 93750000
" />
<path d="M224837200 107750000
L238837200 107750000
" />
<path d="M224837200 93750000
L224837200 107750000
" />
<path d="M276937200 50600000
L276937200 36600000
" />
<path d="M276937200 36600000
L262937200 36600000
" />
<path d="M262937200 50600000
L276937200 50600000
" />
<path d="M262937200 36600000
L262937200 50600000
" />
<path d="M121300000 69650000
L121300000 55650000
" />
<path d="M121300000 55650000
L107300000 55650000
" />
<path d="M107300000 69650000
L121300000 69650000
" />
<path d="M107300000 55650000
L107300000 69650000
" />
<path d="M45100000 62600000
L45100000 48600000
" />
<path d="M45100000 48600000
L31100000 48600000
" />
<path d="M31100000 62600000
L45100000 62600000
" />
<path d="M31100000 48600000
L31100000 62600000
" />
<path d="M45100000 81650000
L45100000 67650000
" />
<path d="M45100000 67650000
L31100000 67650000
" />
<path d="M31100000 81650000
L45100000 81650000
" />
<path d="M31100000 67650000
L31100000 81650000
" />
<path d="M64150000 62600000
L64150000 48600000
" />
<path d="M64150000 48600000
L50150000 48600000
" />
<path d="M50150000 62600000
L64150000 62600000
" />
<path d="M50150000 48600000
L50150000 62600000
" />
<g >
</g>
<g >
</g>
<g >
</g>
<g >
</g>
<g >
</g>
<g >
</g>
<g >
</g>
<g >
</g>
<g >
</g>
<g >
</g>
<g >
</g>
<g >
</g>
<g >
</g>
<g >
</g>
<g >
</g>
<g >
</g>
<g >
</g>
<g >
</g>
<g >
</g>
<g >
</g>
<g >
</g>
<g >
</g>
<g >
</g>
<g >
</g>
<g >
</g>
<g >
</g>
<g >
</g>
<g >
</g>
<g >
</g>
<g >
</g>
<g >
</g>
<g >
</g>
<g >
</g>
<g >
</g>
<g >
</g>
<g >
</g>
<g >
</g>
<g >
</g>
<g >
</g>
<g >
</g>
<g >
</g>
<g >
</g>
<g >
</g>
<g >
</g>
<g >
</g>
<g >
</g>
<g >
</g>
<g >
</g>
<g >
</g>
<g >
</g>
<g >
</g>
<g >
</g>
<g >
</g>
<g >
</g>
<g >
</g>
<g >
</g>
<g >
</g>
<g >
</g>
<g >
</g>
<g >
</g>
<g >
</g>
<g >
</g>
<g >
</g>
<g >
</g>
<g >
</g>
<g >
</g>
<g >
</g>
<g >
</g>
<g >
</g>
<g >
</g>
<g >
</g>
<g >
</g>
<g >
</g>
<g >
</g>
<g >
</g>
<g >
</g>
<g >
</g>
<g >
</g>
<g >
</g>
<g >
</g>
<g >
</g>
<g >
</g>
<g >
</g>
<g >
</g>
<g >
</g>
<g >
</g>
<g >
</g>
<g >
</g>
<g >
</g>
<g >
</g>
<g >
</g>
<g >
</g>
<g >
</g>
<g >
</g>
<g >
</g>
<g >
</g>
<g >
</g>
<g >
</g>
<g >
</g>
<g >
</g>
<g >
</g>
<g >
</g>
<g >
</g>
<g >
</g>
<g >
</g>
<g >
</g>
<g >
</g>
<g >
</g>
<g >
</g>
<g >
</g>
<g >
</g>
<g >
</g>
<g >
</g>
<g >
</g>
<g >
</g>
<g >
</g>
<g >
</g>
<g >
</g>
<g >
</g>
<g >
</g>
<g >
</g>
<g >
</g>
<g >
</g>
<g >
</g>
<g >
</g>
<g >
</g>
<g >
</g>
<g >
</g>
<g >
</g>
<g >
</g>
<g >
</g>
<g >
</g>
<g >
</g>
<g >
</g>
<g >
</g>
<g >
</g>
<g >
</g>
<g >
</g>
<g >
</g>
<g >
</g>
<g >
</g>
<g >
</g>
<g >
</g>
<g >
</g>
<g >
</g>
<g >
</g>
<g >
</g>
<g >
</g>
<g >
</g>
<g >
</g>
<g >
</g>
<g >
</g>
<g >
</g>
<g >
</g>
<g >
</g>
<g >
</g>
<g >
</g>
<g >
</g>
<g >
</g>
<g >
</g>
<g >
</g>
<g >
</g>
<g >
</g>
<g >
</g>
<g >
</g>
<g >
</g>
<g >
</g>
<g >
</g>
<g >
</g>
<g >
</g>
<g >
</g>
<g >
</g>
<g >
</g>
<g >
</g>
<g >
</g>
<g >
</g>
<g >
</g>
<g >
</g>
<g >
</g>
<g >
</g>
<g >
</g>
<g >
</g>
<g >
</g>
<g >
</g>
<g >
</g>
<g >
</g>
<g >
</g>
<g >
</g>
<g >
</g>
<g >
</g>
<g >
</g>
<g >
</g>
<g >
</g>
<g >
</g>
<g >
</g>
<g >
</g>
<g >
</g>
<g >
</g>
<g >
</g>
<g >
</g>
<g >
</g>
<g >
</g>
<g >
</g>
<g >
</g>
<g >
</g>
<g >
</g>
<g >
</g>
<g >
</g>
</g> 
</svg>
