<?xml version="1.0" standalone="no"?>
 <!DOCTYPE svg PUBLIC "-//W3C//DTD SVG 1.1//EN" 
 "http://www.w3.org/Graphics/SVG/1.1/DTD/svg11.dtd"> 
<svg
  xmlns:svg="http://www.w3.org/2000/svg"
  xmlns="http://www.w3.org/2000/svg"
  xmlns:xlink="http://www.w3.org/1999/xlink"
  version="1.1"
  width="333.4258mm" height="147.7264mm" viewBox="0.0000 0.0000 333.4258 147.7264">
<title>SVG Image created as Junco-brd.svg date 2023/07/02 18:11:09 </title>
  <desc>Image generated by PCBNEW </desc>
<g style="fill:#000000; fill-opacity:1.0000;stroke:#000000; stroke-opacity:1.0000;
stroke-linecap:round; stroke-linejoin:round;"
 transform="translate(0 0) scale(1 1)">
</g>
<g style="fill:#000000; fill-opacity:0.0; 
stroke:#000000; stroke-width:0.0000; stroke-opacity:1; 
stroke-linecap:round; stroke-linejoin:round;">
</g>
<g style="fill:#000000; fill-opacity:0.0; 
stroke:#000000; stroke-width:0.1000; stroke-opacity:1; 
stroke-linecap:round; stroke-linejoin:round;">
<path d="M155.0086 105.7044
L155.0086 66.2316
" />
<path d="M76.3150 9.7937
L80.1250 9.7937
" />
<path d="M91.7064 124.3980
L101.2314 128.2080
" />
<path d="M5.8300 31.1037
L5.8300 107.3037
" />
<path d="M153.2586 23.5087 A1.9050 1.9050 0.0 0 0 151.3536 21.6037" />
<path d="M74.4100 9.7937 A129.6124 129.6124 0.0 0 0 9.6400 27.2937" />
<path d="M156.9136 21.6037 A1.9050 1.9050 0.0 0 0 155.0086 23.5087" />
<path d="M298.4758 111.0630 A3.8617 3.8617 0.0 0 0 302.4372 107.3037" />
<path d="M228.1422 9.7937 A110.7496 110.7496 0.0 0 0 181.6786 21.6037" />
<path d="M165.1358 133.5480
L155.7836 109.1513
" />
<path d="M228.1422 9.7937
L231.9522 9.7937
" />
<path d="M153.2586 62.9816
L155.0086 62.9816
" />
<path d="M9.7914 111.0630 A298.7703 298.7703 0.0 0 0 86.9439 122.4930" />
<path d="M152.4836 109.1513
L143.1314 133.5480
" />
<path d="M151.3536 21.6037
L126.5886 21.6037
" />
<path d="M155.0086 62.9816
L155.0086 23.5087
" />
<path d="M216.5608 124.3980
L221.3233 122.4930
" />
<path d="M302.4372 107.3037
L302.4372 31.1037
" />
<path d="M302.4372 31.1037 A3.8100 3.8100 0.0 0 0 298.6272 27.2937" />
<path d="M153.2586 66.2316
L153.2586 105.7044
" />
<path d="M298.6272 27.2937 A129.6124 129.6124 0.0 0 0 233.8572 9.7937" />
<path d="M178.7885 139.5270
L207.0358 128.2080
" />
<path d="M9.6400 27.2937 A3.8100 3.8100 0.0 0 0 5.8300 31.1037" />
<path d="M207.0358 128.2080
L216.5608 124.3980
" />
<path d="M165.1358 133.5480 A10.5392 10.5392 0.0 0 0 178.7885 139.5270" />
<path d="M221.3233 122.4930 A298.7703 298.7703 0.0 0 0 298.4758 111.0630" />
<path d="M181.6786 21.6037
L156.9136 21.6037
" />
<path d="M5.8300 107.3037 A3.8617 3.8617 0.0 0 0 9.7914 111.0630" />
<path d="M76.3150 9.7937
L74.4100 9.7937
" />
<path d="M155.0086 105.7044 A9.2561 9.2561 0.0 0 0 155.7836 109.1513" />
<path d="M155.0086 66.2316
L153.2586 66.2316
" />
<path d="M153.2586 62.9816
L153.2586 23.5087
" />
<path d="M126.5886 21.6037 A110.7496 110.7496 0.0 0 0 80.1250 9.7937" />
<path d="M233.8572 9.7937
L231.9522 9.7937
" />
<path d="M86.9439 122.4930
L91.7064 124.3980
" />
<path d="M152.4836 109.1513 A9.2561 9.2561 0.0 0 0 153.2586 105.7044" />
<path d="M101.2314 128.2080
L129.4787 139.5270
" />
<path d="M129.4787 139.5270 A10.5391 10.5391 0.0 0 0 143.1314 133.5480" />
<g >
</g>
<g >
</g>
<g >
</g>
<g >
</g>
<g >
</g>
<g >
</g>
<g >
</g>
<g >
</g>
<g >
</g>
<g >
</g>
<g >
</g>
<g >
</g>
<g >
</g>
<g >
</g>
<g >
</g>
<g >
</g>
<g >
</g>
<g >
</g>
<g >
</g>
<g >
</g>
<g >
</g>
<g >
</g>
<g >
</g>
<g >
</g>
<g >
</g>
<g >
</g>
<g >
</g>
<g >
</g>
<g >
</g>
<g >
</g>
<g >
</g>
<g >
</g>
<g >
</g>
<g >
</g>
<g >
</g>
<g >
</g>
<g >
</g>
<g >
</g>
<g >
</g>
<g >
</g>
<g >
</g>
<g >
</g>
<g >
</g>
<g >
</g>
<g >
</g>
<g >
</g>
<g >
</g>
<g >
</g>
<g >
</g>
<g >
</g>
<g >
</g>
<g >
</g>
<g >
</g>
<g >
</g>
<g >
</g>
<g >
</g>
<g >
</g>
<g >
</g>
<g >
</g>
<g >
</g>
<g >
</g>
<g >
</g>
<g >
</g>
<g >
</g>
<g >
</g>
<g >
</g>
<g >
</g>
<g >
</g>
<g >
</g>
<g >
</g>
<g >
</g>
<g >
</g>
<g >
</g>
<g >
</g>
<g >
</g>
<g >
</g>
<g >
</g>
<g >
</g>
<g >
</g>
<g >
</g>
<g >
</g>
<g >
</g>
<g >
</g>
<g >
</g>
<g >
</g>
<g >
</g>
<g >
</g>
<g >
</g>
<g >
</g>
<g >
</g>
<g >
</g>
<g >
</g>
<g >
</g>
<g >
</g>
<g >
</g>
<g >
</g>
<g >
</g>
<g >
</g>
<g >
</g>
<g >
</g>
<g >
</g>
<g >
</g>
<g >
</g>
<g >
</g>
<g >
</g>
<g >
</g>
<g >
</g>
<g >
</g>
<g >
</g>
<g >
</g>
<g >
</g>
<g >
</g>
<g >
</g>
<g >
</g>
<g >
</g>
<g >
</g>
<g >
</g>
<g >
</g>
<g >
</g>
<g >
</g>
<g >
</g>
<g >
</g>
<g >
</g>
<g >
</g>
<g >
</g>
<g >
</g>
<g >
</g>
<g >
</g>
<g >
</g>
<g >
</g>
<g >
</g>
<g >
</g>
<g >
</g>
<g >
</g>
<g >
</g>
<g >
</g>
<g >
</g>
<g >
</g>
<g >
</g>
<g >
</g>
<g >
</g>
<g >
</g>
<g >
</g>
<g >
</g>
<g >
</g>
<g >
</g>
<g >
</g>
<g >
</g>
<g >
</g>
<g >
</g>
<g >
</g>
<g >
</g>
<g >
</g>
<g >
</g>
<g >
</g>
<g >
</g>
<g >
</g>
<g >
</g>
<g >
</g>
<g >
</g>
<g >
</g>
<g >
</g>
<g >
</g>
<g >
</g>
<g >
</g>
<g >
</g>
<g >
</g>
<g >
</g>
<g >
</g>
<g >
</g>
<g >
</g>
<g >
</g>
<g >
</g>
<g >
</g>
<g >
</g>
<g >
</g>
<g >
</g>
<g >
</g>
<g >
</g>
<g >
</g>
<g >
</g>
<g >
</g>
<g >
</g>
<g >
</g>
<g >
</g>
<g >
</g>
<g >
</g>
<g >
</g>
<g >
</g>
<g >
</g>
<g >
</g>
<g >
</g>
<g >
</g>
<g >
</g>
<g >
</g>
<g >
</g>
<g >
</g>
<g >
</g>
<g >
</g>
<g >
</g>
<g >
</g>
<g >
</g>
<g >
</g>
<g >
</g>
<g >
</g>
<g >
</g>
<g >
</g>
<g >
</g>
<g >
</g>
<g >
</g>
<g >
</g>
<g >
</g>
<g >
</g>
</g> 
</svg>
