G04 #@! TF.GenerationSoftware,KiCad,Pcbnew,7.0.5-0*
G04 #@! TF.CreationDate,2023-09-04T12:44:45-07:00*
G04 #@! TF.ProjectId,Junco,4a756e63-6f2e-46b6-9963-61645f706362,rev?*
G04 #@! TF.SameCoordinates,Original*
G04 #@! TF.FileFunction,Legend,Top*
G04 #@! TF.FilePolarity,Positive*
%FSLAX46Y46*%
G04 Gerber Fmt 4.6, Leading zero omitted, Abs format (unit mm)*
G04 Created by KiCad (PCBNEW 7.0.5-0) date 2023-09-04 12:44:45*
%MOMM*%
%LPD*%
G01*
G04 APERTURE LIST*
G04 Aperture macros list*
%AMRoundRect*
0 Rectangle with rounded corners*
0 $1 Rounding radius*
0 $2 $3 $4 $5 $6 $7 $8 $9 X,Y pos of 4 corners*
0 Add a 4 corners polygon primitive as box body*
4,1,4,$2,$3,$4,$5,$6,$7,$8,$9,$2,$3,0*
0 Add four circle primitives for the rounded corners*
1,1,$1+$1,$2,$3*
1,1,$1+$1,$4,$5*
1,1,$1+$1,$6,$7*
1,1,$1+$1,$8,$9*
0 Add four rect primitives between the rounded corners*
20,1,$1+$1,$2,$3,$4,$5,0*
20,1,$1+$1,$4,$5,$6,$7,0*
20,1,$1+$1,$6,$7,$8,$9,0*
20,1,$1+$1,$8,$9,$2,$3,0*%
%AMHorizOval*
0 Thick line with rounded ends*
0 $1 width*
0 $2 $3 position (X,Y) of the first rounded end (center of the circle)*
0 $4 $5 position (X,Y) of the second rounded end (center of the circle)*
0 Add line between two ends*
20,1,$1,$2,$3,$4,$5,0*
0 Add two circle primitives to create the rounded ends*
1,1,$1,$2,$3*
1,1,$1,$4,$5*%
%AMRotRect*
0 Rectangle, with rotation*
0 The origin of the aperture is its center*
0 $1 length*
0 $2 width*
0 $3 Rotation angle, in degrees counterclockwise*
0 Add horizontal line*
21,1,$1,$2,0,0,$3*%
%AMFreePoly0*
4,1,21,-1.000000,0.000000,-0.988920,0.140791,-0.940222,0.322531,-0.854804,0.490175,-0.736396,0.636396,-0.590175,0.754804,-0.422531,0.840222,-0.240791,0.888920,-0.100000,0.900000,1.000000,0.900000,1.000000,-0.900000,-0.100000,-0.900000,-0.240791,-0.888920,-0.422531,-0.840222,-0.590175,-0.754804,-0.736396,-0.636396,-0.854804,-0.490175,-0.940222,-0.322531,-0.988920,-0.140791,-1.000000,0.000000,
-1.000000,0.000000,-1.000000,0.000000,$1*%
%AMFreePoly1*
4,1,20,-1.000000,0.900000,0.100000,0.900000,0.240791,0.888920,0.422531,0.840222,0.590175,0.754804,0.736396,0.636396,0.854804,0.490175,0.940222,0.322531,0.988920,0.140791,1.000000,0.000000,0.988920,-0.140791,0.940222,-0.322531,0.854804,-0.490175,0.736396,-0.636396,0.590175,-0.754804,0.422531,-0.840222,0.240791,-0.888920,0.100000,-0.900000,-1.000000,-0.900000,-1.000000,0.900000,
-1.000000,0.900000,$1*%
G04 Aperture macros list end*
%ADD10C,0.200000*%
%ADD11C,0.300000*%
%ADD12C,0.150000*%
%ADD13C,0.120000*%
%ADD14R,1.400000X1.400000*%
%ADD15C,1.400000*%
%ADD16RotRect,1.400000X1.400000X158.000000*%
%ADD17RotRect,1.400000X1.400000X22.000000*%
%ADD18O,0.300000X3.200000*%
%ADD19O,1.000000X3.200000*%
%ADD20O,3.600000X0.300000*%
%ADD21O,3.600000X3.200000*%
%ADD22R,1.400000X0.820000*%
%ADD23RoundRect,0.205000X-0.495000X-0.205000X0.495000X-0.205000X0.495000X0.205000X-0.495000X0.205000X0*%
%ADD24FreePoly0,180.000000*%
%ADD25FreePoly1,180.000000*%
%ADD26C,0.500000*%
%ADD27FreePoly0,0.000000*%
%ADD28FreePoly1,0.000000*%
%ADD29C,1.750000*%
%ADD30C,3.987800*%
%ADD31C,3.300000*%
%ADD32O,1.700000X1.700000*%
%ADD33R,1.700000X1.700000*%
%ADD34O,1.500000X2.800000*%
%ADD35C,3.000000*%
%ADD36C,4.000000*%
%ADD37R,2.000000X2.000000*%
%ADD38C,2.000000*%
%ADD39HorizOval,0.300000X1.344417X0.543180X-1.344417X-0.543180X0*%
%ADD40HorizOval,1.000000X1.019902X0.412067X-1.019902X-0.412067X0*%
%ADD41HorizOval,0.300000X-0.618101X1.529853X0.618101X-1.529853X0*%
%ADD42HorizOval,3.200000X-0.074921X0.185437X0.074921X-0.185437X0*%
%ADD43C,0.800000*%
%ADD44O,2.000000X1.600000*%
%ADD45HorizOval,0.300000X-1.344417X0.543180X1.344417X-0.543180X0*%
%ADD46HorizOval,1.000000X-1.019902X0.412067X1.019902X-0.412067X0*%
%ADD47HorizOval,0.300000X-0.618101X-1.529853X0.618101X1.529853X0*%
%ADD48HorizOval,3.200000X-0.074921X-0.185437X0.074921X0.185437X0*%
%ADD49R,2.000000X3.200000*%
G04 APERTURE END LIST*
D10*
X87415961Y-128380026D02*
X87427450Y-128380122D01*
X87427378Y-128380109D01*
X87516002Y-128383272D01*
X87604457Y-128390669D01*
X87692562Y-128402212D01*
X87780142Y-128417814D01*
X87867018Y-128437388D01*
X87953011Y-128460847D01*
X88037945Y-128488105D01*
X88121642Y-128519074D01*
X88203923Y-128553668D01*
X88284610Y-128591798D01*
X88363527Y-128633379D01*
X88440494Y-128678324D01*
X88515335Y-128726544D01*
X88587871Y-128777954D01*
X88657924Y-128832467D01*
X88725317Y-128889995D01*
X88767108Y-128922198D01*
X88809538Y-128953491D01*
X88896026Y-129013752D01*
X88984204Y-129071598D01*
X89073489Y-129127846D01*
X89253067Y-129238826D01*
X89342199Y-129295195D01*
X89430121Y-129353242D01*
X89454704Y-129349883D01*
X89479216Y-129346982D01*
X89503657Y-129344535D01*
X89528026Y-129342535D01*
X89552322Y-129340977D01*
X89576545Y-129339855D01*
X89600695Y-129339164D01*
X89624772Y-129338898D01*
X89682650Y-129339977D01*
X89740090Y-129343428D01*
X89853630Y-129357134D01*
X89965343Y-129379388D01*
X90075182Y-129409563D01*
X90183100Y-129447030D01*
X90289048Y-129491161D01*
X90392980Y-129541329D01*
X90494848Y-129596905D01*
X90594604Y-129657260D01*
X90692200Y-129721768D01*
X90787590Y-129789800D01*
X90880725Y-129860728D01*
X90971558Y-129933923D01*
X91060041Y-130008759D01*
X91229768Y-130160838D01*
X91342962Y-130270486D01*
X91453559Y-130382468D01*
X91561753Y-130496601D01*
X91667742Y-130612698D01*
X91873888Y-130850051D01*
X92073566Y-131093051D01*
X92268346Y-131340222D01*
X92459797Y-131590089D01*
X92838993Y-132092002D01*
X93361264Y-132425466D01*
X93622072Y-132594188D01*
X93881197Y-132765686D01*
X94137540Y-132941046D01*
X94390001Y-133121356D01*
X94637481Y-133307702D01*
X94878882Y-133501172D01*
X94551507Y-133703316D01*
X94508960Y-133725352D01*
X94465808Y-133744997D01*
X94421977Y-133761750D01*
X94399783Y-133768884D01*
X94377393Y-133775108D01*
X94354795Y-133780357D01*
X94331982Y-133784569D01*
X94308944Y-133787682D01*
X94285671Y-133789632D01*
X94262156Y-133790358D01*
X94238388Y-133789795D01*
X94214358Y-133787882D01*
X94190057Y-133784556D01*
X93958784Y-133609389D01*
X93730200Y-133430428D01*
X93278008Y-133065637D01*
X92827288Y-132699201D01*
X92600544Y-132518185D01*
X92371846Y-132340138D01*
X92566921Y-132555292D01*
X92766273Y-132767381D01*
X92968639Y-132977219D01*
X93172758Y-133185620D01*
X93581211Y-133601363D01*
X93783022Y-133810331D01*
X93981542Y-134021115D01*
X93972152Y-134052631D01*
X93961568Y-134084654D01*
X93949728Y-134116893D01*
X93936573Y-134149059D01*
X93922041Y-134180861D01*
X93906073Y-134212010D01*
X93888609Y-134242215D01*
X93869588Y-134271186D01*
X93848949Y-134298633D01*
X93826632Y-134324267D01*
X93802577Y-134347797D01*
X93789879Y-134358682D01*
X93776724Y-134368933D01*
X93763104Y-134378512D01*
X93749012Y-134387385D01*
X93734440Y-134395513D01*
X93719381Y-134402862D01*
X93703827Y-134409395D01*
X93687770Y-134415076D01*
X93671204Y-134419868D01*
X93654120Y-134423735D01*
X93635394Y-134420405D01*
X93617326Y-134416030D01*
X93599887Y-134410659D01*
X93583049Y-134404339D01*
X93566784Y-134397119D01*
X93551064Y-134389050D01*
X93535860Y-134380178D01*
X93521144Y-134370553D01*
X93506888Y-134360223D01*
X93493063Y-134349238D01*
X93479642Y-134337646D01*
X93466596Y-134325495D01*
X93441517Y-134299713D01*
X93417600Y-134272282D01*
X93394620Y-134243592D01*
X93372350Y-134214032D01*
X93329037Y-134153861D01*
X93285858Y-134094887D01*
X93263753Y-134066823D01*
X93241003Y-134040228D01*
X93075478Y-133851377D01*
X92906027Y-133666135D01*
X92733202Y-133484029D01*
X92557556Y-133304585D01*
X92379641Y-133127330D01*
X92200009Y-132951789D01*
X91837803Y-132603956D01*
X91782681Y-132665423D01*
X91725341Y-132724965D01*
X91665859Y-132782460D01*
X91604309Y-132837790D01*
X91540767Y-132890836D01*
X91475306Y-132941477D01*
X91408001Y-132989595D01*
X91338927Y-133035069D01*
X91268159Y-133077780D01*
X91195770Y-133117608D01*
X91121837Y-133154435D01*
X91046433Y-133188139D01*
X90969632Y-133218603D01*
X90891511Y-133245705D01*
X90812142Y-133269328D01*
X90731602Y-133289350D01*
X90712370Y-133292439D01*
X90693376Y-133296262D01*
X90674602Y-133300759D01*
X90656030Y-133305872D01*
X90637640Y-133311541D01*
X90619414Y-133317706D01*
X90601334Y-133324310D01*
X90583380Y-133331292D01*
X90547780Y-133346155D01*
X90512464Y-133361823D01*
X90442091Y-133393677D01*
X90492374Y-133880666D01*
X90538749Y-134368052D01*
X90557213Y-134611999D01*
X90570790Y-134856172D01*
X90578176Y-135100613D01*
X90578069Y-135345364D01*
X90609745Y-135339994D01*
X90640735Y-135332724D01*
X90671117Y-135323770D01*
X90700972Y-135313352D01*
X90730379Y-135301688D01*
X90759418Y-135288995D01*
X90788169Y-135275491D01*
X90816711Y-135261394D01*
X90930394Y-135203444D01*
X90959092Y-135189655D01*
X90988060Y-135176582D01*
X91017379Y-135164442D01*
X91047128Y-135153454D01*
X91055569Y-135149737D01*
X91063867Y-135147072D01*
X91072000Y-135145405D01*
X91079944Y-135144686D01*
X91087674Y-135144864D01*
X91095168Y-135145886D01*
X91102401Y-135147701D01*
X91109350Y-135150257D01*
X91115991Y-135153503D01*
X91122301Y-135157388D01*
X91128256Y-135161859D01*
X91133832Y-135166865D01*
X91139006Y-135172355D01*
X91143754Y-135178277D01*
X91148052Y-135184579D01*
X91151876Y-135191210D01*
X91155204Y-135198118D01*
X91158010Y-135205251D01*
X91160273Y-135212559D01*
X91161967Y-135219989D01*
X91163070Y-135227491D01*
X91163557Y-135235011D01*
X91163405Y-135242499D01*
X91162590Y-135249904D01*
X91161089Y-135257173D01*
X91158878Y-135264255D01*
X91155933Y-135271098D01*
X91152231Y-135277652D01*
X91147748Y-135283863D01*
X91142460Y-135289682D01*
X91136344Y-135295055D01*
X91129375Y-135299932D01*
X91076765Y-135329588D01*
X91023320Y-135357933D01*
X90969120Y-135384979D01*
X90914240Y-135410736D01*
X90858758Y-135435217D01*
X90802751Y-135458430D01*
X90746296Y-135480388D01*
X90689470Y-135501101D01*
X90650011Y-135532918D01*
X90611935Y-135566404D01*
X90575317Y-135601491D01*
X90540231Y-135638111D01*
X90506753Y-135676197D01*
X90474959Y-135715682D01*
X90444924Y-135756496D01*
X90416723Y-135798574D01*
X90390431Y-135841846D01*
X90366124Y-135886247D01*
X90343876Y-135931706D01*
X90323764Y-135978159D01*
X90305862Y-136025535D01*
X90290245Y-136073769D01*
X90276990Y-136122791D01*
X90266171Y-136172536D01*
X90263350Y-136179734D01*
X90260021Y-136186383D01*
X90256220Y-136192486D01*
X90251984Y-136198051D01*
X90247348Y-136203084D01*
X90242347Y-136207590D01*
X90237019Y-136211575D01*
X90231397Y-136215045D01*
X90225520Y-136218006D01*
X90219422Y-136220464D01*
X90213138Y-136222425D01*
X90206706Y-136223894D01*
X90200161Y-136224879D01*
X90193538Y-136225383D01*
X90186874Y-136225415D01*
X90180205Y-136224978D01*
X90173565Y-136224080D01*
X90166992Y-136222726D01*
X90160521Y-136220922D01*
X90154188Y-136218674D01*
X90148028Y-136215988D01*
X90142078Y-136212870D01*
X90136373Y-136209326D01*
X90130950Y-136205361D01*
X90125843Y-136200982D01*
X90121090Y-136196194D01*
X90116726Y-136191004D01*
X90112786Y-136185416D01*
X90109306Y-136179438D01*
X90106323Y-136173076D01*
X90103873Y-136166334D01*
X90101990Y-136159219D01*
X90104163Y-136131569D01*
X90107778Y-136104238D01*
X90112708Y-136077205D01*
X90118828Y-136050447D01*
X90126012Y-136023942D01*
X90134133Y-135997669D01*
X90143066Y-135971605D01*
X90152685Y-135945728D01*
X90173478Y-135894448D01*
X90195502Y-135843653D01*
X90217750Y-135793167D01*
X90239216Y-135742812D01*
X90223745Y-135747482D01*
X90208683Y-135753542D01*
X90193999Y-135760872D01*
X90179663Y-135769356D01*
X90165645Y-135778875D01*
X90151912Y-135789310D01*
X90125186Y-135812460D01*
X90099238Y-135837862D01*
X90073825Y-135864569D01*
X90023622Y-135918124D01*
X89998343Y-135943083D01*
X89972619Y-135965570D01*
X89959514Y-135975591D01*
X89946205Y-135984640D01*
X89932663Y-135992599D01*
X89918857Y-135999349D01*
X89904756Y-136004773D01*
X89890329Y-136008752D01*
X89875547Y-136011169D01*
X89860377Y-136011905D01*
X89844791Y-136010842D01*
X89828756Y-136007862D01*
X89812244Y-136002847D01*
X89795222Y-135995680D01*
X89793719Y-135977548D01*
X89793829Y-135960000D01*
X89795469Y-135943009D01*
X89798560Y-135926548D01*
X89803020Y-135910590D01*
X89808768Y-135895109D01*
X89815724Y-135880076D01*
X89823807Y-135865467D01*
X89832936Y-135851253D01*
X89843030Y-135837409D01*
X89854009Y-135823907D01*
X89865791Y-135810720D01*
X89878295Y-135797821D01*
X89891442Y-135785185D01*
X89919336Y-135760590D01*
X89948829Y-135736720D01*
X89979271Y-135713360D01*
X90040421Y-135667315D01*
X90069835Y-135644200D01*
X90097613Y-135620737D01*
X90123108Y-135596712D01*
X90134797Y-135584422D01*
X90145673Y-135571911D01*
X90127923Y-135577456D01*
X90108447Y-135582752D01*
X90087679Y-135587536D01*
X90066053Y-135591545D01*
X90044001Y-135594517D01*
X90021958Y-135596186D01*
X90000358Y-135596291D01*
X89979632Y-135594568D01*
X89969733Y-135592939D01*
X89960216Y-135590755D01*
X89951134Y-135587981D01*
X89942542Y-135584586D01*
X89934494Y-135580537D01*
X89927044Y-135575801D01*
X89920246Y-135570344D01*
X89914155Y-135564134D01*
X89908825Y-135557139D01*
X89904309Y-135549324D01*
X89900663Y-135540658D01*
X89897940Y-135531107D01*
X89896195Y-135520638D01*
X89895481Y-135509219D01*
X89895853Y-135496816D01*
X89897365Y-135483397D01*
X89909132Y-135470820D01*
X89921579Y-135459505D01*
X89934667Y-135449385D01*
X89948353Y-135440388D01*
X89962597Y-135432446D01*
X89977358Y-135425486D01*
X89992594Y-135419441D01*
X90008265Y-135414240D01*
X90024328Y-135409812D01*
X90040744Y-135406088D01*
X90074466Y-135400471D01*
X90109102Y-135396830D01*
X90144323Y-135394605D01*
X90215200Y-135392160D01*
X90250198Y-135390821D01*
X90284464Y-135388658D01*
X90317667Y-135385111D01*
X90349479Y-135379620D01*
X90364760Y-135375970D01*
X90379570Y-135371625D01*
X90393868Y-135366513D01*
X90407612Y-135360566D01*
X90402508Y-135122348D01*
X90391603Y-134884249D01*
X90376043Y-134646257D01*
X90356973Y-134408358D01*
X90268501Y-133457443D01*
X90166747Y-133481690D01*
X90064335Y-133503199D01*
X89961338Y-133521432D01*
X89857833Y-133535854D01*
X89805913Y-133541469D01*
X89753894Y-133545929D01*
X89701786Y-133549169D01*
X89649598Y-133551121D01*
X89597339Y-133551718D01*
X89545019Y-133550892D01*
X89492647Y-133548578D01*
X89440232Y-133544708D01*
X89401499Y-133656452D01*
X89359601Y-133766935D01*
X89315485Y-133876540D01*
X89270098Y-133985651D01*
X89179303Y-134203927D01*
X89135789Y-134313859D01*
X89094794Y-134424832D01*
X89046754Y-134513739D01*
X88999691Y-134603683D01*
X88955022Y-134694923D01*
X88934028Y-134741110D01*
X88914164Y-134787718D01*
X88895607Y-134834780D01*
X88878534Y-134882327D01*
X88863123Y-134930393D01*
X88849551Y-134979009D01*
X88837994Y-135028208D01*
X88828630Y-135078023D01*
X88821636Y-135128484D01*
X88817190Y-135179626D01*
X88874546Y-135175134D01*
X88931749Y-135168857D01*
X89045955Y-135153976D01*
X89103091Y-135146884D01*
X89160337Y-135141033D01*
X89217760Y-135137179D01*
X89246558Y-135136238D01*
X89275425Y-135136079D01*
X89282189Y-135137135D01*
X89288613Y-135138780D01*
X89294694Y-135140982D01*
X89300426Y-135143706D01*
X89305806Y-135146917D01*
X89310829Y-135150582D01*
X89315490Y-135154667D01*
X89319786Y-135159138D01*
X89323712Y-135163960D01*
X89327262Y-135169100D01*
X89330434Y-135174523D01*
X89333223Y-135180195D01*
X89335624Y-135186083D01*
X89337633Y-135192152D01*
X89339245Y-135198368D01*
X89340456Y-135204697D01*
X89341262Y-135211105D01*
X89341659Y-135217558D01*
X89341641Y-135224021D01*
X89341205Y-135230462D01*
X89340346Y-135236844D01*
X89339060Y-135243136D01*
X89337343Y-135249302D01*
X89335189Y-135255308D01*
X89332595Y-135261121D01*
X89329556Y-135266706D01*
X89326068Y-135272029D01*
X89322127Y-135277056D01*
X89317728Y-135281753D01*
X89312866Y-135286086D01*
X89307538Y-135290021D01*
X89301738Y-135293524D01*
X88743413Y-135372785D01*
X88732827Y-135396621D01*
X88721663Y-135420227D01*
X88698133Y-135466958D01*
X88650016Y-135559956D01*
X88638547Y-135583415D01*
X88627570Y-135607061D01*
X88617218Y-135630948D01*
X88607626Y-135655128D01*
X88598927Y-135679653D01*
X88591256Y-135704575D01*
X88584745Y-135729948D01*
X88579529Y-135755822D01*
X88576630Y-135762395D01*
X88573243Y-135768457D01*
X88569405Y-135774015D01*
X88565151Y-135779071D01*
X88560517Y-135783631D01*
X88555538Y-135787700D01*
X88550250Y-135791282D01*
X88544689Y-135794382D01*
X88538892Y-135797005D01*
X88532892Y-135799156D01*
X88526727Y-135800838D01*
X88520432Y-135802057D01*
X88514042Y-135802818D01*
X88507594Y-135803125D01*
X88501124Y-135802983D01*
X88494666Y-135802396D01*
X88488256Y-135801370D01*
X88481931Y-135799909D01*
X88475727Y-135798017D01*
X88469678Y-135795700D01*
X88463820Y-135792962D01*
X88458190Y-135789808D01*
X88452824Y-135786242D01*
X88447755Y-135782270D01*
X88443022Y-135777895D01*
X88438659Y-135773123D01*
X88434701Y-135767958D01*
X88431186Y-135762405D01*
X88428148Y-135756469D01*
X88425623Y-135750155D01*
X88423648Y-135743466D01*
X88422257Y-135736408D01*
X88421978Y-135724106D01*
X88422183Y-135711927D01*
X88423959Y-135687922D01*
X88427406Y-135664349D01*
X88432349Y-135641168D01*
X88438608Y-135618336D01*
X88446008Y-135595810D01*
X88454370Y-135573548D01*
X88463517Y-135551509D01*
X88483457Y-135507928D01*
X88504408Y-135464728D01*
X88524952Y-135421573D01*
X88534628Y-135399906D01*
X88543670Y-135378124D01*
X88469713Y-135419798D01*
X88396332Y-135463157D01*
X88324191Y-135508726D01*
X88288794Y-135532504D01*
X88253956Y-135557031D01*
X88219760Y-135582374D01*
X88186290Y-135608597D01*
X88153629Y-135635766D01*
X88121860Y-135663948D01*
X88091066Y-135693207D01*
X88061330Y-135723609D01*
X88032735Y-135755221D01*
X88005365Y-135788107D01*
X87982993Y-135787042D01*
X87963412Y-135784463D01*
X87946506Y-135780461D01*
X87932157Y-135775126D01*
X87920248Y-135768550D01*
X87915172Y-135764825D01*
X87910663Y-135760824D01*
X87906704Y-135756558D01*
X87903283Y-135752038D01*
X87897992Y-135742284D01*
X87894672Y-135731651D01*
X87893206Y-135720232D01*
X87893477Y-135708116D01*
X87895368Y-135695395D01*
X87898761Y-135682159D01*
X87903539Y-135668500D01*
X87909586Y-135654508D01*
X87916783Y-135640274D01*
X87925014Y-135625889D01*
X87934161Y-135611444D01*
X87944108Y-135597030D01*
X87954736Y-135582737D01*
X87977570Y-135554879D01*
X88001725Y-135528598D01*
X88026263Y-135504620D01*
X88050247Y-135483672D01*
X88072739Y-135466482D01*
X88083133Y-135459523D01*
X88092801Y-135453775D01*
X88083100Y-135450084D01*
X88073157Y-135447253D01*
X88062989Y-135445217D01*
X88052613Y-135443914D01*
X88042044Y-135443280D01*
X88031299Y-135443252D01*
X88009343Y-135444761D01*
X87986873Y-135447934D01*
X87964019Y-135452265D01*
X87917674Y-135462375D01*
X87894439Y-135467140D01*
X87871335Y-135471037D01*
X87848491Y-135473560D01*
X87837206Y-135474148D01*
X87826034Y-135474202D01*
X87814991Y-135473659D01*
X87804094Y-135472456D01*
X87793358Y-135470529D01*
X87782800Y-135467816D01*
X87772435Y-135464252D01*
X87762280Y-135459775D01*
X87752351Y-135454322D01*
X87742663Y-135447828D01*
X87737677Y-135442415D01*
X87733282Y-135436854D01*
X87729465Y-135431161D01*
X87726211Y-135425355D01*
X87723504Y-135419455D01*
X87721331Y-135413480D01*
X87719676Y-135407447D01*
X87718525Y-135401375D01*
X87717863Y-135395283D01*
X87717675Y-135389189D01*
X87717947Y-135383111D01*
X87718663Y-135377068D01*
X87719810Y-135371079D01*
X87721373Y-135365161D01*
X87723336Y-135359334D01*
X87725685Y-135353615D01*
X87728405Y-135348024D01*
X87731482Y-135342578D01*
X87734901Y-135337296D01*
X87738647Y-135332197D01*
X87742705Y-135327298D01*
X87747062Y-135322619D01*
X87751701Y-135318178D01*
X87756608Y-135313992D01*
X87761769Y-135310082D01*
X87767169Y-135306465D01*
X87772793Y-135303159D01*
X87778627Y-135300183D01*
X87784655Y-135297556D01*
X87790863Y-135295296D01*
X87797237Y-135293421D01*
X87803761Y-135291950D01*
X87906506Y-135276604D01*
X88009545Y-135263561D01*
X88112808Y-135252258D01*
X88216223Y-135242134D01*
X88423223Y-135223175D01*
X88629977Y-135202188D01*
X88648383Y-135092200D01*
X88673211Y-134984244D01*
X88703643Y-134878052D01*
X88738859Y-134773357D01*
X88778042Y-134669894D01*
X88820373Y-134567394D01*
X88911204Y-134364220D01*
X89004803Y-134161700D01*
X89094623Y-133957700D01*
X89136069Y-133854478D01*
X89174114Y-133750085D01*
X89207939Y-133644255D01*
X89236727Y-133536721D01*
X89060374Y-133513866D01*
X88885224Y-133479777D01*
X88712089Y-133434708D01*
X88541779Y-133378909D01*
X88375105Y-133312632D01*
X88212878Y-133236131D01*
X88055908Y-133149656D01*
X87905007Y-133053459D01*
X87760984Y-132947793D01*
X87624651Y-132832910D01*
X87496819Y-132709061D01*
X87378299Y-132576499D01*
X87269900Y-132435475D01*
X87172434Y-132286241D01*
X87086712Y-132129050D01*
X87013544Y-131964153D01*
X87002207Y-131925408D01*
X86988577Y-131887675D01*
X86973001Y-131850803D01*
X86955827Y-131814640D01*
X86937402Y-131779034D01*
X86918072Y-131743834D01*
X86878091Y-131674044D01*
X86838660Y-131604055D01*
X86820020Y-131568608D01*
X86802558Y-131532655D01*
X86786623Y-131496046D01*
X86772562Y-131458628D01*
X86760722Y-131420251D01*
X86751450Y-131380762D01*
X86737636Y-131321193D01*
X86727382Y-131261324D01*
X86720505Y-131201232D01*
X86716819Y-131140992D01*
X86716141Y-131080678D01*
X86718285Y-131020368D01*
X86723067Y-130960136D01*
X86730304Y-130900058D01*
X86739809Y-130840210D01*
X86751399Y-130780666D01*
X86764889Y-130721503D01*
X86780094Y-130662797D01*
X86796831Y-130604621D01*
X86814914Y-130547054D01*
X86854381Y-130434042D01*
X86778319Y-130373734D01*
X86702562Y-130310673D01*
X86665091Y-130278062D01*
X86628049Y-130244705D01*
X86591552Y-130210583D01*
X86555718Y-130175676D01*
X86520665Y-130139964D01*
X86486509Y-130103430D01*
X86453367Y-130066052D01*
X86421358Y-130027812D01*
X86390599Y-129988691D01*
X86361206Y-129948670D01*
X86333298Y-129907728D01*
X86306991Y-129865847D01*
X86129374Y-129849023D01*
X85950270Y-129837737D01*
X85770338Y-129830318D01*
X85590234Y-129825093D01*
X85232135Y-129814533D01*
X85055455Y-129805855D01*
X84881231Y-129792681D01*
X85187730Y-129712234D01*
X85493464Y-129628835D01*
X85798494Y-129542879D01*
X86102877Y-129454765D01*
X84878882Y-129464312D01*
X85208262Y-129353126D01*
X85538465Y-129244426D01*
X85869550Y-129138516D01*
X86201574Y-129035702D01*
X86210116Y-129010014D01*
X86219736Y-128984938D01*
X86230397Y-128960467D01*
X86242059Y-128936594D01*
X86254684Y-128913312D01*
X86268234Y-128890615D01*
X86282669Y-128868496D01*
X86297953Y-128846947D01*
X86314045Y-128825962D01*
X86330907Y-128805534D01*
X86366789Y-128766321D01*
X86405290Y-128729254D01*
X86446103Y-128694278D01*
X86488918Y-128661338D01*
X86533428Y-128630379D01*
X86579325Y-128601346D01*
X86626300Y-128574185D01*
X86674045Y-128548840D01*
X86722252Y-128525257D01*
X86770613Y-128503381D01*
X86818820Y-128483157D01*
X86852965Y-128470934D01*
X86887304Y-128459509D01*
X86921825Y-128448877D01*
X86956515Y-128439031D01*
X86991364Y-128429967D01*
X87026358Y-128421678D01*
X87061487Y-128414159D01*
X87096737Y-128407404D01*
X87132098Y-128401407D01*
X87167557Y-128396162D01*
X87203102Y-128391664D01*
X87238721Y-128387907D01*
X87310136Y-128382592D01*
X87381704Y-128380171D01*
X87393103Y-128380050D01*
X87404517Y-128380002D01*
X87415961Y-128380026D01*
G36*
X87415961Y-128380026D02*
G01*
X87427450Y-128380122D01*
X87427378Y-128380109D01*
X87516002Y-128383272D01*
X87604457Y-128390669D01*
X87692562Y-128402212D01*
X87780142Y-128417814D01*
X87867018Y-128437388D01*
X87953011Y-128460847D01*
X88037945Y-128488105D01*
X88121642Y-128519074D01*
X88203923Y-128553668D01*
X88284610Y-128591798D01*
X88363527Y-128633379D01*
X88440494Y-128678324D01*
X88515335Y-128726544D01*
X88587871Y-128777954D01*
X88657924Y-128832467D01*
X88725317Y-128889995D01*
X88767108Y-128922198D01*
X88809538Y-128953491D01*
X88896026Y-129013752D01*
X88984204Y-129071598D01*
X89073489Y-129127846D01*
X89253067Y-129238826D01*
X89342199Y-129295195D01*
X89430121Y-129353242D01*
X89454704Y-129349883D01*
X89479216Y-129346982D01*
X89503657Y-129344535D01*
X89528026Y-129342535D01*
X89552322Y-129340977D01*
X89576545Y-129339855D01*
X89600695Y-129339164D01*
X89624772Y-129338898D01*
X89682650Y-129339977D01*
X89740090Y-129343428D01*
X89853630Y-129357134D01*
X89965343Y-129379388D01*
X90075182Y-129409563D01*
X90183100Y-129447030D01*
X90289048Y-129491161D01*
X90392980Y-129541329D01*
X90494848Y-129596905D01*
X90594604Y-129657260D01*
X90692200Y-129721768D01*
X90787590Y-129789800D01*
X90880725Y-129860728D01*
X90971558Y-129933923D01*
X91060041Y-130008759D01*
X91229768Y-130160838D01*
X91342962Y-130270486D01*
X91453559Y-130382468D01*
X91561753Y-130496601D01*
X91667742Y-130612698D01*
X91873888Y-130850051D01*
X92073566Y-131093051D01*
X92268346Y-131340222D01*
X92459797Y-131590089D01*
X92838993Y-132092002D01*
X93361264Y-132425466D01*
X93622072Y-132594188D01*
X93881197Y-132765686D01*
X94137540Y-132941046D01*
X94390001Y-133121356D01*
X94637481Y-133307702D01*
X94878882Y-133501172D01*
X94551507Y-133703316D01*
X94508960Y-133725352D01*
X94465808Y-133744997D01*
X94421977Y-133761750D01*
X94399783Y-133768884D01*
X94377393Y-133775108D01*
X94354795Y-133780357D01*
X94331982Y-133784569D01*
X94308944Y-133787682D01*
X94285671Y-133789632D01*
X94262156Y-133790358D01*
X94238388Y-133789795D01*
X94214358Y-133787882D01*
X94190057Y-133784556D01*
X93958784Y-133609389D01*
X93730200Y-133430428D01*
X93278008Y-133065637D01*
X92827288Y-132699201D01*
X92600544Y-132518185D01*
X92371846Y-132340138D01*
X92566921Y-132555292D01*
X92766273Y-132767381D01*
X92968639Y-132977219D01*
X93172758Y-133185620D01*
X93581211Y-133601363D01*
X93783022Y-133810331D01*
X93981542Y-134021115D01*
X93972152Y-134052631D01*
X93961568Y-134084654D01*
X93949728Y-134116893D01*
X93936573Y-134149059D01*
X93922041Y-134180861D01*
X93906073Y-134212010D01*
X93888609Y-134242215D01*
X93869588Y-134271186D01*
X93848949Y-134298633D01*
X93826632Y-134324267D01*
X93802577Y-134347797D01*
X93789879Y-134358682D01*
X93776724Y-134368933D01*
X93763104Y-134378512D01*
X93749012Y-134387385D01*
X93734440Y-134395513D01*
X93719381Y-134402862D01*
X93703827Y-134409395D01*
X93687770Y-134415076D01*
X93671204Y-134419868D01*
X93654120Y-134423735D01*
X93635394Y-134420405D01*
X93617326Y-134416030D01*
X93599887Y-134410659D01*
X93583049Y-134404339D01*
X93566784Y-134397119D01*
X93551064Y-134389050D01*
X93535860Y-134380178D01*
X93521144Y-134370553D01*
X93506888Y-134360223D01*
X93493063Y-134349238D01*
X93479642Y-134337646D01*
X93466596Y-134325495D01*
X93441517Y-134299713D01*
X93417600Y-134272282D01*
X93394620Y-134243592D01*
X93372350Y-134214032D01*
X93329037Y-134153861D01*
X93285858Y-134094887D01*
X93263753Y-134066823D01*
X93241003Y-134040228D01*
X93075478Y-133851377D01*
X92906027Y-133666135D01*
X92733202Y-133484029D01*
X92557556Y-133304585D01*
X92379641Y-133127330D01*
X92200009Y-132951789D01*
X91837803Y-132603956D01*
X91782681Y-132665423D01*
X91725341Y-132724965D01*
X91665859Y-132782460D01*
X91604309Y-132837790D01*
X91540767Y-132890836D01*
X91475306Y-132941477D01*
X91408001Y-132989595D01*
X91338927Y-133035069D01*
X91268159Y-133077780D01*
X91195770Y-133117608D01*
X91121837Y-133154435D01*
X91046433Y-133188139D01*
X90969632Y-133218603D01*
X90891511Y-133245705D01*
X90812142Y-133269328D01*
X90731602Y-133289350D01*
X90712370Y-133292439D01*
X90693376Y-133296262D01*
X90674602Y-133300759D01*
X90656030Y-133305872D01*
X90637640Y-133311541D01*
X90619414Y-133317706D01*
X90601334Y-133324310D01*
X90583380Y-133331292D01*
X90547780Y-133346155D01*
X90512464Y-133361823D01*
X90442091Y-133393677D01*
X90492374Y-133880666D01*
X90538749Y-134368052D01*
X90557213Y-134611999D01*
X90570790Y-134856172D01*
X90578176Y-135100613D01*
X90578069Y-135345364D01*
X90609745Y-135339994D01*
X90640735Y-135332724D01*
X90671117Y-135323770D01*
X90700972Y-135313352D01*
X90730379Y-135301688D01*
X90759418Y-135288995D01*
X90788169Y-135275491D01*
X90816711Y-135261394D01*
X90930394Y-135203444D01*
X90959092Y-135189655D01*
X90988060Y-135176582D01*
X91017379Y-135164442D01*
X91047128Y-135153454D01*
X91055569Y-135149737D01*
X91063867Y-135147072D01*
X91072000Y-135145405D01*
X91079944Y-135144686D01*
X91087674Y-135144864D01*
X91095168Y-135145886D01*
X91102401Y-135147701D01*
X91109350Y-135150257D01*
X91115991Y-135153503D01*
X91122301Y-135157388D01*
X91128256Y-135161859D01*
X91133832Y-135166865D01*
X91139006Y-135172355D01*
X91143754Y-135178277D01*
X91148052Y-135184579D01*
X91151876Y-135191210D01*
X91155204Y-135198118D01*
X91158010Y-135205251D01*
X91160273Y-135212559D01*
X91161967Y-135219989D01*
X91163070Y-135227491D01*
X91163557Y-135235011D01*
X91163405Y-135242499D01*
X91162590Y-135249904D01*
X91161089Y-135257173D01*
X91158878Y-135264255D01*
X91155933Y-135271098D01*
X91152231Y-135277652D01*
X91147748Y-135283863D01*
X91142460Y-135289682D01*
X91136344Y-135295055D01*
X91129375Y-135299932D01*
X91076765Y-135329588D01*
X91023320Y-135357933D01*
X90969120Y-135384979D01*
X90914240Y-135410736D01*
X90858758Y-135435217D01*
X90802751Y-135458430D01*
X90746296Y-135480388D01*
X90689470Y-135501101D01*
X90650011Y-135532918D01*
X90611935Y-135566404D01*
X90575317Y-135601491D01*
X90540231Y-135638111D01*
X90506753Y-135676197D01*
X90474959Y-135715682D01*
X90444924Y-135756496D01*
X90416723Y-135798574D01*
X90390431Y-135841846D01*
X90366124Y-135886247D01*
X90343876Y-135931706D01*
X90323764Y-135978159D01*
X90305862Y-136025535D01*
X90290245Y-136073769D01*
X90276990Y-136122791D01*
X90266171Y-136172536D01*
X90263350Y-136179734D01*
X90260021Y-136186383D01*
X90256220Y-136192486D01*
X90251984Y-136198051D01*
X90247348Y-136203084D01*
X90242347Y-136207590D01*
X90237019Y-136211575D01*
X90231397Y-136215045D01*
X90225520Y-136218006D01*
X90219422Y-136220464D01*
X90213138Y-136222425D01*
X90206706Y-136223894D01*
X90200161Y-136224879D01*
X90193538Y-136225383D01*
X90186874Y-136225415D01*
X90180205Y-136224978D01*
X90173565Y-136224080D01*
X90166992Y-136222726D01*
X90160521Y-136220922D01*
X90154188Y-136218674D01*
X90148028Y-136215988D01*
X90142078Y-136212870D01*
X90136373Y-136209326D01*
X90130950Y-136205361D01*
X90125843Y-136200982D01*
X90121090Y-136196194D01*
X90116726Y-136191004D01*
X90112786Y-136185416D01*
X90109306Y-136179438D01*
X90106323Y-136173076D01*
X90103873Y-136166334D01*
X90101990Y-136159219D01*
X90104163Y-136131569D01*
X90107778Y-136104238D01*
X90112708Y-136077205D01*
X90118828Y-136050447D01*
X90126012Y-136023942D01*
X90134133Y-135997669D01*
X90143066Y-135971605D01*
X90152685Y-135945728D01*
X90173478Y-135894448D01*
X90195502Y-135843653D01*
X90217750Y-135793167D01*
X90239216Y-135742812D01*
X90223745Y-135747482D01*
X90208683Y-135753542D01*
X90193999Y-135760872D01*
X90179663Y-135769356D01*
X90165645Y-135778875D01*
X90151912Y-135789310D01*
X90125186Y-135812460D01*
X90099238Y-135837862D01*
X90073825Y-135864569D01*
X90023622Y-135918124D01*
X89998343Y-135943083D01*
X89972619Y-135965570D01*
X89959514Y-135975591D01*
X89946205Y-135984640D01*
X89932663Y-135992599D01*
X89918857Y-135999349D01*
X89904756Y-136004773D01*
X89890329Y-136008752D01*
X89875547Y-136011169D01*
X89860377Y-136011905D01*
X89844791Y-136010842D01*
X89828756Y-136007862D01*
X89812244Y-136002847D01*
X89795222Y-135995680D01*
X89793719Y-135977548D01*
X89793829Y-135960000D01*
X89795469Y-135943009D01*
X89798560Y-135926548D01*
X89803020Y-135910590D01*
X89808768Y-135895109D01*
X89815724Y-135880076D01*
X89823807Y-135865467D01*
X89832936Y-135851253D01*
X89843030Y-135837409D01*
X89854009Y-135823907D01*
X89865791Y-135810720D01*
X89878295Y-135797821D01*
X89891442Y-135785185D01*
X89919336Y-135760590D01*
X89948829Y-135736720D01*
X89979271Y-135713360D01*
X90040421Y-135667315D01*
X90069835Y-135644200D01*
X90097613Y-135620737D01*
X90123108Y-135596712D01*
X90134797Y-135584422D01*
X90145673Y-135571911D01*
X90127923Y-135577456D01*
X90108447Y-135582752D01*
X90087679Y-135587536D01*
X90066053Y-135591545D01*
X90044001Y-135594517D01*
X90021958Y-135596186D01*
X90000358Y-135596291D01*
X89979632Y-135594568D01*
X89969733Y-135592939D01*
X89960216Y-135590755D01*
X89951134Y-135587981D01*
X89942542Y-135584586D01*
X89934494Y-135580537D01*
X89927044Y-135575801D01*
X89920246Y-135570344D01*
X89914155Y-135564134D01*
X89908825Y-135557139D01*
X89904309Y-135549324D01*
X89900663Y-135540658D01*
X89897940Y-135531107D01*
X89896195Y-135520638D01*
X89895481Y-135509219D01*
X89895853Y-135496816D01*
X89897365Y-135483397D01*
X89909132Y-135470820D01*
X89921579Y-135459505D01*
X89934667Y-135449385D01*
X89948353Y-135440388D01*
X89962597Y-135432446D01*
X89977358Y-135425486D01*
X89992594Y-135419441D01*
X90008265Y-135414240D01*
X90024328Y-135409812D01*
X90040744Y-135406088D01*
X90074466Y-135400471D01*
X90109102Y-135396830D01*
X90144323Y-135394605D01*
X90215200Y-135392160D01*
X90250198Y-135390821D01*
X90284464Y-135388658D01*
X90317667Y-135385111D01*
X90349479Y-135379620D01*
X90364760Y-135375970D01*
X90379570Y-135371625D01*
X90393868Y-135366513D01*
X90407612Y-135360566D01*
X90402508Y-135122348D01*
X90391603Y-134884249D01*
X90376043Y-134646257D01*
X90356973Y-134408358D01*
X90268501Y-133457443D01*
X90166747Y-133481690D01*
X90064335Y-133503199D01*
X89961338Y-133521432D01*
X89857833Y-133535854D01*
X89805913Y-133541469D01*
X89753894Y-133545929D01*
X89701786Y-133549169D01*
X89649598Y-133551121D01*
X89597339Y-133551718D01*
X89545019Y-133550892D01*
X89492647Y-133548578D01*
X89440232Y-133544708D01*
X89401499Y-133656452D01*
X89359601Y-133766935D01*
X89315485Y-133876540D01*
X89270098Y-133985651D01*
X89179303Y-134203927D01*
X89135789Y-134313859D01*
X89094794Y-134424832D01*
X89046754Y-134513739D01*
X88999691Y-134603683D01*
X88955022Y-134694923D01*
X88934028Y-134741110D01*
X88914164Y-134787718D01*
X88895607Y-134834780D01*
X88878534Y-134882327D01*
X88863123Y-134930393D01*
X88849551Y-134979009D01*
X88837994Y-135028208D01*
X88828630Y-135078023D01*
X88821636Y-135128484D01*
X88817190Y-135179626D01*
X88874546Y-135175134D01*
X88931749Y-135168857D01*
X89045955Y-135153976D01*
X89103091Y-135146884D01*
X89160337Y-135141033D01*
X89217760Y-135137179D01*
X89246558Y-135136238D01*
X89275425Y-135136079D01*
X89282189Y-135137135D01*
X89288613Y-135138780D01*
X89294694Y-135140982D01*
X89300426Y-135143706D01*
X89305806Y-135146917D01*
X89310829Y-135150582D01*
X89315490Y-135154667D01*
X89319786Y-135159138D01*
X89323712Y-135163960D01*
X89327262Y-135169100D01*
X89330434Y-135174523D01*
X89333223Y-135180195D01*
X89335624Y-135186083D01*
X89337633Y-135192152D01*
X89339245Y-135198368D01*
X89340456Y-135204697D01*
X89341262Y-135211105D01*
X89341659Y-135217558D01*
X89341641Y-135224021D01*
X89341205Y-135230462D01*
X89340346Y-135236844D01*
X89339060Y-135243136D01*
X89337343Y-135249302D01*
X89335189Y-135255308D01*
X89332595Y-135261121D01*
X89329556Y-135266706D01*
X89326068Y-135272029D01*
X89322127Y-135277056D01*
X89317728Y-135281753D01*
X89312866Y-135286086D01*
X89307538Y-135290021D01*
X89301738Y-135293524D01*
X88743413Y-135372785D01*
X88732827Y-135396621D01*
X88721663Y-135420227D01*
X88698133Y-135466958D01*
X88650016Y-135559956D01*
X88638547Y-135583415D01*
X88627570Y-135607061D01*
X88617218Y-135630948D01*
X88607626Y-135655128D01*
X88598927Y-135679653D01*
X88591256Y-135704575D01*
X88584745Y-135729948D01*
X88579529Y-135755822D01*
X88576630Y-135762395D01*
X88573243Y-135768457D01*
X88569405Y-135774015D01*
X88565151Y-135779071D01*
X88560517Y-135783631D01*
X88555538Y-135787700D01*
X88550250Y-135791282D01*
X88544689Y-135794382D01*
X88538892Y-135797005D01*
X88532892Y-135799156D01*
X88526727Y-135800838D01*
X88520432Y-135802057D01*
X88514042Y-135802818D01*
X88507594Y-135803125D01*
X88501124Y-135802983D01*
X88494666Y-135802396D01*
X88488256Y-135801370D01*
X88481931Y-135799909D01*
X88475727Y-135798017D01*
X88469678Y-135795700D01*
X88463820Y-135792962D01*
X88458190Y-135789808D01*
X88452824Y-135786242D01*
X88447755Y-135782270D01*
X88443022Y-135777895D01*
X88438659Y-135773123D01*
X88434701Y-135767958D01*
X88431186Y-135762405D01*
X88428148Y-135756469D01*
X88425623Y-135750155D01*
X88423648Y-135743466D01*
X88422257Y-135736408D01*
X88421978Y-135724106D01*
X88422183Y-135711927D01*
X88423959Y-135687922D01*
X88427406Y-135664349D01*
X88432349Y-135641168D01*
X88438608Y-135618336D01*
X88446008Y-135595810D01*
X88454370Y-135573548D01*
X88463517Y-135551509D01*
X88483457Y-135507928D01*
X88504408Y-135464728D01*
X88524952Y-135421573D01*
X88534628Y-135399906D01*
X88543670Y-135378124D01*
X88469713Y-135419798D01*
X88396332Y-135463157D01*
X88324191Y-135508726D01*
X88288794Y-135532504D01*
X88253956Y-135557031D01*
X88219760Y-135582374D01*
X88186290Y-135608597D01*
X88153629Y-135635766D01*
X88121860Y-135663948D01*
X88091066Y-135693207D01*
X88061330Y-135723609D01*
X88032735Y-135755221D01*
X88005365Y-135788107D01*
X87982993Y-135787042D01*
X87963412Y-135784463D01*
X87946506Y-135780461D01*
X87932157Y-135775126D01*
X87920248Y-135768550D01*
X87915172Y-135764825D01*
X87910663Y-135760824D01*
X87906704Y-135756558D01*
X87903283Y-135752038D01*
X87897992Y-135742284D01*
X87894672Y-135731651D01*
X87893206Y-135720232D01*
X87893477Y-135708116D01*
X87895368Y-135695395D01*
X87898761Y-135682159D01*
X87903539Y-135668500D01*
X87909586Y-135654508D01*
X87916783Y-135640274D01*
X87925014Y-135625889D01*
X87934161Y-135611444D01*
X87944108Y-135597030D01*
X87954736Y-135582737D01*
X87977570Y-135554879D01*
X88001725Y-135528598D01*
X88026263Y-135504620D01*
X88050247Y-135483672D01*
X88072739Y-135466482D01*
X88083133Y-135459523D01*
X88092801Y-135453775D01*
X88083100Y-135450084D01*
X88073157Y-135447253D01*
X88062989Y-135445217D01*
X88052613Y-135443914D01*
X88042044Y-135443280D01*
X88031299Y-135443252D01*
X88009343Y-135444761D01*
X87986873Y-135447934D01*
X87964019Y-135452265D01*
X87917674Y-135462375D01*
X87894439Y-135467140D01*
X87871335Y-135471037D01*
X87848491Y-135473560D01*
X87837206Y-135474148D01*
X87826034Y-135474202D01*
X87814991Y-135473659D01*
X87804094Y-135472456D01*
X87793358Y-135470529D01*
X87782800Y-135467816D01*
X87772435Y-135464252D01*
X87762280Y-135459775D01*
X87752351Y-135454322D01*
X87742663Y-135447828D01*
X87737677Y-135442415D01*
X87733282Y-135436854D01*
X87729465Y-135431161D01*
X87726211Y-135425355D01*
X87723504Y-135419455D01*
X87721331Y-135413480D01*
X87719676Y-135407447D01*
X87718525Y-135401375D01*
X87717863Y-135395283D01*
X87717675Y-135389189D01*
X87717947Y-135383111D01*
X87718663Y-135377068D01*
X87719810Y-135371079D01*
X87721373Y-135365161D01*
X87723336Y-135359334D01*
X87725685Y-135353615D01*
X87728405Y-135348024D01*
X87731482Y-135342578D01*
X87734901Y-135337296D01*
X87738647Y-135332197D01*
X87742705Y-135327298D01*
X87747062Y-135322619D01*
X87751701Y-135318178D01*
X87756608Y-135313992D01*
X87761769Y-135310082D01*
X87767169Y-135306465D01*
X87772793Y-135303159D01*
X87778627Y-135300183D01*
X87784655Y-135297556D01*
X87790863Y-135295296D01*
X87797237Y-135293421D01*
X87803761Y-135291950D01*
X87906506Y-135276604D01*
X88009545Y-135263561D01*
X88112808Y-135252258D01*
X88216223Y-135242134D01*
X88423223Y-135223175D01*
X88629977Y-135202188D01*
X88648383Y-135092200D01*
X88673211Y-134984244D01*
X88703643Y-134878052D01*
X88738859Y-134773357D01*
X88778042Y-134669894D01*
X88820373Y-134567394D01*
X88911204Y-134364220D01*
X89004803Y-134161700D01*
X89094623Y-133957700D01*
X89136069Y-133854478D01*
X89174114Y-133750085D01*
X89207939Y-133644255D01*
X89236727Y-133536721D01*
X89060374Y-133513866D01*
X88885224Y-133479777D01*
X88712089Y-133434708D01*
X88541779Y-133378909D01*
X88375105Y-133312632D01*
X88212878Y-133236131D01*
X88055908Y-133149656D01*
X87905007Y-133053459D01*
X87760984Y-132947793D01*
X87624651Y-132832910D01*
X87496819Y-132709061D01*
X87378299Y-132576499D01*
X87269900Y-132435475D01*
X87172434Y-132286241D01*
X87086712Y-132129050D01*
X87013544Y-131964153D01*
X87002207Y-131925408D01*
X86988577Y-131887675D01*
X86973001Y-131850803D01*
X86955827Y-131814640D01*
X86937402Y-131779034D01*
X86918072Y-131743834D01*
X86878091Y-131674044D01*
X86838660Y-131604055D01*
X86820020Y-131568608D01*
X86802558Y-131532655D01*
X86786623Y-131496046D01*
X86772562Y-131458628D01*
X86760722Y-131420251D01*
X86751450Y-131380762D01*
X86737636Y-131321193D01*
X86727382Y-131261324D01*
X86720505Y-131201232D01*
X86716819Y-131140992D01*
X86716141Y-131080678D01*
X86718285Y-131020368D01*
X86723067Y-130960136D01*
X86730304Y-130900058D01*
X86739809Y-130840210D01*
X86751399Y-130780666D01*
X86764889Y-130721503D01*
X86780094Y-130662797D01*
X86796831Y-130604621D01*
X86814914Y-130547054D01*
X86854381Y-130434042D01*
X86778319Y-130373734D01*
X86702562Y-130310673D01*
X86665091Y-130278062D01*
X86628049Y-130244705D01*
X86591552Y-130210583D01*
X86555718Y-130175676D01*
X86520665Y-130139964D01*
X86486509Y-130103430D01*
X86453367Y-130066052D01*
X86421358Y-130027812D01*
X86390599Y-129988691D01*
X86361206Y-129948670D01*
X86333298Y-129907728D01*
X86306991Y-129865847D01*
X86129374Y-129849023D01*
X85950270Y-129837737D01*
X85770338Y-129830318D01*
X85590234Y-129825093D01*
X85232135Y-129814533D01*
X85055455Y-129805855D01*
X84881231Y-129792681D01*
X85187730Y-129712234D01*
X85493464Y-129628835D01*
X85798494Y-129542879D01*
X86102877Y-129454765D01*
X84878882Y-129464312D01*
X85208262Y-129353126D01*
X85538465Y-129244426D01*
X85869550Y-129138516D01*
X86201574Y-129035702D01*
X86210116Y-129010014D01*
X86219736Y-128984938D01*
X86230397Y-128960467D01*
X86242059Y-128936594D01*
X86254684Y-128913312D01*
X86268234Y-128890615D01*
X86282669Y-128868496D01*
X86297953Y-128846947D01*
X86314045Y-128825962D01*
X86330907Y-128805534D01*
X86366789Y-128766321D01*
X86405290Y-128729254D01*
X86446103Y-128694278D01*
X86488918Y-128661338D01*
X86533428Y-128630379D01*
X86579325Y-128601346D01*
X86626300Y-128574185D01*
X86674045Y-128548840D01*
X86722252Y-128525257D01*
X86770613Y-128503381D01*
X86818820Y-128483157D01*
X86852965Y-128470934D01*
X86887304Y-128459509D01*
X86921825Y-128448877D01*
X86956515Y-128439031D01*
X86991364Y-128429967D01*
X87026358Y-128421678D01*
X87061487Y-128414159D01*
X87096737Y-128407404D01*
X87132098Y-128401407D01*
X87167557Y-128396162D01*
X87203102Y-128391664D01*
X87238721Y-128387907D01*
X87310136Y-128382592D01*
X87381704Y-128380171D01*
X87393103Y-128380050D01*
X87404517Y-128380002D01*
X87415961Y-128380026D01*
G37*
X259364661Y-128380050D02*
X259376060Y-128380171D01*
X259447628Y-128382592D01*
X259519042Y-128387907D01*
X259554662Y-128391664D01*
X259590207Y-128396162D01*
X259625666Y-128401407D01*
X259661026Y-128407404D01*
X259696277Y-128414159D01*
X259731405Y-128421678D01*
X259766400Y-128429967D01*
X259801248Y-128439031D01*
X259835939Y-128448877D01*
X259870460Y-128459509D01*
X259904799Y-128470934D01*
X259938944Y-128483157D01*
X259987151Y-128503381D01*
X260035512Y-128525257D01*
X260083719Y-128548840D01*
X260131464Y-128574185D01*
X260178439Y-128601346D01*
X260224336Y-128630379D01*
X260268846Y-128661338D01*
X260311661Y-128694278D01*
X260352473Y-128729254D01*
X260390975Y-128766321D01*
X260426856Y-128805534D01*
X260443719Y-128825962D01*
X260459811Y-128846947D01*
X260475094Y-128868496D01*
X260489529Y-128890615D01*
X260503079Y-128913312D01*
X260515704Y-128936594D01*
X260527366Y-128960467D01*
X260538027Y-128984938D01*
X260547647Y-129010014D01*
X260556189Y-129035702D01*
X260888214Y-129138516D01*
X261219298Y-129244426D01*
X261549501Y-129353126D01*
X261878882Y-129464312D01*
X260654887Y-129454765D01*
X260959270Y-129542879D01*
X261264299Y-129628835D01*
X261570034Y-129712234D01*
X261876533Y-129792681D01*
X261702308Y-129805855D01*
X261525629Y-129814533D01*
X261167531Y-129825093D01*
X260987426Y-129830318D01*
X260807494Y-129837737D01*
X260628390Y-129849023D01*
X260450773Y-129865847D01*
X260424466Y-129907728D01*
X260396557Y-129948670D01*
X260367164Y-129988691D01*
X260336405Y-130027812D01*
X260304396Y-130066052D01*
X260271255Y-130103430D01*
X260237099Y-130139964D01*
X260202045Y-130175676D01*
X260166212Y-130210583D01*
X260129715Y-130244705D01*
X260092673Y-130278062D01*
X260055202Y-130310673D01*
X259979445Y-130373734D01*
X259903383Y-130434042D01*
X259942850Y-130547054D01*
X259960933Y-130604621D01*
X259977670Y-130662797D01*
X259992875Y-130721503D01*
X260006365Y-130780666D01*
X260017955Y-130840210D01*
X260027460Y-130900058D01*
X260034696Y-130960136D01*
X260039479Y-131020368D01*
X260041623Y-131080679D01*
X260040944Y-131140992D01*
X260037259Y-131201233D01*
X260030381Y-131261325D01*
X260020127Y-131321194D01*
X260006313Y-131380763D01*
X259997041Y-131420252D01*
X259985201Y-131458630D01*
X259971140Y-131496047D01*
X259955205Y-131532656D01*
X259937743Y-131568609D01*
X259919102Y-131604057D01*
X259879672Y-131674045D01*
X259839690Y-131743835D01*
X259820361Y-131779035D01*
X259801936Y-131814641D01*
X259784762Y-131850804D01*
X259769186Y-131887676D01*
X259755556Y-131925409D01*
X259744218Y-131964154D01*
X259671051Y-132129051D01*
X259585329Y-132286242D01*
X259487863Y-132435476D01*
X259379464Y-132576500D01*
X259260944Y-132709062D01*
X259133111Y-132832911D01*
X258996779Y-132947794D01*
X258852756Y-133053460D01*
X258701855Y-133149656D01*
X258544885Y-133236131D01*
X258382658Y-133312633D01*
X258215984Y-133378909D01*
X258045674Y-133434708D01*
X257872539Y-133479778D01*
X257697390Y-133513866D01*
X257521036Y-133536721D01*
X257549824Y-133644255D01*
X257583650Y-133750085D01*
X257621695Y-133854478D01*
X257663141Y-133957700D01*
X257752960Y-134161700D01*
X257846560Y-134364220D01*
X257937390Y-134567394D01*
X257979721Y-134669894D01*
X258018904Y-134773357D01*
X258054121Y-134878052D01*
X258084552Y-134984244D01*
X258109380Y-135092200D01*
X258127786Y-135202188D01*
X258334540Y-135223175D01*
X258541540Y-135242134D01*
X258644955Y-135252258D01*
X258748218Y-135263561D01*
X258851258Y-135276604D01*
X258954003Y-135291950D01*
X258960527Y-135293421D01*
X258966900Y-135295296D01*
X258973108Y-135297556D01*
X258979137Y-135300183D01*
X258984970Y-135303159D01*
X258990594Y-135306465D01*
X258995994Y-135310082D01*
X259001155Y-135313992D01*
X259006062Y-135318178D01*
X259010702Y-135322619D01*
X259015058Y-135327298D01*
X259019116Y-135332197D01*
X259022862Y-135337296D01*
X259026281Y-135342578D01*
X259029358Y-135348024D01*
X259032078Y-135353615D01*
X259034427Y-135359334D01*
X259036391Y-135365161D01*
X259037953Y-135371079D01*
X259039100Y-135377068D01*
X259039816Y-135383111D01*
X259040088Y-135389189D01*
X259039901Y-135395283D01*
X259039238Y-135401375D01*
X259038087Y-135407447D01*
X259036433Y-135413480D01*
X259034259Y-135419455D01*
X259031553Y-135425355D01*
X259028298Y-135431161D01*
X259024481Y-135436854D01*
X259020087Y-135442415D01*
X259015101Y-135447828D01*
X259005413Y-135454322D01*
X258995484Y-135459775D01*
X258985329Y-135464252D01*
X258974964Y-135467816D01*
X258964405Y-135470529D01*
X258953670Y-135472456D01*
X258942772Y-135473659D01*
X258931730Y-135474202D01*
X258920558Y-135474148D01*
X258909273Y-135473560D01*
X258886429Y-135471037D01*
X258863325Y-135467140D01*
X258840090Y-135462375D01*
X258793744Y-135452265D01*
X258770891Y-135447934D01*
X258748421Y-135444761D01*
X258726465Y-135443252D01*
X258715720Y-135443280D01*
X258705151Y-135443914D01*
X258694774Y-135445217D01*
X258684607Y-135447253D01*
X258674664Y-135450084D01*
X258664963Y-135453775D01*
X258674631Y-135459523D01*
X258685025Y-135466482D01*
X258707517Y-135483672D01*
X258731501Y-135504620D01*
X258756039Y-135528598D01*
X258780194Y-135554879D01*
X258803027Y-135582737D01*
X258813656Y-135597030D01*
X258823602Y-135611444D01*
X258832749Y-135625889D01*
X258840980Y-135640274D01*
X258848178Y-135654508D01*
X258854224Y-135668500D01*
X258859002Y-135682159D01*
X258862396Y-135695395D01*
X258864286Y-135708116D01*
X258864557Y-135720232D01*
X258863092Y-135731651D01*
X258859772Y-135742284D01*
X258854480Y-135752038D01*
X258851059Y-135756558D01*
X258847101Y-135760824D01*
X258842591Y-135764825D01*
X258837515Y-135768550D01*
X258825607Y-135775126D01*
X258811258Y-135780461D01*
X258794352Y-135784463D01*
X258774771Y-135787042D01*
X258752398Y-135788107D01*
X258725028Y-135755221D01*
X258696434Y-135723609D01*
X258666698Y-135693207D01*
X258635904Y-135663948D01*
X258604135Y-135635766D01*
X258571474Y-135608597D01*
X258538004Y-135582374D01*
X258503809Y-135557031D01*
X258468971Y-135532504D01*
X258433573Y-135508726D01*
X258361432Y-135463157D01*
X258288051Y-135419798D01*
X258214095Y-135378124D01*
X258223136Y-135399906D01*
X258232812Y-135421573D01*
X258253355Y-135464728D01*
X258274307Y-135507928D01*
X258294247Y-135551509D01*
X258303394Y-135573548D01*
X258311756Y-135595810D01*
X258319155Y-135618336D01*
X258325415Y-135641168D01*
X258330357Y-135664349D01*
X258333805Y-135687922D01*
X258335581Y-135711927D01*
X258335786Y-135724106D01*
X258335507Y-135736408D01*
X258334116Y-135743466D01*
X258332140Y-135750155D01*
X258329616Y-135756469D01*
X258326578Y-135762405D01*
X258323062Y-135767958D01*
X258319105Y-135773123D01*
X258314742Y-135777895D01*
X258310009Y-135782270D01*
X258304941Y-135786242D01*
X258299574Y-135789808D01*
X258293944Y-135792962D01*
X258288086Y-135795700D01*
X258282037Y-135798017D01*
X258275833Y-135799909D01*
X258269508Y-135801370D01*
X258263098Y-135802396D01*
X258256640Y-135802983D01*
X258250170Y-135803125D01*
X258243722Y-135802818D01*
X258237332Y-135802057D01*
X258231037Y-135800838D01*
X258224872Y-135799156D01*
X258218872Y-135797005D01*
X258213074Y-135794382D01*
X258207514Y-135791282D01*
X258202226Y-135787700D01*
X258197247Y-135783631D01*
X258192613Y-135779071D01*
X258188359Y-135774015D01*
X258184521Y-135768457D01*
X258181134Y-135762395D01*
X258178235Y-135755822D01*
X258173019Y-135729948D01*
X258166508Y-135704575D01*
X258158837Y-135679653D01*
X258150138Y-135655128D01*
X258140546Y-135630948D01*
X258130194Y-135607061D01*
X258119217Y-135583415D01*
X258107748Y-135559956D01*
X258059631Y-135466958D01*
X258036101Y-135420227D01*
X258024937Y-135396621D01*
X258014351Y-135372785D01*
X257456026Y-135293524D01*
X257450227Y-135290021D01*
X257444898Y-135286086D01*
X257440037Y-135281753D01*
X257435637Y-135277056D01*
X257431696Y-135272029D01*
X257428208Y-135266706D01*
X257425169Y-135261121D01*
X257422575Y-135255308D01*
X257420422Y-135249302D01*
X257418704Y-135243136D01*
X257417418Y-135236844D01*
X257416559Y-135230462D01*
X257416123Y-135224021D01*
X257416106Y-135217558D01*
X257416502Y-135211105D01*
X257417308Y-135204697D01*
X257418520Y-135198368D01*
X257420132Y-135192152D01*
X257422141Y-135186083D01*
X257424542Y-135180195D01*
X257427330Y-135174523D01*
X257430502Y-135169100D01*
X257434053Y-135163960D01*
X257437979Y-135159138D01*
X257442274Y-135154667D01*
X257446936Y-135150582D01*
X257451958Y-135146917D01*
X257457338Y-135143706D01*
X257463071Y-135140982D01*
X257469151Y-135138780D01*
X257475576Y-135137135D01*
X257482340Y-135136079D01*
X257511207Y-135136238D01*
X257540005Y-135137179D01*
X257597427Y-135141033D01*
X257654673Y-135146884D01*
X257711809Y-135153976D01*
X257826016Y-135168857D01*
X257883218Y-135175134D01*
X257940575Y-135179626D01*
X257936128Y-135128484D01*
X257929134Y-135078023D01*
X257919771Y-135028208D01*
X257908214Y-134979009D01*
X257894642Y-134930393D01*
X257879230Y-134882327D01*
X257862158Y-134834780D01*
X257843601Y-134787718D01*
X257823737Y-134741110D01*
X257802743Y-134694923D01*
X257758074Y-134603683D01*
X257711010Y-134513739D01*
X257662970Y-134424832D01*
X257621975Y-134313859D01*
X257578461Y-134203927D01*
X257487666Y-133985651D01*
X257442280Y-133876540D01*
X257398164Y-133766935D01*
X257356266Y-133656452D01*
X257317532Y-133544708D01*
X257265118Y-133548578D01*
X257212746Y-133550892D01*
X257160426Y-133551718D01*
X257108167Y-133551121D01*
X257055978Y-133549169D01*
X257003870Y-133545929D01*
X256951852Y-133541469D01*
X256899932Y-133535854D01*
X256796427Y-133521432D01*
X256693430Y-133503199D01*
X256591017Y-133481690D01*
X256489263Y-133457443D01*
X256400792Y-134408358D01*
X256381722Y-134646257D01*
X256366162Y-134884249D01*
X256355257Y-135122348D01*
X256350153Y-135360566D01*
X256363897Y-135366513D01*
X256378194Y-135371625D01*
X256393004Y-135375970D01*
X256408286Y-135379620D01*
X256440098Y-135385111D01*
X256473301Y-135388658D01*
X256507567Y-135390821D01*
X256542565Y-135392160D01*
X256613442Y-135394605D01*
X256648663Y-135396830D01*
X256683299Y-135400471D01*
X256717021Y-135406088D01*
X256733436Y-135409812D01*
X256749500Y-135414240D01*
X256765170Y-135419441D01*
X256780407Y-135425486D01*
X256795167Y-135432446D01*
X256809412Y-135440388D01*
X256823098Y-135449385D01*
X256836186Y-135459505D01*
X256848633Y-135470820D01*
X256860399Y-135483397D01*
X256861911Y-135496816D01*
X256862283Y-135509219D01*
X256861569Y-135520638D01*
X256859824Y-135531107D01*
X256857101Y-135540658D01*
X256853455Y-135549324D01*
X256848939Y-135557139D01*
X256843609Y-135564134D01*
X256837518Y-135570344D01*
X256830720Y-135575801D01*
X256823270Y-135580537D01*
X256815222Y-135584586D01*
X256806630Y-135587981D01*
X256797548Y-135590755D01*
X256788031Y-135592939D01*
X256778132Y-135594568D01*
X256757406Y-135596291D01*
X256735805Y-135596186D01*
X256713762Y-135594517D01*
X256691711Y-135591545D01*
X256670085Y-135587536D01*
X256649317Y-135582752D01*
X256629841Y-135577456D01*
X256612090Y-135571911D01*
X256622966Y-135584422D01*
X256634656Y-135596712D01*
X256660151Y-135620737D01*
X256687928Y-135644200D01*
X256717343Y-135667315D01*
X256778493Y-135713360D01*
X256808935Y-135736720D01*
X256838427Y-135760590D01*
X256866322Y-135785185D01*
X256879469Y-135797821D01*
X256891973Y-135810720D01*
X256903755Y-135823907D01*
X256914734Y-135837409D01*
X256924828Y-135851253D01*
X256933957Y-135865467D01*
X256942040Y-135880076D01*
X256948996Y-135895109D01*
X256954744Y-135910590D01*
X256959204Y-135926548D01*
X256962295Y-135943009D01*
X256963935Y-135960000D01*
X256964045Y-135977548D01*
X256962542Y-135995680D01*
X256945520Y-136002847D01*
X256929008Y-136007862D01*
X256912973Y-136010842D01*
X256897387Y-136011905D01*
X256882217Y-136011169D01*
X256867435Y-136008752D01*
X256853008Y-136004773D01*
X256838907Y-135999349D01*
X256825101Y-135992599D01*
X256811559Y-135984640D01*
X256798250Y-135975591D01*
X256785145Y-135965570D01*
X256759421Y-135943083D01*
X256734142Y-135918124D01*
X256683939Y-135864569D01*
X256658526Y-135837862D01*
X256632578Y-135812460D01*
X256605852Y-135789310D01*
X256592120Y-135778875D01*
X256578101Y-135769356D01*
X256563765Y-135760872D01*
X256549081Y-135753542D01*
X256534019Y-135747482D01*
X256518548Y-135742812D01*
X256540014Y-135793167D01*
X256562262Y-135843653D01*
X256584287Y-135894448D01*
X256605079Y-135945728D01*
X256614698Y-135971605D01*
X256623631Y-135997669D01*
X256631753Y-136023942D01*
X256638936Y-136050447D01*
X256645056Y-136077205D01*
X256649986Y-136104238D01*
X256653601Y-136131569D01*
X256655774Y-136159219D01*
X256653891Y-136166334D01*
X256651441Y-136173076D01*
X256648458Y-136179438D01*
X256644978Y-136185416D01*
X256641038Y-136191004D01*
X256636674Y-136196194D01*
X256631921Y-136200982D01*
X256626814Y-136205361D01*
X256621391Y-136209326D01*
X256615686Y-136212870D01*
X256609736Y-136215988D01*
X256603576Y-136218674D01*
X256597243Y-136220922D01*
X256590772Y-136222726D01*
X256584198Y-136224080D01*
X256577559Y-136224978D01*
X256570890Y-136225415D01*
X256564226Y-136225383D01*
X256557603Y-136224879D01*
X256551058Y-136223894D01*
X256544625Y-136222425D01*
X256538342Y-136220464D01*
X256532244Y-136218006D01*
X256526366Y-136215045D01*
X256520745Y-136211575D01*
X256515416Y-136207590D01*
X256510416Y-136203084D01*
X256505780Y-136198051D01*
X256501543Y-136192486D01*
X256497743Y-136186383D01*
X256494414Y-136179734D01*
X256491593Y-136172536D01*
X256480774Y-136122791D01*
X256467518Y-136073769D01*
X256451902Y-136025535D01*
X256434000Y-135978159D01*
X256413888Y-135931706D01*
X256391640Y-135886247D01*
X256367333Y-135841846D01*
X256341041Y-135798574D01*
X256312840Y-135756496D01*
X256282805Y-135715682D01*
X256251011Y-135676197D01*
X256217533Y-135638111D01*
X256182448Y-135601491D01*
X256145829Y-135566404D01*
X256107753Y-135532918D01*
X256068294Y-135501101D01*
X256011468Y-135480388D01*
X255955013Y-135458430D01*
X255899006Y-135435217D01*
X255843524Y-135410736D01*
X255788644Y-135384979D01*
X255734444Y-135357933D01*
X255680999Y-135329588D01*
X255628389Y-135299932D01*
X255621420Y-135295055D01*
X255615304Y-135289682D01*
X255610016Y-135283863D01*
X255605533Y-135277652D01*
X255601831Y-135271098D01*
X255598886Y-135264255D01*
X255596675Y-135257173D01*
X255595174Y-135249904D01*
X255594359Y-135242499D01*
X255594207Y-135235011D01*
X255594695Y-135227491D01*
X255595797Y-135219989D01*
X255597491Y-135212559D01*
X255599754Y-135205251D01*
X255602561Y-135198118D01*
X255605888Y-135191210D01*
X255609713Y-135184579D01*
X255614010Y-135178277D01*
X255618758Y-135172355D01*
X255623932Y-135166865D01*
X255629508Y-135161859D01*
X255635463Y-135157388D01*
X255641773Y-135153503D01*
X255648414Y-135150257D01*
X255655363Y-135147701D01*
X255662596Y-135145886D01*
X255670090Y-135144864D01*
X255677820Y-135144686D01*
X255685764Y-135145405D01*
X255693896Y-135147072D01*
X255702195Y-135149737D01*
X255710636Y-135153454D01*
X255740385Y-135164442D01*
X255769704Y-135176582D01*
X255798672Y-135189655D01*
X255827370Y-135203444D01*
X255941053Y-135261394D01*
X255969596Y-135275491D01*
X255998346Y-135288995D01*
X256027385Y-135301688D01*
X256056792Y-135313352D01*
X256086647Y-135323770D01*
X256117029Y-135332724D01*
X256148019Y-135339994D01*
X256179696Y-135345364D01*
X256179589Y-135100613D01*
X256186975Y-134856172D01*
X256200552Y-134611999D01*
X256219015Y-134368052D01*
X256265390Y-133880666D01*
X256315673Y-133393677D01*
X256245300Y-133361823D01*
X256209984Y-133346155D01*
X256174384Y-133331292D01*
X256156431Y-133324310D01*
X256138350Y-133317706D01*
X256120125Y-133311541D01*
X256101735Y-133305872D01*
X256083162Y-133300759D01*
X256064388Y-133296262D01*
X256045395Y-133292439D01*
X256026162Y-133289350D01*
X255945622Y-133269328D01*
X255866254Y-133245705D01*
X255788132Y-133218603D01*
X255711332Y-133188139D01*
X255635928Y-133154435D01*
X255561994Y-133117608D01*
X255489606Y-133077780D01*
X255418838Y-133035069D01*
X255349764Y-132989595D01*
X255282459Y-132941477D01*
X255216998Y-132890836D01*
X255153455Y-132837790D01*
X255091906Y-132782460D01*
X255032424Y-132724965D01*
X254975084Y-132665423D01*
X254919961Y-132603956D01*
X254557755Y-132951789D01*
X254378123Y-133127330D01*
X254200208Y-133304585D01*
X254024562Y-133484029D01*
X253851737Y-133666135D01*
X253682286Y-133851377D01*
X253516761Y-134040228D01*
X253494012Y-134066823D01*
X253471907Y-134094887D01*
X253428727Y-134153861D01*
X253385415Y-134214032D01*
X253363145Y-134243592D01*
X253340164Y-134272282D01*
X253316248Y-134299713D01*
X253291169Y-134325495D01*
X253278123Y-134337646D01*
X253264702Y-134349238D01*
X253250877Y-134360223D01*
X253236621Y-134370553D01*
X253221905Y-134380178D01*
X253206701Y-134389050D01*
X253190980Y-134397119D01*
X253174715Y-134404339D01*
X253157877Y-134410659D01*
X253140439Y-134416030D01*
X253122371Y-134420405D01*
X253103645Y-134423735D01*
X253086561Y-134419868D01*
X253069994Y-134415076D01*
X253053938Y-134409395D01*
X253038384Y-134402862D01*
X253023324Y-134395513D01*
X253008752Y-134387385D01*
X252994660Y-134378512D01*
X252981040Y-134368933D01*
X252967885Y-134358682D01*
X252955187Y-134347797D01*
X252931132Y-134324267D01*
X252908816Y-134298633D01*
X252888177Y-134271186D01*
X252869155Y-134242215D01*
X252851691Y-134212010D01*
X252835723Y-134180861D01*
X252821192Y-134149059D01*
X252808036Y-134116893D01*
X252796197Y-134084654D01*
X252785612Y-134052631D01*
X252776222Y-134021115D01*
X252974742Y-133810331D01*
X253176554Y-133601363D01*
X253585007Y-133185620D01*
X253789126Y-132977219D01*
X253991491Y-132767381D01*
X254190843Y-132555292D01*
X254385918Y-132340138D01*
X254157220Y-132518185D01*
X253930476Y-132699201D01*
X253479756Y-133065637D01*
X253027563Y-133430428D01*
X252798980Y-133609389D01*
X252567706Y-133784556D01*
X252543406Y-133787882D01*
X252519376Y-133789795D01*
X252495608Y-133790358D01*
X252472092Y-133789632D01*
X252448820Y-133787682D01*
X252425782Y-133784569D01*
X252402968Y-133780357D01*
X252380371Y-133775108D01*
X252357980Y-133768884D01*
X252335787Y-133761750D01*
X252291955Y-133744997D01*
X252248803Y-133725352D01*
X252206257Y-133703316D01*
X251878882Y-133501172D01*
X252120282Y-133307702D01*
X252367763Y-133121356D01*
X252620224Y-132941046D01*
X252876566Y-132765685D01*
X253135691Y-132594188D01*
X253396500Y-132425466D01*
X253918770Y-132092002D01*
X254297966Y-131590088D01*
X254489417Y-131340222D01*
X254684197Y-131093051D01*
X254883876Y-130850051D01*
X255090022Y-130612698D01*
X255196010Y-130496600D01*
X255304205Y-130382468D01*
X255414801Y-130270485D01*
X255527995Y-130160837D01*
X255697723Y-130008759D01*
X255786206Y-129933923D01*
X255877039Y-129860727D01*
X255970174Y-129789800D01*
X256065563Y-129721768D01*
X256163160Y-129657260D01*
X256262915Y-129596904D01*
X256364783Y-129541328D01*
X256468715Y-129491161D01*
X256574664Y-129447030D01*
X256682581Y-129409563D01*
X256792421Y-129379388D01*
X256904134Y-129357134D01*
X257017673Y-129343428D01*
X257075113Y-129339976D01*
X257132992Y-129338898D01*
X257157068Y-129339164D01*
X257181218Y-129339855D01*
X257205442Y-129340977D01*
X257229738Y-129342535D01*
X257254106Y-129344534D01*
X257278547Y-129346982D01*
X257303059Y-129349883D01*
X257327643Y-129353242D01*
X257415565Y-129295195D01*
X257504697Y-129238826D01*
X257684275Y-129127846D01*
X257773560Y-129071598D01*
X257861737Y-129013752D01*
X257948226Y-128953491D01*
X257990656Y-128922198D01*
X258032447Y-128889995D01*
X258099840Y-128832467D01*
X258169893Y-128777954D01*
X258242429Y-128726544D01*
X258317269Y-128678324D01*
X258394237Y-128633379D01*
X258473153Y-128591798D01*
X258553841Y-128553668D01*
X258636122Y-128519074D01*
X258719818Y-128488105D01*
X258804752Y-128460848D01*
X258890746Y-128437388D01*
X258977622Y-128417814D01*
X259065201Y-128402212D01*
X259153307Y-128390669D01*
X259241762Y-128383272D01*
X259330387Y-128380109D01*
X259330315Y-128380122D01*
X259341803Y-128380026D01*
X259353247Y-128380002D01*
X259364661Y-128380050D01*
G36*
X259364661Y-128380050D02*
G01*
X259376060Y-128380171D01*
X259447628Y-128382592D01*
X259519042Y-128387907D01*
X259554662Y-128391664D01*
X259590207Y-128396162D01*
X259625666Y-128401407D01*
X259661026Y-128407404D01*
X259696277Y-128414159D01*
X259731405Y-128421678D01*
X259766400Y-128429967D01*
X259801248Y-128439031D01*
X259835939Y-128448877D01*
X259870460Y-128459509D01*
X259904799Y-128470934D01*
X259938944Y-128483157D01*
X259987151Y-128503381D01*
X260035512Y-128525257D01*
X260083719Y-128548840D01*
X260131464Y-128574185D01*
X260178439Y-128601346D01*
X260224336Y-128630379D01*
X260268846Y-128661338D01*
X260311661Y-128694278D01*
X260352473Y-128729254D01*
X260390975Y-128766321D01*
X260426856Y-128805534D01*
X260443719Y-128825962D01*
X260459811Y-128846947D01*
X260475094Y-128868496D01*
X260489529Y-128890615D01*
X260503079Y-128913312D01*
X260515704Y-128936594D01*
X260527366Y-128960467D01*
X260538027Y-128984938D01*
X260547647Y-129010014D01*
X260556189Y-129035702D01*
X260888214Y-129138516D01*
X261219298Y-129244426D01*
X261549501Y-129353126D01*
X261878882Y-129464312D01*
X260654887Y-129454765D01*
X260959270Y-129542879D01*
X261264299Y-129628835D01*
X261570034Y-129712234D01*
X261876533Y-129792681D01*
X261702308Y-129805855D01*
X261525629Y-129814533D01*
X261167531Y-129825093D01*
X260987426Y-129830318D01*
X260807494Y-129837737D01*
X260628390Y-129849023D01*
X260450773Y-129865847D01*
X260424466Y-129907728D01*
X260396557Y-129948670D01*
X260367164Y-129988691D01*
X260336405Y-130027812D01*
X260304396Y-130066052D01*
X260271255Y-130103430D01*
X260237099Y-130139964D01*
X260202045Y-130175676D01*
X260166212Y-130210583D01*
X260129715Y-130244705D01*
X260092673Y-130278062D01*
X260055202Y-130310673D01*
X259979445Y-130373734D01*
X259903383Y-130434042D01*
X259942850Y-130547054D01*
X259960933Y-130604621D01*
X259977670Y-130662797D01*
X259992875Y-130721503D01*
X260006365Y-130780666D01*
X260017955Y-130840210D01*
X260027460Y-130900058D01*
X260034696Y-130960136D01*
X260039479Y-131020368D01*
X260041623Y-131080679D01*
X260040944Y-131140992D01*
X260037259Y-131201233D01*
X260030381Y-131261325D01*
X260020127Y-131321194D01*
X260006313Y-131380763D01*
X259997041Y-131420252D01*
X259985201Y-131458630D01*
X259971140Y-131496047D01*
X259955205Y-131532656D01*
X259937743Y-131568609D01*
X259919102Y-131604057D01*
X259879672Y-131674045D01*
X259839690Y-131743835D01*
X259820361Y-131779035D01*
X259801936Y-131814641D01*
X259784762Y-131850804D01*
X259769186Y-131887676D01*
X259755556Y-131925409D01*
X259744218Y-131964154D01*
X259671051Y-132129051D01*
X259585329Y-132286242D01*
X259487863Y-132435476D01*
X259379464Y-132576500D01*
X259260944Y-132709062D01*
X259133111Y-132832911D01*
X258996779Y-132947794D01*
X258852756Y-133053460D01*
X258701855Y-133149656D01*
X258544885Y-133236131D01*
X258382658Y-133312633D01*
X258215984Y-133378909D01*
X258045674Y-133434708D01*
X257872539Y-133479778D01*
X257697390Y-133513866D01*
X257521036Y-133536721D01*
X257549824Y-133644255D01*
X257583650Y-133750085D01*
X257621695Y-133854478D01*
X257663141Y-133957700D01*
X257752960Y-134161700D01*
X257846560Y-134364220D01*
X257937390Y-134567394D01*
X257979721Y-134669894D01*
X258018904Y-134773357D01*
X258054121Y-134878052D01*
X258084552Y-134984244D01*
X258109380Y-135092200D01*
X258127786Y-135202188D01*
X258334540Y-135223175D01*
X258541540Y-135242134D01*
X258644955Y-135252258D01*
X258748218Y-135263561D01*
X258851258Y-135276604D01*
X258954003Y-135291950D01*
X258960527Y-135293421D01*
X258966900Y-135295296D01*
X258973108Y-135297556D01*
X258979137Y-135300183D01*
X258984970Y-135303159D01*
X258990594Y-135306465D01*
X258995994Y-135310082D01*
X259001155Y-135313992D01*
X259006062Y-135318178D01*
X259010702Y-135322619D01*
X259015058Y-135327298D01*
X259019116Y-135332197D01*
X259022862Y-135337296D01*
X259026281Y-135342578D01*
X259029358Y-135348024D01*
X259032078Y-135353615D01*
X259034427Y-135359334D01*
X259036391Y-135365161D01*
X259037953Y-135371079D01*
X259039100Y-135377068D01*
X259039816Y-135383111D01*
X259040088Y-135389189D01*
X259039901Y-135395283D01*
X259039238Y-135401375D01*
X259038087Y-135407447D01*
X259036433Y-135413480D01*
X259034259Y-135419455D01*
X259031553Y-135425355D01*
X259028298Y-135431161D01*
X259024481Y-135436854D01*
X259020087Y-135442415D01*
X259015101Y-135447828D01*
X259005413Y-135454322D01*
X258995484Y-135459775D01*
X258985329Y-135464252D01*
X258974964Y-135467816D01*
X258964405Y-135470529D01*
X258953670Y-135472456D01*
X258942772Y-135473659D01*
X258931730Y-135474202D01*
X258920558Y-135474148D01*
X258909273Y-135473560D01*
X258886429Y-135471037D01*
X258863325Y-135467140D01*
X258840090Y-135462375D01*
X258793744Y-135452265D01*
X258770891Y-135447934D01*
X258748421Y-135444761D01*
X258726465Y-135443252D01*
X258715720Y-135443280D01*
X258705151Y-135443914D01*
X258694774Y-135445217D01*
X258684607Y-135447253D01*
X258674664Y-135450084D01*
X258664963Y-135453775D01*
X258674631Y-135459523D01*
X258685025Y-135466482D01*
X258707517Y-135483672D01*
X258731501Y-135504620D01*
X258756039Y-135528598D01*
X258780194Y-135554879D01*
X258803027Y-135582737D01*
X258813656Y-135597030D01*
X258823602Y-135611444D01*
X258832749Y-135625889D01*
X258840980Y-135640274D01*
X258848178Y-135654508D01*
X258854224Y-135668500D01*
X258859002Y-135682159D01*
X258862396Y-135695395D01*
X258864286Y-135708116D01*
X258864557Y-135720232D01*
X258863092Y-135731651D01*
X258859772Y-135742284D01*
X258854480Y-135752038D01*
X258851059Y-135756558D01*
X258847101Y-135760824D01*
X258842591Y-135764825D01*
X258837515Y-135768550D01*
X258825607Y-135775126D01*
X258811258Y-135780461D01*
X258794352Y-135784463D01*
X258774771Y-135787042D01*
X258752398Y-135788107D01*
X258725028Y-135755221D01*
X258696434Y-135723609D01*
X258666698Y-135693207D01*
X258635904Y-135663948D01*
X258604135Y-135635766D01*
X258571474Y-135608597D01*
X258538004Y-135582374D01*
X258503809Y-135557031D01*
X258468971Y-135532504D01*
X258433573Y-135508726D01*
X258361432Y-135463157D01*
X258288051Y-135419798D01*
X258214095Y-135378124D01*
X258223136Y-135399906D01*
X258232812Y-135421573D01*
X258253355Y-135464728D01*
X258274307Y-135507928D01*
X258294247Y-135551509D01*
X258303394Y-135573548D01*
X258311756Y-135595810D01*
X258319155Y-135618336D01*
X258325415Y-135641168D01*
X258330357Y-135664349D01*
X258333805Y-135687922D01*
X258335581Y-135711927D01*
X258335786Y-135724106D01*
X258335507Y-135736408D01*
X258334116Y-135743466D01*
X258332140Y-135750155D01*
X258329616Y-135756469D01*
X258326578Y-135762405D01*
X258323062Y-135767958D01*
X258319105Y-135773123D01*
X258314742Y-135777895D01*
X258310009Y-135782270D01*
X258304941Y-135786242D01*
X258299574Y-135789808D01*
X258293944Y-135792962D01*
X258288086Y-135795700D01*
X258282037Y-135798017D01*
X258275833Y-135799909D01*
X258269508Y-135801370D01*
X258263098Y-135802396D01*
X258256640Y-135802983D01*
X258250170Y-135803125D01*
X258243722Y-135802818D01*
X258237332Y-135802057D01*
X258231037Y-135800838D01*
X258224872Y-135799156D01*
X258218872Y-135797005D01*
X258213074Y-135794382D01*
X258207514Y-135791282D01*
X258202226Y-135787700D01*
X258197247Y-135783631D01*
X258192613Y-135779071D01*
X258188359Y-135774015D01*
X258184521Y-135768457D01*
X258181134Y-135762395D01*
X258178235Y-135755822D01*
X258173019Y-135729948D01*
X258166508Y-135704575D01*
X258158837Y-135679653D01*
X258150138Y-135655128D01*
X258140546Y-135630948D01*
X258130194Y-135607061D01*
X258119217Y-135583415D01*
X258107748Y-135559956D01*
X258059631Y-135466958D01*
X258036101Y-135420227D01*
X258024937Y-135396621D01*
X258014351Y-135372785D01*
X257456026Y-135293524D01*
X257450227Y-135290021D01*
X257444898Y-135286086D01*
X257440037Y-135281753D01*
X257435637Y-135277056D01*
X257431696Y-135272029D01*
X257428208Y-135266706D01*
X257425169Y-135261121D01*
X257422575Y-135255308D01*
X257420422Y-135249302D01*
X257418704Y-135243136D01*
X257417418Y-135236844D01*
X257416559Y-135230462D01*
X257416123Y-135224021D01*
X257416106Y-135217558D01*
X257416502Y-135211105D01*
X257417308Y-135204697D01*
X257418520Y-135198368D01*
X257420132Y-135192152D01*
X257422141Y-135186083D01*
X257424542Y-135180195D01*
X257427330Y-135174523D01*
X257430502Y-135169100D01*
X257434053Y-135163960D01*
X257437979Y-135159138D01*
X257442274Y-135154667D01*
X257446936Y-135150582D01*
X257451958Y-135146917D01*
X257457338Y-135143706D01*
X257463071Y-135140982D01*
X257469151Y-135138780D01*
X257475576Y-135137135D01*
X257482340Y-135136079D01*
X257511207Y-135136238D01*
X257540005Y-135137179D01*
X257597427Y-135141033D01*
X257654673Y-135146884D01*
X257711809Y-135153976D01*
X257826016Y-135168857D01*
X257883218Y-135175134D01*
X257940575Y-135179626D01*
X257936128Y-135128484D01*
X257929134Y-135078023D01*
X257919771Y-135028208D01*
X257908214Y-134979009D01*
X257894642Y-134930393D01*
X257879230Y-134882327D01*
X257862158Y-134834780D01*
X257843601Y-134787718D01*
X257823737Y-134741110D01*
X257802743Y-134694923D01*
X257758074Y-134603683D01*
X257711010Y-134513739D01*
X257662970Y-134424832D01*
X257621975Y-134313859D01*
X257578461Y-134203927D01*
X257487666Y-133985651D01*
X257442280Y-133876540D01*
X257398164Y-133766935D01*
X257356266Y-133656452D01*
X257317532Y-133544708D01*
X257265118Y-133548578D01*
X257212746Y-133550892D01*
X257160426Y-133551718D01*
X257108167Y-133551121D01*
X257055978Y-133549169D01*
X257003870Y-133545929D01*
X256951852Y-133541469D01*
X256899932Y-133535854D01*
X256796427Y-133521432D01*
X256693430Y-133503199D01*
X256591017Y-133481690D01*
X256489263Y-133457443D01*
X256400792Y-134408358D01*
X256381722Y-134646257D01*
X256366162Y-134884249D01*
X256355257Y-135122348D01*
X256350153Y-135360566D01*
X256363897Y-135366513D01*
X256378194Y-135371625D01*
X256393004Y-135375970D01*
X256408286Y-135379620D01*
X256440098Y-135385111D01*
X256473301Y-135388658D01*
X256507567Y-135390821D01*
X256542565Y-135392160D01*
X256613442Y-135394605D01*
X256648663Y-135396830D01*
X256683299Y-135400471D01*
X256717021Y-135406088D01*
X256733436Y-135409812D01*
X256749500Y-135414240D01*
X256765170Y-135419441D01*
X256780407Y-135425486D01*
X256795167Y-135432446D01*
X256809412Y-135440388D01*
X256823098Y-135449385D01*
X256836186Y-135459505D01*
X256848633Y-135470820D01*
X256860399Y-135483397D01*
X256861911Y-135496816D01*
X256862283Y-135509219D01*
X256861569Y-135520638D01*
X256859824Y-135531107D01*
X256857101Y-135540658D01*
X256853455Y-135549324D01*
X256848939Y-135557139D01*
X256843609Y-135564134D01*
X256837518Y-135570344D01*
X256830720Y-135575801D01*
X256823270Y-135580537D01*
X256815222Y-135584586D01*
X256806630Y-135587981D01*
X256797548Y-135590755D01*
X256788031Y-135592939D01*
X256778132Y-135594568D01*
X256757406Y-135596291D01*
X256735805Y-135596186D01*
X256713762Y-135594517D01*
X256691711Y-135591545D01*
X256670085Y-135587536D01*
X256649317Y-135582752D01*
X256629841Y-135577456D01*
X256612090Y-135571911D01*
X256622966Y-135584422D01*
X256634656Y-135596712D01*
X256660151Y-135620737D01*
X256687928Y-135644200D01*
X256717343Y-135667315D01*
X256778493Y-135713360D01*
X256808935Y-135736720D01*
X256838427Y-135760590D01*
X256866322Y-135785185D01*
X256879469Y-135797821D01*
X256891973Y-135810720D01*
X256903755Y-135823907D01*
X256914734Y-135837409D01*
X256924828Y-135851253D01*
X256933957Y-135865467D01*
X256942040Y-135880076D01*
X256948996Y-135895109D01*
X256954744Y-135910590D01*
X256959204Y-135926548D01*
X256962295Y-135943009D01*
X256963935Y-135960000D01*
X256964045Y-135977548D01*
X256962542Y-135995680D01*
X256945520Y-136002847D01*
X256929008Y-136007862D01*
X256912973Y-136010842D01*
X256897387Y-136011905D01*
X256882217Y-136011169D01*
X256867435Y-136008752D01*
X256853008Y-136004773D01*
X256838907Y-135999349D01*
X256825101Y-135992599D01*
X256811559Y-135984640D01*
X256798250Y-135975591D01*
X256785145Y-135965570D01*
X256759421Y-135943083D01*
X256734142Y-135918124D01*
X256683939Y-135864569D01*
X256658526Y-135837862D01*
X256632578Y-135812460D01*
X256605852Y-135789310D01*
X256592120Y-135778875D01*
X256578101Y-135769356D01*
X256563765Y-135760872D01*
X256549081Y-135753542D01*
X256534019Y-135747482D01*
X256518548Y-135742812D01*
X256540014Y-135793167D01*
X256562262Y-135843653D01*
X256584287Y-135894448D01*
X256605079Y-135945728D01*
X256614698Y-135971605D01*
X256623631Y-135997669D01*
X256631753Y-136023942D01*
X256638936Y-136050447D01*
X256645056Y-136077205D01*
X256649986Y-136104238D01*
X256653601Y-136131569D01*
X256655774Y-136159219D01*
X256653891Y-136166334D01*
X256651441Y-136173076D01*
X256648458Y-136179438D01*
X256644978Y-136185416D01*
X256641038Y-136191004D01*
X256636674Y-136196194D01*
X256631921Y-136200982D01*
X256626814Y-136205361D01*
X256621391Y-136209326D01*
X256615686Y-136212870D01*
X256609736Y-136215988D01*
X256603576Y-136218674D01*
X256597243Y-136220922D01*
X256590772Y-136222726D01*
X256584198Y-136224080D01*
X256577559Y-136224978D01*
X256570890Y-136225415D01*
X256564226Y-136225383D01*
X256557603Y-136224879D01*
X256551058Y-136223894D01*
X256544625Y-136222425D01*
X256538342Y-136220464D01*
X256532244Y-136218006D01*
X256526366Y-136215045D01*
X256520745Y-136211575D01*
X256515416Y-136207590D01*
X256510416Y-136203084D01*
X256505780Y-136198051D01*
X256501543Y-136192486D01*
X256497743Y-136186383D01*
X256494414Y-136179734D01*
X256491593Y-136172536D01*
X256480774Y-136122791D01*
X256467518Y-136073769D01*
X256451902Y-136025535D01*
X256434000Y-135978159D01*
X256413888Y-135931706D01*
X256391640Y-135886247D01*
X256367333Y-135841846D01*
X256341041Y-135798574D01*
X256312840Y-135756496D01*
X256282805Y-135715682D01*
X256251011Y-135676197D01*
X256217533Y-135638111D01*
X256182448Y-135601491D01*
X256145829Y-135566404D01*
X256107753Y-135532918D01*
X256068294Y-135501101D01*
X256011468Y-135480388D01*
X255955013Y-135458430D01*
X255899006Y-135435217D01*
X255843524Y-135410736D01*
X255788644Y-135384979D01*
X255734444Y-135357933D01*
X255680999Y-135329588D01*
X255628389Y-135299932D01*
X255621420Y-135295055D01*
X255615304Y-135289682D01*
X255610016Y-135283863D01*
X255605533Y-135277652D01*
X255601831Y-135271098D01*
X255598886Y-135264255D01*
X255596675Y-135257173D01*
X255595174Y-135249904D01*
X255594359Y-135242499D01*
X255594207Y-135235011D01*
X255594695Y-135227491D01*
X255595797Y-135219989D01*
X255597491Y-135212559D01*
X255599754Y-135205251D01*
X255602561Y-135198118D01*
X255605888Y-135191210D01*
X255609713Y-135184579D01*
X255614010Y-135178277D01*
X255618758Y-135172355D01*
X255623932Y-135166865D01*
X255629508Y-135161859D01*
X255635463Y-135157388D01*
X255641773Y-135153503D01*
X255648414Y-135150257D01*
X255655363Y-135147701D01*
X255662596Y-135145886D01*
X255670090Y-135144864D01*
X255677820Y-135144686D01*
X255685764Y-135145405D01*
X255693896Y-135147072D01*
X255702195Y-135149737D01*
X255710636Y-135153454D01*
X255740385Y-135164442D01*
X255769704Y-135176582D01*
X255798672Y-135189655D01*
X255827370Y-135203444D01*
X255941053Y-135261394D01*
X255969596Y-135275491D01*
X255998346Y-135288995D01*
X256027385Y-135301688D01*
X256056792Y-135313352D01*
X256086647Y-135323770D01*
X256117029Y-135332724D01*
X256148019Y-135339994D01*
X256179696Y-135345364D01*
X256179589Y-135100613D01*
X256186975Y-134856172D01*
X256200552Y-134611999D01*
X256219015Y-134368052D01*
X256265390Y-133880666D01*
X256315673Y-133393677D01*
X256245300Y-133361823D01*
X256209984Y-133346155D01*
X256174384Y-133331292D01*
X256156431Y-133324310D01*
X256138350Y-133317706D01*
X256120125Y-133311541D01*
X256101735Y-133305872D01*
X256083162Y-133300759D01*
X256064388Y-133296262D01*
X256045395Y-133292439D01*
X256026162Y-133289350D01*
X255945622Y-133269328D01*
X255866254Y-133245705D01*
X255788132Y-133218603D01*
X255711332Y-133188139D01*
X255635928Y-133154435D01*
X255561994Y-133117608D01*
X255489606Y-133077780D01*
X255418838Y-133035069D01*
X255349764Y-132989595D01*
X255282459Y-132941477D01*
X255216998Y-132890836D01*
X255153455Y-132837790D01*
X255091906Y-132782460D01*
X255032424Y-132724965D01*
X254975084Y-132665423D01*
X254919961Y-132603956D01*
X254557755Y-132951789D01*
X254378123Y-133127330D01*
X254200208Y-133304585D01*
X254024562Y-133484029D01*
X253851737Y-133666135D01*
X253682286Y-133851377D01*
X253516761Y-134040228D01*
X253494012Y-134066823D01*
X253471907Y-134094887D01*
X253428727Y-134153861D01*
X253385415Y-134214032D01*
X253363145Y-134243592D01*
X253340164Y-134272282D01*
X253316248Y-134299713D01*
X253291169Y-134325495D01*
X253278123Y-134337646D01*
X253264702Y-134349238D01*
X253250877Y-134360223D01*
X253236621Y-134370553D01*
X253221905Y-134380178D01*
X253206701Y-134389050D01*
X253190980Y-134397119D01*
X253174715Y-134404339D01*
X253157877Y-134410659D01*
X253140439Y-134416030D01*
X253122371Y-134420405D01*
X253103645Y-134423735D01*
X253086561Y-134419868D01*
X253069994Y-134415076D01*
X253053938Y-134409395D01*
X253038384Y-134402862D01*
X253023324Y-134395513D01*
X253008752Y-134387385D01*
X252994660Y-134378512D01*
X252981040Y-134368933D01*
X252967885Y-134358682D01*
X252955187Y-134347797D01*
X252931132Y-134324267D01*
X252908816Y-134298633D01*
X252888177Y-134271186D01*
X252869155Y-134242215D01*
X252851691Y-134212010D01*
X252835723Y-134180861D01*
X252821192Y-134149059D01*
X252808036Y-134116893D01*
X252796197Y-134084654D01*
X252785612Y-134052631D01*
X252776222Y-134021115D01*
X252974742Y-133810331D01*
X253176554Y-133601363D01*
X253585007Y-133185620D01*
X253789126Y-132977219D01*
X253991491Y-132767381D01*
X254190843Y-132555292D01*
X254385918Y-132340138D01*
X254157220Y-132518185D01*
X253930476Y-132699201D01*
X253479756Y-133065637D01*
X253027563Y-133430428D01*
X252798980Y-133609389D01*
X252567706Y-133784556D01*
X252543406Y-133787882D01*
X252519376Y-133789795D01*
X252495608Y-133790358D01*
X252472092Y-133789632D01*
X252448820Y-133787682D01*
X252425782Y-133784569D01*
X252402968Y-133780357D01*
X252380371Y-133775108D01*
X252357980Y-133768884D01*
X252335787Y-133761750D01*
X252291955Y-133744997D01*
X252248803Y-133725352D01*
X252206257Y-133703316D01*
X251878882Y-133501172D01*
X252120282Y-133307702D01*
X252367763Y-133121356D01*
X252620224Y-132941046D01*
X252876566Y-132765685D01*
X253135691Y-132594188D01*
X253396500Y-132425466D01*
X253918770Y-132092002D01*
X254297966Y-131590088D01*
X254489417Y-131340222D01*
X254684197Y-131093051D01*
X254883876Y-130850051D01*
X255090022Y-130612698D01*
X255196010Y-130496600D01*
X255304205Y-130382468D01*
X255414801Y-130270485D01*
X255527995Y-130160837D01*
X255697723Y-130008759D01*
X255786206Y-129933923D01*
X255877039Y-129860727D01*
X255970174Y-129789800D01*
X256065563Y-129721768D01*
X256163160Y-129657260D01*
X256262915Y-129596904D01*
X256364783Y-129541328D01*
X256468715Y-129491161D01*
X256574664Y-129447030D01*
X256682581Y-129409563D01*
X256792421Y-129379388D01*
X256904134Y-129357134D01*
X257017673Y-129343428D01*
X257075113Y-129339976D01*
X257132992Y-129338898D01*
X257157068Y-129339164D01*
X257181218Y-129339855D01*
X257205442Y-129340977D01*
X257229738Y-129342535D01*
X257254106Y-129344534D01*
X257278547Y-129346982D01*
X257303059Y-129349883D01*
X257327643Y-129353242D01*
X257415565Y-129295195D01*
X257504697Y-129238826D01*
X257684275Y-129127846D01*
X257773560Y-129071598D01*
X257861737Y-129013752D01*
X257948226Y-128953491D01*
X257990656Y-128922198D01*
X258032447Y-128889995D01*
X258099840Y-128832467D01*
X258169893Y-128777954D01*
X258242429Y-128726544D01*
X258317269Y-128678324D01*
X258394237Y-128633379D01*
X258473153Y-128591798D01*
X258553841Y-128553668D01*
X258636122Y-128519074D01*
X258719818Y-128488105D01*
X258804752Y-128460848D01*
X258890746Y-128437388D01*
X258977622Y-128417814D01*
X259065201Y-128402212D01*
X259153307Y-128390669D01*
X259241762Y-128383272D01*
X259330387Y-128380109D01*
X259330315Y-128380122D01*
X259341803Y-128380026D01*
X259353247Y-128380002D01*
X259364661Y-128380050D01*
G37*
D11*
X241401175Y-131373950D02*
X241401175Y-132802521D01*
X241401175Y-132802521D02*
X241305936Y-133088235D01*
X241305936Y-133088235D02*
X241115460Y-133278712D01*
X241115460Y-133278712D02*
X240829746Y-133373950D01*
X240829746Y-133373950D02*
X240639270Y-133373950D01*
X242353556Y-131373950D02*
X242353556Y-132992997D01*
X242353556Y-132992997D02*
X242448794Y-133183473D01*
X242448794Y-133183473D02*
X242544032Y-133278712D01*
X242544032Y-133278712D02*
X242734508Y-133373950D01*
X242734508Y-133373950D02*
X243115461Y-133373950D01*
X243115461Y-133373950D02*
X243305937Y-133278712D01*
X243305937Y-133278712D02*
X243401175Y-133183473D01*
X243401175Y-133183473D02*
X243496413Y-132992997D01*
X243496413Y-132992997D02*
X243496413Y-131373950D01*
X244448794Y-133373950D02*
X244448794Y-131373950D01*
X244448794Y-131373950D02*
X245591651Y-133373950D01*
X245591651Y-133373950D02*
X245591651Y-131373950D01*
X247686889Y-133183473D02*
X247591651Y-133278712D01*
X247591651Y-133278712D02*
X247305937Y-133373950D01*
X247305937Y-133373950D02*
X247115461Y-133373950D01*
X247115461Y-133373950D02*
X246829746Y-133278712D01*
X246829746Y-133278712D02*
X246639270Y-133088235D01*
X246639270Y-133088235D02*
X246544032Y-132897759D01*
X246544032Y-132897759D02*
X246448794Y-132516807D01*
X246448794Y-132516807D02*
X246448794Y-132231092D01*
X246448794Y-132231092D02*
X246544032Y-131850140D01*
X246544032Y-131850140D02*
X246639270Y-131659664D01*
X246639270Y-131659664D02*
X246829746Y-131469188D01*
X246829746Y-131469188D02*
X247115461Y-131373950D01*
X247115461Y-131373950D02*
X247305937Y-131373950D01*
X247305937Y-131373950D02*
X247591651Y-131469188D01*
X247591651Y-131469188D02*
X247686889Y-131564426D01*
X248924984Y-131373950D02*
X249305937Y-131373950D01*
X249305937Y-131373950D02*
X249496413Y-131469188D01*
X249496413Y-131469188D02*
X249686889Y-131659664D01*
X249686889Y-131659664D02*
X249782127Y-132040616D01*
X249782127Y-132040616D02*
X249782127Y-132707283D01*
X249782127Y-132707283D02*
X249686889Y-133088235D01*
X249686889Y-133088235D02*
X249496413Y-133278712D01*
X249496413Y-133278712D02*
X249305937Y-133373950D01*
X249305937Y-133373950D02*
X248924984Y-133373950D01*
X248924984Y-133373950D02*
X248734508Y-133278712D01*
X248734508Y-133278712D02*
X248544032Y-133088235D01*
X248544032Y-133088235D02*
X248448794Y-132707283D01*
X248448794Y-132707283D02*
X248448794Y-132040616D01*
X248448794Y-132040616D02*
X248544032Y-131659664D01*
X248544032Y-131659664D02*
X248734508Y-131469188D01*
X248734508Y-131469188D02*
X248924984Y-131373950D01*
X97021739Y-131373950D02*
X97021739Y-132802521D01*
X97021739Y-132802521D02*
X96926500Y-133088235D01*
X96926500Y-133088235D02*
X96736024Y-133278712D01*
X96736024Y-133278712D02*
X96450310Y-133373950D01*
X96450310Y-133373950D02*
X96259834Y-133373950D01*
X97974120Y-131373950D02*
X97974120Y-132992997D01*
X97974120Y-132992997D02*
X98069358Y-133183473D01*
X98069358Y-133183473D02*
X98164596Y-133278712D01*
X98164596Y-133278712D02*
X98355072Y-133373950D01*
X98355072Y-133373950D02*
X98736025Y-133373950D01*
X98736025Y-133373950D02*
X98926501Y-133278712D01*
X98926501Y-133278712D02*
X99021739Y-133183473D01*
X99021739Y-133183473D02*
X99116977Y-132992997D01*
X99116977Y-132992997D02*
X99116977Y-131373950D01*
X100069358Y-133373950D02*
X100069358Y-131373950D01*
X100069358Y-131373950D02*
X101212215Y-133373950D01*
X101212215Y-133373950D02*
X101212215Y-131373950D01*
X103307453Y-133183473D02*
X103212215Y-133278712D01*
X103212215Y-133278712D02*
X102926501Y-133373950D01*
X102926501Y-133373950D02*
X102736025Y-133373950D01*
X102736025Y-133373950D02*
X102450310Y-133278712D01*
X102450310Y-133278712D02*
X102259834Y-133088235D01*
X102259834Y-133088235D02*
X102164596Y-132897759D01*
X102164596Y-132897759D02*
X102069358Y-132516807D01*
X102069358Y-132516807D02*
X102069358Y-132231092D01*
X102069358Y-132231092D02*
X102164596Y-131850140D01*
X102164596Y-131850140D02*
X102259834Y-131659664D01*
X102259834Y-131659664D02*
X102450310Y-131469188D01*
X102450310Y-131469188D02*
X102736025Y-131373950D01*
X102736025Y-131373950D02*
X102926501Y-131373950D01*
X102926501Y-131373950D02*
X103212215Y-131469188D01*
X103212215Y-131469188D02*
X103307453Y-131564426D01*
X104545548Y-131373950D02*
X104926501Y-131373950D01*
X104926501Y-131373950D02*
X105116977Y-131469188D01*
X105116977Y-131469188D02*
X105307453Y-131659664D01*
X105307453Y-131659664D02*
X105402691Y-132040616D01*
X105402691Y-132040616D02*
X105402691Y-132707283D01*
X105402691Y-132707283D02*
X105307453Y-133088235D01*
X105307453Y-133088235D02*
X105116977Y-133278712D01*
X105116977Y-133278712D02*
X104926501Y-133373950D01*
X104926501Y-133373950D02*
X104545548Y-133373950D01*
X104545548Y-133373950D02*
X104355072Y-133278712D01*
X104355072Y-133278712D02*
X104164596Y-133088235D01*
X104164596Y-133088235D02*
X104069358Y-132707283D01*
X104069358Y-132707283D02*
X104069358Y-132040616D01*
X104069358Y-132040616D02*
X104164596Y-131659664D01*
X104164596Y-131659664D02*
X104355072Y-131469188D01*
X104355072Y-131469188D02*
X104545548Y-131373950D01*
D12*
X149681141Y-143848919D02*
X149681141Y-143134634D01*
X149681141Y-143134634D02*
X149728760Y-142991777D01*
X149728760Y-142991777D02*
X149823998Y-142896539D01*
X149823998Y-142896539D02*
X149966855Y-142848919D01*
X149966855Y-142848919D02*
X150062093Y-142848919D01*
X149204950Y-142848919D02*
X149204950Y-143848919D01*
X149204950Y-143848919D02*
X148823998Y-143848919D01*
X148823998Y-143848919D02*
X148728760Y-143801300D01*
X148728760Y-143801300D02*
X148681141Y-143753681D01*
X148681141Y-143753681D02*
X148633522Y-143658443D01*
X148633522Y-143658443D02*
X148633522Y-143515586D01*
X148633522Y-143515586D02*
X148681141Y-143420348D01*
X148681141Y-143420348D02*
X148728760Y-143372729D01*
X148728760Y-143372729D02*
X148823998Y-143325110D01*
X148823998Y-143325110D02*
X149204950Y-143325110D01*
X147681141Y-142848919D02*
X148252569Y-142848919D01*
X147966855Y-142848919D02*
X147966855Y-143848919D01*
X147966855Y-143848919D02*
X148062093Y-143706062D01*
X148062093Y-143706062D02*
X148157331Y-143610824D01*
X148157331Y-143610824D02*
X148252569Y-143563205D01*
X196549893Y-139394234D02*
X196549893Y-140108519D01*
X196549893Y-140108519D02*
X196502274Y-140251376D01*
X196502274Y-140251376D02*
X196407036Y-140346615D01*
X196407036Y-140346615D02*
X196264179Y-140394234D01*
X196264179Y-140394234D02*
X196168941Y-140394234D01*
X197026084Y-140394234D02*
X197026084Y-139394234D01*
X197026084Y-139394234D02*
X197407036Y-139394234D01*
X197407036Y-139394234D02*
X197502274Y-139441853D01*
X197502274Y-139441853D02*
X197549893Y-139489472D01*
X197549893Y-139489472D02*
X197597512Y-139584710D01*
X197597512Y-139584710D02*
X197597512Y-139727567D01*
X197597512Y-139727567D02*
X197549893Y-139822805D01*
X197549893Y-139822805D02*
X197502274Y-139870424D01*
X197502274Y-139870424D02*
X197407036Y-139918043D01*
X197407036Y-139918043D02*
X197026084Y-139918043D01*
X197978465Y-139489472D02*
X198026084Y-139441853D01*
X198026084Y-139441853D02*
X198121322Y-139394234D01*
X198121322Y-139394234D02*
X198359417Y-139394234D01*
X198359417Y-139394234D02*
X198454655Y-139441853D01*
X198454655Y-139441853D02*
X198502274Y-139489472D01*
X198502274Y-139489472D02*
X198549893Y-139584710D01*
X198549893Y-139584710D02*
X198549893Y-139679948D01*
X198549893Y-139679948D02*
X198502274Y-139822805D01*
X198502274Y-139822805D02*
X197930846Y-140394234D01*
X197930846Y-140394234D02*
X198549893Y-140394234D01*
X36290476Y-121157200D02*
X36433333Y-121204819D01*
X36433333Y-121204819D02*
X36671428Y-121204819D01*
X36671428Y-121204819D02*
X36766666Y-121157200D01*
X36766666Y-121157200D02*
X36814285Y-121109580D01*
X36814285Y-121109580D02*
X36861904Y-121014342D01*
X36861904Y-121014342D02*
X36861904Y-120919104D01*
X36861904Y-120919104D02*
X36814285Y-120823866D01*
X36814285Y-120823866D02*
X36766666Y-120776247D01*
X36766666Y-120776247D02*
X36671428Y-120728628D01*
X36671428Y-120728628D02*
X36480952Y-120681009D01*
X36480952Y-120681009D02*
X36385714Y-120633390D01*
X36385714Y-120633390D02*
X36338095Y-120585771D01*
X36338095Y-120585771D02*
X36290476Y-120490533D01*
X36290476Y-120490533D02*
X36290476Y-120395295D01*
X36290476Y-120395295D02*
X36338095Y-120300057D01*
X36338095Y-120300057D02*
X36385714Y-120252438D01*
X36385714Y-120252438D02*
X36480952Y-120204819D01*
X36480952Y-120204819D02*
X36719047Y-120204819D01*
X36719047Y-120204819D02*
X36861904Y-120252438D01*
X37195238Y-120204819D02*
X37433333Y-121204819D01*
X37433333Y-121204819D02*
X37623809Y-120490533D01*
X37623809Y-120490533D02*
X37814285Y-121204819D01*
X37814285Y-121204819D02*
X38052381Y-120204819D01*
X38957142Y-121204819D02*
X38385714Y-121204819D01*
X38671428Y-121204819D02*
X38671428Y-120204819D01*
X38671428Y-120204819D02*
X38576190Y-120347676D01*
X38576190Y-120347676D02*
X38480952Y-120442914D01*
X38480952Y-120442914D02*
X38385714Y-120490533D01*
X39433333Y-121204819D02*
X39623809Y-121204819D01*
X39623809Y-121204819D02*
X39719047Y-121157200D01*
X39719047Y-121157200D02*
X39766666Y-121109580D01*
X39766666Y-121109580D02*
X39861904Y-120966723D01*
X39861904Y-120966723D02*
X39909523Y-120776247D01*
X39909523Y-120776247D02*
X39909523Y-120395295D01*
X39909523Y-120395295D02*
X39861904Y-120300057D01*
X39861904Y-120300057D02*
X39814285Y-120252438D01*
X39814285Y-120252438D02*
X39719047Y-120204819D01*
X39719047Y-120204819D02*
X39528571Y-120204819D01*
X39528571Y-120204819D02*
X39433333Y-120252438D01*
X39433333Y-120252438D02*
X39385714Y-120300057D01*
X39385714Y-120300057D02*
X39338095Y-120395295D01*
X39338095Y-120395295D02*
X39338095Y-120633390D01*
X39338095Y-120633390D02*
X39385714Y-120728628D01*
X39385714Y-120728628D02*
X39433333Y-120776247D01*
X39433333Y-120776247D02*
X39528571Y-120823866D01*
X39528571Y-120823866D02*
X39719047Y-120823866D01*
X39719047Y-120823866D02*
X39814285Y-120776247D01*
X39814285Y-120776247D02*
X39861904Y-120728628D01*
X39861904Y-120728628D02*
X39909523Y-120633390D01*
X306227676Y-121157200D02*
X306370533Y-121204819D01*
X306370533Y-121204819D02*
X306608628Y-121204819D01*
X306608628Y-121204819D02*
X306703866Y-121157200D01*
X306703866Y-121157200D02*
X306751485Y-121109580D01*
X306751485Y-121109580D02*
X306799104Y-121014342D01*
X306799104Y-121014342D02*
X306799104Y-120919104D01*
X306799104Y-120919104D02*
X306751485Y-120823866D01*
X306751485Y-120823866D02*
X306703866Y-120776247D01*
X306703866Y-120776247D02*
X306608628Y-120728628D01*
X306608628Y-120728628D02*
X306418152Y-120681009D01*
X306418152Y-120681009D02*
X306322914Y-120633390D01*
X306322914Y-120633390D02*
X306275295Y-120585771D01*
X306275295Y-120585771D02*
X306227676Y-120490533D01*
X306227676Y-120490533D02*
X306227676Y-120395295D01*
X306227676Y-120395295D02*
X306275295Y-120300057D01*
X306275295Y-120300057D02*
X306322914Y-120252438D01*
X306322914Y-120252438D02*
X306418152Y-120204819D01*
X306418152Y-120204819D02*
X306656247Y-120204819D01*
X306656247Y-120204819D02*
X306799104Y-120252438D01*
X307132438Y-120204819D02*
X307370533Y-121204819D01*
X307370533Y-121204819D02*
X307561009Y-120490533D01*
X307561009Y-120490533D02*
X307751485Y-121204819D01*
X307751485Y-121204819D02*
X307989581Y-120204819D01*
X308799104Y-120538152D02*
X308799104Y-121204819D01*
X308561009Y-120157200D02*
X308322914Y-120871485D01*
X308322914Y-120871485D02*
X308941961Y-120871485D01*
X309370533Y-121204819D02*
X309561009Y-121204819D01*
X309561009Y-121204819D02*
X309656247Y-121157200D01*
X309656247Y-121157200D02*
X309703866Y-121109580D01*
X309703866Y-121109580D02*
X309799104Y-120966723D01*
X309799104Y-120966723D02*
X309846723Y-120776247D01*
X309846723Y-120776247D02*
X309846723Y-120395295D01*
X309846723Y-120395295D02*
X309799104Y-120300057D01*
X309799104Y-120300057D02*
X309751485Y-120252438D01*
X309751485Y-120252438D02*
X309656247Y-120204819D01*
X309656247Y-120204819D02*
X309465771Y-120204819D01*
X309465771Y-120204819D02*
X309370533Y-120252438D01*
X309370533Y-120252438D02*
X309322914Y-120300057D01*
X309322914Y-120300057D02*
X309275295Y-120395295D01*
X309275295Y-120395295D02*
X309275295Y-120633390D01*
X309275295Y-120633390D02*
X309322914Y-120728628D01*
X309322914Y-120728628D02*
X309370533Y-120776247D01*
X309370533Y-120776247D02*
X309465771Y-120823866D01*
X309465771Y-120823866D02*
X309656247Y-120823866D01*
X309656247Y-120823866D02*
X309751485Y-120776247D01*
X309751485Y-120776247D02*
X309799104Y-120728628D01*
X309799104Y-120728628D02*
X309846723Y-120633390D01*
D13*
X247217200Y-125225000D02*
X247217200Y-124725000D01*
X247717200Y-125225000D02*
X247217200Y-125225000D01*
X247217200Y-87075000D02*
X247217200Y-86575000D01*
X247717200Y-87075000D02*
X247217200Y-87075000D01*
X209117200Y-95105000D02*
X209117200Y-94605000D01*
X209617200Y-95105000D02*
X209117200Y-95105000D01*
X136346382Y-142913612D02*
X136346382Y-142413612D01*
X136846382Y-142913612D02*
X136346382Y-142913612D01*
X202544654Y-143011288D02*
X202544654Y-142511288D01*
X203044654Y-143011288D02*
X202544654Y-143011288D01*
X91580000Y-49005000D02*
X91580000Y-48505000D01*
X92080000Y-49005000D02*
X91580000Y-49005000D01*
X294842200Y-104630000D02*
X294842200Y-104130000D01*
X295342200Y-104630000D02*
X294842200Y-104630000D01*
X129680000Y-95140000D02*
X129680000Y-94640000D01*
X130180000Y-95140000D02*
X129680000Y-95140000D01*
X43955000Y-66510000D02*
X43955000Y-66010000D01*
X44455000Y-66510000D02*
X43955000Y-66510000D01*
X209117200Y-57065000D02*
X209117200Y-56565000D01*
X209617200Y-57065000D02*
X209117200Y-57065000D01*
X247165000Y-49035000D02*
X247165000Y-48535000D01*
X247665000Y-49035000D02*
X247165000Y-49035000D01*
X91580000Y-87140000D02*
X91580000Y-86640000D01*
X92080000Y-87140000D02*
X91580000Y-87140000D01*
X43955000Y-104660000D02*
X43955000Y-104160000D01*
X44455000Y-104660000D02*
X43955000Y-104660000D01*
X294842200Y-66550000D02*
X294842200Y-66050000D01*
X295342200Y-66550000D02*
X294842200Y-66550000D01*
X91535000Y-125245000D02*
X91535000Y-124745000D01*
X92035000Y-125245000D02*
X91535000Y-125245000D01*
X129835000Y-56995000D02*
X129835000Y-56495000D01*
X130335000Y-56995000D02*
X129835000Y-56995000D01*
X34000000Y-120550000D02*
X34300000Y-120850000D01*
X34000000Y-121150000D02*
X34000000Y-120550000D01*
X34300000Y-120850000D02*
X34000000Y-121150000D01*
X303937200Y-120550000D02*
X304237200Y-120850000D01*
X303937200Y-121150000D02*
X303937200Y-120550000D01*
X304237200Y-120850000D02*
X303937200Y-121150000D01*
%LPC*%
D14*
X242951814Y-51076124D03*
D15*
X242951814Y-59076124D03*
D14*
X125409014Y-40026124D03*
D15*
X125409014Y-48026124D03*
D16*
X125734260Y-134780460D03*
D15*
X133151731Y-137777313D03*
D17*
X194696723Y-122283051D03*
D15*
X187279253Y-125279904D03*
D14*
X87309014Y-108226124D03*
D15*
X87309014Y-116226124D03*
D14*
X262001814Y-94676124D03*
D15*
X262001814Y-102676124D03*
D14*
X242951814Y-89176124D03*
D15*
X242951814Y-97176124D03*
D14*
X49209014Y-68576124D03*
D15*
X49209014Y-76576124D03*
D14*
X125409014Y-59076124D03*
D15*
X125409014Y-67076124D03*
D14*
X204851814Y-59076124D03*
D15*
X204851814Y-67076124D03*
D14*
X167361125Y-96917500D03*
D15*
X167361125Y-104917500D03*
D16*
X145461634Y-136842320D03*
D15*
X152879105Y-139839173D03*
D14*
X300101814Y-87626124D03*
D15*
X300101814Y-95626124D03*
D14*
X68259014Y-94676124D03*
D15*
X68259014Y-102676124D03*
D14*
X223901814Y-94676124D03*
D15*
X223901814Y-102676124D03*
D14*
X300101814Y-49526124D03*
D15*
X300101814Y-57526124D03*
D14*
X106359014Y-56576124D03*
D15*
X106359014Y-64576124D03*
D14*
X223901814Y-75626124D03*
D15*
X223901814Y-83626124D03*
D14*
X223901814Y-56576124D03*
D15*
X223901814Y-64576124D03*
D14*
X262001814Y-75626124D03*
D15*
X262001814Y-83626124D03*
D14*
X262001814Y-56576124D03*
D15*
X262001814Y-64576124D03*
D14*
X223901814Y-37526124D03*
D15*
X223901814Y-45526124D03*
D14*
X125409014Y-97176124D03*
D15*
X125409014Y-105176124D03*
D14*
X281051814Y-87626124D03*
D15*
X281051814Y-95626124D03*
D14*
X68259014Y-56576124D03*
D15*
X68259014Y-64576124D03*
D14*
X106359014Y-37526124D03*
D15*
X106359014Y-45526124D03*
D14*
X204851814Y-40026124D03*
D15*
X204851814Y-48026124D03*
D14*
X143928750Y-39277500D03*
D15*
X143928750Y-47277500D03*
D14*
X49209014Y-106676124D03*
D15*
X49209014Y-114676124D03*
D14*
X68259014Y-37526124D03*
D15*
X68259014Y-45526124D03*
D14*
X281051814Y-106676124D03*
D15*
X281051814Y-114676124D03*
D14*
X281051814Y-68576124D03*
D15*
X281051814Y-76576124D03*
D14*
X175848750Y-39827500D03*
D15*
X175848750Y-47827500D03*
D14*
X106359014Y-113726124D03*
D15*
X106359014Y-121726124D03*
D14*
X87309014Y-70126124D03*
D15*
X87309014Y-78126124D03*
D14*
X125409014Y-78126124D03*
D15*
X125409014Y-86126124D03*
D14*
X87309014Y-89176124D03*
D15*
X87309014Y-97176124D03*
D14*
X204851814Y-97176124D03*
D15*
X204851814Y-105176124D03*
D14*
X49209014Y-49526124D03*
D15*
X49209014Y-57526124D03*
D14*
X242951814Y-70126124D03*
D15*
X242951814Y-78126124D03*
D14*
X204851814Y-78126124D03*
D15*
X204851814Y-86126124D03*
D14*
X223901814Y-113726124D03*
D15*
X223901814Y-121726124D03*
D14*
X106359014Y-75626124D03*
D15*
X106359014Y-83626124D03*
D14*
X300101814Y-68576124D03*
D15*
X300101814Y-76576124D03*
D14*
X195721125Y-97087500D03*
D15*
X195721125Y-105087500D03*
D17*
X214546723Y-120146751D03*
D15*
X207129253Y-123143604D03*
D14*
X30159014Y-68576124D03*
D15*
X30159014Y-76576124D03*
D14*
X106359014Y-94676124D03*
D15*
X106359014Y-102676124D03*
D14*
X30026375Y-106726750D03*
D15*
X30026375Y-114726750D03*
D14*
X262001814Y-113726124D03*
D15*
X262001814Y-121726124D03*
D14*
X68259014Y-75626124D03*
D15*
X68259014Y-83626124D03*
D14*
X281051814Y-49526124D03*
D15*
X281051814Y-57526124D03*
D14*
X49209014Y-87626124D03*
D15*
X49209014Y-95626124D03*
D14*
X68259014Y-113726124D03*
D15*
X68259014Y-121726124D03*
D14*
X300101814Y-106676124D03*
D15*
X300101814Y-114676124D03*
D14*
X262001814Y-37526124D03*
D15*
X262001814Y-45526124D03*
D14*
X242951814Y-32026124D03*
D15*
X242951814Y-40026124D03*
D14*
X30159014Y-49526124D03*
D15*
X30159014Y-57526124D03*
D14*
X87309014Y-32026124D03*
D15*
X87309014Y-40026124D03*
D14*
X87309014Y-51076124D03*
D15*
X87309014Y-59076124D03*
D14*
X30159014Y-87626124D03*
D15*
X30159014Y-95626124D03*
D14*
X242951814Y-108226124D03*
D15*
X242951814Y-116226124D03*
D18*
X249217200Y-123815000D03*
D19*
X249567200Y-123815000D03*
D20*
X250867200Y-122365000D03*
X250867200Y-125265000D03*
D21*
X250887200Y-123815000D03*
D19*
X252167200Y-123815000D03*
D18*
X252517200Y-123815000D03*
D22*
X253567200Y-123075000D03*
X253567200Y-124575000D03*
D23*
X248167200Y-124565000D03*
D22*
X248167200Y-123065000D03*
D18*
X249217200Y-85665000D03*
D19*
X249567200Y-85665000D03*
D20*
X250867200Y-84215000D03*
X250867200Y-87115000D03*
D21*
X250887200Y-85665000D03*
D19*
X252167200Y-85665000D03*
D18*
X252517200Y-85665000D03*
D22*
X253567200Y-84925000D03*
X253567200Y-86425000D03*
D23*
X248167200Y-86415000D03*
D22*
X248167200Y-84915000D03*
D18*
X211117200Y-93695000D03*
D19*
X211467200Y-93695000D03*
D20*
X212767200Y-92245000D03*
X212767200Y-95145000D03*
D21*
X212787200Y-93695000D03*
D19*
X214067200Y-93695000D03*
D18*
X214417200Y-93695000D03*
D22*
X215467200Y-92955000D03*
X215467200Y-94455000D03*
D23*
X210067200Y-94445000D03*
D22*
X210067200Y-92945000D03*
D18*
X138346382Y-141503612D03*
D19*
X138696382Y-141503612D03*
D20*
X139996382Y-140053612D03*
X139996382Y-142953612D03*
D21*
X140016382Y-141503612D03*
D19*
X141296382Y-141503612D03*
D18*
X141646382Y-141503612D03*
D22*
X142696382Y-140763612D03*
X142696382Y-142263612D03*
D23*
X137296382Y-142253612D03*
D22*
X137296382Y-140753612D03*
D18*
X204544654Y-141601288D03*
D19*
X204894654Y-141601288D03*
D20*
X206194654Y-140151288D03*
X206194654Y-143051288D03*
D21*
X206214654Y-141601288D03*
D19*
X207494654Y-141601288D03*
D18*
X207844654Y-141601288D03*
D22*
X208894654Y-140861288D03*
X208894654Y-142361288D03*
D23*
X203494654Y-142351288D03*
D22*
X203494654Y-140851288D03*
D24*
X150017808Y-141573739D03*
D25*
X147677808Y-141573739D03*
D26*
X172693600Y-78452885D03*
X172693600Y-79202885D03*
X172693600Y-79952885D03*
X172693600Y-80702885D03*
D18*
X93580000Y-47595000D03*
D19*
X93930000Y-47595000D03*
D20*
X95230000Y-46145000D03*
X95230000Y-49045000D03*
D21*
X95250000Y-47595000D03*
D19*
X96530000Y-47595000D03*
D18*
X96880000Y-47595000D03*
D22*
X97930000Y-46855000D03*
X97930000Y-48355000D03*
D23*
X92530000Y-48345000D03*
D22*
X92530000Y-46845000D03*
D26*
X173443600Y-78452885D03*
X173443600Y-79202885D03*
X173443600Y-79952885D03*
X173443600Y-80702885D03*
D18*
X296842200Y-103220000D03*
D19*
X297192200Y-103220000D03*
D20*
X298492200Y-101770000D03*
X298492200Y-104670000D03*
D21*
X298512200Y-103220000D03*
D19*
X299792200Y-103220000D03*
D18*
X300142200Y-103220000D03*
D22*
X301192200Y-102480000D03*
X301192200Y-103980000D03*
D23*
X295792200Y-103970000D03*
D22*
X295792200Y-102470000D03*
D18*
X131680000Y-93730000D03*
D19*
X132030000Y-93730000D03*
D20*
X133330000Y-92280000D03*
X133330000Y-95180000D03*
D21*
X133350000Y-93730000D03*
D19*
X134630000Y-93730000D03*
D18*
X134980000Y-93730000D03*
D22*
X136030000Y-92990000D03*
X136030000Y-94490000D03*
D23*
X130630000Y-94480000D03*
D22*
X130630000Y-92980000D03*
D27*
X196213227Y-141669415D03*
D28*
X198553227Y-141669415D03*
D18*
X45955000Y-65100000D03*
D19*
X46305000Y-65100000D03*
D20*
X47605000Y-63650000D03*
X47605000Y-66550000D03*
D21*
X47625000Y-65100000D03*
D19*
X48905000Y-65100000D03*
D18*
X49255000Y-65100000D03*
D22*
X50305000Y-64360000D03*
X50305000Y-65860000D03*
D23*
X44905000Y-65850000D03*
D22*
X44905000Y-64350000D03*
D18*
X211117200Y-55655000D03*
D19*
X211467200Y-55655000D03*
D20*
X212767200Y-54205000D03*
X212767200Y-57105000D03*
D21*
X212787200Y-55655000D03*
D19*
X214067200Y-55655000D03*
D18*
X214417200Y-55655000D03*
D22*
X215467200Y-54915000D03*
X215467200Y-56415000D03*
D23*
X210067200Y-56405000D03*
D22*
X210067200Y-54905000D03*
D18*
X249165000Y-47625000D03*
D19*
X249515000Y-47625000D03*
D20*
X250815000Y-46175000D03*
X250815000Y-49075000D03*
D21*
X250835000Y-47625000D03*
D19*
X252115000Y-47625000D03*
D18*
X252465000Y-47625000D03*
D22*
X253515000Y-46885000D03*
X253515000Y-48385000D03*
D23*
X248115000Y-48375000D03*
D22*
X248115000Y-46875000D03*
D18*
X93580000Y-85730000D03*
D19*
X93930000Y-85730000D03*
D20*
X95230000Y-84280000D03*
X95230000Y-87180000D03*
D21*
X95250000Y-85730000D03*
D19*
X96530000Y-85730000D03*
D18*
X96880000Y-85730000D03*
D22*
X97930000Y-84990000D03*
X97930000Y-86490000D03*
D23*
X92530000Y-86480000D03*
D22*
X92530000Y-84980000D03*
D18*
X45955000Y-103250000D03*
D19*
X46305000Y-103250000D03*
D20*
X47605000Y-101800000D03*
X47605000Y-104700000D03*
D21*
X47625000Y-103250000D03*
D19*
X48905000Y-103250000D03*
D18*
X49255000Y-103250000D03*
D22*
X50305000Y-102510000D03*
X50305000Y-104010000D03*
D23*
X44905000Y-104000000D03*
D22*
X44905000Y-102500000D03*
D18*
X296842200Y-65140000D03*
D19*
X297192200Y-65140000D03*
D20*
X298492200Y-63690000D03*
X298492200Y-66590000D03*
D21*
X298512200Y-65140000D03*
D19*
X299792200Y-65140000D03*
D18*
X300142200Y-65140000D03*
D22*
X301192200Y-64400000D03*
X301192200Y-65900000D03*
D23*
X295792200Y-65890000D03*
D22*
X295792200Y-64390000D03*
D18*
X93535000Y-123835000D03*
D19*
X93885000Y-123835000D03*
D20*
X95185000Y-122385000D03*
X95185000Y-125285000D03*
D21*
X95205000Y-123835000D03*
D19*
X96485000Y-123835000D03*
D18*
X96835000Y-123835000D03*
D22*
X97885000Y-123095000D03*
X97885000Y-124595000D03*
D23*
X92485000Y-124585000D03*
D22*
X92485000Y-123085000D03*
D18*
X131835000Y-55585000D03*
D19*
X132185000Y-55585000D03*
D20*
X133485000Y-54135000D03*
X133485000Y-57035000D03*
D21*
X133505000Y-55585000D03*
D19*
X134785000Y-55585000D03*
D18*
X135135000Y-55585000D03*
D22*
X136185000Y-54845000D03*
X136185000Y-56345000D03*
D23*
X130785000Y-56335000D03*
D22*
X130785000Y-54835000D03*
D29*
X152294763Y-136532118D03*
D30*
X154197764Y-131822024D03*
D29*
X156100765Y-127111930D03*
D31*
X157980062Y-129240954D03*
X157956357Y-136080072D03*
D18*
X39767764Y-50528624D03*
D19*
X39417764Y-50528624D03*
D20*
X38117764Y-51978624D03*
X38117764Y-49078624D03*
D21*
X38097764Y-50528624D03*
D19*
X36817764Y-50528624D03*
D18*
X36467764Y-50528624D03*
D29*
X128267764Y-103258624D03*
D30*
X133347764Y-103258624D03*
D29*
X138427764Y-103258624D03*
D31*
X137157764Y-105798624D03*
X130807764Y-108338624D03*
D29*
X283910564Y-112758624D03*
D30*
X288990564Y-112758624D03*
D29*
X294070564Y-112758624D03*
D31*
X292800564Y-115298624D03*
X286450564Y-117838624D03*
D18*
X77867764Y-57578624D03*
D19*
X77517764Y-57578624D03*
D20*
X76217764Y-59028624D03*
X76217764Y-56128624D03*
D21*
X76197764Y-57578624D03*
D19*
X74917764Y-57578624D03*
D18*
X74567764Y-57578624D03*
D29*
X52067764Y-112758624D03*
D30*
X57147764Y-112758624D03*
D29*
X62227764Y-112758624D03*
D31*
X60957764Y-115298624D03*
X54607764Y-117838624D03*
D29*
X283910564Y-55608624D03*
D30*
X288990564Y-55608624D03*
D29*
X294070564Y-55608624D03*
D31*
X292800564Y-58148624D03*
X286450564Y-60688624D03*
D29*
X71117764Y-43608624D03*
D30*
X76197764Y-43608624D03*
D29*
X81277764Y-43608624D03*
D31*
X80007764Y-46148624D03*
X73657764Y-48688624D03*
D29*
X264860564Y-100758624D03*
D30*
X269940564Y-100758624D03*
D29*
X275020564Y-100758624D03*
D31*
X273750564Y-103298624D03*
X267400564Y-105838624D03*
D29*
X302960564Y-74658624D03*
D30*
X308040564Y-74658624D03*
D29*
X313120564Y-74658624D03*
D31*
X311850564Y-77198624D03*
X305500564Y-79738624D03*
D18*
X290660564Y-50528624D03*
D19*
X290310564Y-50528624D03*
D20*
X289010564Y-51978624D03*
X289010564Y-49078624D03*
D21*
X288990564Y-50528624D03*
D19*
X287710564Y-50528624D03*
D18*
X287360564Y-50528624D03*
D29*
X109217764Y-81708624D03*
D30*
X114297764Y-81708624D03*
D29*
X119377764Y-81708624D03*
D31*
X118107764Y-84248624D03*
X111757764Y-86788624D03*
D29*
X283910564Y-74658624D03*
D30*
X288990564Y-74658624D03*
D29*
X294070564Y-74658624D03*
D31*
X292800564Y-77198624D03*
X286450564Y-79738624D03*
D29*
X132444763Y-134408418D03*
D30*
X134347764Y-129698324D03*
D29*
X136250765Y-124988230D03*
D31*
X138130062Y-127117254D03*
X138106357Y-133956372D03*
D29*
X302960564Y-55608624D03*
D30*
X308040564Y-55608624D03*
D29*
X313120564Y-55608624D03*
D31*
X311850564Y-58148624D03*
X305500564Y-60688624D03*
D29*
X245810564Y-95258624D03*
D30*
X250890564Y-95258624D03*
D29*
X255970564Y-95258624D03*
D31*
X254700564Y-97798624D03*
X248350564Y-100338624D03*
D18*
X77867764Y-38528624D03*
D19*
X77517764Y-38528624D03*
D20*
X76217764Y-39978624D03*
X76217764Y-37078624D03*
D21*
X76197764Y-38528624D03*
D19*
X74917764Y-38528624D03*
D18*
X74567764Y-38528624D03*
D29*
X209978035Y-125075882D03*
D30*
X211881036Y-129785976D03*
D29*
X213784037Y-134496070D03*
D31*
X210953240Y-134270047D03*
X206219441Y-129333931D03*
D29*
X245810564Y-114308624D03*
D30*
X250890564Y-114308624D03*
D29*
X255970564Y-114308624D03*
D31*
X254700564Y-116848624D03*
X248350564Y-119388624D03*
D18*
X135017764Y-98178624D03*
D19*
X134667764Y-98178624D03*
D20*
X133367764Y-99628624D03*
X133367764Y-96728624D03*
D21*
X133347764Y-98178624D03*
D19*
X132067764Y-98178624D03*
D18*
X131717764Y-98178624D03*
X252560564Y-90178624D03*
D19*
X252210564Y-90178624D03*
D20*
X250910564Y-91628624D03*
X250910564Y-88728624D03*
D21*
X250890564Y-90178624D03*
D19*
X249610564Y-90178624D03*
D18*
X249260564Y-90178624D03*
X115967764Y-38528624D03*
D19*
X115617764Y-38528624D03*
D20*
X114317764Y-39978624D03*
X114317764Y-37078624D03*
D21*
X114297764Y-38528624D03*
D19*
X113017764Y-38528624D03*
D18*
X112667764Y-38528624D03*
X233510564Y-38528624D03*
D19*
X233160564Y-38528624D03*
D20*
X231860564Y-39978624D03*
X231860564Y-37078624D03*
D21*
X231840564Y-38528624D03*
D19*
X230560564Y-38528624D03*
D18*
X230210564Y-38528624D03*
D32*
X197935800Y-39115000D03*
X197935800Y-41655000D03*
D33*
X197935800Y-44195000D03*
D32*
X197935800Y-46735000D03*
X197935800Y-49275000D03*
X197935800Y-51815000D03*
X197935800Y-54355000D03*
D33*
X197935800Y-56895000D03*
D32*
X197935800Y-59435000D03*
X197935800Y-61975000D03*
X197935800Y-64515000D03*
X197935800Y-67055000D03*
D33*
X197935800Y-69595000D03*
D32*
X197935800Y-72135000D03*
X197935800Y-74675000D03*
X197935800Y-77215000D03*
X197935800Y-79755000D03*
D33*
X197935800Y-82295000D03*
D32*
X197935800Y-84835000D03*
X197935800Y-87375000D03*
X180155800Y-87375000D03*
X180155800Y-84835000D03*
D33*
X180155800Y-82295000D03*
D32*
X180155800Y-79755000D03*
X180155800Y-77215000D03*
X180155800Y-74675000D03*
X180155800Y-72135000D03*
D33*
X180155800Y-69595000D03*
D32*
X180155800Y-67055000D03*
X180155800Y-64515000D03*
X180155800Y-61975000D03*
X180155800Y-59435000D03*
D33*
X180155800Y-56895000D03*
D32*
X180155800Y-54355000D03*
X180155800Y-51815000D03*
X180155800Y-49275000D03*
X180155800Y-46735000D03*
D33*
X180155800Y-44195000D03*
D32*
X180155800Y-41655000D03*
X180155800Y-39115000D03*
X191585800Y-87145000D03*
D33*
X189045800Y-87145000D03*
D32*
X186505800Y-87145000D03*
D29*
X109217764Y-119808624D03*
D30*
X114297764Y-119808624D03*
D29*
X119377764Y-119808624D03*
D31*
X118107764Y-122348624D03*
X111757764Y-124888624D03*
D18*
X271610564Y-114728624D03*
D19*
X271260564Y-114728624D03*
D20*
X269960564Y-116178624D03*
X269960564Y-113278624D03*
D21*
X269940564Y-114728624D03*
D19*
X268660564Y-114728624D03*
D18*
X268310564Y-114728624D03*
X58817764Y-69578624D03*
D19*
X58467764Y-69578624D03*
D20*
X57167764Y-71028624D03*
X57167764Y-68128624D03*
D21*
X57147764Y-69578624D03*
D19*
X55867764Y-69578624D03*
D18*
X55517764Y-69578624D03*
X214460564Y-41028624D03*
D19*
X214110564Y-41028624D03*
D20*
X212810564Y-42478624D03*
X212810564Y-39578624D03*
D21*
X212790564Y-41028624D03*
D19*
X211510564Y-41028624D03*
D18*
X211160564Y-41028624D03*
X39767764Y-88628624D03*
D19*
X39417764Y-88628624D03*
D20*
X38117764Y-90078624D03*
X38117764Y-87178624D03*
D21*
X38097764Y-88628624D03*
D19*
X36817764Y-88628624D03*
D18*
X36467764Y-88628624D03*
D29*
X245810564Y-57158624D03*
D30*
X250890564Y-57158624D03*
D29*
X255970564Y-57158624D03*
D31*
X254700564Y-59698624D03*
X248350564Y-62238624D03*
D29*
X128267764Y-46108624D03*
D30*
X133347764Y-46108624D03*
D29*
X138427764Y-46108624D03*
D31*
X137157764Y-48648624D03*
X130807764Y-51188624D03*
D29*
X245810564Y-76208624D03*
D30*
X250890564Y-76208624D03*
D29*
X255970564Y-76208624D03*
D31*
X254700564Y-78748624D03*
X248350564Y-81288624D03*
D18*
X115967764Y-76628624D03*
D19*
X115617764Y-76628624D03*
D20*
X114317764Y-78078624D03*
X114317764Y-75178624D03*
D21*
X114297764Y-76628624D03*
D19*
X113017764Y-76628624D03*
D18*
X112667764Y-76628624D03*
X233510564Y-57578624D03*
D19*
X233160564Y-57578624D03*
D20*
X231860564Y-59028624D03*
X231860564Y-56128624D03*
D21*
X231840564Y-57578624D03*
D19*
X230560564Y-57578624D03*
D18*
X230210564Y-57578624D03*
X96917764Y-71128624D03*
D19*
X96567764Y-71128624D03*
D20*
X95267764Y-72578624D03*
X95267764Y-69678624D03*
D21*
X95247764Y-71128624D03*
D19*
X93967764Y-71128624D03*
D18*
X93617764Y-71128624D03*
D29*
X71117764Y-119808624D03*
D30*
X76197764Y-119808624D03*
D29*
X81277764Y-119808624D03*
D31*
X80007764Y-122348624D03*
X73657764Y-124888624D03*
D34*
X32500000Y-113350000D03*
D29*
X33020000Y-112750000D03*
D35*
X35560000Y-117830000D03*
D36*
X38100000Y-112750000D03*
D35*
X41910000Y-115290000D03*
D29*
X43180000Y-112750000D03*
D34*
X43700000Y-113350000D03*
D37*
X35600000Y-120850000D03*
D38*
X40600000Y-120850000D03*
X38100000Y-120850000D03*
X35600000Y-106350000D03*
X40600000Y-106350000D03*
D29*
X302960564Y-93708624D03*
D30*
X308040564Y-93708624D03*
D29*
X313120564Y-93708624D03*
D31*
X311850564Y-96248624D03*
X305500564Y-98788624D03*
D29*
X52067764Y-93708624D03*
D30*
X57147764Y-93708624D03*
D29*
X62227764Y-93708624D03*
D31*
X60957764Y-96248624D03*
X54607764Y-98788624D03*
D18*
X77867764Y-114728624D03*
D19*
X77517764Y-114728624D03*
D20*
X76217764Y-116178624D03*
X76217764Y-113278624D03*
D21*
X76197764Y-114728624D03*
D19*
X74917764Y-114728624D03*
D18*
X74567764Y-114728624D03*
D29*
X33017764Y-93708624D03*
D30*
X38097764Y-93708624D03*
D29*
X43177764Y-93708624D03*
D31*
X41907764Y-96248624D03*
X35557764Y-98788624D03*
D18*
X39770000Y-108950000D03*
D19*
X39420000Y-108950000D03*
D20*
X38120000Y-110400000D03*
X38120000Y-107500000D03*
D21*
X38100000Y-108950000D03*
D19*
X36820000Y-108950000D03*
D18*
X36470000Y-108950000D03*
X309707200Y-108950000D03*
D19*
X309357200Y-108950000D03*
D20*
X308057200Y-110400000D03*
X308057200Y-107500000D03*
D21*
X308037200Y-108950000D03*
D19*
X306757200Y-108950000D03*
D18*
X306407200Y-108950000D03*
D29*
X90167764Y-38108624D03*
D30*
X95247764Y-38108624D03*
D29*
X100327764Y-38108624D03*
D31*
X99057764Y-40648624D03*
X92707764Y-43188624D03*
D18*
X290660564Y-69578624D03*
D19*
X290310564Y-69578624D03*
D20*
X289010564Y-71028624D03*
X289010564Y-68128624D03*
D21*
X288990564Y-69578624D03*
D19*
X287710564Y-69578624D03*
D18*
X287360564Y-69578624D03*
D29*
X90167764Y-76208624D03*
D30*
X95247764Y-76208624D03*
D29*
X100327764Y-76208624D03*
D31*
X99057764Y-78748624D03*
X92707764Y-81288624D03*
D18*
X77867764Y-76628624D03*
D19*
X77517764Y-76628624D03*
D20*
X76217764Y-78078624D03*
X76217764Y-75178624D03*
D21*
X76197764Y-76628624D03*
D19*
X74917764Y-76628624D03*
D18*
X74567764Y-76628624D03*
X115967764Y-57578624D03*
D19*
X115617764Y-57578624D03*
D20*
X114317764Y-59028624D03*
X114317764Y-56128624D03*
D21*
X114297764Y-57578624D03*
D19*
X113017764Y-57578624D03*
D18*
X112667764Y-57578624D03*
X214460564Y-60078624D03*
D19*
X214110564Y-60078624D03*
D20*
X212810564Y-61528624D03*
X212810564Y-58628624D03*
D21*
X212790564Y-60078624D03*
D19*
X211510564Y-60078624D03*
D18*
X211160564Y-60078624D03*
X233510564Y-76628624D03*
D19*
X233160564Y-76628624D03*
D20*
X231860564Y-78078624D03*
X231860564Y-75178624D03*
D21*
X231840564Y-76628624D03*
D19*
X230560564Y-76628624D03*
D18*
X230210564Y-76628624D03*
X252560564Y-33028624D03*
D19*
X252210564Y-33028624D03*
D20*
X250910564Y-34478624D03*
X250910564Y-31578624D03*
D21*
X250890564Y-33028624D03*
D19*
X249610564Y-33028624D03*
D18*
X249260564Y-33028624D03*
D29*
X109217764Y-43608624D03*
D30*
X114297764Y-43608624D03*
D29*
X119377764Y-43608624D03*
D31*
X118107764Y-46148624D03*
X111757764Y-48688624D03*
D29*
X207710564Y-46108624D03*
D30*
X212790564Y-46108624D03*
D29*
X217870564Y-46108624D03*
D31*
X216600564Y-48648624D03*
X210250564Y-51188624D03*
D39*
X197366723Y-131567672D03*
D40*
X197235611Y-131243158D03*
D41*
X195404206Y-130580998D03*
X198093039Y-129494639D03*
D42*
X196741130Y-130019275D03*
D40*
X196261634Y-128832480D03*
D39*
X196130521Y-128507965D03*
D29*
X71117764Y-100758624D03*
D30*
X76197764Y-100758624D03*
D29*
X81277764Y-100758624D03*
D31*
X80007764Y-103298624D03*
X73657764Y-105838624D03*
D18*
X135017764Y-79128624D03*
D19*
X134667764Y-79128624D03*
D20*
X133367764Y-80578624D03*
X133367764Y-77678624D03*
D21*
X133347764Y-79128624D03*
D19*
X132067764Y-79128624D03*
D18*
X131717764Y-79128624D03*
D29*
X264860564Y-119808624D03*
D30*
X269940564Y-119808624D03*
D29*
X275020564Y-119808624D03*
D31*
X273750564Y-122348624D03*
X267400564Y-124888624D03*
D43*
X184568600Y-115913270D03*
X177568600Y-115913270D03*
D44*
X182168600Y-118213270D03*
X179168600Y-118213270D03*
X187268600Y-113613270D03*
X186168600Y-118213270D03*
D29*
X207710564Y-84208624D03*
D30*
X212790564Y-84208624D03*
D29*
X217870564Y-84208624D03*
D31*
X216600564Y-86748624D03*
X210250564Y-89288624D03*
D29*
X128267764Y-84208624D03*
D30*
X133347764Y-84208624D03*
D29*
X138427764Y-84208624D03*
D31*
X137157764Y-86748624D03*
X130807764Y-89288624D03*
D18*
X290660564Y-107678624D03*
D19*
X290310564Y-107678624D03*
D20*
X289010564Y-109128624D03*
X289010564Y-106228624D03*
D21*
X288990564Y-107678624D03*
D19*
X287710564Y-107678624D03*
D18*
X287360564Y-107678624D03*
X135017764Y-60078624D03*
D19*
X134667764Y-60078624D03*
D20*
X133367764Y-61528624D03*
X133367764Y-58628624D03*
D21*
X133347764Y-60078624D03*
D19*
X132067764Y-60078624D03*
D18*
X131717764Y-60078624D03*
D29*
X264860564Y-81708624D03*
D30*
X269940564Y-81708624D03*
D29*
X275020564Y-81708624D03*
D31*
X273750564Y-84248624D03*
X267400564Y-86788624D03*
D18*
X96917764Y-109228624D03*
D19*
X96567764Y-109228624D03*
D20*
X95267764Y-110678624D03*
X95267764Y-107778624D03*
D21*
X95247764Y-109228624D03*
D19*
X93967764Y-109228624D03*
D18*
X93617764Y-109228624D03*
X214460564Y-79128624D03*
D19*
X214110564Y-79128624D03*
D20*
X212810564Y-80578624D03*
X212810564Y-77678624D03*
D21*
X212790564Y-79128624D03*
D19*
X211510564Y-79128624D03*
D18*
X211160564Y-79128624D03*
X309710564Y-88628624D03*
D19*
X309360564Y-88628624D03*
D20*
X308060564Y-90078624D03*
X308060564Y-87178624D03*
D21*
X308040564Y-88628624D03*
D19*
X306760564Y-88628624D03*
D18*
X306410564Y-88628624D03*
X309710564Y-50528624D03*
D19*
X309360564Y-50528624D03*
D20*
X308060564Y-51978624D03*
X308060564Y-49078624D03*
D21*
X308040564Y-50528624D03*
D19*
X306760564Y-50528624D03*
D18*
X306410564Y-50528624D03*
D29*
X207710564Y-103258624D03*
D30*
X212790564Y-103258624D03*
D29*
X217870564Y-103258624D03*
D31*
X216600564Y-105798624D03*
X210250564Y-108338624D03*
D18*
X96917764Y-33028624D03*
D19*
X96567764Y-33028624D03*
D20*
X95267764Y-34478624D03*
X95267764Y-31578624D03*
D21*
X95247764Y-33028624D03*
D19*
X93967764Y-33028624D03*
D18*
X93617764Y-33028624D03*
X39767764Y-69578624D03*
D19*
X39417764Y-69578624D03*
D20*
X38117764Y-71028624D03*
X38117764Y-68128624D03*
D21*
X38097764Y-69578624D03*
D19*
X36817764Y-69578624D03*
D18*
X36467764Y-69578624D03*
D43*
X161568600Y-115913270D03*
X168568600Y-115913270D03*
D44*
X163968600Y-113613270D03*
X166968600Y-113613270D03*
X158868600Y-118213270D03*
X159968600Y-113613270D03*
D29*
X264860564Y-62658624D03*
D30*
X269940564Y-62658624D03*
D29*
X275020564Y-62658624D03*
D31*
X273750564Y-65198624D03*
X267400564Y-67738624D03*
D29*
X190128035Y-127212182D03*
D30*
X192031036Y-131922276D03*
D29*
X193934037Y-136632370D03*
D31*
X191103240Y-136406347D03*
X186369441Y-131470231D03*
D18*
X214460564Y-98178624D03*
D19*
X214110564Y-98178624D03*
D20*
X212810564Y-99628624D03*
X212810564Y-96728624D03*
D21*
X212790564Y-98178624D03*
D19*
X211510564Y-98178624D03*
D18*
X211160564Y-98178624D03*
D29*
X226760564Y-81708624D03*
D30*
X231840564Y-81708624D03*
D29*
X236920564Y-81708624D03*
D31*
X235650564Y-84248624D03*
X229300564Y-86788624D03*
D29*
X128267764Y-65158624D03*
D30*
X133347764Y-65158624D03*
D29*
X138427764Y-65158624D03*
D31*
X137157764Y-67698624D03*
X130807764Y-70238624D03*
D29*
X90167764Y-114308624D03*
D30*
X95247764Y-114308624D03*
D29*
X100327764Y-114308624D03*
D31*
X99057764Y-116848624D03*
X92707764Y-119388624D03*
D18*
X115967764Y-95678624D03*
D19*
X115617764Y-95678624D03*
D20*
X114317764Y-97128624D03*
X114317764Y-94228624D03*
D21*
X114297764Y-95678624D03*
D19*
X113017764Y-95678624D03*
D18*
X112667764Y-95678624D03*
X115967764Y-114728624D03*
D19*
X115617764Y-114728624D03*
D20*
X114317764Y-116178624D03*
X114317764Y-113278624D03*
D21*
X114297764Y-114728624D03*
D19*
X113017764Y-114728624D03*
D18*
X112667764Y-114728624D03*
X252560564Y-71128624D03*
D19*
X252210564Y-71128624D03*
D20*
X250910564Y-72578624D03*
X250910564Y-69678624D03*
D21*
X250890564Y-71128624D03*
D19*
X249610564Y-71128624D03*
D18*
X249260564Y-71128624D03*
D29*
X245810564Y-38108624D03*
D30*
X250890564Y-38108624D03*
D29*
X255970564Y-38108624D03*
D31*
X254700564Y-40648624D03*
X248350564Y-43188624D03*
D45*
X150113263Y-128370626D03*
D46*
X149982151Y-128695140D03*
D47*
X150839579Y-130443659D03*
X148150746Y-129357300D03*
D48*
X149487670Y-129919023D03*
D46*
X149008174Y-131105818D03*
D45*
X148877061Y-131430333D03*
D34*
X302437200Y-113350000D03*
D29*
X302957200Y-112750000D03*
D35*
X305497200Y-117830000D03*
D36*
X308037200Y-112750000D03*
D35*
X311847200Y-115290000D03*
D29*
X313117200Y-112750000D03*
D34*
X313637200Y-113350000D03*
D37*
X305537200Y-120850000D03*
D38*
X310537200Y-120850000D03*
X308037200Y-120850000D03*
X305537200Y-106350000D03*
X310537200Y-106350000D03*
D18*
X290660564Y-88628624D03*
D19*
X290310564Y-88628624D03*
D20*
X289010564Y-90078624D03*
X289010564Y-87178624D03*
D21*
X288990564Y-88628624D03*
D19*
X287710564Y-88628624D03*
D18*
X287360564Y-88628624D03*
X271610564Y-76628624D03*
D19*
X271260564Y-76628624D03*
D20*
X269960564Y-78078624D03*
X269960564Y-75178624D03*
D21*
X269940564Y-76628624D03*
D19*
X268660564Y-76628624D03*
D18*
X268310564Y-76628624D03*
D29*
X109217764Y-100758624D03*
D30*
X114297764Y-100758624D03*
D29*
X119377764Y-100758624D03*
D31*
X118107764Y-103298624D03*
X111757764Y-105838624D03*
D29*
X90167764Y-57158624D03*
D30*
X95247764Y-57158624D03*
D29*
X100327764Y-57158624D03*
D31*
X99057764Y-59698624D03*
X92707764Y-62238624D03*
D29*
X71117764Y-81708624D03*
D30*
X76197764Y-81708624D03*
D29*
X81277764Y-81708624D03*
D31*
X80007764Y-84248624D03*
X73657764Y-86788624D03*
D18*
X252560564Y-109228624D03*
D19*
X252210564Y-109228624D03*
D20*
X250910564Y-110678624D03*
X250910564Y-107778624D03*
D21*
X250890564Y-109228624D03*
D19*
X249610564Y-109228624D03*
D18*
X249260564Y-109228624D03*
D29*
X226760564Y-43608624D03*
D30*
X231840564Y-43608624D03*
D29*
X236920564Y-43608624D03*
D31*
X235650564Y-46148624D03*
X229300564Y-48688624D03*
D29*
X226760564Y-119808624D03*
D30*
X231840564Y-119808624D03*
D29*
X236920564Y-119808624D03*
D31*
X235650564Y-122348624D03*
X229300564Y-124888624D03*
D29*
X52067764Y-74658624D03*
D30*
X57147764Y-74658624D03*
D29*
X62227764Y-74658624D03*
D31*
X60957764Y-77198624D03*
X54607764Y-79738624D03*
D32*
X166248600Y-39115000D03*
X166248600Y-41655000D03*
D33*
X166248600Y-44195000D03*
D32*
X166248600Y-46735000D03*
X166248600Y-49275000D03*
X166248600Y-51815000D03*
X166248600Y-54355000D03*
D33*
X166248600Y-56895000D03*
D32*
X166248600Y-59435000D03*
X166248600Y-61975000D03*
X166248600Y-64515000D03*
X166248600Y-67055000D03*
D33*
X166248600Y-69595000D03*
D32*
X166248600Y-72135000D03*
X166248600Y-74675000D03*
X166248600Y-77215000D03*
X166248600Y-79755000D03*
D33*
X166248600Y-82295000D03*
D32*
X166248600Y-84835000D03*
X166248600Y-87375000D03*
X148468600Y-87375000D03*
X148468600Y-84835000D03*
D33*
X148468600Y-82295000D03*
D32*
X148468600Y-79755000D03*
X148468600Y-77215000D03*
X148468600Y-74675000D03*
X148468600Y-72135000D03*
D33*
X148468600Y-69595000D03*
D32*
X148468600Y-67055000D03*
X148468600Y-64515000D03*
X148468600Y-61975000D03*
X148468600Y-59435000D03*
D33*
X148468600Y-56895000D03*
D32*
X148468600Y-54355000D03*
X148468600Y-51815000D03*
X148468600Y-49275000D03*
X148468600Y-46735000D03*
D33*
X148468600Y-44195000D03*
D32*
X148468600Y-41655000D03*
X148468600Y-39115000D03*
X159898600Y-87145000D03*
D33*
X157358600Y-87145000D03*
D32*
X154818600Y-87145000D03*
D18*
X77867764Y-95678624D03*
D19*
X77517764Y-95678624D03*
D20*
X76217764Y-97128624D03*
X76217764Y-94228624D03*
D21*
X76197764Y-95678624D03*
D19*
X74917764Y-95678624D03*
D18*
X74567764Y-95678624D03*
D29*
X90167764Y-95258624D03*
D30*
X95247764Y-95258624D03*
D29*
X100327764Y-95258624D03*
D31*
X99057764Y-97798624D03*
X92707764Y-100338624D03*
D18*
X233510564Y-95678624D03*
D19*
X233160564Y-95678624D03*
D20*
X231860564Y-97128624D03*
X231860564Y-94228624D03*
D21*
X231840564Y-95678624D03*
D19*
X230560564Y-95678624D03*
D18*
X230210564Y-95678624D03*
X309710564Y-69578624D03*
D19*
X309360564Y-69578624D03*
D20*
X308060564Y-71028624D03*
X308060564Y-68128624D03*
D21*
X308040564Y-69578624D03*
D19*
X306760564Y-69578624D03*
D18*
X306410564Y-69578624D03*
X58817764Y-88628624D03*
D19*
X58467764Y-88628624D03*
D20*
X57167764Y-90078624D03*
X57167764Y-87178624D03*
D21*
X57147764Y-88628624D03*
D19*
X55867764Y-88628624D03*
D18*
X55517764Y-88628624D03*
D29*
X283910564Y-93708624D03*
D30*
X288990564Y-93708624D03*
D29*
X294070564Y-93708624D03*
D31*
X292800564Y-96248624D03*
X286450564Y-98788624D03*
D29*
X207710564Y-65158624D03*
D30*
X212790564Y-65158624D03*
D29*
X217870564Y-65158624D03*
D31*
X216600564Y-67698624D03*
X210250564Y-70238624D03*
D29*
X71117764Y-62658624D03*
D30*
X76197764Y-62658624D03*
D29*
X81277764Y-62658624D03*
D31*
X80007764Y-65198624D03*
X73657764Y-67738624D03*
D18*
X58817764Y-107678624D03*
D19*
X58467764Y-107678624D03*
D20*
X57167764Y-109128624D03*
X57167764Y-106228624D03*
D21*
X57147764Y-107678624D03*
D19*
X55867764Y-107678624D03*
D18*
X55517764Y-107678624D03*
D29*
X226760564Y-62658624D03*
D30*
X231840564Y-62658624D03*
D29*
X236920564Y-62658624D03*
D31*
X235650564Y-65198624D03*
X229300564Y-67738624D03*
D29*
X226760564Y-100758624D03*
D30*
X231840564Y-100758624D03*
D29*
X236920564Y-100758624D03*
D31*
X235650564Y-103298624D03*
X229300564Y-105838624D03*
D18*
X271610564Y-57578624D03*
D19*
X271260564Y-57578624D03*
D20*
X269960564Y-59028624D03*
X269960564Y-56128624D03*
D21*
X269940564Y-57578624D03*
D19*
X268660564Y-57578624D03*
D18*
X268310564Y-57578624D03*
X271610564Y-38528624D03*
D19*
X271260564Y-38528624D03*
D20*
X269960564Y-39978624D03*
X269960564Y-37078624D03*
D21*
X269940564Y-38528624D03*
D19*
X268660564Y-38528624D03*
D18*
X268310564Y-38528624D03*
D49*
X153258600Y-103250000D03*
X164458600Y-103250000D03*
D37*
X156358600Y-110750000D03*
D38*
X161358600Y-110750000D03*
X158858600Y-110750000D03*
X161358600Y-96250000D03*
X156358600Y-96250000D03*
D39*
X217216723Y-129431372D03*
D40*
X217085611Y-129106858D03*
D41*
X215254206Y-128444698D03*
X217943039Y-127358339D03*
D42*
X216591130Y-127882975D03*
D40*
X216111634Y-126696180D03*
D39*
X215980521Y-126371665D03*
D29*
X264860564Y-43608624D03*
D30*
X269940564Y-43608624D03*
D29*
X275020564Y-43608624D03*
D31*
X273750564Y-46148624D03*
X267400564Y-48688624D03*
D18*
X233510564Y-114728624D03*
D19*
X233160564Y-114728624D03*
D20*
X231860564Y-116178624D03*
X231860564Y-113278624D03*
D21*
X231840564Y-114728624D03*
D19*
X230560564Y-114728624D03*
D18*
X230210564Y-114728624D03*
X252560564Y-52078624D03*
D19*
X252210564Y-52078624D03*
D20*
X250910564Y-53528624D03*
X250910564Y-50628624D03*
D21*
X250890564Y-52078624D03*
D19*
X249610564Y-52078624D03*
D18*
X249260564Y-52078624D03*
D29*
X109217764Y-62658624D03*
D30*
X114297764Y-62658624D03*
D29*
X119377764Y-62658624D03*
D31*
X118107764Y-65198624D03*
X111757764Y-67738624D03*
D45*
X130263263Y-126246926D03*
D46*
X130132151Y-126571440D03*
D47*
X130989579Y-128319959D03*
X128300746Y-127233600D03*
D48*
X129637670Y-127795323D03*
D46*
X129158174Y-128982118D03*
D45*
X129027061Y-129306633D03*
D18*
X58817764Y-50528624D03*
D19*
X58467764Y-50528624D03*
D20*
X57167764Y-51978624D03*
X57167764Y-49078624D03*
D21*
X57147764Y-50528624D03*
D19*
X55867764Y-50528624D03*
D18*
X55517764Y-50528624D03*
D29*
X33017764Y-55608624D03*
D30*
X38097764Y-55608624D03*
D29*
X43177764Y-55608624D03*
D31*
X41907764Y-58148624D03*
X35557764Y-60688624D03*
D18*
X96917764Y-90178624D03*
D19*
X96567764Y-90178624D03*
D20*
X95267764Y-91628624D03*
X95267764Y-88728624D03*
D21*
X95247764Y-90178624D03*
D19*
X93967764Y-90178624D03*
D18*
X93617764Y-90178624D03*
X96917764Y-52078624D03*
D19*
X96567764Y-52078624D03*
D20*
X95267764Y-53528624D03*
X95267764Y-50628624D03*
D21*
X95247764Y-52078624D03*
D19*
X93967764Y-52078624D03*
D18*
X93617764Y-52078624D03*
X135017764Y-41028624D03*
D19*
X134667764Y-41028624D03*
D20*
X133367764Y-42478624D03*
X133367764Y-39578624D03*
D21*
X133347764Y-41028624D03*
D19*
X132067764Y-41028624D03*
D18*
X131717764Y-41028624D03*
D29*
X33017764Y-74658624D03*
D30*
X38097764Y-74658624D03*
D29*
X43177764Y-74658624D03*
D31*
X41907764Y-77198624D03*
X35557764Y-79738624D03*
D49*
X181678600Y-103250000D03*
X192878600Y-103250000D03*
D37*
X184778600Y-110750000D03*
D38*
X189778600Y-110750000D03*
X187278600Y-110750000D03*
X189778600Y-96250000D03*
X184778600Y-96250000D03*
D29*
X52067764Y-55608624D03*
D30*
X57147764Y-55608624D03*
D29*
X62227764Y-55608624D03*
D31*
X60957764Y-58148624D03*
X54607764Y-60688624D03*
D18*
X271610564Y-95678624D03*
D19*
X271260564Y-95678624D03*
D20*
X269960564Y-97128624D03*
X269960564Y-94228624D03*
D21*
X269940564Y-95678624D03*
D19*
X268660564Y-95678624D03*
D18*
X268310564Y-95678624D03*
%LPD*%
M02*
