M48
; DRILL file {KiCad (7.0.0-0)} date Sunday, May 21, 2023 at 06:42:36 PM
; FORMAT={-:-/ absolute / metric / decimal}
; #@! TF.CreationDate,2023-05-21T18:42:36-07:00
; #@! TF.GenerationSoftware,Kicad,Pcbnew,(7.0.0-0)
; #@! TF.FileFunction,Plated,1,2,PTH
FMAT,2
METRIC
; #@! TA.AperFunction,Plated,PTH,ViaDrill
T1C0.300
; #@! TA.AperFunction,Plated,PTH,ComponentDrill
T2C0.900
; #@! TA.AperFunction,Plated,PTH,ComponentDrill
T3C1.000
; #@! TA.AperFunction,Plated,PTH,ComponentDrill
T4C1.020
; #@! TA.AperFunction,Plated,PTH,ComponentDrill
T5C3.000
%
G90
G05
T1
X33.385Y-108.24
X34.055Y-70.35
X35.385Y-84.17
X35.385Y-111.01
X35.395Y-46.11
X35.398Y-65.163
X40.845Y-48.86
X42.245Y-87.86
X42.755Y-123.238
X42.888Y-105.577
X43.37Y-64.36
X43.54Y-104.0
X43.6Y-65.85
X45.215Y-123.688
X51.73Y-104.0
X53.025Y-51.291
X53.035Y-108.44
X53.045Y-89.39
X53.087Y-103.962
X53.195Y-70.31
X54.125Y-64.84
X54.435Y-84.13
X54.485Y-46.13
X57.183Y-102.618
X59.825Y-48.83
X61.065Y-68.84
X61.083Y-87.867
X61.225Y-106.94
X66.395Y-115.29
X72.115Y-96.43
X72.215Y-58.37
X72.295Y-77.37
X72.425Y-39.291
X73.485Y-110.25
X73.495Y-34.1
X73.495Y-90.9
X73.505Y-53.15
X73.505Y-72.19
X80.025Y-37.77
X80.045Y-75.867
X80.085Y-94.94
X80.095Y-56.83
X80.275Y-113.967
X83.535Y-105.17
X83.558Y-128.138
X88.3Y-47.56
X88.59Y-85.75
X90.01Y-74.02
X90.245Y-55.04
X90.678Y-35.342
X90.975Y-48.345
X91.09Y-124.59
X91.17Y-86.47
X91.265Y-112.39
X91.295Y-52.81
X91.315Y-33.79
X91.505Y-93.22
X92.19Y-95.24
X92.545Y-28.58
X92.548Y-104.79
X92.555Y-66.65
X99.185Y-32.267
X99.205Y-51.34
X99.335Y-108.467
X99.39Y-84.99
X99.395Y-70.367
X99.425Y-89.39
X102.495Y-112.56
X102.8Y-121.92
X104.714Y-85.41
X106.04Y-72.13
X107.11Y-126.922
X108.33Y-130.15
X108.348Y-129.178
X109.179Y-96.439
X110.345Y-115.43
X110.365Y-39.33
X111.205Y-53.12
X111.598Y-72.213
X111.598Y-34.183
X111.605Y-90.4
X111.605Y-110.28
X111.96Y-59.39
X116.995Y-55.91
X117.937Y-115.48
X118.265Y-75.84
X118.285Y-37.767
X118.415Y-94.9
X118.6Y-112.45
X121.658Y-105.44
X121.685Y-124.13
X123.696Y-90.964
X123.72Y-125.27
X123.75Y-94.17
X123.77Y-81.24
X123.81Y-129.3
X123.815Y-127.325
X123.82Y-130.34
X123.829Y-128.271
X126.715Y-129.75
X128.33Y-81.95
X128.655Y-59.34
X129.28Y-94.48
X129.355Y-79.891
X129.385Y-41.77
X129.53Y-56.33
X130.655Y-74.71
X130.665Y-36.65
X130.725Y-124.0
X131.155Y-122.62
X131.36Y-101.08
X135.81Y-142.24
X136.035Y-58.41
X137.33Y-97.4
X137.535Y-123.31
X137.792Y-55.712
X139.29Y-56.87
X139.57Y-82.3
X140.708Y-92.57
X144.168Y-140.764
X144.823Y-118.213
X146.5Y-132.04
X146.605Y-146.045
X148.265Y-133.75
X149.43Y-106.06
X151.43Y-145.074
X151.48Y-118.213
X151.595Y-90.517
X152.315Y-96.105
X153.665Y-91.195
X153.69Y-92.185
X155.41Y-108.14
X157.392Y-55.592
X157.397Y-58.127
X157.397Y-60.667
X157.407Y-80.977
X157.417Y-63.187
X157.427Y-75.877
X157.442Y-73.322
X159.975Y-116.1
X161.969Y-78.954
X163.785Y-64.45
X163.809Y-79.654
X163.905Y-82.145
X164.013Y-87.177
X167.37Y-106.92
X170.39Y-43.27
X170.75Y-87.71
X192.5Y-142.69
X192.5Y-143.875
X192.5Y-144.95
X195.025Y-126.47
X195.17Y-82.65
X195.416Y-87.65
X196.415Y-124.92
X197.505Y-113.62
X199.155Y-112.0
X199.8Y-146.119
X201.845Y-113.63
X202.07Y-142.35
X207.72Y-63.39
X207.966Y-97.439
X208.445Y-94.41
X208.69Y-56.4
X208.855Y-41.76
X210.091Y-74.674
X210.095Y-37.26
X210.59Y-81.41
X212.585Y-110.08
X214.13Y-136.4
X214.855Y-123.97
X216.275Y-122.57
X216.42Y-52.46
X216.48Y-54.94
X216.895Y-97.42
X216.965Y-59.317
X217.08Y-93.67
X217.366Y-132.205
X217.925Y-55.715
X220.151Y-65.54
X220.151Y-90.83
X227.675Y-58.38
X227.725Y-115.49
X227.925Y-39.24
X227.935Y-96.439
X229.135Y-72.17
X229.141Y-91.03
X229.145Y-52.25
X229.145Y-110.28
X229.155Y-34.73
X229.99Y-78.98
X233.66Y-74.33
X235.715Y-94.917
X235.965Y-37.8
X235.985Y-114.01
X236.275Y-56.817
X239.201Y-51.48
X240.302Y-107.447
X241.268Y-124.16
X245.01Y-48.44
X245.67Y-54.79
X245.82Y-73.87
X246.165Y-35.87
X246.345Y-89.42
X246.51Y-124.56
X246.685Y-86.43
X246.715Y-92.81
X246.745Y-48.37
X246.785Y-90.96
X246.795Y-33.83
X248.185Y-27.81
X248.191Y-104.844
X248.191Y-66.66
X248.57Y-72.94
X248.79Y-111.542
X253.04Y-68.98
X254.925Y-89.43
X254.935Y-108.47
X254.96Y-47.69
X254.985Y-32.27
X255.045Y-51.317
X255.8Y-126.352
X256.992Y-31.048
X258.255Y-118.71
X258.58Y-124.56
X259.39Y-83.53
X265.845Y-58.339
X265.915Y-96.45
X267.235Y-110.32
X267.241Y-53.08
X267.241Y-78.36
X267.245Y-34.04
X267.245Y-72.15
X267.245Y-91.26
X267.57Y-40.38
X272.15Y-74.53
X272.2Y-36.51
X272.65Y-112.83
X274.065Y-94.917
X274.285Y-56.817
X277.107Y-30.485
X277.255Y-126.352
X277.295Y-105.24
X279.386Y-100.164
X279.527Y-62.053
X281.052Y-43.15
X281.73Y-65.13
X283.36Y-40.71
X284.965Y-108.44
X286.285Y-46.08
X286.291Y-84.274
X286.291Y-103.206
X286.295Y-65.15
X286.72Y-52.89
X286.75Y-91.0
X290.822Y-85.721
X292.772Y-68.899
X293.065Y-106.917
X294.315Y-103.98
X294.5Y-64.44
X294.61Y-65.89
X296.351Y-48.72
X296.355Y-117.32
X302.585Y-104.0
X302.994Y-123.638
X303.565Y-107.37
X303.885Y-109.74
X303.965Y-70.341
X305.341Y-46.096
X305.345Y-65.05
X305.345Y-84.19
X308.305Y-123.188
X310.32Y-86.59
X311.975Y-49.8
X315.122Y-104.56
X315.122Y-119.018
X315.401Y-51.776
T2
X30.026Y-106.727
X30.026Y-114.727
X30.159Y-49.526
X30.159Y-57.526
X30.159Y-68.576
X30.159Y-76.576
X30.159Y-87.626
X30.159Y-95.626
X49.209Y-49.526
X49.209Y-57.526
X49.209Y-68.576
X49.209Y-76.576
X49.209Y-87.626
X49.209Y-95.626
X49.209Y-106.676
X49.209Y-114.676
X68.259Y-37.526
X68.259Y-45.526
X68.259Y-56.576
X68.259Y-64.576
X68.259Y-75.626
X68.259Y-83.626
X68.259Y-94.676
X68.259Y-102.676
X68.259Y-113.726
X68.259Y-121.726
X87.309Y-32.026
X87.309Y-40.026
X87.309Y-51.076
X87.309Y-59.076
X87.309Y-70.126
X87.309Y-78.126
X87.309Y-89.176
X87.309Y-97.176
X87.309Y-108.226
X87.309Y-116.226
X106.359Y-37.526
X106.359Y-45.526
X106.359Y-56.576
X106.359Y-64.576
X106.359Y-75.626
X106.359Y-83.626
X106.359Y-94.676
X106.359Y-102.676
X106.359Y-113.726
X106.359Y-121.726
X125.409Y-40.026
X125.409Y-48.026
X125.409Y-59.076
X125.409Y-67.076
X125.409Y-78.126
X125.409Y-86.126
X125.409Y-97.176
X125.409Y-105.176
X125.734Y-134.78
X133.152Y-137.777
X143.929Y-39.277
X143.929Y-47.277
X145.462Y-136.842
X152.879Y-139.839
X167.361Y-96.917
X167.361Y-104.917
X175.849Y-39.828
X175.849Y-47.828
X187.279Y-125.28
X194.697Y-122.283
X195.721Y-97.087
X195.721Y-105.087
X204.852Y-40.026
X204.852Y-48.026
X204.852Y-59.076
X204.852Y-67.076
X204.852Y-78.126
X204.852Y-86.126
X204.852Y-97.176
X204.852Y-105.176
X207.129Y-123.144
X214.547Y-120.147
X223.902Y-37.526
X223.902Y-45.526
X223.902Y-56.576
X223.902Y-64.576
X223.902Y-75.626
X223.902Y-83.626
X223.902Y-94.676
X223.902Y-102.676
X223.902Y-113.726
X223.902Y-121.726
X242.952Y-32.026
X242.952Y-40.026
X242.952Y-51.076
X242.952Y-59.076
X242.952Y-70.126
X242.952Y-78.126
X242.952Y-89.176
X242.952Y-97.176
X242.952Y-108.226
X242.952Y-116.226
X262.002Y-37.526
X262.002Y-45.526
X262.002Y-56.576
X262.002Y-64.576
X262.002Y-75.626
X262.002Y-83.626
X262.002Y-94.676
X262.002Y-102.676
X262.002Y-113.726
X262.002Y-121.726
X281.052Y-49.526
X281.052Y-57.526
X281.052Y-68.576
X281.052Y-76.576
X281.052Y-87.626
X281.052Y-95.626
X281.052Y-106.676
X281.052Y-114.676
X300.102Y-49.526
X300.102Y-57.526
X300.102Y-68.576
X300.102Y-76.576
X300.102Y-87.626
X300.102Y-95.626
X300.102Y-106.676
X300.102Y-114.676
T3
X35.6Y-106.35
X35.6Y-120.85
X38.1Y-120.85
X40.6Y-106.35
X40.6Y-120.85
X147.578Y-141.574
X150.118Y-141.574
X156.359Y-96.25
X156.359Y-110.75
X158.859Y-110.75
X161.359Y-96.25
X161.359Y-110.75
X184.779Y-96.25
X184.779Y-110.75
X187.279Y-110.75
X189.779Y-96.25
X189.779Y-110.75
X196.113Y-141.669
X198.653Y-141.669
X305.537Y-106.35
X305.537Y-120.85
X308.037Y-120.85
X310.537Y-106.35
X310.537Y-120.85
T4
X148.469Y-39.115
X148.469Y-41.655
X148.469Y-44.195
X148.469Y-46.735
X148.469Y-49.275
X148.469Y-51.815
X148.469Y-54.355
X148.469Y-56.895
X148.469Y-59.435
X148.469Y-61.975
X148.469Y-64.515
X148.469Y-67.055
X148.469Y-69.595
X148.469Y-72.135
X148.469Y-74.675
X148.469Y-77.215
X148.469Y-79.755
X148.469Y-82.295
X148.469Y-84.835
X148.469Y-87.375
X154.819Y-87.145
X157.359Y-87.145
X159.899Y-87.145
X166.249Y-39.115
X166.249Y-41.655
X166.249Y-44.195
X166.249Y-46.735
X166.249Y-49.275
X166.249Y-51.815
X166.249Y-54.355
X166.249Y-56.895
X166.249Y-59.435
X166.249Y-61.975
X166.249Y-64.515
X166.249Y-67.055
X166.249Y-69.595
X166.249Y-72.135
X166.249Y-74.675
X166.249Y-77.215
X166.249Y-79.755
X166.249Y-82.295
X166.249Y-84.835
X166.249Y-87.375
X180.156Y-39.115
X180.156Y-41.655
X180.156Y-44.195
X180.156Y-46.735
X180.156Y-49.275
X180.156Y-51.815
X180.156Y-54.355
X180.156Y-56.895
X180.156Y-59.435
X180.156Y-61.975
X180.156Y-64.515
X180.156Y-67.055
X180.156Y-69.595
X180.156Y-72.135
X180.156Y-74.675
X180.156Y-77.215
X180.156Y-79.755
X180.156Y-82.295
X180.156Y-84.835
X180.156Y-87.375
X186.506Y-87.145
X189.046Y-87.145
X191.586Y-87.145
X197.936Y-39.115
X197.936Y-41.655
X197.936Y-44.195
X197.936Y-46.735
X197.936Y-49.275
X197.936Y-51.815
X197.936Y-54.355
X197.936Y-56.895
X197.936Y-59.435
X197.936Y-61.975
X197.936Y-64.515
X197.936Y-67.055
X197.936Y-69.595
X197.936Y-72.135
X197.936Y-74.675
X197.936Y-77.215
X197.936Y-79.755
X197.936Y-82.295
X197.936Y-84.835
X197.936Y-87.375
T5
X35.558Y-60.689
X35.558Y-79.739
X35.558Y-98.789
X41.908Y-58.149
X41.908Y-77.199
X41.908Y-96.249
X54.608Y-60.689
X54.608Y-79.739
X54.608Y-98.789
X54.608Y-117.839
X60.958Y-58.149
X60.958Y-77.199
X60.958Y-96.249
X60.958Y-115.299
X73.658Y-48.689
X73.658Y-67.739
X73.658Y-86.789
X73.658Y-105.839
X73.658Y-124.889
X80.008Y-46.149
X80.008Y-65.199
X80.008Y-84.249
X80.008Y-103.299
X80.008Y-122.349
X92.708Y-43.189
X92.708Y-62.239
X92.708Y-81.289
X92.708Y-100.339
X92.708Y-119.389
X99.058Y-40.649
X99.058Y-59.699
X99.058Y-78.749
X99.058Y-97.799
X99.058Y-116.849
X111.758Y-48.689
X111.758Y-67.739
X111.758Y-86.789
X111.758Y-105.839
X111.758Y-124.889
X118.108Y-46.149
X118.108Y-65.199
X118.108Y-84.249
X118.108Y-103.299
X118.108Y-122.349
X130.808Y-51.189
X130.808Y-70.239
X130.808Y-89.289
X130.808Y-108.339
X137.158Y-48.649
X137.158Y-67.699
X137.158Y-86.749
X137.158Y-105.799
X138.106Y-133.956
X138.13Y-127.117
X157.956Y-136.08
X157.98Y-129.241
X186.369Y-131.47
X191.103Y-136.406
X206.219Y-129.334
X210.251Y-51.189
X210.251Y-70.239
X210.251Y-89.289
X210.251Y-108.339
X210.953Y-134.27
X216.601Y-48.649
X216.601Y-67.699
X216.601Y-86.749
X216.601Y-105.799
X229.301Y-48.689
X229.301Y-67.739
X229.301Y-86.789
X229.301Y-105.839
X229.301Y-124.889
X235.651Y-46.149
X235.651Y-65.199
X235.651Y-84.249
X235.651Y-103.299
X235.651Y-122.349
X248.351Y-43.189
X248.351Y-62.239
X248.351Y-81.289
X248.351Y-100.339
X248.351Y-119.389
X254.701Y-40.649
X254.701Y-59.699
X254.701Y-78.749
X254.701Y-97.799
X254.701Y-116.849
X267.401Y-48.689
X267.401Y-67.739
X267.401Y-86.789
X267.401Y-105.839
X267.401Y-124.889
X273.751Y-46.149
X273.751Y-65.199
X273.751Y-84.249
X273.751Y-103.299
X273.751Y-122.349
X286.451Y-60.689
X286.451Y-79.739
X286.451Y-98.789
X286.451Y-117.839
X292.801Y-58.149
X292.801Y-77.199
X292.801Y-96.249
X292.801Y-115.299
X305.501Y-60.689
X305.501Y-79.739
X305.501Y-98.789
X311.851Y-58.149
X311.851Y-77.199
X311.851Y-96.249
T2
X158.669Y-118.213G85X159.069Y-118.213
G05
X159.769Y-113.613G85X160.169Y-113.613
G05
X163.769Y-113.613G85X164.169Y-113.613
G05
X166.769Y-113.613G85X167.169Y-113.613
G05
X179.369Y-118.213G85X178.969Y-118.213
G05
X182.369Y-118.213G85X181.969Y-118.213
G05
X186.369Y-118.213G85X185.969Y-118.213
G05
X187.469Y-113.613G85X187.069Y-113.613
G05
T0
M30
