G04 #@! TF.GenerationSoftware,KiCad,Pcbnew,(7.0.0-0)*
G04 #@! TF.CreationDate,2023-05-04T17:38:21-07:00*
G04 #@! TF.ProjectId,Junco,4a756e63-6f2e-46b6-9963-61645f706362,rev?*
G04 #@! TF.SameCoordinates,Original*
G04 #@! TF.FileFunction,Soldermask,Top*
G04 #@! TF.FilePolarity,Negative*
%FSLAX46Y46*%
G04 Gerber Fmt 4.6, Leading zero omitted, Abs format (unit mm)*
G04 Created by KiCad (PCBNEW (7.0.0-0)) date 2023-05-04 17:38:21*
%MOMM*%
%LPD*%
G01*
G04 APERTURE LIST*
G04 Aperture macros list*
%AMRotRect*
0 Rectangle, with rotation*
0 The origin of the aperture is its center*
0 $1 length*
0 $2 width*
0 $3 Rotation angle, in degrees counterclockwise*
0 Add horizontal line*
21,1,$1,$2,0,0,$3*%
G04 Aperture macros list end*
%ADD10R,1.400000X1.400000*%
%ADD11C,1.400000*%
%ADD12RotRect,1.400000X1.400000X338.000000*%
%ADD13RotRect,1.400000X1.400000X202.000000*%
%ADD14C,0.400000*%
%ADD15C,0.500000*%
%ADD16O,1.500000X2.800000*%
%ADD17C,1.750000*%
%ADD18C,3.000000*%
%ADD19C,4.000000*%
%ADD20R,2.000000X2.000000*%
%ADD21C,2.000000*%
%ADD22C,3.987800*%
%ADD23C,3.300000*%
%ADD24O,1.700000X1.700000*%
%ADD25R,1.700000X1.700000*%
%ADD26C,0.800000*%
%ADD27O,2.000000X1.600000*%
%ADD28R,2.000000X3.200000*%
G04 APERTURE END LIST*
D10*
X242951813Y-51076123D03*
D11*
X242951814Y-59076124D03*
D10*
X125409013Y-40026123D03*
D11*
X125409014Y-48026124D03*
D12*
X125734259Y-134780459D03*
D11*
X133151731Y-137777313D03*
D13*
X194696722Y-122283050D03*
D11*
X187279253Y-125279904D03*
D14*
X34897764Y-49766624D03*
X35897764Y-51290624D03*
X40297764Y-49766624D03*
D10*
X87309013Y-108226123D03*
D11*
X87309014Y-116226124D03*
D10*
X262001813Y-94676123D03*
D11*
X262001814Y-102676124D03*
D10*
X242951813Y-89176123D03*
D11*
X242951814Y-97176124D03*
D14*
X72997764Y-56816624D03*
X73997764Y-58340624D03*
X78397764Y-56816624D03*
D10*
X49209013Y-68576123D03*
D11*
X49209014Y-76576124D03*
D14*
X285790564Y-49766624D03*
X286790564Y-51290624D03*
X291190564Y-49766624D03*
X72997764Y-37766624D03*
X73997764Y-39290624D03*
X78397764Y-37766624D03*
X254087200Y-123053000D03*
X253087200Y-124565000D03*
X248687200Y-123065000D03*
D10*
X125409013Y-59076123D03*
D11*
X125409014Y-67076124D03*
D10*
X204851813Y-59076123D03*
D11*
X204851814Y-67076124D03*
D10*
X167361124Y-96917499D03*
D11*
X167361125Y-104917500D03*
D12*
X145461633Y-136842319D03*
D11*
X152879105Y-139839173D03*
D14*
X254087200Y-84903000D03*
X253087200Y-86415000D03*
X248687200Y-84915000D03*
D10*
X300101813Y-87626123D03*
D11*
X300101814Y-95626124D03*
D14*
X215987200Y-92933000D03*
X214987200Y-94445000D03*
X210587200Y-92945000D03*
X130147764Y-97416624D03*
X131147764Y-98940624D03*
X135547764Y-97416624D03*
D10*
X68259013Y-94676123D03*
D11*
X68259014Y-102676124D03*
D14*
X247690564Y-89416624D03*
X248690564Y-90940624D03*
X253090564Y-89416624D03*
X111097764Y-37766624D03*
X112097764Y-39290624D03*
X116497764Y-37766624D03*
X228640564Y-37766624D03*
X229640564Y-39290624D03*
X234040564Y-37766624D03*
D10*
X223901813Y-94676123D03*
D11*
X223901814Y-102676124D03*
D14*
X143216382Y-140741612D03*
X142216382Y-142253612D03*
X137816382Y-140753612D03*
D10*
X300101813Y-49526123D03*
D11*
X300101814Y-57526124D03*
D14*
X266740564Y-113966624D03*
X267740564Y-115490624D03*
X272140564Y-113966624D03*
X53947764Y-68816624D03*
X54947764Y-70340624D03*
X59347764Y-68816624D03*
X209414654Y-140839288D03*
X208414654Y-142351288D03*
X204014654Y-140851288D03*
D10*
X106359013Y-56576123D03*
D11*
X106359014Y-64576124D03*
D14*
X209590564Y-40266624D03*
X210590564Y-41790624D03*
X214990564Y-40266624D03*
X34897764Y-87866624D03*
X35897764Y-89390624D03*
X40297764Y-87866624D03*
X111097764Y-75866624D03*
X112097764Y-77390624D03*
X116497764Y-75866624D03*
X228640564Y-56816624D03*
X229640564Y-58340624D03*
X234040564Y-56816624D03*
D15*
X172693600Y-78452885D03*
X172693600Y-79202885D03*
X172693600Y-79952885D03*
X172693600Y-80702885D03*
D14*
X92047764Y-70366624D03*
X93047764Y-71890624D03*
X97447764Y-70366624D03*
D16*
X32499999Y-113349999D03*
D17*
X33020000Y-112750000D03*
D18*
X35560000Y-117830000D03*
D19*
X38100000Y-112750000D03*
D18*
X41910000Y-115290000D03*
D17*
X43180000Y-112750000D03*
D16*
X43699999Y-113349999D03*
D20*
X35599999Y-120849999D03*
D21*
X40600000Y-120850000D03*
X38100000Y-120850000D03*
X35600000Y-106350000D03*
X40600000Y-106350000D03*
D10*
X223901813Y-75626123D03*
D11*
X223901814Y-83626124D03*
D10*
X223901813Y-56576123D03*
D11*
X223901814Y-64576124D03*
D14*
X98450000Y-46833000D03*
X97450000Y-48345000D03*
X93050000Y-46845000D03*
X72997764Y-113966624D03*
X73997764Y-115490624D03*
X78397764Y-113966624D03*
D10*
X262001813Y-75626123D03*
D11*
X262001814Y-83626124D03*
D14*
X34900000Y-108188000D03*
X35900000Y-109712000D03*
X40300000Y-108188000D03*
X304837200Y-108188000D03*
X305837200Y-109712000D03*
X310237200Y-108188000D03*
X285790564Y-68816624D03*
X286790564Y-70340624D03*
X291190564Y-68816624D03*
X72997764Y-75866624D03*
X73997764Y-77390624D03*
X78397764Y-75866624D03*
D10*
X262001813Y-56576123D03*
D11*
X262001814Y-64576124D03*
D15*
X173443600Y-78452885D03*
X173443600Y-79202885D03*
X173443600Y-79952885D03*
X173443600Y-80702885D03*
D14*
X111097764Y-56816624D03*
X112097764Y-58340624D03*
X116497764Y-56816624D03*
X209590564Y-59316624D03*
X210590564Y-60840624D03*
X214990564Y-59316624D03*
X228640564Y-75866624D03*
X229640564Y-77390624D03*
X234040564Y-75866624D03*
D10*
X223901813Y-37526123D03*
D11*
X223901814Y-45526124D03*
D14*
X247690564Y-32266624D03*
X248690564Y-33790624D03*
X253090564Y-32266624D03*
X196248903Y-126766836D03*
X195210481Y-128264920D03*
X198271779Y-131773629D03*
D10*
X125409013Y-97176123D03*
D11*
X125409014Y-105176124D03*
D14*
X301712200Y-102458000D03*
X300712200Y-103970000D03*
X296312200Y-102470000D03*
X130147764Y-78366624D03*
X131147764Y-79890624D03*
X135547764Y-78366624D03*
D10*
X281051813Y-87626123D03*
D11*
X281051814Y-95626124D03*
D14*
X136550000Y-92968000D03*
X135550000Y-94480000D03*
X131150000Y-92980000D03*
D10*
X68259013Y-56576123D03*
D11*
X68259014Y-64576124D03*
D14*
X285790564Y-106916624D03*
X286790564Y-108440624D03*
X291190564Y-106916624D03*
D10*
X106359013Y-37526123D03*
D11*
X106359014Y-45526124D03*
D14*
X130147764Y-59316624D03*
X131147764Y-60840624D03*
X135547764Y-59316624D03*
D10*
X204851813Y-40026123D03*
D11*
X204851814Y-48026124D03*
D14*
X92047764Y-108466624D03*
X93047764Y-109990624D03*
X97447764Y-108466624D03*
X209590564Y-78366624D03*
X210590564Y-79890624D03*
X214990564Y-78366624D03*
X304840564Y-87866624D03*
X305840564Y-89390624D03*
X310240564Y-87866624D03*
D10*
X143928749Y-39277499D03*
D11*
X143928750Y-47277500D03*
D14*
X304840564Y-49766624D03*
X305840564Y-51290624D03*
X310240564Y-49766624D03*
D10*
X49209013Y-106676123D03*
D11*
X49209014Y-114676124D03*
D14*
X92047764Y-32266624D03*
X93047764Y-33790624D03*
X97447764Y-32266624D03*
X34897764Y-68816624D03*
X35897764Y-70340624D03*
X40297764Y-68816624D03*
X209590564Y-97416624D03*
X210590564Y-98940624D03*
X214990564Y-97416624D03*
X111097764Y-94916624D03*
X112097764Y-96440624D03*
X116497764Y-94916624D03*
D10*
X68259013Y-37526123D03*
D11*
X68259014Y-45526124D03*
D14*
X111097764Y-113966624D03*
X112097764Y-115490624D03*
X116497764Y-113966624D03*
D10*
X281051813Y-106676123D03*
D11*
X281051814Y-114676124D03*
D14*
X50825000Y-64338000D03*
X49825000Y-65850000D03*
X45425000Y-64350000D03*
D10*
X281051813Y-68576123D03*
D11*
X281051814Y-76576124D03*
D14*
X247690564Y-70366624D03*
X248690564Y-71890624D03*
X253090564Y-70366624D03*
X147582415Y-132600561D03*
X149370050Y-132244277D03*
X149605290Y-127593768D03*
D16*
X302437199Y-113349999D03*
D17*
X302957200Y-112750000D03*
D18*
X305497200Y-117830000D03*
D19*
X308037200Y-112750000D03*
D18*
X311847200Y-115290000D03*
D17*
X313117200Y-112750000D03*
D16*
X313637199Y-113349999D03*
D20*
X305537199Y-120849999D03*
D21*
X310537200Y-120850000D03*
X308037200Y-120850000D03*
X305537200Y-106350000D03*
X310537200Y-106350000D03*
D14*
X285790564Y-87866624D03*
X286790564Y-89390624D03*
X291190564Y-87866624D03*
X266740564Y-75866624D03*
X267740564Y-77390624D03*
X272140564Y-75866624D03*
D10*
X175848749Y-39827499D03*
D11*
X175848750Y-47827500D03*
D14*
X215987200Y-54893000D03*
X214987200Y-56405000D03*
X210587200Y-54905000D03*
X247690564Y-108466624D03*
X248690564Y-109990624D03*
X253090564Y-108466624D03*
D10*
X106359013Y-113726123D03*
D11*
X106359014Y-121726124D03*
D10*
X87309013Y-70126123D03*
D11*
X87309014Y-78126124D03*
D10*
X125409013Y-78126123D03*
D11*
X125409014Y-86126124D03*
D10*
X87309013Y-89176123D03*
D11*
X87309014Y-97176124D03*
D10*
X204851813Y-97176123D03*
D11*
X204851814Y-105176124D03*
D10*
X49209013Y-49526123D03*
D11*
X49209014Y-57526124D03*
D14*
X254035000Y-46863000D03*
X253035000Y-48375000D03*
X248635000Y-46875000D03*
X72997764Y-94916624D03*
X73997764Y-96440624D03*
X78397764Y-94916624D03*
D10*
X242951813Y-70126123D03*
D11*
X242951814Y-78126124D03*
D14*
X98450000Y-84968000D03*
X97450000Y-86480000D03*
X93050000Y-84980000D03*
X228640564Y-94916624D03*
X229640564Y-96440624D03*
X234040564Y-94916624D03*
X50825000Y-102488000D03*
X49825000Y-104000000D03*
X45425000Y-102500000D03*
X304840564Y-68816624D03*
X305840564Y-70340624D03*
X310240564Y-68816624D03*
D10*
X204851813Y-78126123D03*
D11*
X204851814Y-86126124D03*
D14*
X53947764Y-87866624D03*
X54947764Y-89390624D03*
X59347764Y-87866624D03*
D10*
X223901813Y-113726123D03*
D11*
X223901814Y-121726124D03*
D10*
X106359013Y-75626123D03*
D11*
X106359014Y-83626124D03*
D14*
X301712200Y-64378000D03*
X300712200Y-65890000D03*
X296312200Y-64390000D03*
D10*
X300101813Y-68576123D03*
D11*
X300101814Y-76576124D03*
D10*
X195721124Y-97087499D03*
D11*
X195721125Y-105087500D03*
D14*
X53947764Y-106916624D03*
X54947764Y-108440624D03*
X59347764Y-106916624D03*
D13*
X214546722Y-120146750D03*
D11*
X207129253Y-123143604D03*
D10*
X30159013Y-68576123D03*
D11*
X30159014Y-76576124D03*
D14*
X98405000Y-123073000D03*
X97405000Y-124585000D03*
X93005000Y-123085000D03*
D10*
X106359013Y-94676123D03*
D11*
X106359014Y-102676124D03*
D14*
X266740564Y-56816624D03*
X267740564Y-58340624D03*
X272140564Y-56816624D03*
X136705000Y-54823000D03*
X135705000Y-56335000D03*
X131305000Y-54835000D03*
X266740564Y-37766624D03*
X267740564Y-39290624D03*
X272140564Y-37766624D03*
D10*
X30026374Y-106726749D03*
D11*
X30026375Y-114726750D03*
D10*
X262001813Y-113726123D03*
D11*
X262001814Y-121726124D03*
D14*
X216098903Y-124630536D03*
X215060481Y-126128620D03*
X218121779Y-129637329D03*
D10*
X68259013Y-75626123D03*
D11*
X68259014Y-83626124D03*
D10*
X281051813Y-49526123D03*
D11*
X281051814Y-57526124D03*
D14*
X228640564Y-113966624D03*
X229640564Y-115490624D03*
X234040564Y-113966624D03*
D10*
X49209013Y-87626123D03*
D11*
X49209014Y-95626124D03*
D14*
X247690564Y-51316624D03*
X248690564Y-52840624D03*
X253090564Y-51316624D03*
D10*
X68259013Y-113726123D03*
D11*
X68259014Y-121726124D03*
D14*
X127732415Y-130476861D03*
X129520050Y-130120577D03*
X129755290Y-125470068D03*
X53947764Y-49766624D03*
X54947764Y-51290624D03*
X59347764Y-49766624D03*
D10*
X300101813Y-106676123D03*
D11*
X300101814Y-114676124D03*
D10*
X262001813Y-37526123D03*
D11*
X262001814Y-45526124D03*
D14*
X92047764Y-89416624D03*
X93047764Y-90940624D03*
X97447764Y-89416624D03*
X92047764Y-51316624D03*
X93047764Y-52840624D03*
X97447764Y-51316624D03*
D10*
X242951813Y-32026123D03*
D11*
X242951814Y-40026124D03*
D14*
X130147764Y-40266624D03*
X131147764Y-41790624D03*
X135547764Y-40266624D03*
D10*
X30159013Y-49526123D03*
D11*
X30159014Y-57526124D03*
D10*
X87309013Y-32026123D03*
D11*
X87309014Y-40026124D03*
D10*
X87309013Y-51076123D03*
D11*
X87309014Y-59076124D03*
D10*
X30159013Y-87626123D03*
D11*
X30159014Y-95626124D03*
D14*
X266740564Y-94916624D03*
X267740564Y-96440624D03*
X272140564Y-94916624D03*
D10*
X242951813Y-108226123D03*
D11*
X242951814Y-116226124D03*
D17*
X152294763Y-136532118D03*
D22*
X154197764Y-131822024D03*
D17*
X156100765Y-127111930D03*
D23*
X157980062Y-129240954D03*
X157956357Y-136080072D03*
D17*
X128267764Y-103258624D03*
D22*
X133347764Y-103258624D03*
D17*
X138427764Y-103258624D03*
D23*
X137157764Y-105798624D03*
X130807764Y-108338624D03*
D17*
X283910564Y-112758624D03*
D22*
X288990564Y-112758624D03*
D17*
X294070564Y-112758624D03*
D23*
X292800564Y-115298624D03*
X286450564Y-117838624D03*
D17*
X52067764Y-112758624D03*
D22*
X57147764Y-112758624D03*
D17*
X62227764Y-112758624D03*
D23*
X60957764Y-115298624D03*
X54607764Y-117838624D03*
D17*
X283910564Y-55608624D03*
D22*
X288990564Y-55608624D03*
D17*
X294070564Y-55608624D03*
D23*
X292800564Y-58148624D03*
X286450564Y-60688624D03*
D17*
X71117764Y-43608624D03*
D22*
X76197764Y-43608624D03*
D17*
X81277764Y-43608624D03*
D23*
X80007764Y-46148624D03*
X73657764Y-48688624D03*
D17*
X264860564Y-100758624D03*
D22*
X269940564Y-100758624D03*
D17*
X275020564Y-100758624D03*
D23*
X273750564Y-103298624D03*
X267400564Y-105838624D03*
D17*
X302960564Y-74658624D03*
D22*
X308040564Y-74658624D03*
D17*
X313120564Y-74658624D03*
D23*
X311850564Y-77198624D03*
X305500564Y-79738624D03*
D17*
X109217764Y-81708624D03*
D22*
X114297764Y-81708624D03*
D17*
X119377764Y-81708624D03*
D23*
X118107764Y-84248624D03*
X111757764Y-86788624D03*
D17*
X283910564Y-74658624D03*
D22*
X288990564Y-74658624D03*
D17*
X294070564Y-74658624D03*
D23*
X292800564Y-77198624D03*
X286450564Y-79738624D03*
D17*
X132444763Y-134408418D03*
D22*
X134347764Y-129698324D03*
D17*
X136250765Y-124988230D03*
D23*
X138130062Y-127117254D03*
X138106357Y-133956372D03*
D17*
X302960564Y-55608624D03*
D22*
X308040564Y-55608624D03*
D17*
X313120564Y-55608624D03*
D23*
X311850564Y-58148624D03*
X305500564Y-60688624D03*
D17*
X245810564Y-95258624D03*
D22*
X250890564Y-95258624D03*
D17*
X255970564Y-95258624D03*
D23*
X254700564Y-97798624D03*
X248350564Y-100338624D03*
D17*
X209978035Y-125075882D03*
D22*
X211881036Y-129785976D03*
D17*
X213784037Y-134496070D03*
D23*
X210953240Y-134270047D03*
X206219441Y-129333931D03*
D17*
X245810564Y-114308624D03*
D22*
X250890564Y-114308624D03*
D17*
X255970564Y-114308624D03*
D23*
X254700564Y-116848624D03*
X248350564Y-119388624D03*
D24*
X197935799Y-39114999D03*
X197935799Y-41654999D03*
D25*
X197935799Y-44194999D03*
D24*
X197935799Y-46734999D03*
X197935799Y-49274999D03*
X197935799Y-51814999D03*
X197935799Y-54354999D03*
D25*
X197935799Y-56894999D03*
D24*
X197935799Y-59434999D03*
X197935799Y-61974999D03*
X197935799Y-64514999D03*
X197935799Y-67054999D03*
D25*
X197935799Y-69594999D03*
D24*
X197935799Y-72134999D03*
X197935799Y-74674999D03*
X197935799Y-77214999D03*
X197935799Y-79754999D03*
D25*
X197935799Y-82294999D03*
D24*
X197935799Y-84834999D03*
X197935799Y-87374999D03*
X180155799Y-87374999D03*
X180155799Y-84834999D03*
D25*
X180155799Y-82294999D03*
D24*
X180155799Y-79754999D03*
X180155799Y-77214999D03*
X180155799Y-74674999D03*
X180155799Y-72134999D03*
D25*
X180155799Y-69594999D03*
D24*
X180155799Y-67054999D03*
X180155799Y-64514999D03*
X180155799Y-61974999D03*
X180155799Y-59434999D03*
D25*
X180155799Y-56894999D03*
D24*
X180155799Y-54354999D03*
X180155799Y-51814999D03*
X180155799Y-49274999D03*
X180155799Y-46734999D03*
D25*
X180155799Y-44194999D03*
D24*
X180155799Y-41654999D03*
X180155799Y-39114999D03*
X191585799Y-87144999D03*
D25*
X189045799Y-87144999D03*
D24*
X186505799Y-87144999D03*
D17*
X109217764Y-119808624D03*
D22*
X114297764Y-119808624D03*
D17*
X119377764Y-119808624D03*
D23*
X118107764Y-122348624D03*
X111757764Y-124888624D03*
D17*
X245810564Y-57158624D03*
D22*
X250890564Y-57158624D03*
D17*
X255970564Y-57158624D03*
D23*
X254700564Y-59698624D03*
X248350564Y-62238624D03*
D17*
X128267764Y-46108624D03*
D22*
X133347764Y-46108624D03*
D17*
X138427764Y-46108624D03*
D23*
X137157764Y-48648624D03*
X130807764Y-51188624D03*
D17*
X245810564Y-76208624D03*
D22*
X250890564Y-76208624D03*
D17*
X255970564Y-76208624D03*
D23*
X254700564Y-78748624D03*
X248350564Y-81288624D03*
D17*
X71117764Y-119808624D03*
D22*
X76197764Y-119808624D03*
D17*
X81277764Y-119808624D03*
D23*
X80007764Y-122348624D03*
X73657764Y-124888624D03*
D17*
X302960564Y-93708624D03*
D22*
X308040564Y-93708624D03*
D17*
X313120564Y-93708624D03*
D23*
X311850564Y-96248624D03*
X305500564Y-98788624D03*
D17*
X52067764Y-93708624D03*
D22*
X57147764Y-93708624D03*
D17*
X62227764Y-93708624D03*
D23*
X60957764Y-96248624D03*
X54607764Y-98788624D03*
D17*
X33017764Y-93708624D03*
D22*
X38097764Y-93708624D03*
D17*
X43177764Y-93708624D03*
D23*
X41907764Y-96248624D03*
X35557764Y-98788624D03*
D17*
X90167764Y-38108624D03*
D22*
X95247764Y-38108624D03*
D17*
X100327764Y-38108624D03*
D23*
X99057764Y-40648624D03*
X92707764Y-43188624D03*
D17*
X90167764Y-76208624D03*
D22*
X95247764Y-76208624D03*
D17*
X100327764Y-76208624D03*
D23*
X99057764Y-78748624D03*
X92707764Y-81288624D03*
D17*
X109217764Y-43608624D03*
D22*
X114297764Y-43608624D03*
D17*
X119377764Y-43608624D03*
D23*
X118107764Y-46148624D03*
X111757764Y-48688624D03*
D17*
X207710564Y-46108624D03*
D22*
X212790564Y-46108624D03*
D17*
X217870564Y-46108624D03*
D23*
X216600564Y-48648624D03*
X210250564Y-51188624D03*
D17*
X71117764Y-100758624D03*
D22*
X76197764Y-100758624D03*
D17*
X81277764Y-100758624D03*
D23*
X80007764Y-103298624D03*
X73657764Y-105838624D03*
D17*
X264860564Y-119808624D03*
D22*
X269940564Y-119808624D03*
D17*
X275020564Y-119808624D03*
D23*
X273750564Y-122348624D03*
X267400564Y-124888624D03*
D26*
X184568600Y-115913270D03*
X177568600Y-115913270D03*
D27*
X182168599Y-118213269D03*
X179168599Y-118213269D03*
X187268599Y-113613269D03*
X186168599Y-118213269D03*
D17*
X207710564Y-84208624D03*
D22*
X212790564Y-84208624D03*
D17*
X217870564Y-84208624D03*
D23*
X216600564Y-86748624D03*
X210250564Y-89288624D03*
D17*
X128267764Y-84208624D03*
D22*
X133347764Y-84208624D03*
D17*
X138427764Y-84208624D03*
D23*
X137157764Y-86748624D03*
X130807764Y-89288624D03*
D17*
X264860564Y-81708624D03*
D22*
X269940564Y-81708624D03*
D17*
X275020564Y-81708624D03*
D23*
X273750564Y-84248624D03*
X267400564Y-86788624D03*
D17*
X207710564Y-103258624D03*
D22*
X212790564Y-103258624D03*
D17*
X217870564Y-103258624D03*
D23*
X216600564Y-105798624D03*
X210250564Y-108338624D03*
D26*
X161568600Y-115913270D03*
X168568600Y-115913270D03*
D27*
X163968599Y-113613269D03*
X166968599Y-113613269D03*
X158868599Y-118213269D03*
X159968599Y-113613269D03*
D17*
X264860564Y-62658624D03*
D22*
X269940564Y-62658624D03*
D17*
X275020564Y-62658624D03*
D23*
X273750564Y-65198624D03*
X267400564Y-67738624D03*
D17*
X190128035Y-127212182D03*
D22*
X192031036Y-131922276D03*
D17*
X193934037Y-136632370D03*
D23*
X191103240Y-136406347D03*
X186369441Y-131470231D03*
D17*
X226760564Y-81708624D03*
D22*
X231840564Y-81708624D03*
D17*
X236920564Y-81708624D03*
D23*
X235650564Y-84248624D03*
X229300564Y-86788624D03*
D17*
X128267764Y-65158624D03*
D22*
X133347764Y-65158624D03*
D17*
X138427764Y-65158624D03*
D23*
X137157764Y-67698624D03*
X130807764Y-70238624D03*
D17*
X90167764Y-114308624D03*
D22*
X95247764Y-114308624D03*
D17*
X100327764Y-114308624D03*
D23*
X99057764Y-116848624D03*
X92707764Y-119388624D03*
D17*
X245810564Y-38108624D03*
D22*
X250890564Y-38108624D03*
D17*
X255970564Y-38108624D03*
D23*
X254700564Y-40648624D03*
X248350564Y-43188624D03*
D17*
X109217764Y-100758624D03*
D22*
X114297764Y-100758624D03*
D17*
X119377764Y-100758624D03*
D23*
X118107764Y-103298624D03*
X111757764Y-105838624D03*
D17*
X90167764Y-57158624D03*
D22*
X95247764Y-57158624D03*
D17*
X100327764Y-57158624D03*
D23*
X99057764Y-59698624D03*
X92707764Y-62238624D03*
D17*
X71117764Y-81708624D03*
D22*
X76197764Y-81708624D03*
D17*
X81277764Y-81708624D03*
D23*
X80007764Y-84248624D03*
X73657764Y-86788624D03*
D17*
X226760564Y-43608624D03*
D22*
X231840564Y-43608624D03*
D17*
X236920564Y-43608624D03*
D23*
X235650564Y-46148624D03*
X229300564Y-48688624D03*
D17*
X226760564Y-119808624D03*
D22*
X231840564Y-119808624D03*
D17*
X236920564Y-119808624D03*
D23*
X235650564Y-122348624D03*
X229300564Y-124888624D03*
D17*
X52067764Y-74658624D03*
D22*
X57147764Y-74658624D03*
D17*
X62227764Y-74658624D03*
D23*
X60957764Y-77198624D03*
X54607764Y-79738624D03*
D24*
X166248599Y-39114999D03*
X166248599Y-41654999D03*
D25*
X166248599Y-44194999D03*
D24*
X166248599Y-46734999D03*
X166248599Y-49274999D03*
X166248599Y-51814999D03*
X166248599Y-54354999D03*
D25*
X166248599Y-56894999D03*
D24*
X166248599Y-59434999D03*
X166248599Y-61974999D03*
X166248599Y-64514999D03*
X166248599Y-67054999D03*
D25*
X166248599Y-69594999D03*
D24*
X166248599Y-72134999D03*
X166248599Y-74674999D03*
X166248599Y-77214999D03*
X166248599Y-79754999D03*
D25*
X166248599Y-82294999D03*
D24*
X166248599Y-84834999D03*
X166248599Y-87374999D03*
X148468599Y-87374999D03*
X148468599Y-84834999D03*
D25*
X148468599Y-82294999D03*
D24*
X148468599Y-79754999D03*
X148468599Y-77214999D03*
X148468599Y-74674999D03*
X148468599Y-72134999D03*
D25*
X148468599Y-69594999D03*
D24*
X148468599Y-67054999D03*
X148468599Y-64514999D03*
X148468599Y-61974999D03*
X148468599Y-59434999D03*
D25*
X148468599Y-56894999D03*
D24*
X148468599Y-54354999D03*
X148468599Y-51814999D03*
X148468599Y-49274999D03*
X148468599Y-46734999D03*
D25*
X148468599Y-44194999D03*
D24*
X148468599Y-41654999D03*
X148468599Y-39114999D03*
X159898599Y-87144999D03*
D25*
X157358599Y-87144999D03*
D24*
X154818599Y-87144999D03*
D17*
X90167764Y-95258624D03*
D22*
X95247764Y-95258624D03*
D17*
X100327764Y-95258624D03*
D23*
X99057764Y-97798624D03*
X92707764Y-100338624D03*
D17*
X283910564Y-93708624D03*
D22*
X288990564Y-93708624D03*
D17*
X294070564Y-93708624D03*
D23*
X292800564Y-96248624D03*
X286450564Y-98788624D03*
D17*
X207710564Y-65158624D03*
D22*
X212790564Y-65158624D03*
D17*
X217870564Y-65158624D03*
D23*
X216600564Y-67698624D03*
X210250564Y-70238624D03*
D17*
X71117764Y-62658624D03*
D22*
X76197764Y-62658624D03*
D17*
X81277764Y-62658624D03*
D23*
X80007764Y-65198624D03*
X73657764Y-67738624D03*
D17*
X226760564Y-62658624D03*
D22*
X231840564Y-62658624D03*
D17*
X236920564Y-62658624D03*
D23*
X235650564Y-65198624D03*
X229300564Y-67738624D03*
D17*
X226760564Y-100758624D03*
D22*
X231840564Y-100758624D03*
D17*
X236920564Y-100758624D03*
D23*
X235650564Y-103298624D03*
X229300564Y-105838624D03*
D28*
X153258599Y-103249999D03*
X164458599Y-103249999D03*
D20*
X156358599Y-110749999D03*
D21*
X161358600Y-110750000D03*
X158858600Y-110750000D03*
X161358600Y-96250000D03*
X156358600Y-96250000D03*
D17*
X264860564Y-43608624D03*
D22*
X269940564Y-43608624D03*
D17*
X275020564Y-43608624D03*
D23*
X273750564Y-46148624D03*
X267400564Y-48688624D03*
D17*
X109217764Y-62658624D03*
D22*
X114297764Y-62658624D03*
D17*
X119377764Y-62658624D03*
D23*
X118107764Y-65198624D03*
X111757764Y-67738624D03*
D17*
X33017764Y-55608624D03*
D22*
X38097764Y-55608624D03*
D17*
X43177764Y-55608624D03*
D23*
X41907764Y-58148624D03*
X35557764Y-60688624D03*
D17*
X33017764Y-74658624D03*
D22*
X38097764Y-74658624D03*
D17*
X43177764Y-74658624D03*
D23*
X41907764Y-77198624D03*
X35557764Y-79738624D03*
D28*
X181678599Y-103249999D03*
X192878599Y-103249999D03*
D20*
X184778599Y-110749999D03*
D21*
X189778600Y-110750000D03*
X187278600Y-110750000D03*
X189778600Y-96250000D03*
X184778600Y-96250000D03*
D17*
X52067764Y-55608624D03*
D22*
X57147764Y-55608624D03*
D17*
X62227764Y-55608624D03*
D23*
X60957764Y-58148624D03*
X54607764Y-60688624D03*
M02*
