G04 #@! TF.GenerationSoftware,KiCad,Pcbnew,(7.0.0-0)*
G04 #@! TF.CreationDate,2023-05-21T14:37:32-07:00*
G04 #@! TF.ProjectId,Junco,4a756e63-6f2e-46b6-9963-61645f706362,rev?*
G04 #@! TF.SameCoordinates,Original*
G04 #@! TF.FileFunction,Soldermask,Top*
G04 #@! TF.FilePolarity,Negative*
%FSLAX46Y46*%
G04 Gerber Fmt 4.6, Leading zero omitted, Abs format (unit mm)*
G04 Created by KiCad (PCBNEW (7.0.0-0)) date 2023-05-21 14:37:32*
%MOMM*%
%LPD*%
G01*
G04 APERTURE LIST*
G04 Aperture macros list*
%AMRoundRect*
0 Rectangle with rounded corners*
0 $1 Rounding radius*
0 $2 $3 $4 $5 $6 $7 $8 $9 X,Y pos of 4 corners*
0 Add a 4 corners polygon primitive as box body*
4,1,4,$2,$3,$4,$5,$6,$7,$8,$9,$2,$3,0*
0 Add four circle primitives for the rounded corners*
1,1,$1+$1,$2,$3*
1,1,$1+$1,$4,$5*
1,1,$1+$1,$6,$7*
1,1,$1+$1,$8,$9*
0 Add four rect primitives between the rounded corners*
20,1,$1+$1,$2,$3,$4,$5,0*
20,1,$1+$1,$4,$5,$6,$7,0*
20,1,$1+$1,$6,$7,$8,$9,0*
20,1,$1+$1,$8,$9,$2,$3,0*%
%AMRotRect*
0 Rectangle, with rotation*
0 The origin of the aperture is its center*
0 $1 length*
0 $2 width*
0 $3 Rotation angle, in degrees counterclockwise*
0 Add horizontal line*
21,1,$1,$2,0,0,$3*%
%AMFreePoly0*
4,1,21,-1.000000,0.000000,-0.988920,0.140791,-0.940222,0.322531,-0.854804,0.490175,-0.736396,0.636396,-0.590175,0.754804,-0.422531,0.840222,-0.240791,0.888920,-0.100000,0.900000,1.000000,0.900000,1.000000,-0.900000,-0.100000,-0.900000,-0.240791,-0.888920,-0.422531,-0.840222,-0.590175,-0.754804,-0.736396,-0.636396,-0.854804,-0.490175,-0.940222,-0.322531,-0.988920,-0.140791,-1.000000,0.000000,
-1.000000,0.000000,-1.000000,0.000000,$1*%
%AMFreePoly1*
4,1,20,-1.000000,0.900000,0.100000,0.900000,0.240791,0.888920,0.422531,0.840222,0.590175,0.754804,0.736396,0.636396,0.854804,0.490175,0.940222,0.322531,0.988920,0.140791,1.000000,0.000000,0.988920,-0.140791,0.940222,-0.322531,0.854804,-0.490175,0.736396,-0.636396,0.590175,-0.754804,0.422531,-0.840222,0.240791,-0.888920,0.100000,-0.900000,-1.000000,-0.900000,-1.000000,0.900000,
-1.000000,0.900000,$1*%
G04 Aperture macros list end*
G04 #@! TA.AperFunction,Profile*
%ADD10C,0.120000*%
G04 #@! TD*
%ADD11R,1.400000X0.820000*%
%ADD12RoundRect,0.205000X-0.495000X-0.205000X0.495000X-0.205000X0.495000X0.205000X-0.495000X0.205000X0*%
%ADD13FreePoly0,180.000000*%
%ADD14FreePoly1,180.000000*%
%ADD15C,0.500000*%
%ADD16FreePoly0,0.000000*%
%ADD17FreePoly1,0.000000*%
%ADD18C,1.750000*%
%ADD19C,3.987800*%
%ADD20C,3.300000*%
%ADD21R,1.400000X1.400000*%
%ADD22C,1.400000*%
%ADD23RotRect,1.400000X1.400000X158.000000*%
%ADD24RotRect,1.400000X1.400000X22.000000*%
%ADD25O,1.700000X1.700000*%
%ADD26R,1.700000X1.700000*%
%ADD27O,1.500000X2.800000*%
%ADD28C,3.000000*%
%ADD29C,4.000000*%
%ADD30R,2.000000X2.000000*%
%ADD31C,2.000000*%
%ADD32C,0.800000*%
%ADD33O,2.000000X1.600000*%
%ADD34R,2.000000X3.200000*%
G04 APERTURE END LIST*
D10*
X252687200Y-122215000D02*
X249087200Y-122215000D01*
X249087200Y-122215000D02*
X249087200Y-125415000D01*
X249087200Y-125415000D02*
X252687200Y-125415000D01*
X252687200Y-125415000D02*
X252687200Y-122215000D01*
X252687200Y-84065000D02*
X249087200Y-84065000D01*
X249087200Y-84065000D02*
X249087200Y-87265000D01*
X249087200Y-87265000D02*
X252687200Y-87265000D01*
X252687200Y-87265000D02*
X252687200Y-84065000D01*
X214587200Y-92095000D02*
X210987200Y-92095000D01*
X210987200Y-92095000D02*
X210987200Y-95295000D01*
X210987200Y-95295000D02*
X214587200Y-95295000D01*
X214587200Y-95295000D02*
X214587200Y-92095000D01*
X141816382Y-139903612D02*
X138216382Y-139903612D01*
X138216382Y-139903612D02*
X138216382Y-143103612D01*
X138216382Y-143103612D02*
X141816382Y-143103612D01*
X141816382Y-143103612D02*
X141816382Y-139903612D01*
X208014654Y-140001288D02*
X204414654Y-140001288D01*
X204414654Y-140001288D02*
X204414654Y-143201288D01*
X204414654Y-143201288D02*
X208014654Y-143201288D01*
X208014654Y-143201288D02*
X208014654Y-140001288D01*
X97050000Y-45995000D02*
X93450000Y-45995000D01*
X93450000Y-45995000D02*
X93450000Y-49195000D01*
X93450000Y-49195000D02*
X97050000Y-49195000D01*
X97050000Y-49195000D02*
X97050000Y-45995000D01*
X300312200Y-101620000D02*
X296712200Y-101620000D01*
X296712200Y-101620000D02*
X296712200Y-104820000D01*
X296712200Y-104820000D02*
X300312200Y-104820000D01*
X300312200Y-104820000D02*
X300312200Y-101620000D01*
X135150000Y-92130000D02*
X131550000Y-92130000D01*
X131550000Y-92130000D02*
X131550000Y-95330000D01*
X131550000Y-95330000D02*
X135150000Y-95330000D01*
X135150000Y-95330000D02*
X135150000Y-92130000D01*
X49425000Y-63500000D02*
X45825000Y-63500000D01*
X45825000Y-63500000D02*
X45825000Y-66700000D01*
X45825000Y-66700000D02*
X49425000Y-66700000D01*
X49425000Y-66700000D02*
X49425000Y-63500000D01*
X214587200Y-54055000D02*
X210987200Y-54055000D01*
X210987200Y-54055000D02*
X210987200Y-57255000D01*
X210987200Y-57255000D02*
X214587200Y-57255000D01*
X214587200Y-57255000D02*
X214587200Y-54055000D01*
X252635000Y-46025000D02*
X249035000Y-46025000D01*
X249035000Y-46025000D02*
X249035000Y-49225000D01*
X249035000Y-49225000D02*
X252635000Y-49225000D01*
X252635000Y-49225000D02*
X252635000Y-46025000D01*
X97050000Y-84130000D02*
X93450000Y-84130000D01*
X93450000Y-84130000D02*
X93450000Y-87330000D01*
X93450000Y-87330000D02*
X97050000Y-87330000D01*
X97050000Y-87330000D02*
X97050000Y-84130000D01*
X49425000Y-101650000D02*
X45825000Y-101650000D01*
X45825000Y-101650000D02*
X45825000Y-104850000D01*
X45825000Y-104850000D02*
X49425000Y-104850000D01*
X49425000Y-104850000D02*
X49425000Y-101650000D01*
X300312200Y-63540000D02*
X296712200Y-63540000D01*
X296712200Y-63540000D02*
X296712200Y-66740000D01*
X296712200Y-66740000D02*
X300312200Y-66740000D01*
X300312200Y-66740000D02*
X300312200Y-63540000D01*
X97005000Y-122235000D02*
X93405000Y-122235000D01*
X93405000Y-122235000D02*
X93405000Y-125435000D01*
X93405000Y-125435000D02*
X97005000Y-125435000D01*
X97005000Y-125435000D02*
X97005000Y-122235000D01*
X135305000Y-53985000D02*
X131705000Y-53985000D01*
X131705000Y-53985000D02*
X131705000Y-57185000D01*
X131705000Y-57185000D02*
X135305000Y-57185000D01*
X135305000Y-57185000D02*
X135305000Y-53985000D01*
X36297764Y-48928624D02*
X39897764Y-48928624D01*
X39897764Y-48928624D02*
X39897764Y-52128624D01*
X39897764Y-52128624D02*
X36297764Y-52128624D01*
X36297764Y-52128624D02*
X36297764Y-48928624D01*
X74397764Y-55978624D02*
X77997764Y-55978624D01*
X77997764Y-55978624D02*
X77997764Y-59178624D01*
X77997764Y-59178624D02*
X74397764Y-59178624D01*
X74397764Y-59178624D02*
X74397764Y-55978624D01*
X287190564Y-48928624D02*
X290790564Y-48928624D01*
X290790564Y-48928624D02*
X290790564Y-52128624D01*
X290790564Y-52128624D02*
X287190564Y-52128624D01*
X287190564Y-52128624D02*
X287190564Y-48928624D01*
X74397764Y-36928624D02*
X77997764Y-36928624D01*
X77997764Y-36928624D02*
X77997764Y-40128624D01*
X77997764Y-40128624D02*
X74397764Y-40128624D01*
X74397764Y-40128624D02*
X74397764Y-36928624D01*
X131547764Y-96578624D02*
X135147764Y-96578624D01*
X135147764Y-96578624D02*
X135147764Y-99778624D01*
X135147764Y-99778624D02*
X131547764Y-99778624D01*
X131547764Y-99778624D02*
X131547764Y-96578624D01*
X249090564Y-88578624D02*
X252690564Y-88578624D01*
X252690564Y-88578624D02*
X252690564Y-91778624D01*
X252690564Y-91778624D02*
X249090564Y-91778624D01*
X249090564Y-91778624D02*
X249090564Y-88578624D01*
X112497764Y-36928624D02*
X116097764Y-36928624D01*
X116097764Y-36928624D02*
X116097764Y-40128624D01*
X116097764Y-40128624D02*
X112497764Y-40128624D01*
X112497764Y-40128624D02*
X112497764Y-36928624D01*
X230040564Y-36928624D02*
X233640564Y-36928624D01*
X233640564Y-36928624D02*
X233640564Y-40128624D01*
X233640564Y-40128624D02*
X230040564Y-40128624D01*
X230040564Y-40128624D02*
X230040564Y-36928624D01*
X268140564Y-113128624D02*
X271740564Y-113128624D01*
X271740564Y-113128624D02*
X271740564Y-116328624D01*
X271740564Y-116328624D02*
X268140564Y-116328624D01*
X268140564Y-116328624D02*
X268140564Y-113128624D01*
X55347764Y-67978624D02*
X58947764Y-67978624D01*
X58947764Y-67978624D02*
X58947764Y-71178624D01*
X58947764Y-71178624D02*
X55347764Y-71178624D01*
X55347764Y-71178624D02*
X55347764Y-67978624D01*
X210990564Y-39428624D02*
X214590564Y-39428624D01*
X214590564Y-39428624D02*
X214590564Y-42628624D01*
X214590564Y-42628624D02*
X210990564Y-42628624D01*
X210990564Y-42628624D02*
X210990564Y-39428624D01*
X36297764Y-87028624D02*
X39897764Y-87028624D01*
X39897764Y-87028624D02*
X39897764Y-90228624D01*
X39897764Y-90228624D02*
X36297764Y-90228624D01*
X36297764Y-90228624D02*
X36297764Y-87028624D01*
X112497764Y-75028624D02*
X116097764Y-75028624D01*
X116097764Y-75028624D02*
X116097764Y-78228624D01*
X116097764Y-78228624D02*
X112497764Y-78228624D01*
X112497764Y-78228624D02*
X112497764Y-75028624D01*
X230040564Y-55978624D02*
X233640564Y-55978624D01*
X233640564Y-55978624D02*
X233640564Y-59178624D01*
X233640564Y-59178624D02*
X230040564Y-59178624D01*
X230040564Y-59178624D02*
X230040564Y-55978624D01*
X93447764Y-69528624D02*
X97047764Y-69528624D01*
X97047764Y-69528624D02*
X97047764Y-72728624D01*
X97047764Y-72728624D02*
X93447764Y-72728624D01*
X93447764Y-72728624D02*
X93447764Y-69528624D01*
X74397764Y-113128624D02*
X77997764Y-113128624D01*
X77997764Y-113128624D02*
X77997764Y-116328624D01*
X77997764Y-116328624D02*
X74397764Y-116328624D01*
X74397764Y-116328624D02*
X74397764Y-113128624D01*
X36300000Y-107350000D02*
X39900000Y-107350000D01*
X39900000Y-107350000D02*
X39900000Y-110550000D01*
X39900000Y-110550000D02*
X36300000Y-110550000D01*
X36300000Y-110550000D02*
X36300000Y-107350000D01*
X306237200Y-107350000D02*
X309837200Y-107350000D01*
X309837200Y-107350000D02*
X309837200Y-110550000D01*
X309837200Y-110550000D02*
X306237200Y-110550000D01*
X306237200Y-110550000D02*
X306237200Y-107350000D01*
X287190564Y-67978624D02*
X290790564Y-67978624D01*
X290790564Y-67978624D02*
X290790564Y-71178624D01*
X290790564Y-71178624D02*
X287190564Y-71178624D01*
X287190564Y-71178624D02*
X287190564Y-67978624D01*
X74397764Y-75028624D02*
X77997764Y-75028624D01*
X77997764Y-75028624D02*
X77997764Y-78228624D01*
X77997764Y-78228624D02*
X74397764Y-78228624D01*
X74397764Y-78228624D02*
X74397764Y-75028624D01*
X112497764Y-55978624D02*
X116097764Y-55978624D01*
X116097764Y-55978624D02*
X116097764Y-59178624D01*
X116097764Y-59178624D02*
X112497764Y-59178624D01*
X112497764Y-59178624D02*
X112497764Y-55978624D01*
X210990564Y-58478624D02*
X214590564Y-58478624D01*
X214590564Y-58478624D02*
X214590564Y-61678624D01*
X214590564Y-61678624D02*
X210990564Y-61678624D01*
X210990564Y-61678624D02*
X210990564Y-58478624D01*
X230040564Y-75028624D02*
X233640564Y-75028624D01*
X233640564Y-75028624D02*
X233640564Y-78228624D01*
X233640564Y-78228624D02*
X230040564Y-78228624D01*
X230040564Y-78228624D02*
X230040564Y-75028624D01*
X249090564Y-31428624D02*
X252690564Y-31428624D01*
X252690564Y-31428624D02*
X252690564Y-34628624D01*
X252690564Y-34628624D02*
X249090564Y-34628624D01*
X249090564Y-34628624D02*
X249090564Y-31428624D01*
X197550332Y-127750973D02*
X198898916Y-131088835D01*
X198898916Y-131088835D02*
X195931928Y-132287576D01*
X195931928Y-132287576D02*
X194583344Y-128949714D01*
X194583344Y-128949714D02*
X197550332Y-127750973D01*
X131547764Y-77528624D02*
X135147764Y-77528624D01*
X135147764Y-77528624D02*
X135147764Y-80728624D01*
X135147764Y-80728624D02*
X131547764Y-80728624D01*
X131547764Y-80728624D02*
X131547764Y-77528624D01*
X287190564Y-106078624D02*
X290790564Y-106078624D01*
X290790564Y-106078624D02*
X290790564Y-109278624D01*
X290790564Y-109278624D02*
X287190564Y-109278624D01*
X287190564Y-109278624D02*
X287190564Y-106078624D01*
X131547764Y-58478624D02*
X135147764Y-58478624D01*
X135147764Y-58478624D02*
X135147764Y-61678624D01*
X135147764Y-61678624D02*
X131547764Y-61678624D01*
X131547764Y-61678624D02*
X131547764Y-58478624D01*
X93447764Y-107628624D02*
X97047764Y-107628624D01*
X97047764Y-107628624D02*
X97047764Y-110828624D01*
X97047764Y-110828624D02*
X93447764Y-110828624D01*
X93447764Y-110828624D02*
X93447764Y-107628624D01*
X210990564Y-77528624D02*
X214590564Y-77528624D01*
X214590564Y-77528624D02*
X214590564Y-80728624D01*
X214590564Y-80728624D02*
X210990564Y-80728624D01*
X210990564Y-80728624D02*
X210990564Y-77528624D01*
X306240564Y-87028624D02*
X309840564Y-87028624D01*
X309840564Y-87028624D02*
X309840564Y-90228624D01*
X309840564Y-90228624D02*
X306240564Y-90228624D01*
X306240564Y-90228624D02*
X306240564Y-87028624D01*
X306240564Y-48928624D02*
X309840564Y-48928624D01*
X309840564Y-48928624D02*
X309840564Y-52128624D01*
X309840564Y-52128624D02*
X306240564Y-52128624D01*
X306240564Y-52128624D02*
X306240564Y-48928624D01*
X93447764Y-31428624D02*
X97047764Y-31428624D01*
X97047764Y-31428624D02*
X97047764Y-34628624D01*
X97047764Y-34628624D02*
X93447764Y-34628624D01*
X93447764Y-34628624D02*
X93447764Y-31428624D01*
X36297764Y-67978624D02*
X39897764Y-67978624D01*
X39897764Y-67978624D02*
X39897764Y-71178624D01*
X39897764Y-71178624D02*
X36297764Y-71178624D01*
X36297764Y-71178624D02*
X36297764Y-67978624D01*
X210990564Y-96578624D02*
X214590564Y-96578624D01*
X214590564Y-96578624D02*
X214590564Y-99778624D01*
X214590564Y-99778624D02*
X210990564Y-99778624D01*
X210990564Y-99778624D02*
X210990564Y-96578624D01*
X112497764Y-94078624D02*
X116097764Y-94078624D01*
X116097764Y-94078624D02*
X116097764Y-97278624D01*
X116097764Y-97278624D02*
X112497764Y-97278624D01*
X112497764Y-97278624D02*
X112497764Y-94078624D01*
X112497764Y-113128624D02*
X116097764Y-113128624D01*
X116097764Y-113128624D02*
X116097764Y-116328624D01*
X116097764Y-116328624D02*
X112497764Y-116328624D01*
X112497764Y-116328624D02*
X112497764Y-113128624D01*
X249090564Y-69528624D02*
X252690564Y-69528624D01*
X252690564Y-69528624D02*
X252690564Y-72728624D01*
X252690564Y-72728624D02*
X249090564Y-72728624D01*
X249090564Y-72728624D02*
X249090564Y-69528624D01*
X147329884Y-130988583D02*
X148678468Y-127650721D01*
X148678468Y-127650721D02*
X151645456Y-128849462D01*
X151645456Y-128849462D02*
X150296872Y-132187324D01*
X150296872Y-132187324D02*
X147329884Y-130988583D01*
X287190564Y-87028624D02*
X290790564Y-87028624D01*
X290790564Y-87028624D02*
X290790564Y-90228624D01*
X290790564Y-90228624D02*
X287190564Y-90228624D01*
X287190564Y-90228624D02*
X287190564Y-87028624D01*
X268140564Y-75028624D02*
X271740564Y-75028624D01*
X271740564Y-75028624D02*
X271740564Y-78228624D01*
X271740564Y-78228624D02*
X268140564Y-78228624D01*
X268140564Y-78228624D02*
X268140564Y-75028624D01*
X249090564Y-107628624D02*
X252690564Y-107628624D01*
X252690564Y-107628624D02*
X252690564Y-110828624D01*
X252690564Y-110828624D02*
X249090564Y-110828624D01*
X249090564Y-110828624D02*
X249090564Y-107628624D01*
X74397764Y-94078624D02*
X77997764Y-94078624D01*
X77997764Y-94078624D02*
X77997764Y-97278624D01*
X77997764Y-97278624D02*
X74397764Y-97278624D01*
X74397764Y-97278624D02*
X74397764Y-94078624D01*
X230040564Y-94078624D02*
X233640564Y-94078624D01*
X233640564Y-94078624D02*
X233640564Y-97278624D01*
X233640564Y-97278624D02*
X230040564Y-97278624D01*
X230040564Y-97278624D02*
X230040564Y-94078624D01*
X306240564Y-67978624D02*
X309840564Y-67978624D01*
X309840564Y-67978624D02*
X309840564Y-71178624D01*
X309840564Y-71178624D02*
X306240564Y-71178624D01*
X306240564Y-71178624D02*
X306240564Y-67978624D01*
X55347764Y-87028624D02*
X58947764Y-87028624D01*
X58947764Y-87028624D02*
X58947764Y-90228624D01*
X58947764Y-90228624D02*
X55347764Y-90228624D01*
X55347764Y-90228624D02*
X55347764Y-87028624D01*
X55347764Y-106078624D02*
X58947764Y-106078624D01*
X58947764Y-106078624D02*
X58947764Y-109278624D01*
X58947764Y-109278624D02*
X55347764Y-109278624D01*
X55347764Y-109278624D02*
X55347764Y-106078624D01*
X268140564Y-55978624D02*
X271740564Y-55978624D01*
X271740564Y-55978624D02*
X271740564Y-59178624D01*
X271740564Y-59178624D02*
X268140564Y-59178624D01*
X268140564Y-59178624D02*
X268140564Y-55978624D01*
X268140564Y-36928624D02*
X271740564Y-36928624D01*
X271740564Y-36928624D02*
X271740564Y-40128624D01*
X271740564Y-40128624D02*
X268140564Y-40128624D01*
X268140564Y-40128624D02*
X268140564Y-36928624D01*
X217400332Y-125614673D02*
X218748916Y-128952535D01*
X218748916Y-128952535D02*
X215781928Y-130151276D01*
X215781928Y-130151276D02*
X214433344Y-126813414D01*
X214433344Y-126813414D02*
X217400332Y-125614673D01*
X230040564Y-113128624D02*
X233640564Y-113128624D01*
X233640564Y-113128624D02*
X233640564Y-116328624D01*
X233640564Y-116328624D02*
X230040564Y-116328624D01*
X230040564Y-116328624D02*
X230040564Y-113128624D01*
X249090564Y-50478624D02*
X252690564Y-50478624D01*
X252690564Y-50478624D02*
X252690564Y-53678624D01*
X252690564Y-53678624D02*
X249090564Y-53678624D01*
X249090564Y-53678624D02*
X249090564Y-50478624D01*
X127479884Y-128864883D02*
X128828468Y-125527021D01*
X128828468Y-125527021D02*
X131795456Y-126725762D01*
X131795456Y-126725762D02*
X130446872Y-130063624D01*
X130446872Y-130063624D02*
X127479884Y-128864883D01*
X55347764Y-48928624D02*
X58947764Y-48928624D01*
X58947764Y-48928624D02*
X58947764Y-52128624D01*
X58947764Y-52128624D02*
X55347764Y-52128624D01*
X55347764Y-52128624D02*
X55347764Y-48928624D01*
X93447764Y-88578624D02*
X97047764Y-88578624D01*
X97047764Y-88578624D02*
X97047764Y-91778624D01*
X97047764Y-91778624D02*
X93447764Y-91778624D01*
X93447764Y-91778624D02*
X93447764Y-88578624D01*
X93447764Y-50478624D02*
X97047764Y-50478624D01*
X97047764Y-50478624D02*
X97047764Y-53678624D01*
X97047764Y-53678624D02*
X93447764Y-53678624D01*
X93447764Y-53678624D02*
X93447764Y-50478624D01*
X131547764Y-39428624D02*
X135147764Y-39428624D01*
X135147764Y-39428624D02*
X135147764Y-42628624D01*
X135147764Y-42628624D02*
X131547764Y-42628624D01*
X131547764Y-42628624D02*
X131547764Y-39428624D01*
X268140564Y-94078624D02*
X271740564Y-94078624D01*
X271740564Y-94078624D02*
X271740564Y-97278624D01*
X271740564Y-97278624D02*
X268140564Y-97278624D01*
X268140564Y-97278624D02*
X268140564Y-94078624D01*
D11*
X253587199Y-123074999D03*
X253587199Y-124574999D03*
D12*
X248187200Y-124565000D03*
D11*
X248187199Y-123064999D03*
X253587199Y-84924999D03*
X253587199Y-86424999D03*
D12*
X248187200Y-86415000D03*
D11*
X248187199Y-84914999D03*
X215487199Y-92954999D03*
X215487199Y-94454999D03*
D12*
X210087200Y-94445000D03*
D11*
X210087199Y-92944999D03*
X142716381Y-140763611D03*
X142716381Y-142263611D03*
D12*
X137316382Y-142253612D03*
D11*
X137316381Y-140753611D03*
X208914653Y-140861287D03*
X208914653Y-142361287D03*
D12*
X203514654Y-142351288D03*
D11*
X203514653Y-140851287D03*
D13*
X150017807Y-141573738D03*
D14*
X147677807Y-141573738D03*
D15*
X172693600Y-78452885D03*
X172693600Y-79202885D03*
X172693600Y-79952885D03*
X172693600Y-80702885D03*
D11*
X97949999Y-46854999D03*
X97949999Y-48354999D03*
D12*
X92550000Y-48345000D03*
D11*
X92549999Y-46844999D03*
D15*
X173443600Y-78452885D03*
X173443600Y-79202885D03*
X173443600Y-79952885D03*
X173443600Y-80702885D03*
D11*
X301212199Y-102479999D03*
X301212199Y-103979999D03*
D12*
X295812200Y-103970000D03*
D11*
X295812199Y-102469999D03*
X136049999Y-92989999D03*
X136049999Y-94489999D03*
D12*
X130650000Y-94480000D03*
D11*
X130649999Y-92979999D03*
D16*
X196213226Y-141669414D03*
D17*
X198553226Y-141669414D03*
D11*
X50324999Y-64359999D03*
X50324999Y-65859999D03*
D12*
X44925000Y-65850000D03*
D11*
X44924999Y-64349999D03*
X215487199Y-54914999D03*
X215487199Y-56414999D03*
D12*
X210087200Y-56405000D03*
D11*
X210087199Y-54904999D03*
X253534999Y-46884999D03*
X253534999Y-48384999D03*
D12*
X248135000Y-48375000D03*
D11*
X248134999Y-46874999D03*
X97949999Y-84989999D03*
X97949999Y-86489999D03*
D12*
X92550000Y-86480000D03*
D11*
X92549999Y-84979999D03*
X50324999Y-102509999D03*
X50324999Y-104009999D03*
D12*
X44925000Y-104000000D03*
D11*
X44924999Y-102499999D03*
X301212199Y-64399999D03*
X301212199Y-65899999D03*
D12*
X295812200Y-65890000D03*
D11*
X295812199Y-64389999D03*
X97904999Y-123094999D03*
X97904999Y-124594999D03*
D12*
X92505000Y-124585000D03*
D11*
X92504999Y-123084999D03*
X136204999Y-54844999D03*
X136204999Y-56344999D03*
D12*
X130805000Y-56335000D03*
D11*
X130804999Y-54834999D03*
D18*
X152294763Y-136532118D03*
D19*
X154197764Y-131822024D03*
D18*
X156100765Y-127111930D03*
D20*
X157980062Y-129240954D03*
X157956357Y-136080072D03*
D21*
X242951813Y-51076123D03*
D22*
X242951814Y-59076124D03*
D21*
X125409013Y-40026123D03*
D22*
X125409014Y-48026124D03*
D23*
X125734259Y-134780459D03*
D22*
X133151731Y-137777313D03*
D24*
X194696722Y-122283050D03*
D22*
X187279253Y-125279904D03*
D21*
X87309013Y-108226123D03*
D22*
X87309014Y-116226124D03*
D21*
X262001813Y-94676123D03*
D22*
X262001814Y-102676124D03*
D18*
X128267764Y-103258624D03*
D19*
X133347764Y-103258624D03*
D18*
X138427764Y-103258624D03*
D20*
X137157764Y-105798624D03*
X130807764Y-108338624D03*
D18*
X283910564Y-112758624D03*
D19*
X288990564Y-112758624D03*
D18*
X294070564Y-112758624D03*
D20*
X292800564Y-115298624D03*
X286450564Y-117838624D03*
D21*
X242951813Y-89176123D03*
D22*
X242951814Y-97176124D03*
D21*
X49209013Y-68576123D03*
D22*
X49209014Y-76576124D03*
D18*
X52067764Y-112758624D03*
D19*
X57147764Y-112758624D03*
D18*
X62227764Y-112758624D03*
D20*
X60957764Y-115298624D03*
X54607764Y-117838624D03*
D18*
X283910564Y-55608624D03*
D19*
X288990564Y-55608624D03*
D18*
X294070564Y-55608624D03*
D20*
X292800564Y-58148624D03*
X286450564Y-60688624D03*
D18*
X71117764Y-43608624D03*
D19*
X76197764Y-43608624D03*
D18*
X81277764Y-43608624D03*
D20*
X80007764Y-46148624D03*
X73657764Y-48688624D03*
D18*
X264860564Y-100758624D03*
D19*
X269940564Y-100758624D03*
D18*
X275020564Y-100758624D03*
D20*
X273750564Y-103298624D03*
X267400564Y-105838624D03*
D18*
X302960564Y-74658624D03*
D19*
X308040564Y-74658624D03*
D18*
X313120564Y-74658624D03*
D20*
X311850564Y-77198624D03*
X305500564Y-79738624D03*
D18*
X109217764Y-81708624D03*
D19*
X114297764Y-81708624D03*
D18*
X119377764Y-81708624D03*
D20*
X118107764Y-84248624D03*
X111757764Y-86788624D03*
D18*
X283910564Y-74658624D03*
D19*
X288990564Y-74658624D03*
D18*
X294070564Y-74658624D03*
D20*
X292800564Y-77198624D03*
X286450564Y-79738624D03*
D18*
X132444763Y-134408418D03*
D19*
X134347764Y-129698324D03*
D18*
X136250765Y-124988230D03*
D20*
X138130062Y-127117254D03*
X138106357Y-133956372D03*
D18*
X302960564Y-55608624D03*
D19*
X308040564Y-55608624D03*
D18*
X313120564Y-55608624D03*
D20*
X311850564Y-58148624D03*
X305500564Y-60688624D03*
D18*
X245810564Y-95258624D03*
D19*
X250890564Y-95258624D03*
D18*
X255970564Y-95258624D03*
D20*
X254700564Y-97798624D03*
X248350564Y-100338624D03*
D21*
X125409013Y-59076123D03*
D22*
X125409014Y-67076124D03*
D21*
X204851813Y-59076123D03*
D22*
X204851814Y-67076124D03*
D21*
X167361124Y-96917499D03*
D22*
X167361125Y-104917500D03*
D18*
X209978035Y-125075882D03*
D19*
X211881036Y-129785976D03*
D18*
X213784037Y-134496070D03*
D20*
X210953240Y-134270047D03*
X206219441Y-129333931D03*
D23*
X145461633Y-136842319D03*
D22*
X152879105Y-139839173D03*
D18*
X245810564Y-114308624D03*
D19*
X250890564Y-114308624D03*
D18*
X255970564Y-114308624D03*
D20*
X254700564Y-116848624D03*
X248350564Y-119388624D03*
D21*
X300101813Y-87626123D03*
D22*
X300101814Y-95626124D03*
D21*
X68259013Y-94676123D03*
D22*
X68259014Y-102676124D03*
D21*
X223901813Y-94676123D03*
D22*
X223901814Y-102676124D03*
D25*
X197935799Y-39114999D03*
X197935799Y-41654999D03*
D26*
X197935799Y-44194999D03*
D25*
X197935799Y-46734999D03*
X197935799Y-49274999D03*
X197935799Y-51814999D03*
X197935799Y-54354999D03*
D26*
X197935799Y-56894999D03*
D25*
X197935799Y-59434999D03*
X197935799Y-61974999D03*
X197935799Y-64514999D03*
X197935799Y-67054999D03*
D26*
X197935799Y-69594999D03*
D25*
X197935799Y-72134999D03*
X197935799Y-74674999D03*
X197935799Y-77214999D03*
X197935799Y-79754999D03*
D26*
X197935799Y-82294999D03*
D25*
X197935799Y-84834999D03*
X197935799Y-87374999D03*
X180155799Y-87374999D03*
X180155799Y-84834999D03*
D26*
X180155799Y-82294999D03*
D25*
X180155799Y-79754999D03*
X180155799Y-77214999D03*
X180155799Y-74674999D03*
X180155799Y-72134999D03*
D26*
X180155799Y-69594999D03*
D25*
X180155799Y-67054999D03*
X180155799Y-64514999D03*
X180155799Y-61974999D03*
X180155799Y-59434999D03*
D26*
X180155799Y-56894999D03*
D25*
X180155799Y-54354999D03*
X180155799Y-51814999D03*
X180155799Y-49274999D03*
X180155799Y-46734999D03*
D26*
X180155799Y-44194999D03*
D25*
X180155799Y-41654999D03*
X180155799Y-39114999D03*
X191585799Y-87144999D03*
D26*
X189045799Y-87144999D03*
D25*
X186505799Y-87144999D03*
D18*
X109217764Y-119808624D03*
D19*
X114297764Y-119808624D03*
D18*
X119377764Y-119808624D03*
D20*
X118107764Y-122348624D03*
X111757764Y-124888624D03*
D21*
X300101813Y-49526123D03*
D22*
X300101814Y-57526124D03*
D21*
X106359013Y-56576123D03*
D22*
X106359014Y-64576124D03*
D18*
X245810564Y-57158624D03*
D19*
X250890564Y-57158624D03*
D18*
X255970564Y-57158624D03*
D20*
X254700564Y-59698624D03*
X248350564Y-62238624D03*
D18*
X128267764Y-46108624D03*
D19*
X133347764Y-46108624D03*
D18*
X138427764Y-46108624D03*
D20*
X137157764Y-48648624D03*
X130807764Y-51188624D03*
D18*
X245810564Y-76208624D03*
D19*
X250890564Y-76208624D03*
D18*
X255970564Y-76208624D03*
D20*
X254700564Y-78748624D03*
X248350564Y-81288624D03*
D18*
X71117764Y-119808624D03*
D19*
X76197764Y-119808624D03*
D18*
X81277764Y-119808624D03*
D20*
X80007764Y-122348624D03*
X73657764Y-124888624D03*
D27*
X32499999Y-113349999D03*
D18*
X33020000Y-112750000D03*
D28*
X35560000Y-117830000D03*
D29*
X38100000Y-112750000D03*
D28*
X41910000Y-115290000D03*
D18*
X43180000Y-112750000D03*
D27*
X43699999Y-113349999D03*
D30*
X35599999Y-120849999D03*
D31*
X40600000Y-120850000D03*
X38100000Y-120850000D03*
X35600000Y-106350000D03*
X40600000Y-106350000D03*
D18*
X302960564Y-93708624D03*
D19*
X308040564Y-93708624D03*
D18*
X313120564Y-93708624D03*
D20*
X311850564Y-96248624D03*
X305500564Y-98788624D03*
D18*
X52067764Y-93708624D03*
D19*
X57147764Y-93708624D03*
D18*
X62227764Y-93708624D03*
D20*
X60957764Y-96248624D03*
X54607764Y-98788624D03*
D21*
X223901813Y-75626123D03*
D22*
X223901814Y-83626124D03*
D21*
X223901813Y-56576123D03*
D22*
X223901814Y-64576124D03*
D21*
X262001813Y-75626123D03*
D22*
X262001814Y-83626124D03*
D18*
X33017764Y-93708624D03*
D19*
X38097764Y-93708624D03*
D18*
X43177764Y-93708624D03*
D20*
X41907764Y-96248624D03*
X35557764Y-98788624D03*
D18*
X90167764Y-38108624D03*
D19*
X95247764Y-38108624D03*
D18*
X100327764Y-38108624D03*
D20*
X99057764Y-40648624D03*
X92707764Y-43188624D03*
D18*
X90167764Y-76208624D03*
D19*
X95247764Y-76208624D03*
D18*
X100327764Y-76208624D03*
D20*
X99057764Y-78748624D03*
X92707764Y-81288624D03*
D21*
X262001813Y-56576123D03*
D22*
X262001814Y-64576124D03*
D21*
X223901813Y-37526123D03*
D22*
X223901814Y-45526124D03*
D18*
X109217764Y-43608624D03*
D19*
X114297764Y-43608624D03*
D18*
X119377764Y-43608624D03*
D20*
X118107764Y-46148624D03*
X111757764Y-48688624D03*
D18*
X207710564Y-46108624D03*
D19*
X212790564Y-46108624D03*
D18*
X217870564Y-46108624D03*
D20*
X216600564Y-48648624D03*
X210250564Y-51188624D03*
D21*
X125409013Y-97176123D03*
D22*
X125409014Y-105176124D03*
D18*
X71117764Y-100758624D03*
D19*
X76197764Y-100758624D03*
D18*
X81277764Y-100758624D03*
D20*
X80007764Y-103298624D03*
X73657764Y-105838624D03*
D18*
X264860564Y-119808624D03*
D19*
X269940564Y-119808624D03*
D18*
X275020564Y-119808624D03*
D20*
X273750564Y-122348624D03*
X267400564Y-124888624D03*
D32*
X184568600Y-115913270D03*
X177568600Y-115913270D03*
D33*
X182168599Y-118213269D03*
X179168599Y-118213269D03*
X187268599Y-113613269D03*
X186168599Y-118213269D03*
D21*
X281051813Y-87626123D03*
D22*
X281051814Y-95626124D03*
D21*
X68259013Y-56576123D03*
D22*
X68259014Y-64576124D03*
D18*
X207710564Y-84208624D03*
D19*
X212790564Y-84208624D03*
D18*
X217870564Y-84208624D03*
D20*
X216600564Y-86748624D03*
X210250564Y-89288624D03*
D18*
X128267764Y-84208624D03*
D19*
X133347764Y-84208624D03*
D18*
X138427764Y-84208624D03*
D20*
X137157764Y-86748624D03*
X130807764Y-89288624D03*
D21*
X106359013Y-37526123D03*
D22*
X106359014Y-45526124D03*
D18*
X264860564Y-81708624D03*
D19*
X269940564Y-81708624D03*
D18*
X275020564Y-81708624D03*
D20*
X273750564Y-84248624D03*
X267400564Y-86788624D03*
D21*
X204851813Y-40026123D03*
D22*
X204851814Y-48026124D03*
D21*
X143928749Y-39277499D03*
D22*
X143928750Y-47277500D03*
D21*
X49209013Y-106676123D03*
D22*
X49209014Y-114676124D03*
D18*
X207710564Y-103258624D03*
D19*
X212790564Y-103258624D03*
D18*
X217870564Y-103258624D03*
D20*
X216600564Y-105798624D03*
X210250564Y-108338624D03*
D32*
X161568600Y-115913270D03*
X168568600Y-115913270D03*
D33*
X163968599Y-113613269D03*
X166968599Y-113613269D03*
X158868599Y-118213269D03*
X159968599Y-113613269D03*
D18*
X264860564Y-62658624D03*
D19*
X269940564Y-62658624D03*
D18*
X275020564Y-62658624D03*
D20*
X273750564Y-65198624D03*
X267400564Y-67738624D03*
D18*
X190128035Y-127212182D03*
D19*
X192031036Y-131922276D03*
D18*
X193934037Y-136632370D03*
D20*
X191103240Y-136406347D03*
X186369441Y-131470231D03*
D18*
X226760564Y-81708624D03*
D19*
X231840564Y-81708624D03*
D18*
X236920564Y-81708624D03*
D20*
X235650564Y-84248624D03*
X229300564Y-86788624D03*
D18*
X128267764Y-65158624D03*
D19*
X133347764Y-65158624D03*
D18*
X138427764Y-65158624D03*
D20*
X137157764Y-67698624D03*
X130807764Y-70238624D03*
D18*
X90167764Y-114308624D03*
D19*
X95247764Y-114308624D03*
D18*
X100327764Y-114308624D03*
D20*
X99057764Y-116848624D03*
X92707764Y-119388624D03*
D21*
X68259013Y-37526123D03*
D22*
X68259014Y-45526124D03*
D21*
X281051813Y-106676123D03*
D22*
X281051814Y-114676124D03*
D21*
X281051813Y-68576123D03*
D22*
X281051814Y-76576124D03*
D18*
X245810564Y-38108624D03*
D19*
X250890564Y-38108624D03*
D18*
X255970564Y-38108624D03*
D20*
X254700564Y-40648624D03*
X248350564Y-43188624D03*
D27*
X302437199Y-113349999D03*
D18*
X302957200Y-112750000D03*
D28*
X305497200Y-117830000D03*
D29*
X308037200Y-112750000D03*
D28*
X311847200Y-115290000D03*
D18*
X313117200Y-112750000D03*
D27*
X313637199Y-113349999D03*
D30*
X305537199Y-120849999D03*
D31*
X310537200Y-120850000D03*
X308037200Y-120850000D03*
X305537200Y-106350000D03*
X310537200Y-106350000D03*
D18*
X109217764Y-100758624D03*
D19*
X114297764Y-100758624D03*
D18*
X119377764Y-100758624D03*
D20*
X118107764Y-103298624D03*
X111757764Y-105838624D03*
D21*
X175848749Y-39827499D03*
D22*
X175848750Y-47827500D03*
D18*
X90167764Y-57158624D03*
D19*
X95247764Y-57158624D03*
D18*
X100327764Y-57158624D03*
D20*
X99057764Y-59698624D03*
X92707764Y-62238624D03*
D18*
X71117764Y-81708624D03*
D19*
X76197764Y-81708624D03*
D18*
X81277764Y-81708624D03*
D20*
X80007764Y-84248624D03*
X73657764Y-86788624D03*
D21*
X106359013Y-113726123D03*
D22*
X106359014Y-121726124D03*
D21*
X87309013Y-70126123D03*
D22*
X87309014Y-78126124D03*
D21*
X125409013Y-78126123D03*
D22*
X125409014Y-86126124D03*
D18*
X226760564Y-43608624D03*
D19*
X231840564Y-43608624D03*
D18*
X236920564Y-43608624D03*
D20*
X235650564Y-46148624D03*
X229300564Y-48688624D03*
D21*
X87309013Y-89176123D03*
D22*
X87309014Y-97176124D03*
D21*
X204851813Y-97176123D03*
D22*
X204851814Y-105176124D03*
D21*
X49209013Y-49526123D03*
D22*
X49209014Y-57526124D03*
D18*
X226760564Y-119808624D03*
D19*
X231840564Y-119808624D03*
D18*
X236920564Y-119808624D03*
D20*
X235650564Y-122348624D03*
X229300564Y-124888624D03*
D18*
X52067764Y-74658624D03*
D19*
X57147764Y-74658624D03*
D18*
X62227764Y-74658624D03*
D20*
X60957764Y-77198624D03*
X54607764Y-79738624D03*
D25*
X166248599Y-39114999D03*
X166248599Y-41654999D03*
D26*
X166248599Y-44194999D03*
D25*
X166248599Y-46734999D03*
X166248599Y-49274999D03*
X166248599Y-51814999D03*
X166248599Y-54354999D03*
D26*
X166248599Y-56894999D03*
D25*
X166248599Y-59434999D03*
X166248599Y-61974999D03*
X166248599Y-64514999D03*
X166248599Y-67054999D03*
D26*
X166248599Y-69594999D03*
D25*
X166248599Y-72134999D03*
X166248599Y-74674999D03*
X166248599Y-77214999D03*
X166248599Y-79754999D03*
D26*
X166248599Y-82294999D03*
D25*
X166248599Y-84834999D03*
X166248599Y-87374999D03*
X148468599Y-87374999D03*
X148468599Y-84834999D03*
D26*
X148468599Y-82294999D03*
D25*
X148468599Y-79754999D03*
X148468599Y-77214999D03*
X148468599Y-74674999D03*
X148468599Y-72134999D03*
D26*
X148468599Y-69594999D03*
D25*
X148468599Y-67054999D03*
X148468599Y-64514999D03*
X148468599Y-61974999D03*
X148468599Y-59434999D03*
D26*
X148468599Y-56894999D03*
D25*
X148468599Y-54354999D03*
X148468599Y-51814999D03*
X148468599Y-49274999D03*
X148468599Y-46734999D03*
D26*
X148468599Y-44194999D03*
D25*
X148468599Y-41654999D03*
X148468599Y-39114999D03*
X159898599Y-87144999D03*
D26*
X157358599Y-87144999D03*
D25*
X154818599Y-87144999D03*
D21*
X242951813Y-70126123D03*
D22*
X242951814Y-78126124D03*
D18*
X90167764Y-95258624D03*
D19*
X95247764Y-95258624D03*
D18*
X100327764Y-95258624D03*
D20*
X99057764Y-97798624D03*
X92707764Y-100338624D03*
D21*
X204851813Y-78126123D03*
D22*
X204851814Y-86126124D03*
D21*
X223901813Y-113726123D03*
D22*
X223901814Y-121726124D03*
D18*
X283910564Y-93708624D03*
D19*
X288990564Y-93708624D03*
D18*
X294070564Y-93708624D03*
D20*
X292800564Y-96248624D03*
X286450564Y-98788624D03*
D18*
X207710564Y-65158624D03*
D19*
X212790564Y-65158624D03*
D18*
X217870564Y-65158624D03*
D20*
X216600564Y-67698624D03*
X210250564Y-70238624D03*
D18*
X71117764Y-62658624D03*
D19*
X76197764Y-62658624D03*
D18*
X81277764Y-62658624D03*
D20*
X80007764Y-65198624D03*
X73657764Y-67738624D03*
D21*
X106359013Y-75626123D03*
D22*
X106359014Y-83626124D03*
D21*
X300101813Y-68576123D03*
D22*
X300101814Y-76576124D03*
D21*
X195721124Y-97087499D03*
D22*
X195721125Y-105087500D03*
D24*
X214546722Y-120146750D03*
D22*
X207129253Y-123143604D03*
D18*
X226760564Y-62658624D03*
D19*
X231840564Y-62658624D03*
D18*
X236920564Y-62658624D03*
D20*
X235650564Y-65198624D03*
X229300564Y-67738624D03*
D18*
X226760564Y-100758624D03*
D19*
X231840564Y-100758624D03*
D18*
X236920564Y-100758624D03*
D20*
X235650564Y-103298624D03*
X229300564Y-105838624D03*
D21*
X30159013Y-68576123D03*
D22*
X30159014Y-76576124D03*
D21*
X106359013Y-94676123D03*
D22*
X106359014Y-102676124D03*
D21*
X30026374Y-106726749D03*
D22*
X30026375Y-114726750D03*
D34*
X153258599Y-103249999D03*
X164458599Y-103249999D03*
D30*
X156358599Y-110749999D03*
D31*
X161358600Y-110750000D03*
X158858600Y-110750000D03*
X161358600Y-96250000D03*
X156358600Y-96250000D03*
D21*
X262001813Y-113726123D03*
D22*
X262001814Y-121726124D03*
D18*
X264860564Y-43608624D03*
D19*
X269940564Y-43608624D03*
D18*
X275020564Y-43608624D03*
D20*
X273750564Y-46148624D03*
X267400564Y-48688624D03*
D21*
X68259013Y-75626123D03*
D22*
X68259014Y-83626124D03*
D21*
X281051813Y-49526123D03*
D22*
X281051814Y-57526124D03*
D21*
X49209013Y-87626123D03*
D22*
X49209014Y-95626124D03*
D21*
X68259013Y-113726123D03*
D22*
X68259014Y-121726124D03*
D18*
X109217764Y-62658624D03*
D19*
X114297764Y-62658624D03*
D18*
X119377764Y-62658624D03*
D20*
X118107764Y-65198624D03*
X111757764Y-67738624D03*
D21*
X300101813Y-106676123D03*
D22*
X300101814Y-114676124D03*
D18*
X33017764Y-55608624D03*
D19*
X38097764Y-55608624D03*
D18*
X43177764Y-55608624D03*
D20*
X41907764Y-58148624D03*
X35557764Y-60688624D03*
D21*
X262001813Y-37526123D03*
D22*
X262001814Y-45526124D03*
D21*
X242951813Y-32026123D03*
D22*
X242951814Y-40026124D03*
D21*
X30159013Y-49526123D03*
D22*
X30159014Y-57526124D03*
D21*
X87309013Y-32026123D03*
D22*
X87309014Y-40026124D03*
D18*
X33017764Y-74658624D03*
D19*
X38097764Y-74658624D03*
D18*
X43177764Y-74658624D03*
D20*
X41907764Y-77198624D03*
X35557764Y-79738624D03*
D34*
X181678599Y-103249999D03*
X192878599Y-103249999D03*
D30*
X184778599Y-110749999D03*
D31*
X189778600Y-110750000D03*
X187278600Y-110750000D03*
X189778600Y-96250000D03*
X184778600Y-96250000D03*
D21*
X87309013Y-51076123D03*
D22*
X87309014Y-59076124D03*
D18*
X52067764Y-55608624D03*
D19*
X57147764Y-55608624D03*
D18*
X62227764Y-55608624D03*
D20*
X60957764Y-58148624D03*
X54607764Y-60688624D03*
D21*
X30159013Y-87626123D03*
D22*
X30159014Y-95626124D03*
D21*
X242951813Y-108226123D03*
D22*
X242951814Y-116226124D03*
M02*
