G04 #@! TF.GenerationSoftware,KiCad,Pcbnew,(7.0.0-0)*
G04 #@! TF.CreationDate,2023-05-21T14:37:32-07:00*
G04 #@! TF.ProjectId,Junco,4a756e63-6f2e-46b6-9963-61645f706362,rev?*
G04 #@! TF.SameCoordinates,Original*
G04 #@! TF.FileFunction,Soldermask,Bot*
G04 #@! TF.FilePolarity,Negative*
%FSLAX46Y46*%
G04 Gerber Fmt 4.6, Leading zero omitted, Abs format (unit mm)*
G04 Created by KiCad (PCBNEW (7.0.0-0)) date 2023-05-21 14:37:32*
%MOMM*%
%LPD*%
G01*
G04 APERTURE LIST*
G04 Aperture macros list*
%AMRoundRect*
0 Rectangle with rounded corners*
0 $1 Rounding radius*
0 $2 $3 $4 $5 $6 $7 $8 $9 X,Y pos of 4 corners*
0 Add a 4 corners polygon primitive as box body*
4,1,4,$2,$3,$4,$5,$6,$7,$8,$9,$2,$3,0*
0 Add four circle primitives for the rounded corners*
1,1,$1+$1,$2,$3*
1,1,$1+$1,$4,$5*
1,1,$1+$1,$6,$7*
1,1,$1+$1,$8,$9*
0 Add four rect primitives between the rounded corners*
20,1,$1+$1,$2,$3,$4,$5,0*
20,1,$1+$1,$4,$5,$6,$7,0*
20,1,$1+$1,$6,$7,$8,$9,0*
20,1,$1+$1,$8,$9,$2,$3,0*%
%AMRotRect*
0 Rectangle, with rotation*
0 The origin of the aperture is its center*
0 $1 length*
0 $2 width*
0 $3 Rotation angle, in degrees counterclockwise*
0 Add horizontal line*
21,1,$1,$2,0,0,$3*%
%AMFreePoly0*
4,1,21,-1.000000,0.000000,-0.988920,0.140791,-0.940222,0.322531,-0.854804,0.490175,-0.736396,0.636396,-0.590175,0.754804,-0.422531,0.840222,-0.240791,0.888920,-0.100000,0.900000,1.000000,0.900000,1.000000,-0.900000,-0.100000,-0.900000,-0.240791,-0.888920,-0.422531,-0.840222,-0.590175,-0.754804,-0.736396,-0.636396,-0.854804,-0.490175,-0.940222,-0.322531,-0.988920,-0.140791,-1.000000,0.000000,
-1.000000,0.000000,-1.000000,0.000000,$1*%
%AMFreePoly1*
4,1,20,-1.000000,0.900000,0.100000,0.900000,0.240791,0.888920,0.422531,0.840222,0.590175,0.754804,0.736396,0.636396,0.854804,0.490175,0.940222,0.322531,0.988920,0.140791,1.000000,0.000000,0.988920,-0.140791,0.940222,-0.322531,0.854804,-0.490175,0.736396,-0.636396,0.590175,-0.754804,0.422531,-0.840222,0.240791,-0.888920,0.100000,-0.900000,-1.000000,-0.900000,-1.000000,0.900000,
-1.000000,0.900000,$1*%
%AMFreePoly2*
4,1,18,-1.275000,0.000000,-0.025000,1.250000,1.025000,1.250000,1.120671,1.230970,1.201777,1.176777,1.255970,1.095671,1.275000,1.000000,1.275000,-1.000000,1.255970,-1.095671,1.201777,-1.176777,1.120671,-1.230970,1.025000,-1.250000,-1.025000,-1.250000,-1.120671,-1.230970,-1.201777,-1.176777,-1.255970,-1.095671,-1.275000,-1.000000,-1.275000,0.000000,-1.275000,0.000000,$1*%
G04 Aperture macros list end*
G04 #@! TA.AperFunction,Profile*
%ADD10C,0.120000*%
G04 #@! TD*
%ADD11FreePoly0,180.000000*%
%ADD12FreePoly1,180.000000*%
%ADD13C,0.500000*%
%ADD14FreePoly0,0.000000*%
%ADD15FreePoly1,0.000000*%
%ADD16C,1.750000*%
%ADD17C,3.987800*%
%ADD18C,3.300000*%
%ADD19RoundRect,0.250000X0.543212X-1.324970X1.311156X0.575757X-0.543212X1.324970X-1.311156X-0.575757X0*%
%ADD20R,1.100000X0.600000*%
%ADD21RoundRect,0.300000X0.300000X-0.400000X0.300000X0.400000X-0.300000X0.400000X-0.300000X-0.400000X0*%
%ADD22RoundRect,0.300000X0.483256X0.128313X-0.258492X0.427998X-0.483256X-0.128313X0.258492X-0.427998X0*%
%ADD23RoundRect,0.300000X-0.258492X-0.427998X0.483256X-0.128313X0.258492X0.427998X-0.483256X0.128313X0*%
%ADD24R,1.400000X0.820000*%
%ADD25RoundRect,0.205000X0.495000X0.205000X-0.495000X0.205000X-0.495000X-0.205000X0.495000X-0.205000X0*%
%ADD26RoundRect,0.250000X-1.025000X-1.000000X1.025000X-1.000000X1.025000X1.000000X-1.025000X1.000000X0*%
%ADD27C,2.000000*%
%ADD28RoundRect,0.250000X-1.311156X0.575757X-0.543212X-1.324970X1.311156X-0.575757X0.543212X1.324970X0*%
%ADD29O,1.700000X1.700000*%
%ADD30R,3.500000X1.700000*%
%ADD31R,1.700000X1.700000*%
%ADD32R,1.700000X3.500000*%
%ADD33O,1.500000X2.800000*%
%ADD34C,3.000000*%
%ADD35C,4.000000*%
%ADD36FreePoly2,0.000000*%
%ADD37R,2.000000X2.000000*%
%ADD38RotRect,1.400000X0.820000X112.000000*%
%ADD39RoundRect,0.205000X0.375503X-0.382162X0.004642X0.535750X-0.375503X0.382162X-0.004642X-0.535750X0*%
%ADD40C,0.800000*%
%ADD41O,2.000000X1.600000*%
%ADD42RotRect,1.400000X0.820000X248.000000*%
%ADD43RoundRect,0.205000X-0.004642X0.535750X-0.375503X-0.382162X0.004642X-0.535750X0.375503X0.382162X0*%
%ADD44R,2.000000X3.200000*%
G04 APERTURE END LIST*
D10*
X252687200Y-122215000D02*
X249087200Y-122215000D01*
X249087200Y-122215000D02*
X249087200Y-125415000D01*
X249087200Y-125415000D02*
X252687200Y-125415000D01*
X252687200Y-125415000D02*
X252687200Y-122215000D01*
X252687200Y-84065000D02*
X249087200Y-84065000D01*
X249087200Y-84065000D02*
X249087200Y-87265000D01*
X249087200Y-87265000D02*
X252687200Y-87265000D01*
X252687200Y-87265000D02*
X252687200Y-84065000D01*
X214587200Y-92095000D02*
X210987200Y-92095000D01*
X210987200Y-92095000D02*
X210987200Y-95295000D01*
X210987200Y-95295000D02*
X214587200Y-95295000D01*
X214587200Y-95295000D02*
X214587200Y-92095000D01*
X141816382Y-139903612D02*
X138216382Y-139903612D01*
X138216382Y-139903612D02*
X138216382Y-143103612D01*
X138216382Y-143103612D02*
X141816382Y-143103612D01*
X141816382Y-143103612D02*
X141816382Y-139903612D01*
X208014654Y-140001288D02*
X204414654Y-140001288D01*
X204414654Y-140001288D02*
X204414654Y-143201288D01*
X204414654Y-143201288D02*
X208014654Y-143201288D01*
X208014654Y-143201288D02*
X208014654Y-140001288D01*
X97050000Y-45995000D02*
X93450000Y-45995000D01*
X93450000Y-45995000D02*
X93450000Y-49195000D01*
X93450000Y-49195000D02*
X97050000Y-49195000D01*
X97050000Y-49195000D02*
X97050000Y-45995000D01*
X300312200Y-101620000D02*
X296712200Y-101620000D01*
X296712200Y-101620000D02*
X296712200Y-104820000D01*
X296712200Y-104820000D02*
X300312200Y-104820000D01*
X300312200Y-104820000D02*
X300312200Y-101620000D01*
X135150000Y-92130000D02*
X131550000Y-92130000D01*
X131550000Y-92130000D02*
X131550000Y-95330000D01*
X131550000Y-95330000D02*
X135150000Y-95330000D01*
X135150000Y-95330000D02*
X135150000Y-92130000D01*
X49425000Y-63500000D02*
X45825000Y-63500000D01*
X45825000Y-63500000D02*
X45825000Y-66700000D01*
X45825000Y-66700000D02*
X49425000Y-66700000D01*
X49425000Y-66700000D02*
X49425000Y-63500000D01*
X214587200Y-54055000D02*
X210987200Y-54055000D01*
X210987200Y-54055000D02*
X210987200Y-57255000D01*
X210987200Y-57255000D02*
X214587200Y-57255000D01*
X214587200Y-57255000D02*
X214587200Y-54055000D01*
X252635000Y-46025000D02*
X249035000Y-46025000D01*
X249035000Y-46025000D02*
X249035000Y-49225000D01*
X249035000Y-49225000D02*
X252635000Y-49225000D01*
X252635000Y-49225000D02*
X252635000Y-46025000D01*
X97050000Y-84130000D02*
X93450000Y-84130000D01*
X93450000Y-84130000D02*
X93450000Y-87330000D01*
X93450000Y-87330000D02*
X97050000Y-87330000D01*
X97050000Y-87330000D02*
X97050000Y-84130000D01*
X49425000Y-101650000D02*
X45825000Y-101650000D01*
X45825000Y-101650000D02*
X45825000Y-104850000D01*
X45825000Y-104850000D02*
X49425000Y-104850000D01*
X49425000Y-104850000D02*
X49425000Y-101650000D01*
X300312200Y-63540000D02*
X296712200Y-63540000D01*
X296712200Y-63540000D02*
X296712200Y-66740000D01*
X296712200Y-66740000D02*
X300312200Y-66740000D01*
X300312200Y-66740000D02*
X300312200Y-63540000D01*
X97005000Y-122235000D02*
X93405000Y-122235000D01*
X93405000Y-122235000D02*
X93405000Y-125435000D01*
X93405000Y-125435000D02*
X97005000Y-125435000D01*
X97005000Y-125435000D02*
X97005000Y-122235000D01*
X135305000Y-53985000D02*
X131705000Y-53985000D01*
X131705000Y-53985000D02*
X131705000Y-57185000D01*
X131705000Y-57185000D02*
X135305000Y-57185000D01*
X135305000Y-57185000D02*
X135305000Y-53985000D01*
X36297764Y-48928624D02*
X39897764Y-48928624D01*
X39897764Y-48928624D02*
X39897764Y-52128624D01*
X39897764Y-52128624D02*
X36297764Y-52128624D01*
X36297764Y-52128624D02*
X36297764Y-48928624D01*
X74397764Y-55978624D02*
X77997764Y-55978624D01*
X77997764Y-55978624D02*
X77997764Y-59178624D01*
X77997764Y-59178624D02*
X74397764Y-59178624D01*
X74397764Y-59178624D02*
X74397764Y-55978624D01*
X287190564Y-48928624D02*
X290790564Y-48928624D01*
X290790564Y-48928624D02*
X290790564Y-52128624D01*
X290790564Y-52128624D02*
X287190564Y-52128624D01*
X287190564Y-52128624D02*
X287190564Y-48928624D01*
X74397764Y-36928624D02*
X77997764Y-36928624D01*
X77997764Y-36928624D02*
X77997764Y-40128624D01*
X77997764Y-40128624D02*
X74397764Y-40128624D01*
X74397764Y-40128624D02*
X74397764Y-36928624D01*
X131547764Y-96578624D02*
X135147764Y-96578624D01*
X135147764Y-96578624D02*
X135147764Y-99778624D01*
X135147764Y-99778624D02*
X131547764Y-99778624D01*
X131547764Y-99778624D02*
X131547764Y-96578624D01*
X249090564Y-88578624D02*
X252690564Y-88578624D01*
X252690564Y-88578624D02*
X252690564Y-91778624D01*
X252690564Y-91778624D02*
X249090564Y-91778624D01*
X249090564Y-91778624D02*
X249090564Y-88578624D01*
X112497764Y-36928624D02*
X116097764Y-36928624D01*
X116097764Y-36928624D02*
X116097764Y-40128624D01*
X116097764Y-40128624D02*
X112497764Y-40128624D01*
X112497764Y-40128624D02*
X112497764Y-36928624D01*
X230040564Y-36928624D02*
X233640564Y-36928624D01*
X233640564Y-36928624D02*
X233640564Y-40128624D01*
X233640564Y-40128624D02*
X230040564Y-40128624D01*
X230040564Y-40128624D02*
X230040564Y-36928624D01*
X268140564Y-113128624D02*
X271740564Y-113128624D01*
X271740564Y-113128624D02*
X271740564Y-116328624D01*
X271740564Y-116328624D02*
X268140564Y-116328624D01*
X268140564Y-116328624D02*
X268140564Y-113128624D01*
X55347764Y-67978624D02*
X58947764Y-67978624D01*
X58947764Y-67978624D02*
X58947764Y-71178624D01*
X58947764Y-71178624D02*
X55347764Y-71178624D01*
X55347764Y-71178624D02*
X55347764Y-67978624D01*
X210990564Y-39428624D02*
X214590564Y-39428624D01*
X214590564Y-39428624D02*
X214590564Y-42628624D01*
X214590564Y-42628624D02*
X210990564Y-42628624D01*
X210990564Y-42628624D02*
X210990564Y-39428624D01*
X36297764Y-87028624D02*
X39897764Y-87028624D01*
X39897764Y-87028624D02*
X39897764Y-90228624D01*
X39897764Y-90228624D02*
X36297764Y-90228624D01*
X36297764Y-90228624D02*
X36297764Y-87028624D01*
X112497764Y-75028624D02*
X116097764Y-75028624D01*
X116097764Y-75028624D02*
X116097764Y-78228624D01*
X116097764Y-78228624D02*
X112497764Y-78228624D01*
X112497764Y-78228624D02*
X112497764Y-75028624D01*
X230040564Y-55978624D02*
X233640564Y-55978624D01*
X233640564Y-55978624D02*
X233640564Y-59178624D01*
X233640564Y-59178624D02*
X230040564Y-59178624D01*
X230040564Y-59178624D02*
X230040564Y-55978624D01*
X93447764Y-69528624D02*
X97047764Y-69528624D01*
X97047764Y-69528624D02*
X97047764Y-72728624D01*
X97047764Y-72728624D02*
X93447764Y-72728624D01*
X93447764Y-72728624D02*
X93447764Y-69528624D01*
X74397764Y-113128624D02*
X77997764Y-113128624D01*
X77997764Y-113128624D02*
X77997764Y-116328624D01*
X77997764Y-116328624D02*
X74397764Y-116328624D01*
X74397764Y-116328624D02*
X74397764Y-113128624D01*
X36300000Y-107350000D02*
X39900000Y-107350000D01*
X39900000Y-107350000D02*
X39900000Y-110550000D01*
X39900000Y-110550000D02*
X36300000Y-110550000D01*
X36300000Y-110550000D02*
X36300000Y-107350000D01*
X306237200Y-107350000D02*
X309837200Y-107350000D01*
X309837200Y-107350000D02*
X309837200Y-110550000D01*
X309837200Y-110550000D02*
X306237200Y-110550000D01*
X306237200Y-110550000D02*
X306237200Y-107350000D01*
X287190564Y-67978624D02*
X290790564Y-67978624D01*
X290790564Y-67978624D02*
X290790564Y-71178624D01*
X290790564Y-71178624D02*
X287190564Y-71178624D01*
X287190564Y-71178624D02*
X287190564Y-67978624D01*
X74397764Y-75028624D02*
X77997764Y-75028624D01*
X77997764Y-75028624D02*
X77997764Y-78228624D01*
X77997764Y-78228624D02*
X74397764Y-78228624D01*
X74397764Y-78228624D02*
X74397764Y-75028624D01*
X112497764Y-55978624D02*
X116097764Y-55978624D01*
X116097764Y-55978624D02*
X116097764Y-59178624D01*
X116097764Y-59178624D02*
X112497764Y-59178624D01*
X112497764Y-59178624D02*
X112497764Y-55978624D01*
X210990564Y-58478624D02*
X214590564Y-58478624D01*
X214590564Y-58478624D02*
X214590564Y-61678624D01*
X214590564Y-61678624D02*
X210990564Y-61678624D01*
X210990564Y-61678624D02*
X210990564Y-58478624D01*
X230040564Y-75028624D02*
X233640564Y-75028624D01*
X233640564Y-75028624D02*
X233640564Y-78228624D01*
X233640564Y-78228624D02*
X230040564Y-78228624D01*
X230040564Y-78228624D02*
X230040564Y-75028624D01*
X249090564Y-31428624D02*
X252690564Y-31428624D01*
X252690564Y-31428624D02*
X252690564Y-34628624D01*
X252690564Y-34628624D02*
X249090564Y-34628624D01*
X249090564Y-34628624D02*
X249090564Y-31428624D01*
X197550332Y-127750973D02*
X198898916Y-131088835D01*
X198898916Y-131088835D02*
X195931928Y-132287576D01*
X195931928Y-132287576D02*
X194583344Y-128949714D01*
X194583344Y-128949714D02*
X197550332Y-127750973D01*
X131547764Y-77528624D02*
X135147764Y-77528624D01*
X135147764Y-77528624D02*
X135147764Y-80728624D01*
X135147764Y-80728624D02*
X131547764Y-80728624D01*
X131547764Y-80728624D02*
X131547764Y-77528624D01*
X287190564Y-106078624D02*
X290790564Y-106078624D01*
X290790564Y-106078624D02*
X290790564Y-109278624D01*
X290790564Y-109278624D02*
X287190564Y-109278624D01*
X287190564Y-109278624D02*
X287190564Y-106078624D01*
X131547764Y-58478624D02*
X135147764Y-58478624D01*
X135147764Y-58478624D02*
X135147764Y-61678624D01*
X135147764Y-61678624D02*
X131547764Y-61678624D01*
X131547764Y-61678624D02*
X131547764Y-58478624D01*
X93447764Y-107628624D02*
X97047764Y-107628624D01*
X97047764Y-107628624D02*
X97047764Y-110828624D01*
X97047764Y-110828624D02*
X93447764Y-110828624D01*
X93447764Y-110828624D02*
X93447764Y-107628624D01*
X210990564Y-77528624D02*
X214590564Y-77528624D01*
X214590564Y-77528624D02*
X214590564Y-80728624D01*
X214590564Y-80728624D02*
X210990564Y-80728624D01*
X210990564Y-80728624D02*
X210990564Y-77528624D01*
X306240564Y-87028624D02*
X309840564Y-87028624D01*
X309840564Y-87028624D02*
X309840564Y-90228624D01*
X309840564Y-90228624D02*
X306240564Y-90228624D01*
X306240564Y-90228624D02*
X306240564Y-87028624D01*
X306240564Y-48928624D02*
X309840564Y-48928624D01*
X309840564Y-48928624D02*
X309840564Y-52128624D01*
X309840564Y-52128624D02*
X306240564Y-52128624D01*
X306240564Y-52128624D02*
X306240564Y-48928624D01*
X93447764Y-31428624D02*
X97047764Y-31428624D01*
X97047764Y-31428624D02*
X97047764Y-34628624D01*
X97047764Y-34628624D02*
X93447764Y-34628624D01*
X93447764Y-34628624D02*
X93447764Y-31428624D01*
X36297764Y-67978624D02*
X39897764Y-67978624D01*
X39897764Y-67978624D02*
X39897764Y-71178624D01*
X39897764Y-71178624D02*
X36297764Y-71178624D01*
X36297764Y-71178624D02*
X36297764Y-67978624D01*
X210990564Y-96578624D02*
X214590564Y-96578624D01*
X214590564Y-96578624D02*
X214590564Y-99778624D01*
X214590564Y-99778624D02*
X210990564Y-99778624D01*
X210990564Y-99778624D02*
X210990564Y-96578624D01*
X112497764Y-94078624D02*
X116097764Y-94078624D01*
X116097764Y-94078624D02*
X116097764Y-97278624D01*
X116097764Y-97278624D02*
X112497764Y-97278624D01*
X112497764Y-97278624D02*
X112497764Y-94078624D01*
X112497764Y-113128624D02*
X116097764Y-113128624D01*
X116097764Y-113128624D02*
X116097764Y-116328624D01*
X116097764Y-116328624D02*
X112497764Y-116328624D01*
X112497764Y-116328624D02*
X112497764Y-113128624D01*
X249090564Y-69528624D02*
X252690564Y-69528624D01*
X252690564Y-69528624D02*
X252690564Y-72728624D01*
X252690564Y-72728624D02*
X249090564Y-72728624D01*
X249090564Y-72728624D02*
X249090564Y-69528624D01*
X147329884Y-130988583D02*
X148678468Y-127650721D01*
X148678468Y-127650721D02*
X151645456Y-128849462D01*
X151645456Y-128849462D02*
X150296872Y-132187324D01*
X150296872Y-132187324D02*
X147329884Y-130988583D01*
X287190564Y-87028624D02*
X290790564Y-87028624D01*
X290790564Y-87028624D02*
X290790564Y-90228624D01*
X290790564Y-90228624D02*
X287190564Y-90228624D01*
X287190564Y-90228624D02*
X287190564Y-87028624D01*
X268140564Y-75028624D02*
X271740564Y-75028624D01*
X271740564Y-75028624D02*
X271740564Y-78228624D01*
X271740564Y-78228624D02*
X268140564Y-78228624D01*
X268140564Y-78228624D02*
X268140564Y-75028624D01*
X249090564Y-107628624D02*
X252690564Y-107628624D01*
X252690564Y-107628624D02*
X252690564Y-110828624D01*
X252690564Y-110828624D02*
X249090564Y-110828624D01*
X249090564Y-110828624D02*
X249090564Y-107628624D01*
X74397764Y-94078624D02*
X77997764Y-94078624D01*
X77997764Y-94078624D02*
X77997764Y-97278624D01*
X77997764Y-97278624D02*
X74397764Y-97278624D01*
X74397764Y-97278624D02*
X74397764Y-94078624D01*
X230040564Y-94078624D02*
X233640564Y-94078624D01*
X233640564Y-94078624D02*
X233640564Y-97278624D01*
X233640564Y-97278624D02*
X230040564Y-97278624D01*
X230040564Y-97278624D02*
X230040564Y-94078624D01*
X306240564Y-67978624D02*
X309840564Y-67978624D01*
X309840564Y-67978624D02*
X309840564Y-71178624D01*
X309840564Y-71178624D02*
X306240564Y-71178624D01*
X306240564Y-71178624D02*
X306240564Y-67978624D01*
X55347764Y-87028624D02*
X58947764Y-87028624D01*
X58947764Y-87028624D02*
X58947764Y-90228624D01*
X58947764Y-90228624D02*
X55347764Y-90228624D01*
X55347764Y-90228624D02*
X55347764Y-87028624D01*
X55347764Y-106078624D02*
X58947764Y-106078624D01*
X58947764Y-106078624D02*
X58947764Y-109278624D01*
X58947764Y-109278624D02*
X55347764Y-109278624D01*
X55347764Y-109278624D02*
X55347764Y-106078624D01*
X268140564Y-55978624D02*
X271740564Y-55978624D01*
X271740564Y-55978624D02*
X271740564Y-59178624D01*
X271740564Y-59178624D02*
X268140564Y-59178624D01*
X268140564Y-59178624D02*
X268140564Y-55978624D01*
X268140564Y-36928624D02*
X271740564Y-36928624D01*
X271740564Y-36928624D02*
X271740564Y-40128624D01*
X271740564Y-40128624D02*
X268140564Y-40128624D01*
X268140564Y-40128624D02*
X268140564Y-36928624D01*
X217400332Y-125614673D02*
X218748916Y-128952535D01*
X218748916Y-128952535D02*
X215781928Y-130151276D01*
X215781928Y-130151276D02*
X214433344Y-126813414D01*
X214433344Y-126813414D02*
X217400332Y-125614673D01*
X230040564Y-113128624D02*
X233640564Y-113128624D01*
X233640564Y-113128624D02*
X233640564Y-116328624D01*
X233640564Y-116328624D02*
X230040564Y-116328624D01*
X230040564Y-116328624D02*
X230040564Y-113128624D01*
X249090564Y-50478624D02*
X252690564Y-50478624D01*
X252690564Y-50478624D02*
X252690564Y-53678624D01*
X252690564Y-53678624D02*
X249090564Y-53678624D01*
X249090564Y-53678624D02*
X249090564Y-50478624D01*
X127479884Y-128864883D02*
X128828468Y-125527021D01*
X128828468Y-125527021D02*
X131795456Y-126725762D01*
X131795456Y-126725762D02*
X130446872Y-130063624D01*
X130446872Y-130063624D02*
X127479884Y-128864883D01*
X55347764Y-48928624D02*
X58947764Y-48928624D01*
X58947764Y-48928624D02*
X58947764Y-52128624D01*
X58947764Y-52128624D02*
X55347764Y-52128624D01*
X55347764Y-52128624D02*
X55347764Y-48928624D01*
X93447764Y-88578624D02*
X97047764Y-88578624D01*
X97047764Y-88578624D02*
X97047764Y-91778624D01*
X97047764Y-91778624D02*
X93447764Y-91778624D01*
X93447764Y-91778624D02*
X93447764Y-88578624D01*
X93447764Y-50478624D02*
X97047764Y-50478624D01*
X97047764Y-50478624D02*
X97047764Y-53678624D01*
X97047764Y-53678624D02*
X93447764Y-53678624D01*
X93447764Y-53678624D02*
X93447764Y-50478624D01*
X131547764Y-39428624D02*
X135147764Y-39428624D01*
X135147764Y-39428624D02*
X135147764Y-42628624D01*
X135147764Y-42628624D02*
X131547764Y-42628624D01*
X131547764Y-42628624D02*
X131547764Y-39428624D01*
X268140564Y-94078624D02*
X271740564Y-94078624D01*
X271740564Y-94078624D02*
X271740564Y-97278624D01*
X271740564Y-97278624D02*
X268140564Y-97278624D01*
X268140564Y-97278624D02*
X268140564Y-94078624D01*
D11*
X150017807Y-141573738D03*
D12*
X147677807Y-141573738D03*
D13*
X172693600Y-78452885D03*
X172693600Y-79202885D03*
X172693600Y-79952885D03*
X172693600Y-80702885D03*
X173443600Y-78452885D03*
X173443600Y-79202885D03*
X173443600Y-79952885D03*
X173443600Y-80702885D03*
D14*
X196213226Y-141669414D03*
D15*
X198553226Y-141669414D03*
D16*
X152294763Y-136532118D03*
D17*
X154197764Y-131822024D03*
D16*
X156100765Y-127111930D03*
D18*
X157980062Y-129240954D03*
D19*
X159309916Y-125949452D03*
X156626504Y-139371575D03*
D18*
X157956357Y-136080072D03*
D20*
X150147807Y-144123738D03*
X150147807Y-145073738D03*
X150147807Y-146023738D03*
X147547807Y-146023738D03*
X147547807Y-144123738D03*
D21*
X242951814Y-53176124D03*
X242951814Y-56976124D03*
X125409014Y-42126124D03*
X125409014Y-45926124D03*
D22*
X127681346Y-135567134D03*
X131204645Y-136990639D03*
D23*
X192749637Y-123069725D03*
X189226339Y-124493230D03*
D24*
X35397763Y-49788623D03*
X35397763Y-51288623D03*
D25*
X40797764Y-51278624D03*
D24*
X40797763Y-49778623D03*
D21*
X87309014Y-110326124D03*
X87309014Y-114126124D03*
X262001814Y-96776124D03*
X262001814Y-100576124D03*
D16*
X128267764Y-103258624D03*
D17*
X133347764Y-103258624D03*
D16*
X138427764Y-103258624D03*
D18*
X137157764Y-105798624D03*
D26*
X140707764Y-105798624D03*
X127257764Y-108338624D03*
D18*
X130807764Y-108338624D03*
D16*
X283910564Y-112758624D03*
D17*
X288990564Y-112758624D03*
D16*
X294070564Y-112758624D03*
D18*
X292800564Y-115298624D03*
D26*
X296350564Y-115298624D03*
X282900564Y-117838624D03*
D18*
X286450564Y-117838624D03*
D21*
X242951814Y-91276124D03*
X242951814Y-95076124D03*
D24*
X73497763Y-56838623D03*
X73497763Y-58338623D03*
D25*
X78897764Y-58328624D03*
D24*
X78897763Y-56828623D03*
D21*
X49209014Y-70676124D03*
X49209014Y-74476124D03*
D16*
X52067764Y-112758624D03*
D17*
X57147764Y-112758624D03*
D16*
X62227764Y-112758624D03*
D18*
X60957764Y-115298624D03*
D26*
X64507764Y-115298624D03*
X51057764Y-117838624D03*
D18*
X54607764Y-117838624D03*
D16*
X283910564Y-55608624D03*
D17*
X288990564Y-55608624D03*
D16*
X294070564Y-55608624D03*
D18*
X292800564Y-58148624D03*
D26*
X296350564Y-58148624D03*
X282900564Y-60688624D03*
D18*
X286450564Y-60688624D03*
D16*
X71117764Y-43608624D03*
D17*
X76197764Y-43608624D03*
D16*
X81277764Y-43608624D03*
D18*
X80007764Y-46148624D03*
D26*
X83557764Y-46148624D03*
X70107764Y-48688624D03*
D18*
X73657764Y-48688624D03*
D16*
X264860564Y-100758624D03*
D17*
X269940564Y-100758624D03*
D16*
X275020564Y-100758624D03*
D18*
X273750564Y-103298624D03*
D26*
X277300564Y-103298624D03*
X263850564Y-105838624D03*
D18*
X267400564Y-105838624D03*
D16*
X302960564Y-74658624D03*
D17*
X308040564Y-74658624D03*
D16*
X313120564Y-74658624D03*
D18*
X311850564Y-77198624D03*
D26*
X315400564Y-77198624D03*
X301950564Y-79738624D03*
D18*
X305500564Y-79738624D03*
D24*
X286290563Y-49788623D03*
X286290563Y-51288623D03*
D25*
X291690564Y-51278624D03*
D24*
X291690563Y-49778623D03*
D16*
X109217764Y-81708624D03*
D17*
X114297764Y-81708624D03*
D16*
X119377764Y-81708624D03*
D18*
X118107764Y-84248624D03*
D26*
X121657764Y-84248624D03*
X108207764Y-86788624D03*
D18*
X111757764Y-86788624D03*
D16*
X283910564Y-74658624D03*
D17*
X288990564Y-74658624D03*
D16*
X294070564Y-74658624D03*
D18*
X292800564Y-77198624D03*
D26*
X296350564Y-77198624D03*
X282900564Y-79738624D03*
D18*
X286450564Y-79738624D03*
D16*
X132444763Y-134408418D03*
D17*
X134347764Y-129698324D03*
D16*
X136250765Y-124988230D03*
D18*
X138130062Y-127117254D03*
D19*
X139459916Y-123825752D03*
X136776504Y-137247875D03*
D18*
X138106357Y-133956372D03*
D20*
X196083226Y-146119414D03*
X196083226Y-145169414D03*
X196083226Y-144219414D03*
X198683226Y-144219414D03*
X198683226Y-146119414D03*
D16*
X302960564Y-55608624D03*
D17*
X308040564Y-55608624D03*
D16*
X313120564Y-55608624D03*
D18*
X311850564Y-58148624D03*
D26*
X315400564Y-58148624D03*
X301950564Y-60688624D03*
D18*
X305500564Y-60688624D03*
D16*
X245810564Y-95258624D03*
D17*
X250890564Y-95258624D03*
D16*
X255970564Y-95258624D03*
D18*
X254700564Y-97798624D03*
D26*
X258250564Y-97798624D03*
X244800564Y-100338624D03*
D18*
X248350564Y-100338624D03*
D24*
X73497763Y-37788623D03*
X73497763Y-39288623D03*
D25*
X78897764Y-39278624D03*
D24*
X78897763Y-37778623D03*
D21*
X125409014Y-61176124D03*
X125409014Y-64976124D03*
D27*
X316337200Y-121050000D03*
D21*
X204851814Y-61176124D03*
X204851814Y-64976124D03*
X167361125Y-99017500D03*
X167361125Y-102817500D03*
D16*
X209978035Y-125075882D03*
D17*
X211881036Y-129785976D03*
D16*
X213784037Y-134496070D03*
D18*
X210953240Y-134270047D03*
D28*
X212283094Y-137561550D03*
X204889588Y-126042428D03*
D18*
X206219441Y-129333931D03*
D22*
X147408720Y-137628994D03*
X150932019Y-139052499D03*
D16*
X245810564Y-114308624D03*
D17*
X250890564Y-114308624D03*
D16*
X255970564Y-114308624D03*
D18*
X254700564Y-116848624D03*
D26*
X258250564Y-116848624D03*
X244800564Y-119388624D03*
D18*
X248350564Y-119388624D03*
D21*
X300101814Y-89726124D03*
X300101814Y-93526124D03*
D24*
X130647763Y-97438623D03*
X130647763Y-98938623D03*
D25*
X136047764Y-98928624D03*
D24*
X136047763Y-97428623D03*
D21*
X68259014Y-96776124D03*
X68259014Y-100576124D03*
D24*
X248190563Y-89438623D03*
X248190563Y-90938623D03*
D25*
X253590564Y-90928624D03*
D24*
X253590563Y-89428623D03*
X111597763Y-37788623D03*
X111597763Y-39288623D03*
D25*
X116997764Y-39278624D03*
D24*
X116997763Y-37778623D03*
D27*
X29787764Y-47298624D03*
D24*
X229140563Y-37788623D03*
X229140563Y-39288623D03*
D25*
X234540564Y-39278624D03*
D24*
X234540563Y-37778623D03*
D21*
X223901814Y-96776124D03*
X223901814Y-100576124D03*
D29*
X197935799Y-39114999D03*
D30*
X198835799Y-39114999D03*
D29*
X197935799Y-41654999D03*
D30*
X198835799Y-41654999D03*
D31*
X197935799Y-44194999D03*
D30*
X198835799Y-44194999D03*
D29*
X197935799Y-46734999D03*
D30*
X198835799Y-46734999D03*
D29*
X197935799Y-49274999D03*
D30*
X198835799Y-49274999D03*
D29*
X197935799Y-51814999D03*
D30*
X198835799Y-51814999D03*
D29*
X197935799Y-54354999D03*
D30*
X198835799Y-54354999D03*
D31*
X197935799Y-56894999D03*
D30*
X198835799Y-56894999D03*
D29*
X197935799Y-59434999D03*
D30*
X198835799Y-59434999D03*
D29*
X197935799Y-61974999D03*
D30*
X198835799Y-61974999D03*
D29*
X197935799Y-64514999D03*
D30*
X198835799Y-64514999D03*
D29*
X197935799Y-67054999D03*
D30*
X198835799Y-67054999D03*
D31*
X197935799Y-69594999D03*
D30*
X198835799Y-69594999D03*
D29*
X197935799Y-72134999D03*
D30*
X198835799Y-72134999D03*
D29*
X197935799Y-74674999D03*
D30*
X198835799Y-74674999D03*
D29*
X197935799Y-77214999D03*
D30*
X198835799Y-77214999D03*
D29*
X197935799Y-79754999D03*
D30*
X198835799Y-79754999D03*
D31*
X197935799Y-82294999D03*
D30*
X198835799Y-82294999D03*
D29*
X197935799Y-84834999D03*
D30*
X198835799Y-84834999D03*
D29*
X197935799Y-87374999D03*
D30*
X198835799Y-87374999D03*
D29*
X180155799Y-87374999D03*
D30*
X179255799Y-87374999D03*
D29*
X180155799Y-84834999D03*
D30*
X179255799Y-84834999D03*
D31*
X180155799Y-82294999D03*
D30*
X179255799Y-82294999D03*
D29*
X180155799Y-79754999D03*
D30*
X179255799Y-79754999D03*
D29*
X180155799Y-77214999D03*
D30*
X179255799Y-77214999D03*
D29*
X180155799Y-74674999D03*
D30*
X179255799Y-74674999D03*
D29*
X180155799Y-72134999D03*
D30*
X179255799Y-72134999D03*
D31*
X180155799Y-69594999D03*
D30*
X179255799Y-69594999D03*
D29*
X180155799Y-67054999D03*
D30*
X179255799Y-67054999D03*
D29*
X180155799Y-64514999D03*
D30*
X179255799Y-64514999D03*
D29*
X180155799Y-61974999D03*
D30*
X179255799Y-61974999D03*
D29*
X180155799Y-59434999D03*
D30*
X179255799Y-59434999D03*
D31*
X180155799Y-56894999D03*
D30*
X179255799Y-56894999D03*
D29*
X180155799Y-54354999D03*
D30*
X179255799Y-54354999D03*
D29*
X180155799Y-51814999D03*
D30*
X179255799Y-51814999D03*
D29*
X180155799Y-49274999D03*
D30*
X179255799Y-49274999D03*
D29*
X180155799Y-46734999D03*
D30*
X179255799Y-46734999D03*
D31*
X180155799Y-44194999D03*
D30*
X179255799Y-44194999D03*
D29*
X180155799Y-41654999D03*
D30*
X179255799Y-41654999D03*
D29*
X180155799Y-39114999D03*
D30*
X179255799Y-39114999D03*
D29*
X191585799Y-87144999D03*
D32*
X191585799Y-88044999D03*
D31*
X189045799Y-87144999D03*
D32*
X189045799Y-88044999D03*
D29*
X186505799Y-87144999D03*
D32*
X186505799Y-88044999D03*
D16*
X109217764Y-119808624D03*
D17*
X114297764Y-119808624D03*
D16*
X119377764Y-119808624D03*
D18*
X118107764Y-122348624D03*
D26*
X121657764Y-122348624D03*
X108207764Y-124888624D03*
D18*
X111757764Y-124888624D03*
D21*
X300101814Y-51626124D03*
X300101814Y-55426124D03*
D24*
X267240563Y-113988623D03*
X267240563Y-115488623D03*
D25*
X272640564Y-115478624D03*
D24*
X272640563Y-113978623D03*
X54447763Y-68838623D03*
X54447763Y-70338623D03*
D25*
X59847764Y-70328624D03*
D24*
X59847763Y-68828623D03*
D21*
X106359014Y-58676124D03*
X106359014Y-62476124D03*
D27*
X316350564Y-47298624D03*
D24*
X210090563Y-40288623D03*
X210090563Y-41788623D03*
D25*
X215490564Y-41778624D03*
D24*
X215490563Y-40278623D03*
X35397763Y-87888623D03*
X35397763Y-89388623D03*
D25*
X40797764Y-89378624D03*
D24*
X40797763Y-87878623D03*
D16*
X245810564Y-57158624D03*
D17*
X250890564Y-57158624D03*
D16*
X255970564Y-57158624D03*
D18*
X254700564Y-59698624D03*
D26*
X258250564Y-59698624D03*
X244800564Y-62238624D03*
D18*
X248350564Y-62238624D03*
D16*
X128267764Y-46108624D03*
D17*
X133347764Y-46108624D03*
D16*
X138427764Y-46108624D03*
D18*
X137157764Y-48648624D03*
D26*
X140707764Y-48648624D03*
X127257764Y-51188624D03*
D18*
X130807764Y-51188624D03*
D16*
X245810564Y-76208624D03*
D17*
X250890564Y-76208624D03*
D16*
X255970564Y-76208624D03*
D18*
X254700564Y-78748624D03*
D26*
X258250564Y-78748624D03*
X244800564Y-81288624D03*
D18*
X248350564Y-81288624D03*
D24*
X111597763Y-75888623D03*
X111597763Y-77388623D03*
D25*
X116997764Y-77378624D03*
D24*
X116997763Y-75878623D03*
X229140563Y-56838623D03*
X229140563Y-58338623D03*
D25*
X234540564Y-58328624D03*
D24*
X234540563Y-56828623D03*
X92547763Y-70388623D03*
X92547763Y-71888623D03*
D25*
X97947764Y-71878624D03*
D24*
X97947763Y-70378623D03*
D16*
X71117764Y-119808624D03*
D17*
X76197764Y-119808624D03*
D16*
X81277764Y-119808624D03*
D18*
X80007764Y-122348624D03*
D26*
X83557764Y-122348624D03*
X70107764Y-124888624D03*
D18*
X73657764Y-124888624D03*
D33*
X32499999Y-113349999D03*
D16*
X33020000Y-112750000D03*
D34*
X35560000Y-117830000D03*
D35*
X38100000Y-112750000D03*
D34*
X41910000Y-115290000D03*
D16*
X43180000Y-112750000D03*
D33*
X43699999Y-113349999D03*
D36*
X45184999Y-115289999D03*
D26*
X32258000Y-117830000D03*
D37*
X35599999Y-120849999D03*
D27*
X40600000Y-120850000D03*
X38100000Y-120850000D03*
X35600000Y-106350000D03*
X40600000Y-106350000D03*
D16*
X302960564Y-93708624D03*
D17*
X308040564Y-93708624D03*
D16*
X313120564Y-93708624D03*
D18*
X311850564Y-96248624D03*
D26*
X315400564Y-96248624D03*
X301950564Y-98788624D03*
D18*
X305500564Y-98788624D03*
D16*
X52067764Y-93708624D03*
D17*
X57147764Y-93708624D03*
D16*
X62227764Y-93708624D03*
D18*
X60957764Y-96248624D03*
D26*
X64507764Y-96248624D03*
X51057764Y-98788624D03*
D18*
X54607764Y-98788624D03*
D21*
X223901814Y-77726124D03*
X223901814Y-81526124D03*
X223901814Y-58676124D03*
X223901814Y-62476124D03*
D24*
X73497763Y-113988623D03*
X73497763Y-115488623D03*
D25*
X78897764Y-115478624D03*
D24*
X78897763Y-113978623D03*
D21*
X262001814Y-77726124D03*
X262001814Y-81526124D03*
D16*
X33017764Y-93708624D03*
D17*
X38097764Y-93708624D03*
D16*
X43177764Y-93708624D03*
D18*
X41907764Y-96248624D03*
D26*
X45457764Y-96248624D03*
X32007764Y-98788624D03*
D18*
X35557764Y-98788624D03*
D24*
X35399999Y-108209999D03*
X35399999Y-109709999D03*
D25*
X40800000Y-109700000D03*
D24*
X40799999Y-108199999D03*
X305337199Y-108209999D03*
X305337199Y-109709999D03*
D25*
X310737200Y-109700000D03*
D24*
X310737199Y-108199999D03*
D16*
X90167764Y-38108624D03*
D17*
X95247764Y-38108624D03*
D16*
X100327764Y-38108624D03*
D18*
X99057764Y-40648624D03*
D26*
X102607764Y-40648624D03*
X89157764Y-43188624D03*
D18*
X92707764Y-43188624D03*
D24*
X286290563Y-68838623D03*
X286290563Y-70338623D03*
D25*
X291690564Y-70328624D03*
D24*
X291690563Y-68828623D03*
D16*
X90167764Y-76208624D03*
D17*
X95247764Y-76208624D03*
D16*
X100327764Y-76208624D03*
D18*
X99057764Y-78748624D03*
D26*
X102607764Y-78748624D03*
X89157764Y-81288624D03*
D18*
X92707764Y-81288624D03*
D24*
X73497763Y-75888623D03*
X73497763Y-77388623D03*
D25*
X78897764Y-77378624D03*
D24*
X78897763Y-75878623D03*
D21*
X262001814Y-58676124D03*
X262001814Y-62476124D03*
D24*
X111597763Y-56838623D03*
X111597763Y-58338623D03*
D25*
X116997764Y-58328624D03*
D24*
X116997763Y-56828623D03*
X210090563Y-59338623D03*
X210090563Y-60838623D03*
D25*
X215490564Y-60828624D03*
D24*
X215490563Y-59328623D03*
X229140563Y-75888623D03*
X229140563Y-77388623D03*
D25*
X234540564Y-77378624D03*
D24*
X234540563Y-75878623D03*
D21*
X223901814Y-39626124D03*
X223901814Y-43426124D03*
D24*
X248190563Y-32288623D03*
X248190563Y-33788623D03*
D25*
X253590564Y-33778624D03*
D24*
X253590563Y-32278623D03*
D16*
X109217764Y-43608624D03*
D17*
X114297764Y-43608624D03*
D16*
X119377764Y-43608624D03*
D18*
X118107764Y-46148624D03*
D26*
X121657764Y-46148624D03*
X108207764Y-48688624D03*
D18*
X111757764Y-48688624D03*
D16*
X207710564Y-46108624D03*
D17*
X212790564Y-46108624D03*
D16*
X217870564Y-46108624D03*
D18*
X216600564Y-48648624D03*
D26*
X220150564Y-48648624D03*
X206700564Y-51188624D03*
D18*
X210250564Y-51188624D03*
D38*
X196415807Y-127238668D03*
X195025031Y-127800578D03*
D39*
X197057180Y-132803626D03*
D38*
X198447955Y-132241715D03*
D21*
X125409014Y-99276124D03*
X125409014Y-103076124D03*
D16*
X71117764Y-100758624D03*
D17*
X76197764Y-100758624D03*
D16*
X81277764Y-100758624D03*
D18*
X80007764Y-103298624D03*
D26*
X83557764Y-103298624D03*
X70107764Y-105838624D03*
D18*
X73657764Y-105838624D03*
D24*
X130647763Y-78388623D03*
X130647763Y-79888623D03*
D25*
X136047764Y-79878624D03*
D24*
X136047763Y-78378623D03*
D16*
X264860564Y-119808624D03*
D17*
X269940564Y-119808624D03*
D16*
X275020564Y-119808624D03*
D18*
X273750564Y-122348624D03*
D26*
X277300564Y-122348624D03*
X263850564Y-124888624D03*
D18*
X267400564Y-124888624D03*
D40*
X184568600Y-115913270D03*
X177568600Y-115913270D03*
D41*
X182168599Y-118213269D03*
X179168599Y-118213269D03*
X187268599Y-113613269D03*
X186168599Y-118213269D03*
D21*
X281051814Y-89726124D03*
X281051814Y-93526124D03*
X68259014Y-58676124D03*
X68259014Y-62476124D03*
D16*
X207710564Y-84208624D03*
D17*
X212790564Y-84208624D03*
D16*
X217870564Y-84208624D03*
D18*
X216600564Y-86748624D03*
D26*
X220150564Y-86748624D03*
X206700564Y-89288624D03*
D18*
X210250564Y-89288624D03*
D16*
X128267764Y-84208624D03*
D17*
X133347764Y-84208624D03*
D16*
X138427764Y-84208624D03*
D18*
X137157764Y-86748624D03*
D26*
X140707764Y-86748624D03*
X127257764Y-89288624D03*
D18*
X130807764Y-89288624D03*
D24*
X286290563Y-106938623D03*
X286290563Y-108438623D03*
D25*
X291690564Y-108428624D03*
D24*
X291690563Y-106928623D03*
D21*
X106359014Y-39626124D03*
X106359014Y-43426124D03*
D24*
X130647763Y-59338623D03*
X130647763Y-60838623D03*
D25*
X136047764Y-60828624D03*
D24*
X136047763Y-59328623D03*
D16*
X264860564Y-81708624D03*
D17*
X269940564Y-81708624D03*
D16*
X275020564Y-81708624D03*
D18*
X273750564Y-84248624D03*
D26*
X277300564Y-84248624D03*
X263850564Y-86788624D03*
D18*
X267400564Y-86788624D03*
D21*
X204851814Y-42126124D03*
X204851814Y-45926124D03*
D24*
X92547763Y-108488623D03*
X92547763Y-109988623D03*
D25*
X97947764Y-109978624D03*
D24*
X97947763Y-108478623D03*
X210090563Y-78388623D03*
X210090563Y-79888623D03*
D25*
X215490564Y-79878624D03*
D24*
X215490563Y-78378623D03*
X305340563Y-87888623D03*
X305340563Y-89388623D03*
D25*
X310740564Y-89378624D03*
D24*
X310740563Y-87878623D03*
D21*
X143928750Y-41377500D03*
X143928750Y-45177500D03*
D24*
X305340563Y-49788623D03*
X305340563Y-51288623D03*
D25*
X310740564Y-51278624D03*
D24*
X310740563Y-49778623D03*
D21*
X49209014Y-108776124D03*
X49209014Y-112576124D03*
D16*
X207710564Y-103258624D03*
D17*
X212790564Y-103258624D03*
D16*
X217870564Y-103258624D03*
D18*
X216600564Y-105798624D03*
D26*
X220150564Y-105798624D03*
X206700564Y-108338624D03*
D18*
X210250564Y-108338624D03*
D24*
X92547763Y-32288623D03*
X92547763Y-33788623D03*
D25*
X97947764Y-33778624D03*
D24*
X97947763Y-32278623D03*
X35397763Y-68838623D03*
X35397763Y-70338623D03*
D25*
X40797764Y-70328624D03*
D24*
X40797763Y-68828623D03*
D40*
X161568600Y-115913270D03*
X168568600Y-115913270D03*
D41*
X163968599Y-113613269D03*
X166968599Y-113613269D03*
X158868599Y-118213269D03*
X159968599Y-113613269D03*
D16*
X264860564Y-62658624D03*
D17*
X269940564Y-62658624D03*
D16*
X275020564Y-62658624D03*
D18*
X273750564Y-65198624D03*
D26*
X277300564Y-65198624D03*
X263850564Y-67738624D03*
D18*
X267400564Y-67738624D03*
D16*
X190128035Y-127212182D03*
D17*
X192031036Y-131922276D03*
D16*
X193934037Y-136632370D03*
D18*
X191103240Y-136406347D03*
D28*
X192433094Y-139697850D03*
X185039588Y-128178728D03*
D18*
X186369441Y-131470231D03*
D24*
X210090563Y-97438623D03*
X210090563Y-98938623D03*
D25*
X215490564Y-98928624D03*
D24*
X215490563Y-97428623D03*
D16*
X226760564Y-81708624D03*
D17*
X231840564Y-81708624D03*
D16*
X236920564Y-81708624D03*
D18*
X235650564Y-84248624D03*
D26*
X239200564Y-84248624D03*
X225750564Y-86788624D03*
D18*
X229300564Y-86788624D03*
D16*
X128267764Y-65158624D03*
D17*
X133347764Y-65158624D03*
D16*
X138427764Y-65158624D03*
D18*
X137157764Y-67698624D03*
D26*
X140707764Y-67698624D03*
X127257764Y-70238624D03*
D18*
X130807764Y-70238624D03*
D16*
X90167764Y-114308624D03*
D17*
X95247764Y-114308624D03*
D16*
X100327764Y-114308624D03*
D18*
X99057764Y-116848624D03*
D26*
X102607764Y-116848624D03*
X89157764Y-119388624D03*
D18*
X92707764Y-119388624D03*
D24*
X111597763Y-94938623D03*
X111597763Y-96438623D03*
D25*
X116997764Y-96428624D03*
D24*
X116997763Y-94928623D03*
D21*
X68259014Y-39626124D03*
X68259014Y-43426124D03*
D24*
X111597763Y-113988623D03*
X111597763Y-115488623D03*
D25*
X116997764Y-115478624D03*
D24*
X116997763Y-113978623D03*
D21*
X281051814Y-108776124D03*
X281051814Y-112576124D03*
X281051814Y-70676124D03*
X281051814Y-74476124D03*
D24*
X248190563Y-70388623D03*
X248190563Y-71888623D03*
D25*
X253590564Y-71878624D03*
D24*
X253590563Y-70378623D03*
D16*
X245810564Y-38108624D03*
D17*
X250890564Y-38108624D03*
D16*
X255970564Y-38108624D03*
D18*
X254700564Y-40648624D03*
D26*
X258250564Y-40648624D03*
X244800564Y-43188624D03*
D18*
X248350564Y-43188624D03*
D42*
X147790115Y-132145209D03*
X149180891Y-132707119D03*
D43*
X151194496Y-127696581D03*
D42*
X149803719Y-127134670D03*
D33*
X302437199Y-113349999D03*
D16*
X302957200Y-112750000D03*
D34*
X305497200Y-117830000D03*
D35*
X308037200Y-112750000D03*
D34*
X311847200Y-115290000D03*
D16*
X313117200Y-112750000D03*
D33*
X313637199Y-113349999D03*
D36*
X315122199Y-115289999D03*
D26*
X302195200Y-117830000D03*
D37*
X305537199Y-120849999D03*
D27*
X310537200Y-120850000D03*
X308037200Y-120850000D03*
X305537200Y-106350000D03*
X310537200Y-106350000D03*
D24*
X286290563Y-87888623D03*
X286290563Y-89388623D03*
D25*
X291690564Y-89378624D03*
D24*
X291690563Y-87878623D03*
X267240563Y-75888623D03*
X267240563Y-77388623D03*
D25*
X272640564Y-77378624D03*
D24*
X272640563Y-75878623D03*
D16*
X109217764Y-100758624D03*
D17*
X114297764Y-100758624D03*
D16*
X119377764Y-100758624D03*
D18*
X118107764Y-103298624D03*
D26*
X121657764Y-103298624D03*
X108207764Y-105838624D03*
D18*
X111757764Y-105838624D03*
D21*
X175848750Y-41927500D03*
X175848750Y-45727500D03*
D16*
X90167764Y-57158624D03*
D17*
X95247764Y-57158624D03*
D16*
X100327764Y-57158624D03*
D18*
X99057764Y-59698624D03*
D26*
X102607764Y-59698624D03*
X89157764Y-62238624D03*
D18*
X92707764Y-62238624D03*
D16*
X71117764Y-81708624D03*
D17*
X76197764Y-81708624D03*
D16*
X81277764Y-81708624D03*
D18*
X80007764Y-84248624D03*
D26*
X83557764Y-84248624D03*
X70107764Y-86788624D03*
D18*
X73657764Y-86788624D03*
D24*
X248190563Y-108488623D03*
X248190563Y-109988623D03*
D25*
X253590564Y-109978624D03*
D24*
X253590563Y-108478623D03*
D21*
X106359014Y-115826124D03*
X106359014Y-119626124D03*
X87309014Y-72226124D03*
X87309014Y-76026124D03*
X125409014Y-80226124D03*
X125409014Y-84026124D03*
D16*
X226760564Y-43608624D03*
D17*
X231840564Y-43608624D03*
D16*
X236920564Y-43608624D03*
D18*
X235650564Y-46148624D03*
D26*
X239200564Y-46148624D03*
X225750564Y-48688624D03*
D18*
X229300564Y-48688624D03*
D21*
X87309014Y-91276124D03*
X87309014Y-95076124D03*
X204851814Y-99276124D03*
X204851814Y-103076124D03*
X49209014Y-51626124D03*
X49209014Y-55426124D03*
D16*
X226760564Y-119808624D03*
D17*
X231840564Y-119808624D03*
D16*
X236920564Y-119808624D03*
D18*
X235650564Y-122348624D03*
D26*
X239200564Y-122348624D03*
X225750564Y-124888624D03*
D18*
X229300564Y-124888624D03*
D16*
X52067764Y-74658624D03*
D17*
X57147764Y-74658624D03*
D16*
X62227764Y-74658624D03*
D18*
X60957764Y-77198624D03*
D26*
X64507764Y-77198624D03*
X51057764Y-79738624D03*
D18*
X54607764Y-79738624D03*
D29*
X166248599Y-39114999D03*
D30*
X167148599Y-39114999D03*
D29*
X166248599Y-41654999D03*
D30*
X167148599Y-41654999D03*
D31*
X166248599Y-44194999D03*
D30*
X167148599Y-44194999D03*
D29*
X166248599Y-46734999D03*
D30*
X167148599Y-46734999D03*
D29*
X166248599Y-49274999D03*
D30*
X167148599Y-49274999D03*
D29*
X166248599Y-51814999D03*
D30*
X167148599Y-51814999D03*
D29*
X166248599Y-54354999D03*
D30*
X167148599Y-54354999D03*
D31*
X166248599Y-56894999D03*
D30*
X167148599Y-56894999D03*
D29*
X166248599Y-59434999D03*
D30*
X167148599Y-59434999D03*
D29*
X166248599Y-61974999D03*
D30*
X167148599Y-61974999D03*
D29*
X166248599Y-64514999D03*
D30*
X167148599Y-64514999D03*
D29*
X166248599Y-67054999D03*
D30*
X167148599Y-67054999D03*
D31*
X166248599Y-69594999D03*
D30*
X167148599Y-69594999D03*
D29*
X166248599Y-72134999D03*
D30*
X167148599Y-72134999D03*
D29*
X166248599Y-74674999D03*
D30*
X167148599Y-74674999D03*
D29*
X166248599Y-77214999D03*
D30*
X167148599Y-77214999D03*
D29*
X166248599Y-79754999D03*
D30*
X167148599Y-79754999D03*
D31*
X166248599Y-82294999D03*
D30*
X167148599Y-82294999D03*
D29*
X166248599Y-84834999D03*
D30*
X167148599Y-84834999D03*
D29*
X166248599Y-87374999D03*
D30*
X167148599Y-87374999D03*
D29*
X148468599Y-87374999D03*
D30*
X147568599Y-87374999D03*
D29*
X148468599Y-84834999D03*
D30*
X147568599Y-84834999D03*
D31*
X148468599Y-82294999D03*
D30*
X147568599Y-82294999D03*
D29*
X148468599Y-79754999D03*
D30*
X147568599Y-79754999D03*
D29*
X148468599Y-77214999D03*
D30*
X147568599Y-77214999D03*
D29*
X148468599Y-74674999D03*
D30*
X147568599Y-74674999D03*
D29*
X148468599Y-72134999D03*
D30*
X147568599Y-72134999D03*
D31*
X148468599Y-69594999D03*
D30*
X147568599Y-69594999D03*
D29*
X148468599Y-67054999D03*
D30*
X147568599Y-67054999D03*
D29*
X148468599Y-64514999D03*
D30*
X147568599Y-64514999D03*
D29*
X148468599Y-61974999D03*
D30*
X147568599Y-61974999D03*
D29*
X148468599Y-59434999D03*
D30*
X147568599Y-59434999D03*
D31*
X148468599Y-56894999D03*
D30*
X147568599Y-56894999D03*
D29*
X148468599Y-54354999D03*
D30*
X147568599Y-54354999D03*
D29*
X148468599Y-51814999D03*
D30*
X147568599Y-51814999D03*
D29*
X148468599Y-49274999D03*
D30*
X147568599Y-49274999D03*
D29*
X148468599Y-46734999D03*
D30*
X147568599Y-46734999D03*
D31*
X148468599Y-44194999D03*
D30*
X147568599Y-44194999D03*
D29*
X148468599Y-41654999D03*
D30*
X147568599Y-41654999D03*
D29*
X148468599Y-39114999D03*
D30*
X147568599Y-39114999D03*
D29*
X159898599Y-87144999D03*
D32*
X159898599Y-88044999D03*
D31*
X157358599Y-87144999D03*
D32*
X157358599Y-88044999D03*
D29*
X154818599Y-87144999D03*
D32*
X154818599Y-88044999D03*
D24*
X73497763Y-94938623D03*
X73497763Y-96438623D03*
D25*
X78897764Y-96428624D03*
D24*
X78897763Y-94928623D03*
D21*
X242951814Y-72226124D03*
X242951814Y-76026124D03*
D16*
X90167764Y-95258624D03*
D17*
X95247764Y-95258624D03*
D16*
X100327764Y-95258624D03*
D18*
X99057764Y-97798624D03*
D26*
X102607764Y-97798624D03*
X89157764Y-100338624D03*
D18*
X92707764Y-100338624D03*
D24*
X229140563Y-94938623D03*
X229140563Y-96438623D03*
D25*
X234540564Y-96428624D03*
D24*
X234540563Y-94928623D03*
X305340563Y-68838623D03*
X305340563Y-70338623D03*
D25*
X310740564Y-70328624D03*
D24*
X310740563Y-68828623D03*
D21*
X204851814Y-80226124D03*
X204851814Y-84026124D03*
D24*
X54447763Y-87888623D03*
X54447763Y-89388623D03*
D25*
X59847764Y-89378624D03*
D24*
X59847763Y-87878623D03*
D21*
X223901814Y-115826124D03*
X223901814Y-119626124D03*
D16*
X283910564Y-93708624D03*
D17*
X288990564Y-93708624D03*
D16*
X294070564Y-93708624D03*
D18*
X292800564Y-96248624D03*
D26*
X296350564Y-96248624D03*
X282900564Y-98788624D03*
D18*
X286450564Y-98788624D03*
D16*
X207710564Y-65158624D03*
D17*
X212790564Y-65158624D03*
D16*
X217870564Y-65158624D03*
D18*
X216600564Y-67698624D03*
D26*
X220150564Y-67698624D03*
X206700564Y-70238624D03*
D18*
X210250564Y-70238624D03*
D16*
X71117764Y-62658624D03*
D17*
X76197764Y-62658624D03*
D16*
X81277764Y-62658624D03*
D18*
X80007764Y-65198624D03*
D26*
X83557764Y-65198624D03*
X70107764Y-67738624D03*
D18*
X73657764Y-67738624D03*
D21*
X106359014Y-77726124D03*
X106359014Y-81526124D03*
X300101814Y-70676124D03*
X300101814Y-74476124D03*
X195721125Y-99187500D03*
X195721125Y-102987500D03*
D24*
X54447763Y-106938623D03*
X54447763Y-108438623D03*
D25*
X59847764Y-108428624D03*
D24*
X59847763Y-106928623D03*
D27*
X29800000Y-121050000D03*
D23*
X212599637Y-120933425D03*
X209076339Y-122356930D03*
D16*
X226760564Y-62658624D03*
D17*
X231840564Y-62658624D03*
D16*
X236920564Y-62658624D03*
D18*
X235650564Y-65198624D03*
D26*
X239200564Y-65198624D03*
X225750564Y-67738624D03*
D18*
X229300564Y-67738624D03*
D16*
X226760564Y-100758624D03*
D17*
X231840564Y-100758624D03*
D16*
X236920564Y-100758624D03*
D18*
X235650564Y-103298624D03*
D26*
X239200564Y-103298624D03*
X225750564Y-105838624D03*
D18*
X229300564Y-105838624D03*
D21*
X30159014Y-70676124D03*
X30159014Y-74476124D03*
X106359014Y-96776124D03*
X106359014Y-100576124D03*
D24*
X267240563Y-56838623D03*
X267240563Y-58338623D03*
D25*
X272640564Y-58328624D03*
D24*
X272640563Y-56828623D03*
X267240563Y-37788623D03*
X267240563Y-39288623D03*
D25*
X272640564Y-39278624D03*
D24*
X272640563Y-37778623D03*
D21*
X30026375Y-108826750D03*
X30026375Y-112626750D03*
D44*
X153258599Y-103249999D03*
X164458599Y-103249999D03*
D37*
X156358599Y-110749999D03*
D27*
X161358600Y-110750000D03*
X158858600Y-110750000D03*
X161358600Y-96250000D03*
X156358600Y-96250000D03*
D21*
X262001814Y-115826124D03*
X262001814Y-119626124D03*
D38*
X216265807Y-125102368D03*
X214875031Y-125664278D03*
D39*
X216907180Y-130667326D03*
D38*
X218297955Y-130105415D03*
D16*
X264860564Y-43608624D03*
D17*
X269940564Y-43608624D03*
D16*
X275020564Y-43608624D03*
D18*
X273750564Y-46148624D03*
D26*
X277300564Y-46148624D03*
X263850564Y-48688624D03*
D18*
X267400564Y-48688624D03*
D21*
X68259014Y-77726124D03*
X68259014Y-81526124D03*
X281051814Y-51626124D03*
X281051814Y-55426124D03*
D24*
X229140563Y-113988623D03*
X229140563Y-115488623D03*
D25*
X234540564Y-115478624D03*
D24*
X234540563Y-113978623D03*
D21*
X49209014Y-89726124D03*
X49209014Y-93526124D03*
D24*
X248190563Y-51338623D03*
X248190563Y-52838623D03*
D25*
X253590564Y-52828624D03*
D24*
X253590563Y-51328623D03*
D21*
X68259014Y-115826124D03*
X68259014Y-119626124D03*
D16*
X109217764Y-62658624D03*
D17*
X114297764Y-62658624D03*
D16*
X119377764Y-62658624D03*
D18*
X118107764Y-65198624D03*
D26*
X121657764Y-65198624D03*
X108207764Y-67738624D03*
D18*
X111757764Y-67738624D03*
D42*
X127940115Y-130021509D03*
X129330891Y-130583419D03*
D43*
X131344496Y-125572881D03*
D42*
X129953719Y-125010970D03*
D24*
X54447763Y-49788623D03*
X54447763Y-51288623D03*
D25*
X59847764Y-51278624D03*
D24*
X59847763Y-49778623D03*
D21*
X300101814Y-108776124D03*
X300101814Y-112576124D03*
D16*
X33017764Y-55608624D03*
D17*
X38097764Y-55608624D03*
D16*
X43177764Y-55608624D03*
D18*
X41907764Y-58148624D03*
D26*
X45457764Y-58148624D03*
X32007764Y-60688624D03*
D18*
X35557764Y-60688624D03*
D21*
X262001814Y-39626124D03*
X262001814Y-43426124D03*
D24*
X92547763Y-89438623D03*
X92547763Y-90938623D03*
D25*
X97947764Y-90928624D03*
D24*
X97947763Y-89428623D03*
X92547763Y-51338623D03*
X92547763Y-52838623D03*
D25*
X97947764Y-52828624D03*
D24*
X97947763Y-51328623D03*
D21*
X242951814Y-34126124D03*
X242951814Y-37926124D03*
D24*
X130647763Y-40288623D03*
X130647763Y-41788623D03*
D25*
X136047764Y-41778624D03*
D24*
X136047763Y-40278623D03*
D21*
X30159014Y-51626124D03*
X30159014Y-55426124D03*
X87309014Y-34126124D03*
X87309014Y-37926124D03*
D16*
X33017764Y-74658624D03*
D17*
X38097764Y-74658624D03*
D16*
X43177764Y-74658624D03*
D18*
X41907764Y-77198624D03*
D26*
X45457764Y-77198624D03*
X32007764Y-79738624D03*
D18*
X35557764Y-79738624D03*
D44*
X181678599Y-103249999D03*
X192878599Y-103249999D03*
D37*
X184778599Y-110749999D03*
D27*
X189778600Y-110750000D03*
X187278600Y-110750000D03*
X189778600Y-96250000D03*
X184778600Y-96250000D03*
D21*
X87309014Y-53176124D03*
X87309014Y-56976124D03*
D16*
X52067764Y-55608624D03*
D17*
X57147764Y-55608624D03*
D16*
X62227764Y-55608624D03*
D18*
X60957764Y-58148624D03*
D26*
X64507764Y-58148624D03*
X51057764Y-60688624D03*
D18*
X54607764Y-60688624D03*
D21*
X30159014Y-89726124D03*
X30159014Y-93526124D03*
D24*
X267240563Y-94938623D03*
X267240563Y-96438623D03*
D25*
X272640564Y-96428624D03*
D24*
X272640563Y-94928623D03*
D21*
X242951814Y-110326124D03*
X242951814Y-114126124D03*
M02*
