M48
; DRILL file {KiCad (7.0.0-0)} date Sunday, May 21, 2023 at 06:42:36 PM
; FORMAT={-:-/ absolute / metric / decimal}
; #@! TF.CreationDate,2023-05-21T18:42:36-07:00
; #@! TF.GenerationSoftware,Kicad,Pcbnew,(7.0.0-0)
; #@! TF.FileFunction,NonPlated,1,2,NPTH
FMAT,2
METRIC
; #@! TA.AperFunction,NonPlated,NPTH,ComponentDrill
T1C0.500
; #@! TA.AperFunction,NonPlated,NPTH,ComponentDrill
T2C0.800
; #@! TA.AperFunction,NonPlated,NPTH,ComponentDrill
T3C1.500
; #@! TA.AperFunction,NonPlated,NPTH,ComponentDrill
T4C1.750
; #@! TA.AperFunction,NonPlated,NPTH,ComponentDrill
T5C3.000
; #@! TA.AperFunction,NonPlated,NPTH,ComponentDrill
T6C3.988
; #@! TA.AperFunction,NonPlated,NPTH,ComponentDrill
T7C4.000
%
G90
G05
T1
X172.694Y-78.453
X172.694Y-79.203
X172.694Y-79.953
X172.694Y-80.703
X173.444Y-78.453
X173.444Y-79.203
X173.444Y-79.953
X173.444Y-80.703
T2
X161.569Y-115.913
X168.569Y-115.913
X177.569Y-115.913
X184.569Y-115.913
T4
X33.018Y-55.609
X33.018Y-74.659
X33.018Y-93.709
X33.02Y-112.75
X43.178Y-55.609
X43.178Y-74.659
X43.178Y-93.709
X43.18Y-112.75
X52.068Y-55.609
X52.068Y-74.659
X52.068Y-93.709
X52.068Y-112.759
X62.228Y-55.609
X62.228Y-74.659
X62.228Y-93.709
X62.228Y-112.759
X71.118Y-43.609
X71.118Y-62.659
X71.118Y-81.709
X71.118Y-100.759
X71.118Y-119.809
X81.278Y-43.609
X81.278Y-62.659
X81.278Y-81.709
X81.278Y-100.759
X81.278Y-119.809
X90.168Y-38.109
X90.168Y-57.159
X90.168Y-76.209
X90.168Y-95.259
X90.168Y-114.309
X100.328Y-38.109
X100.328Y-57.159
X100.328Y-76.209
X100.328Y-95.259
X100.328Y-114.309
X109.218Y-43.609
X109.218Y-62.659
X109.218Y-81.709
X109.218Y-100.759
X109.218Y-119.809
X119.378Y-43.609
X119.378Y-62.659
X119.378Y-81.709
X119.378Y-100.759
X119.378Y-119.809
X128.268Y-46.109
X128.268Y-65.159
X128.268Y-84.209
X128.268Y-103.259
X132.445Y-134.408
X136.251Y-124.988
X138.428Y-46.109
X138.428Y-65.159
X138.428Y-84.209
X138.428Y-103.259
X152.295Y-136.532
X156.101Y-127.112
X190.128Y-127.212
X193.934Y-136.632
X207.711Y-46.109
X207.711Y-65.159
X207.711Y-84.209
X207.711Y-103.259
X209.978Y-125.076
X213.784Y-134.496
X217.871Y-46.109
X217.871Y-65.159
X217.871Y-84.209
X217.871Y-103.259
X226.761Y-43.609
X226.761Y-62.659
X226.761Y-81.709
X226.761Y-100.759
X226.761Y-119.809
X236.921Y-43.609
X236.921Y-62.659
X236.921Y-81.709
X236.921Y-100.759
X236.921Y-119.809
X245.811Y-38.109
X245.811Y-57.159
X245.811Y-76.209
X245.811Y-95.259
X245.811Y-114.309
X255.971Y-38.109
X255.971Y-57.159
X255.971Y-76.209
X255.971Y-95.259
X255.971Y-114.309
X264.861Y-43.609
X264.861Y-62.659
X264.861Y-81.709
X264.861Y-100.759
X264.861Y-119.809
X275.021Y-43.609
X275.021Y-62.659
X275.021Y-81.709
X275.021Y-100.759
X275.021Y-119.809
X283.911Y-55.609
X283.911Y-74.659
X283.911Y-93.709
X283.911Y-112.759
X294.071Y-55.609
X294.071Y-74.659
X294.071Y-93.709
X294.071Y-112.759
X302.957Y-112.75
X302.961Y-55.609
X302.961Y-74.659
X302.961Y-93.709
X313.117Y-112.75
X313.121Y-55.609
X313.121Y-74.659
X313.121Y-93.709
T5
X35.56Y-117.83
X41.91Y-115.29
X305.497Y-117.83
X311.847Y-115.29
T6
X38.098Y-55.609
X38.098Y-74.659
X38.098Y-93.709
X57.148Y-55.609
X57.148Y-74.659
X57.148Y-93.709
X57.148Y-112.759
X76.198Y-43.609
X76.198Y-62.659
X76.198Y-81.709
X76.198Y-100.759
X76.198Y-119.809
X95.248Y-38.109
X95.248Y-57.159
X95.248Y-76.209
X95.248Y-95.259
X95.248Y-114.309
X114.298Y-43.609
X114.298Y-62.659
X114.298Y-81.709
X114.298Y-100.759
X114.298Y-119.809
X133.348Y-46.109
X133.348Y-65.159
X133.348Y-84.209
X133.348Y-103.259
X134.348Y-129.698
X154.198Y-131.822
X192.031Y-131.922
X211.881Y-129.786
X212.791Y-46.109
X212.791Y-65.159
X212.791Y-84.209
X212.791Y-103.259
X231.841Y-43.609
X231.841Y-62.659
X231.841Y-81.709
X231.841Y-100.759
X231.841Y-119.809
X250.891Y-38.109
X250.891Y-57.159
X250.891Y-76.209
X250.891Y-95.259
X250.891Y-114.309
X269.941Y-43.609
X269.941Y-62.659
X269.941Y-81.709
X269.941Y-100.759
X269.941Y-119.809
X288.991Y-55.609
X288.991Y-74.659
X288.991Y-93.709
X288.991Y-112.759
X308.041Y-55.609
X308.041Y-74.659
X308.041Y-93.709
T7
X38.1Y-112.75
X308.037Y-112.75
T3
X32.5Y-112.7G85X32.5Y-114.0
G05
X43.7Y-112.7G85X43.7Y-114.0
G05
X153.259Y-103.9G85X153.259Y-102.6
G05
X164.459Y-103.9G85X164.459Y-102.6
G05
X181.679Y-103.9G85X181.679Y-102.6
G05
X192.879Y-103.9G85X192.879Y-102.6
G05
X302.437Y-112.7G85X302.437Y-114.0
G05
X313.637Y-112.7G85X313.637Y-114.0
G05
T0
M30
