G04 #@! TF.GenerationSoftware,KiCad,Pcbnew,(7.0.0-0)*
G04 #@! TF.CreationDate,2023-05-04T17:38:22-07:00*
G04 #@! TF.ProjectId,Junco,4a756e63-6f2e-46b6-9963-61645f706362,rev?*
G04 #@! TF.SameCoordinates,Original*
G04 #@! TF.FileFunction,Soldermask,Bot*
G04 #@! TF.FilePolarity,Negative*
%FSLAX46Y46*%
G04 Gerber Fmt 4.6, Leading zero omitted, Abs format (unit mm)*
G04 Created by KiCad (PCBNEW (7.0.0-0)) date 2023-05-04 17:38:22*
%MOMM*%
%LPD*%
G01*
G04 APERTURE LIST*
G04 Aperture macros list*
%AMRoundRect*
0 Rectangle with rounded corners*
0 $1 Rounding radius*
0 $2 $3 $4 $5 $6 $7 $8 $9 X,Y pos of 4 corners*
0 Add a 4 corners polygon primitive as box body*
4,1,4,$2,$3,$4,$5,$6,$7,$8,$9,$2,$3,0*
0 Add four circle primitives for the rounded corners*
1,1,$1+$1,$2,$3*
1,1,$1+$1,$4,$5*
1,1,$1+$1,$6,$7*
1,1,$1+$1,$8,$9*
0 Add four rect primitives between the rounded corners*
20,1,$1+$1,$2,$3,$4,$5,0*
20,1,$1+$1,$4,$5,$6,$7,0*
20,1,$1+$1,$6,$7,$8,$9,0*
20,1,$1+$1,$8,$9,$2,$3,0*%
%AMRotRect*
0 Rectangle, with rotation*
0 The origin of the aperture is its center*
0 $1 length*
0 $2 width*
0 $3 Rotation angle, in degrees counterclockwise*
0 Add horizontal line*
21,1,$1,$2,0,0,$3*%
%AMFreePoly0*
4,1,18,-1.275000,1.000000,-1.255970,1.095671,-1.201777,1.176777,-1.120671,1.230970,-1.025000,1.250000,1.025000,1.250000,1.120671,1.230970,1.201777,1.176777,1.255970,1.095671,1.275000,1.000000,1.275000,0.000000,0.025000,-1.250000,-1.025000,-1.250000,-1.120671,-1.230970,-1.201777,-1.176777,-1.255970,-1.095671,-1.275000,-1.000000,-1.275000,1.000000,-1.275000,1.000000,$1*%
G04 Aperture macros list end*
%ADD10RoundRect,0.300000X-0.300000X0.400000X-0.300000X-0.400000X0.300000X-0.400000X0.300000X0.400000X0*%
%ADD11RoundRect,0.300000X-0.483256X-0.128313X0.258492X-0.427998X0.483256X0.128313X-0.258492X0.427998X0*%
%ADD12RoundRect,0.300000X0.258492X0.427998X-0.483256X0.128313X-0.258492X-0.427998X0.483256X-0.128313X0*%
%ADD13R,1.400000X0.820000*%
%ADD14C,0.400000*%
%ADD15RoundRect,0.205000X-0.495000X-0.205000X0.495000X-0.205000X0.495000X0.205000X-0.495000X0.205000X0*%
%ADD16C,0.500000*%
%ADD17O,1.500000X2.800000*%
%ADD18C,1.750000*%
%ADD19C,3.000000*%
%ADD20C,4.000000*%
%ADD21FreePoly0,180.000000*%
%ADD22RoundRect,0.250000X1.025000X1.000000X-1.025000X1.000000X-1.025000X-1.000000X1.025000X-1.000000X0*%
%ADD23R,2.000000X2.000000*%
%ADD24C,2.000000*%
%ADD25RotRect,1.400000X0.820000X292.000000*%
%ADD26RoundRect,0.205000X-0.375503X0.382162X-0.004642X-0.535750X0.375503X-0.382162X0.004642X0.535750X0*%
%ADD27RotRect,1.400000X0.820000X68.000000*%
%ADD28RoundRect,0.205000X0.004642X-0.535750X0.375503X0.382162X-0.004642X0.535750X-0.375503X-0.382162X0*%
%ADD29C,3.987800*%
%ADD30C,3.300000*%
%ADD31RoundRect,0.250000X0.543212X-1.324970X1.311156X0.575757X-0.543212X1.324970X-1.311156X-0.575757X0*%
%ADD32R,1.100000X0.600000*%
%ADD33RoundRect,0.250000X-1.025000X-1.000000X1.025000X-1.000000X1.025000X1.000000X-1.025000X1.000000X0*%
%ADD34RoundRect,0.250000X-1.311156X0.575757X-0.543212X-1.324970X1.311156X-0.575757X0.543212X1.324970X0*%
%ADD35O,1.700000X1.700000*%
%ADD36R,3.500000X1.700000*%
%ADD37R,1.700000X1.700000*%
%ADD38R,1.700000X3.500000*%
%ADD39C,0.800000*%
%ADD40O,2.000000X1.600000*%
%ADD41R,2.000000X3.200000*%
G04 APERTURE END LIST*
D10*
X242951814Y-53176124D03*
X242951814Y-56976124D03*
X125409014Y-42126124D03*
X125409014Y-45926124D03*
D11*
X127681346Y-135567134D03*
X131204645Y-136990639D03*
D12*
X192749637Y-123069725D03*
X189226339Y-124493230D03*
D13*
X35397763Y-49788623D03*
D14*
X34897764Y-49766624D03*
X35897764Y-51290624D03*
D13*
X35397763Y-51288623D03*
D15*
X40797764Y-51278624D03*
D13*
X40797763Y-49778623D03*
D14*
X40297764Y-49766624D03*
D10*
X87309014Y-110326124D03*
X87309014Y-114126124D03*
X262001814Y-96776124D03*
X262001814Y-100576124D03*
X242951814Y-91276124D03*
X242951814Y-95076124D03*
D13*
X73497763Y-56838623D03*
D14*
X72997764Y-56816624D03*
X73997764Y-58340624D03*
D13*
X73497763Y-58338623D03*
D15*
X78897764Y-58328624D03*
D13*
X78897763Y-56828623D03*
D14*
X78397764Y-56816624D03*
D10*
X49209014Y-70676124D03*
X49209014Y-74476124D03*
D13*
X286290563Y-49788623D03*
D14*
X285790564Y-49766624D03*
X286790564Y-51290624D03*
D13*
X286290563Y-51288623D03*
D15*
X291690564Y-51278624D03*
D13*
X291690563Y-49778623D03*
D14*
X291190564Y-49766624D03*
D13*
X73497763Y-37788623D03*
D14*
X72997764Y-37766624D03*
X73997764Y-39290624D03*
D13*
X73497763Y-39288623D03*
D15*
X78897764Y-39278624D03*
D13*
X78897763Y-37778623D03*
D14*
X78397764Y-37766624D03*
D13*
X253587199Y-123064999D03*
D14*
X254087200Y-123053000D03*
X253087200Y-124565000D03*
D13*
X253587199Y-124564999D03*
D15*
X248187200Y-124575000D03*
D13*
X248187199Y-123074999D03*
D14*
X248687200Y-123065000D03*
D10*
X125409014Y-61176124D03*
X125409014Y-64976124D03*
X204851814Y-61176124D03*
X204851814Y-64976124D03*
X167361125Y-99017500D03*
X167361125Y-102817500D03*
D11*
X147408720Y-137628994D03*
X150932019Y-139052499D03*
D13*
X253587199Y-84914999D03*
D14*
X254087200Y-84903000D03*
X253087200Y-86415000D03*
D13*
X253587199Y-86414999D03*
D15*
X248187200Y-86425000D03*
D13*
X248187199Y-84924999D03*
D14*
X248687200Y-84915000D03*
D10*
X300101814Y-89726124D03*
X300101814Y-93526124D03*
D13*
X215487199Y-92944999D03*
D14*
X215987200Y-92933000D03*
X214987200Y-94445000D03*
D13*
X215487199Y-94444999D03*
D15*
X210087200Y-94455000D03*
D13*
X210087199Y-92954999D03*
D14*
X210587200Y-92945000D03*
D13*
X130647763Y-97438623D03*
D14*
X130147764Y-97416624D03*
X131147764Y-98940624D03*
D13*
X130647763Y-98938623D03*
D15*
X136047764Y-98928624D03*
D13*
X136047763Y-97428623D03*
D14*
X135547764Y-97416624D03*
D10*
X68259014Y-96776124D03*
X68259014Y-100576124D03*
D13*
X248190563Y-89438623D03*
D14*
X247690564Y-89416624D03*
X248690564Y-90940624D03*
D13*
X248190563Y-90938623D03*
D15*
X253590564Y-90928624D03*
D13*
X253590563Y-89428623D03*
D14*
X253090564Y-89416624D03*
D13*
X111597763Y-37788623D03*
D14*
X111097764Y-37766624D03*
X112097764Y-39290624D03*
D13*
X111597763Y-39288623D03*
D15*
X116997764Y-39278624D03*
D13*
X116997763Y-37778623D03*
D14*
X116497764Y-37766624D03*
D13*
X229140563Y-37788623D03*
D14*
X228640564Y-37766624D03*
X229640564Y-39290624D03*
D13*
X229140563Y-39288623D03*
D15*
X234540564Y-39278624D03*
D13*
X234540563Y-37778623D03*
D14*
X234040564Y-37766624D03*
D10*
X223901814Y-96776124D03*
X223901814Y-100576124D03*
D13*
X142716381Y-140753611D03*
D14*
X143216382Y-140741612D03*
X142216382Y-142253612D03*
D13*
X142716381Y-142253611D03*
D15*
X137316382Y-142263612D03*
D13*
X137316381Y-140763611D03*
D14*
X137816382Y-140753612D03*
D10*
X300101814Y-51626124D03*
X300101814Y-55426124D03*
D13*
X267240563Y-113988623D03*
D14*
X266740564Y-113966624D03*
X267740564Y-115490624D03*
D13*
X267240563Y-115488623D03*
D15*
X272640564Y-115478624D03*
D13*
X272640563Y-113978623D03*
D14*
X272140564Y-113966624D03*
D13*
X54447763Y-68838623D03*
D14*
X53947764Y-68816624D03*
X54947764Y-70340624D03*
D13*
X54447763Y-70338623D03*
D15*
X59847764Y-70328624D03*
D13*
X59847763Y-68828623D03*
D14*
X59347764Y-68816624D03*
D13*
X208914653Y-140851287D03*
D14*
X209414654Y-140839288D03*
X208414654Y-142351288D03*
D13*
X208914653Y-142351287D03*
D15*
X203514654Y-142361288D03*
D13*
X203514653Y-140861287D03*
D14*
X204014654Y-140851288D03*
D10*
X106359014Y-58676124D03*
X106359014Y-62476124D03*
D13*
X210090563Y-40288623D03*
D14*
X209590564Y-40266624D03*
X210590564Y-41790624D03*
D13*
X210090563Y-41788623D03*
D15*
X215490564Y-41778624D03*
D13*
X215490563Y-40278623D03*
D14*
X214990564Y-40266624D03*
D13*
X35397763Y-87888623D03*
D14*
X34897764Y-87866624D03*
X35897764Y-89390624D03*
D13*
X35397763Y-89388623D03*
D15*
X40797764Y-89378624D03*
D13*
X40797763Y-87878623D03*
D14*
X40297764Y-87866624D03*
D13*
X111597763Y-75888623D03*
D14*
X111097764Y-75866624D03*
X112097764Y-77390624D03*
D13*
X111597763Y-77388623D03*
D15*
X116997764Y-77378624D03*
D13*
X116997763Y-75878623D03*
D14*
X116497764Y-75866624D03*
D13*
X229140563Y-56838623D03*
D14*
X228640564Y-56816624D03*
X229640564Y-58340624D03*
D13*
X229140563Y-58338623D03*
D15*
X234540564Y-58328624D03*
D13*
X234540563Y-56828623D03*
D14*
X234040564Y-56816624D03*
D16*
X172693600Y-78452885D03*
X172693600Y-79202885D03*
X172693600Y-79952885D03*
X172693600Y-80702885D03*
D13*
X92547763Y-70388623D03*
D14*
X92047764Y-70366624D03*
X93047764Y-71890624D03*
D13*
X92547763Y-71888623D03*
D15*
X97947764Y-71878624D03*
D13*
X97947763Y-70378623D03*
D14*
X97447764Y-70366624D03*
D17*
X32499999Y-113349999D03*
D18*
X33020000Y-112750000D03*
D19*
X35560000Y-117830000D03*
D20*
X38100000Y-112750000D03*
D19*
X41910000Y-115290000D03*
D18*
X43180000Y-112750000D03*
D17*
X43699999Y-113349999D03*
D21*
X45184999Y-115289999D03*
D22*
X32258000Y-117830000D03*
D23*
X35599999Y-120849999D03*
D24*
X40600000Y-120850000D03*
X38100000Y-120850000D03*
X35600000Y-106350000D03*
X40600000Y-106350000D03*
D10*
X223901814Y-77726124D03*
X223901814Y-81526124D03*
X223901814Y-58676124D03*
X223901814Y-62476124D03*
D13*
X97949999Y-46844999D03*
D14*
X98450000Y-46833000D03*
X97450000Y-48345000D03*
D13*
X97949999Y-48344999D03*
D15*
X92550000Y-48355000D03*
D13*
X92549999Y-46854999D03*
D14*
X93050000Y-46845000D03*
D13*
X73497763Y-113988623D03*
D14*
X72997764Y-113966624D03*
X73997764Y-115490624D03*
D13*
X73497763Y-115488623D03*
D15*
X78897764Y-115478624D03*
D13*
X78897763Y-113978623D03*
D14*
X78397764Y-113966624D03*
D10*
X262001814Y-77726124D03*
X262001814Y-81526124D03*
D13*
X35399999Y-108209999D03*
D14*
X34900000Y-108188000D03*
X35900000Y-109712000D03*
D13*
X35399999Y-109709999D03*
D15*
X40800000Y-109700000D03*
D13*
X40799999Y-108199999D03*
D14*
X40300000Y-108188000D03*
D13*
X305337199Y-108209999D03*
D14*
X304837200Y-108188000D03*
X305837200Y-109712000D03*
D13*
X305337199Y-109709999D03*
D15*
X310737200Y-109700000D03*
D13*
X310737199Y-108199999D03*
D14*
X310237200Y-108188000D03*
D13*
X286290563Y-68838623D03*
D14*
X285790564Y-68816624D03*
X286790564Y-70340624D03*
D13*
X286290563Y-70338623D03*
D15*
X291690564Y-70328624D03*
D13*
X291690563Y-68828623D03*
D14*
X291190564Y-68816624D03*
D13*
X73497763Y-75888623D03*
D14*
X72997764Y-75866624D03*
X73997764Y-77390624D03*
D13*
X73497763Y-77388623D03*
D15*
X78897764Y-77378624D03*
D13*
X78897763Y-75878623D03*
D14*
X78397764Y-75866624D03*
D10*
X262001814Y-58676124D03*
X262001814Y-62476124D03*
D16*
X173443600Y-78452885D03*
X173443600Y-79202885D03*
X173443600Y-79952885D03*
X173443600Y-80702885D03*
D13*
X111597763Y-56838623D03*
D14*
X111097764Y-56816624D03*
X112097764Y-58340624D03*
D13*
X111597763Y-58338623D03*
D15*
X116997764Y-58328624D03*
D13*
X116997763Y-56828623D03*
D14*
X116497764Y-56816624D03*
D13*
X210090563Y-59338623D03*
D14*
X209590564Y-59316624D03*
X210590564Y-60840624D03*
D13*
X210090563Y-60838623D03*
D15*
X215490564Y-60828624D03*
D13*
X215490563Y-59328623D03*
D14*
X214990564Y-59316624D03*
D13*
X229140563Y-75888623D03*
D14*
X228640564Y-75866624D03*
X229640564Y-77390624D03*
D13*
X229140563Y-77388623D03*
D15*
X234540564Y-77378624D03*
D13*
X234540563Y-75878623D03*
D14*
X234040564Y-75866624D03*
D10*
X223901814Y-39626124D03*
X223901814Y-43426124D03*
D13*
X248190563Y-32288623D03*
D14*
X247690564Y-32266624D03*
X248690564Y-33790624D03*
D13*
X248190563Y-33788623D03*
D15*
X253590564Y-33778624D03*
D13*
X253590563Y-32278623D03*
D14*
X253090564Y-32266624D03*
D25*
X196415807Y-127238668D03*
D14*
X196248903Y-126766836D03*
X195210481Y-128264920D03*
D25*
X195025031Y-127800578D03*
D26*
X197057180Y-132803626D03*
D25*
X198447955Y-132241715D03*
D14*
X198271779Y-131773629D03*
D10*
X125409014Y-99276124D03*
X125409014Y-103076124D03*
D13*
X301212199Y-102469999D03*
D14*
X301712200Y-102458000D03*
X300712200Y-103970000D03*
D13*
X301212199Y-103969999D03*
D15*
X295812200Y-103980000D03*
D13*
X295812199Y-102479999D03*
D14*
X296312200Y-102470000D03*
D13*
X130647763Y-78388623D03*
D14*
X130147764Y-78366624D03*
X131147764Y-79890624D03*
D13*
X130647763Y-79888623D03*
D15*
X136047764Y-79878624D03*
D13*
X136047763Y-78378623D03*
D14*
X135547764Y-78366624D03*
D10*
X281051814Y-89726124D03*
X281051814Y-93526124D03*
D13*
X136049999Y-92979999D03*
D14*
X136550000Y-92968000D03*
X135550000Y-94480000D03*
D13*
X136049999Y-94479999D03*
D15*
X130650000Y-94490000D03*
D13*
X130649999Y-92989999D03*
D14*
X131150000Y-92980000D03*
D10*
X68259014Y-58676124D03*
X68259014Y-62476124D03*
D13*
X286290563Y-106938623D03*
D14*
X285790564Y-106916624D03*
X286790564Y-108440624D03*
D13*
X286290563Y-108438623D03*
D15*
X291690564Y-108428624D03*
D13*
X291690563Y-106928623D03*
D14*
X291190564Y-106916624D03*
D10*
X106359014Y-39626124D03*
X106359014Y-43426124D03*
D13*
X130647763Y-59338623D03*
D14*
X130147764Y-59316624D03*
X131147764Y-60840624D03*
D13*
X130647763Y-60838623D03*
D15*
X136047764Y-60828624D03*
D13*
X136047763Y-59328623D03*
D14*
X135547764Y-59316624D03*
D10*
X204851814Y-42126124D03*
X204851814Y-45926124D03*
D13*
X92547763Y-108488623D03*
D14*
X92047764Y-108466624D03*
X93047764Y-109990624D03*
D13*
X92547763Y-109988623D03*
D15*
X97947764Y-109978624D03*
D13*
X97947763Y-108478623D03*
D14*
X97447764Y-108466624D03*
D13*
X210090563Y-78388623D03*
D14*
X209590564Y-78366624D03*
X210590564Y-79890624D03*
D13*
X210090563Y-79888623D03*
D15*
X215490564Y-79878624D03*
D13*
X215490563Y-78378623D03*
D14*
X214990564Y-78366624D03*
D13*
X305340563Y-87888623D03*
D14*
X304840564Y-87866624D03*
X305840564Y-89390624D03*
D13*
X305340563Y-89388623D03*
D15*
X310740564Y-89378624D03*
D13*
X310740563Y-87878623D03*
D14*
X310240564Y-87866624D03*
D10*
X143928750Y-41377500D03*
X143928750Y-45177500D03*
D13*
X305340563Y-49788623D03*
D14*
X304840564Y-49766624D03*
X305840564Y-51290624D03*
D13*
X305340563Y-51288623D03*
D15*
X310740564Y-51278624D03*
D13*
X310740563Y-49778623D03*
D14*
X310240564Y-49766624D03*
D10*
X49209014Y-108776124D03*
X49209014Y-112576124D03*
D13*
X92547763Y-32288623D03*
D14*
X92047764Y-32266624D03*
X93047764Y-33790624D03*
D13*
X92547763Y-33788623D03*
D15*
X97947764Y-33778624D03*
D13*
X97947763Y-32278623D03*
D14*
X97447764Y-32266624D03*
D13*
X35397763Y-68838623D03*
D14*
X34897764Y-68816624D03*
X35897764Y-70340624D03*
D13*
X35397763Y-70338623D03*
D15*
X40797764Y-70328624D03*
D13*
X40797763Y-68828623D03*
D14*
X40297764Y-68816624D03*
D13*
X210090563Y-97438623D03*
D14*
X209590564Y-97416624D03*
X210590564Y-98940624D03*
D13*
X210090563Y-98938623D03*
D15*
X215490564Y-98928624D03*
D13*
X215490563Y-97428623D03*
D14*
X214990564Y-97416624D03*
D13*
X111597763Y-94938623D03*
D14*
X111097764Y-94916624D03*
X112097764Y-96440624D03*
D13*
X111597763Y-96438623D03*
D15*
X116997764Y-96428624D03*
D13*
X116997763Y-94928623D03*
D14*
X116497764Y-94916624D03*
D10*
X68259014Y-39626124D03*
X68259014Y-43426124D03*
D13*
X111597763Y-113988623D03*
D14*
X111097764Y-113966624D03*
X112097764Y-115490624D03*
D13*
X111597763Y-115488623D03*
D15*
X116997764Y-115478624D03*
D13*
X116997763Y-113978623D03*
D14*
X116497764Y-113966624D03*
D10*
X281051814Y-108776124D03*
X281051814Y-112576124D03*
D13*
X50324999Y-64349999D03*
D14*
X50825000Y-64338000D03*
X49825000Y-65850000D03*
D13*
X50324999Y-65849999D03*
D15*
X44925000Y-65860000D03*
D13*
X44924999Y-64359999D03*
D14*
X45425000Y-64350000D03*
D10*
X281051814Y-70676124D03*
X281051814Y-74476124D03*
D13*
X248190563Y-70388623D03*
D14*
X247690564Y-70366624D03*
X248690564Y-71890624D03*
D13*
X248190563Y-71888623D03*
D15*
X253590564Y-71878624D03*
D13*
X253590563Y-70378623D03*
D14*
X253090564Y-70366624D03*
D27*
X147790115Y-132145209D03*
D14*
X147582415Y-132600561D03*
X149370050Y-132244277D03*
D27*
X149180891Y-132707119D03*
D28*
X151194496Y-127696581D03*
D27*
X149803719Y-127134670D03*
D14*
X149605290Y-127593768D03*
D17*
X302437199Y-113349999D03*
D18*
X302957200Y-112750000D03*
D19*
X305497200Y-117830000D03*
D20*
X308037200Y-112750000D03*
D19*
X311847200Y-115290000D03*
D18*
X313117200Y-112750000D03*
D17*
X313637199Y-113349999D03*
D21*
X315122199Y-115289999D03*
D22*
X302195200Y-117830000D03*
D23*
X305537199Y-120849999D03*
D24*
X310537200Y-120850000D03*
X308037200Y-120850000D03*
X305537200Y-106350000D03*
X310537200Y-106350000D03*
D13*
X286290563Y-87888623D03*
D14*
X285790564Y-87866624D03*
X286790564Y-89390624D03*
D13*
X286290563Y-89388623D03*
D15*
X291690564Y-89378624D03*
D13*
X291690563Y-87878623D03*
D14*
X291190564Y-87866624D03*
D13*
X267240563Y-75888623D03*
D14*
X266740564Y-75866624D03*
X267740564Y-77390624D03*
D13*
X267240563Y-77388623D03*
D15*
X272640564Y-77378624D03*
D13*
X272640563Y-75878623D03*
D14*
X272140564Y-75866624D03*
D10*
X175848750Y-41927500D03*
X175848750Y-45727500D03*
D13*
X215487199Y-54904999D03*
D14*
X215987200Y-54893000D03*
X214987200Y-56405000D03*
D13*
X215487199Y-56404999D03*
D15*
X210087200Y-56415000D03*
D13*
X210087199Y-54914999D03*
D14*
X210587200Y-54905000D03*
D13*
X248190563Y-108488623D03*
D14*
X247690564Y-108466624D03*
X248690564Y-109990624D03*
D13*
X248190563Y-109988623D03*
D15*
X253590564Y-109978624D03*
D13*
X253590563Y-108478623D03*
D14*
X253090564Y-108466624D03*
D10*
X106359014Y-115826124D03*
X106359014Y-119626124D03*
X87309014Y-72226124D03*
X87309014Y-76026124D03*
X125409014Y-80226124D03*
X125409014Y-84026124D03*
X87309014Y-91276124D03*
X87309014Y-95076124D03*
X204851814Y-99276124D03*
X204851814Y-103076124D03*
X49209014Y-51626124D03*
X49209014Y-55426124D03*
D13*
X253534999Y-46874999D03*
D14*
X254035000Y-46863000D03*
X253035000Y-48375000D03*
D13*
X253534999Y-48374999D03*
D15*
X248135000Y-48385000D03*
D13*
X248134999Y-46884999D03*
D14*
X248635000Y-46875000D03*
D13*
X73497763Y-94938623D03*
D14*
X72997764Y-94916624D03*
X73997764Y-96440624D03*
D13*
X73497763Y-96438623D03*
D15*
X78897764Y-96428624D03*
D13*
X78897763Y-94928623D03*
D14*
X78397764Y-94916624D03*
D10*
X242951814Y-72226124D03*
X242951814Y-76026124D03*
D13*
X97949999Y-84979999D03*
D14*
X98450000Y-84968000D03*
X97450000Y-86480000D03*
D13*
X97949999Y-86479999D03*
D15*
X92550000Y-86490000D03*
D13*
X92549999Y-84989999D03*
D14*
X93050000Y-84980000D03*
D13*
X229140563Y-94938623D03*
D14*
X228640564Y-94916624D03*
X229640564Y-96440624D03*
D13*
X229140563Y-96438623D03*
D15*
X234540564Y-96428624D03*
D13*
X234540563Y-94928623D03*
D14*
X234040564Y-94916624D03*
D13*
X50324999Y-102499999D03*
D14*
X50825000Y-102488000D03*
X49825000Y-104000000D03*
D13*
X50324999Y-103999999D03*
D15*
X44925000Y-104010000D03*
D13*
X44924999Y-102509999D03*
D14*
X45425000Y-102500000D03*
D13*
X305340563Y-68838623D03*
D14*
X304840564Y-68816624D03*
X305840564Y-70340624D03*
D13*
X305340563Y-70338623D03*
D15*
X310740564Y-70328624D03*
D13*
X310740563Y-68828623D03*
D14*
X310240564Y-68816624D03*
D10*
X204851814Y-80226124D03*
X204851814Y-84026124D03*
D13*
X54447763Y-87888623D03*
D14*
X53947764Y-87866624D03*
X54947764Y-89390624D03*
D13*
X54447763Y-89388623D03*
D15*
X59847764Y-89378624D03*
D13*
X59847763Y-87878623D03*
D14*
X59347764Y-87866624D03*
D10*
X223901814Y-115826124D03*
X223901814Y-119626124D03*
X106359014Y-77726124D03*
X106359014Y-81526124D03*
D13*
X301212199Y-64389999D03*
D14*
X301712200Y-64378000D03*
X300712200Y-65890000D03*
D13*
X301212199Y-65889999D03*
D15*
X295812200Y-65900000D03*
D13*
X295812199Y-64399999D03*
D14*
X296312200Y-64390000D03*
D10*
X300101814Y-70676124D03*
X300101814Y-74476124D03*
X195721125Y-99187500D03*
X195721125Y-102987500D03*
D13*
X54447763Y-106938623D03*
D14*
X53947764Y-106916624D03*
X54947764Y-108440624D03*
D13*
X54447763Y-108438623D03*
D15*
X59847764Y-108428624D03*
D13*
X59847763Y-106928623D03*
D14*
X59347764Y-106916624D03*
D12*
X212599637Y-120933425D03*
X209076339Y-122356930D03*
D10*
X30159014Y-70676124D03*
X30159014Y-74476124D03*
D13*
X97904999Y-123084999D03*
D14*
X98405000Y-123073000D03*
X97405000Y-124585000D03*
D13*
X97904999Y-124584999D03*
D15*
X92505000Y-124595000D03*
D13*
X92504999Y-123094999D03*
D14*
X93005000Y-123085000D03*
D10*
X106359014Y-96776124D03*
X106359014Y-100576124D03*
D13*
X267240563Y-56838623D03*
D14*
X266740564Y-56816624D03*
X267740564Y-58340624D03*
D13*
X267240563Y-58338623D03*
D15*
X272640564Y-58328624D03*
D13*
X272640563Y-56828623D03*
D14*
X272140564Y-56816624D03*
D13*
X136204999Y-54834999D03*
D14*
X136705000Y-54823000D03*
X135705000Y-56335000D03*
D13*
X136204999Y-56334999D03*
D15*
X130805000Y-56345000D03*
D13*
X130804999Y-54844999D03*
D14*
X131305000Y-54835000D03*
D13*
X267240563Y-37788623D03*
D14*
X266740564Y-37766624D03*
X267740564Y-39290624D03*
D13*
X267240563Y-39288623D03*
D15*
X272640564Y-39278624D03*
D13*
X272640563Y-37778623D03*
D14*
X272140564Y-37766624D03*
D10*
X30026375Y-108826750D03*
X30026375Y-112626750D03*
X262001814Y-115826124D03*
X262001814Y-119626124D03*
D25*
X216265807Y-125102368D03*
D14*
X216098903Y-124630536D03*
X215060481Y-126128620D03*
D25*
X214875031Y-125664278D03*
D26*
X216907180Y-130667326D03*
D25*
X218297955Y-130105415D03*
D14*
X218121779Y-129637329D03*
D10*
X68259014Y-77726124D03*
X68259014Y-81526124D03*
X281051814Y-51626124D03*
X281051814Y-55426124D03*
D13*
X229140563Y-113988623D03*
D14*
X228640564Y-113966624D03*
X229640564Y-115490624D03*
D13*
X229140563Y-115488623D03*
D15*
X234540564Y-115478624D03*
D13*
X234540563Y-113978623D03*
D14*
X234040564Y-113966624D03*
D10*
X49209014Y-89726124D03*
X49209014Y-93526124D03*
D13*
X248190563Y-51338623D03*
D14*
X247690564Y-51316624D03*
X248690564Y-52840624D03*
D13*
X248190563Y-52838623D03*
D15*
X253590564Y-52828624D03*
D13*
X253590563Y-51328623D03*
D14*
X253090564Y-51316624D03*
D10*
X68259014Y-115826124D03*
X68259014Y-119626124D03*
D27*
X127940115Y-130021509D03*
D14*
X127732415Y-130476861D03*
X129520050Y-130120577D03*
D27*
X129330891Y-130583419D03*
D28*
X131344496Y-125572881D03*
D27*
X129953719Y-125010970D03*
D14*
X129755290Y-125470068D03*
D13*
X54447763Y-49788623D03*
D14*
X53947764Y-49766624D03*
X54947764Y-51290624D03*
D13*
X54447763Y-51288623D03*
D15*
X59847764Y-51278624D03*
D13*
X59847763Y-49778623D03*
D14*
X59347764Y-49766624D03*
D10*
X300101814Y-108776124D03*
X300101814Y-112576124D03*
X262001814Y-39626124D03*
X262001814Y-43426124D03*
D13*
X92547763Y-89438623D03*
D14*
X92047764Y-89416624D03*
X93047764Y-90940624D03*
D13*
X92547763Y-90938623D03*
D15*
X97947764Y-90928624D03*
D13*
X97947763Y-89428623D03*
D14*
X97447764Y-89416624D03*
D13*
X92547763Y-51338623D03*
D14*
X92047764Y-51316624D03*
X93047764Y-52840624D03*
D13*
X92547763Y-52838623D03*
D15*
X97947764Y-52828624D03*
D13*
X97947763Y-51328623D03*
D14*
X97447764Y-51316624D03*
D10*
X242951814Y-34126124D03*
X242951814Y-37926124D03*
D13*
X130647763Y-40288623D03*
D14*
X130147764Y-40266624D03*
X131147764Y-41790624D03*
D13*
X130647763Y-41788623D03*
D15*
X136047764Y-41778624D03*
D13*
X136047763Y-40278623D03*
D14*
X135547764Y-40266624D03*
D10*
X30159014Y-51626124D03*
X30159014Y-55426124D03*
X87309014Y-34126124D03*
X87309014Y-37926124D03*
X87309014Y-53176124D03*
X87309014Y-56976124D03*
X30159014Y-89726124D03*
X30159014Y-93526124D03*
D13*
X267240563Y-94938623D03*
D14*
X266740564Y-94916624D03*
X267740564Y-96440624D03*
D13*
X267240563Y-96438623D03*
D15*
X272640564Y-96428624D03*
D13*
X272640563Y-94928623D03*
D14*
X272140564Y-94916624D03*
D10*
X242951814Y-110326124D03*
X242951814Y-114126124D03*
D18*
X152294763Y-136532118D03*
D29*
X154197764Y-131822024D03*
D18*
X156100765Y-127111930D03*
D30*
X157980062Y-129240954D03*
D31*
X159309916Y-125949452D03*
X156626504Y-139371575D03*
D30*
X157956357Y-136080072D03*
D32*
X150147807Y-144123738D03*
X150147807Y-145073738D03*
X150147807Y-146023738D03*
X147547807Y-146023738D03*
X147547807Y-144123738D03*
D18*
X128267764Y-103258624D03*
D29*
X133347764Y-103258624D03*
D18*
X138427764Y-103258624D03*
D30*
X137157764Y-105798624D03*
D33*
X140707764Y-105798624D03*
X127257764Y-108338624D03*
D30*
X130807764Y-108338624D03*
D18*
X283910564Y-112758624D03*
D29*
X288990564Y-112758624D03*
D18*
X294070564Y-112758624D03*
D30*
X292800564Y-115298624D03*
D33*
X296350564Y-115298624D03*
X282900564Y-117838624D03*
D30*
X286450564Y-117838624D03*
D18*
X52067764Y-112758624D03*
D29*
X57147764Y-112758624D03*
D18*
X62227764Y-112758624D03*
D30*
X60957764Y-115298624D03*
D33*
X64507764Y-115298624D03*
X51057764Y-117838624D03*
D30*
X54607764Y-117838624D03*
D18*
X283910564Y-55608624D03*
D29*
X288990564Y-55608624D03*
D18*
X294070564Y-55608624D03*
D30*
X292800564Y-58148624D03*
D33*
X296350564Y-58148624D03*
X282900564Y-60688624D03*
D30*
X286450564Y-60688624D03*
D18*
X71117764Y-43608624D03*
D29*
X76197764Y-43608624D03*
D18*
X81277764Y-43608624D03*
D30*
X80007764Y-46148624D03*
D33*
X83557764Y-46148624D03*
X70107764Y-48688624D03*
D30*
X73657764Y-48688624D03*
D18*
X264860564Y-100758624D03*
D29*
X269940564Y-100758624D03*
D18*
X275020564Y-100758624D03*
D30*
X273750564Y-103298624D03*
D33*
X277300564Y-103298624D03*
X263850564Y-105838624D03*
D30*
X267400564Y-105838624D03*
D18*
X302960564Y-74658624D03*
D29*
X308040564Y-74658624D03*
D18*
X313120564Y-74658624D03*
D30*
X311850564Y-77198624D03*
D33*
X315400564Y-77198624D03*
X301950564Y-79738624D03*
D30*
X305500564Y-79738624D03*
D18*
X109217764Y-81708624D03*
D29*
X114297764Y-81708624D03*
D18*
X119377764Y-81708624D03*
D30*
X118107764Y-84248624D03*
D33*
X121657764Y-84248624D03*
X108207764Y-86788624D03*
D30*
X111757764Y-86788624D03*
D18*
X283910564Y-74658624D03*
D29*
X288990564Y-74658624D03*
D18*
X294070564Y-74658624D03*
D30*
X292800564Y-77198624D03*
D33*
X296350564Y-77198624D03*
X282900564Y-79738624D03*
D30*
X286450564Y-79738624D03*
D18*
X132444763Y-134408418D03*
D29*
X134347764Y-129698324D03*
D18*
X136250765Y-124988230D03*
D30*
X138130062Y-127117254D03*
D31*
X139459916Y-123825752D03*
X136776504Y-137247875D03*
D30*
X138106357Y-133956372D03*
D32*
X196083226Y-146119414D03*
X196083226Y-145169414D03*
X196083226Y-144219414D03*
X198683226Y-144219414D03*
X198683226Y-146119414D03*
D18*
X302960564Y-55608624D03*
D29*
X308040564Y-55608624D03*
D18*
X313120564Y-55608624D03*
D30*
X311850564Y-58148624D03*
D33*
X315400564Y-58148624D03*
X301950564Y-60688624D03*
D30*
X305500564Y-60688624D03*
D18*
X245810564Y-95258624D03*
D29*
X250890564Y-95258624D03*
D18*
X255970564Y-95258624D03*
D30*
X254700564Y-97798624D03*
D33*
X258250564Y-97798624D03*
X244800564Y-100338624D03*
D30*
X248350564Y-100338624D03*
D24*
X316337200Y-121050000D03*
D18*
X209978035Y-125075882D03*
D29*
X211881036Y-129785976D03*
D18*
X213784037Y-134496070D03*
D30*
X210953240Y-134270047D03*
D34*
X212283094Y-137561550D03*
X204889588Y-126042428D03*
D30*
X206219441Y-129333931D03*
D18*
X245810564Y-114308624D03*
D29*
X250890564Y-114308624D03*
D18*
X255970564Y-114308624D03*
D30*
X254700564Y-116848624D03*
D33*
X258250564Y-116848624D03*
X244800564Y-119388624D03*
D30*
X248350564Y-119388624D03*
D24*
X29787764Y-47298624D03*
D35*
X197935799Y-39114999D03*
D36*
X198835799Y-39114999D03*
D35*
X197935799Y-41654999D03*
D36*
X198835799Y-41654999D03*
D37*
X197935799Y-44194999D03*
D36*
X198835799Y-44194999D03*
D35*
X197935799Y-46734999D03*
D36*
X198835799Y-46734999D03*
D35*
X197935799Y-49274999D03*
D36*
X198835799Y-49274999D03*
D35*
X197935799Y-51814999D03*
D36*
X198835799Y-51814999D03*
D35*
X197935799Y-54354999D03*
D36*
X198835799Y-54354999D03*
D37*
X197935799Y-56894999D03*
D36*
X198835799Y-56894999D03*
D35*
X197935799Y-59434999D03*
D36*
X198835799Y-59434999D03*
D35*
X197935799Y-61974999D03*
D36*
X198835799Y-61974999D03*
D35*
X197935799Y-64514999D03*
D36*
X198835799Y-64514999D03*
D35*
X197935799Y-67054999D03*
D36*
X198835799Y-67054999D03*
D37*
X197935799Y-69594999D03*
D36*
X198835799Y-69594999D03*
D35*
X197935799Y-72134999D03*
D36*
X198835799Y-72134999D03*
D35*
X197935799Y-74674999D03*
D36*
X198835799Y-74674999D03*
D35*
X197935799Y-77214999D03*
D36*
X198835799Y-77214999D03*
D35*
X197935799Y-79754999D03*
D36*
X198835799Y-79754999D03*
D37*
X197935799Y-82294999D03*
D36*
X198835799Y-82294999D03*
D35*
X197935799Y-84834999D03*
D36*
X198835799Y-84834999D03*
D35*
X197935799Y-87374999D03*
D36*
X198835799Y-87374999D03*
D35*
X180155799Y-87374999D03*
D36*
X179255799Y-87374999D03*
D35*
X180155799Y-84834999D03*
D36*
X179255799Y-84834999D03*
D37*
X180155799Y-82294999D03*
D36*
X179255799Y-82294999D03*
D35*
X180155799Y-79754999D03*
D36*
X179255799Y-79754999D03*
D35*
X180155799Y-77214999D03*
D36*
X179255799Y-77214999D03*
D35*
X180155799Y-74674999D03*
D36*
X179255799Y-74674999D03*
D35*
X180155799Y-72134999D03*
D36*
X179255799Y-72134999D03*
D37*
X180155799Y-69594999D03*
D36*
X179255799Y-69594999D03*
D35*
X180155799Y-67054999D03*
D36*
X179255799Y-67054999D03*
D35*
X180155799Y-64514999D03*
D36*
X179255799Y-64514999D03*
D35*
X180155799Y-61974999D03*
D36*
X179255799Y-61974999D03*
D35*
X180155799Y-59434999D03*
D36*
X179255799Y-59434999D03*
D37*
X180155799Y-56894999D03*
D36*
X179255799Y-56894999D03*
D35*
X180155799Y-54354999D03*
D36*
X179255799Y-54354999D03*
D35*
X180155799Y-51814999D03*
D36*
X179255799Y-51814999D03*
D35*
X180155799Y-49274999D03*
D36*
X179255799Y-49274999D03*
D35*
X180155799Y-46734999D03*
D36*
X179255799Y-46734999D03*
D37*
X180155799Y-44194999D03*
D36*
X179255799Y-44194999D03*
D35*
X180155799Y-41654999D03*
D36*
X179255799Y-41654999D03*
D35*
X180155799Y-39114999D03*
D36*
X179255799Y-39114999D03*
D35*
X191585799Y-87144999D03*
D38*
X191585799Y-88044999D03*
D37*
X189045799Y-87144999D03*
D38*
X189045799Y-88044999D03*
D35*
X186505799Y-87144999D03*
D38*
X186505799Y-88044999D03*
D18*
X109217764Y-119808624D03*
D29*
X114297764Y-119808624D03*
D18*
X119377764Y-119808624D03*
D30*
X118107764Y-122348624D03*
D33*
X121657764Y-122348624D03*
X108207764Y-124888624D03*
D30*
X111757764Y-124888624D03*
D24*
X316350564Y-47298624D03*
D18*
X245810564Y-57158624D03*
D29*
X250890564Y-57158624D03*
D18*
X255970564Y-57158624D03*
D30*
X254700564Y-59698624D03*
D33*
X258250564Y-59698624D03*
X244800564Y-62238624D03*
D30*
X248350564Y-62238624D03*
D18*
X128267764Y-46108624D03*
D29*
X133347764Y-46108624D03*
D18*
X138427764Y-46108624D03*
D30*
X137157764Y-48648624D03*
D33*
X140707764Y-48648624D03*
X127257764Y-51188624D03*
D30*
X130807764Y-51188624D03*
D18*
X245810564Y-76208624D03*
D29*
X250890564Y-76208624D03*
D18*
X255970564Y-76208624D03*
D30*
X254700564Y-78748624D03*
D33*
X258250564Y-78748624D03*
X244800564Y-81288624D03*
D30*
X248350564Y-81288624D03*
D18*
X71117764Y-119808624D03*
D29*
X76197764Y-119808624D03*
D18*
X81277764Y-119808624D03*
D30*
X80007764Y-122348624D03*
D33*
X83557764Y-122348624D03*
X70107764Y-124888624D03*
D30*
X73657764Y-124888624D03*
D18*
X302960564Y-93708624D03*
D29*
X308040564Y-93708624D03*
D18*
X313120564Y-93708624D03*
D30*
X311850564Y-96248624D03*
D33*
X315400564Y-96248624D03*
X301950564Y-98788624D03*
D30*
X305500564Y-98788624D03*
D18*
X52067764Y-93708624D03*
D29*
X57147764Y-93708624D03*
D18*
X62227764Y-93708624D03*
D30*
X60957764Y-96248624D03*
D33*
X64507764Y-96248624D03*
X51057764Y-98788624D03*
D30*
X54607764Y-98788624D03*
D18*
X33017764Y-93708624D03*
D29*
X38097764Y-93708624D03*
D18*
X43177764Y-93708624D03*
D30*
X41907764Y-96248624D03*
D33*
X45457764Y-96248624D03*
X32007764Y-98788624D03*
D30*
X35557764Y-98788624D03*
D18*
X90167764Y-38108624D03*
D29*
X95247764Y-38108624D03*
D18*
X100327764Y-38108624D03*
D30*
X99057764Y-40648624D03*
D33*
X102607764Y-40648624D03*
X89157764Y-43188624D03*
D30*
X92707764Y-43188624D03*
D18*
X90167764Y-76208624D03*
D29*
X95247764Y-76208624D03*
D18*
X100327764Y-76208624D03*
D30*
X99057764Y-78748624D03*
D33*
X102607764Y-78748624D03*
X89157764Y-81288624D03*
D30*
X92707764Y-81288624D03*
D18*
X109217764Y-43608624D03*
D29*
X114297764Y-43608624D03*
D18*
X119377764Y-43608624D03*
D30*
X118107764Y-46148624D03*
D33*
X121657764Y-46148624D03*
X108207764Y-48688624D03*
D30*
X111757764Y-48688624D03*
D18*
X207710564Y-46108624D03*
D29*
X212790564Y-46108624D03*
D18*
X217870564Y-46108624D03*
D30*
X216600564Y-48648624D03*
D33*
X220150564Y-48648624D03*
X206700564Y-51188624D03*
D30*
X210250564Y-51188624D03*
D18*
X71117764Y-100758624D03*
D29*
X76197764Y-100758624D03*
D18*
X81277764Y-100758624D03*
D30*
X80007764Y-103298624D03*
D33*
X83557764Y-103298624D03*
X70107764Y-105838624D03*
D30*
X73657764Y-105838624D03*
D18*
X264860564Y-119808624D03*
D29*
X269940564Y-119808624D03*
D18*
X275020564Y-119808624D03*
D30*
X273750564Y-122348624D03*
D33*
X277300564Y-122348624D03*
X263850564Y-124888624D03*
D30*
X267400564Y-124888624D03*
D39*
X184568600Y-115913270D03*
X177568600Y-115913270D03*
D40*
X182168599Y-118213269D03*
X179168599Y-118213269D03*
X187268599Y-113613269D03*
X186168599Y-118213269D03*
D18*
X207710564Y-84208624D03*
D29*
X212790564Y-84208624D03*
D18*
X217870564Y-84208624D03*
D30*
X216600564Y-86748624D03*
D33*
X220150564Y-86748624D03*
X206700564Y-89288624D03*
D30*
X210250564Y-89288624D03*
D18*
X128267764Y-84208624D03*
D29*
X133347764Y-84208624D03*
D18*
X138427764Y-84208624D03*
D30*
X137157764Y-86748624D03*
D33*
X140707764Y-86748624D03*
X127257764Y-89288624D03*
D30*
X130807764Y-89288624D03*
D18*
X264860564Y-81708624D03*
D29*
X269940564Y-81708624D03*
D18*
X275020564Y-81708624D03*
D30*
X273750564Y-84248624D03*
D33*
X277300564Y-84248624D03*
X263850564Y-86788624D03*
D30*
X267400564Y-86788624D03*
D18*
X207710564Y-103258624D03*
D29*
X212790564Y-103258624D03*
D18*
X217870564Y-103258624D03*
D30*
X216600564Y-105798624D03*
D33*
X220150564Y-105798624D03*
X206700564Y-108338624D03*
D30*
X210250564Y-108338624D03*
D39*
X161568600Y-115913270D03*
X168568600Y-115913270D03*
D40*
X163968599Y-113613269D03*
X166968599Y-113613269D03*
X158868599Y-118213269D03*
X159968599Y-113613269D03*
D18*
X264860564Y-62658624D03*
D29*
X269940564Y-62658624D03*
D18*
X275020564Y-62658624D03*
D30*
X273750564Y-65198624D03*
D33*
X277300564Y-65198624D03*
X263850564Y-67738624D03*
D30*
X267400564Y-67738624D03*
D18*
X190128035Y-127212182D03*
D29*
X192031036Y-131922276D03*
D18*
X193934037Y-136632370D03*
D30*
X191103240Y-136406347D03*
D34*
X192433094Y-139697850D03*
X185039588Y-128178728D03*
D30*
X186369441Y-131470231D03*
D18*
X226760564Y-81708624D03*
D29*
X231840564Y-81708624D03*
D18*
X236920564Y-81708624D03*
D30*
X235650564Y-84248624D03*
D33*
X239200564Y-84248624D03*
X225750564Y-86788624D03*
D30*
X229300564Y-86788624D03*
D18*
X128267764Y-65158624D03*
D29*
X133347764Y-65158624D03*
D18*
X138427764Y-65158624D03*
D30*
X137157764Y-67698624D03*
D33*
X140707764Y-67698624D03*
X127257764Y-70238624D03*
D30*
X130807764Y-70238624D03*
D18*
X90167764Y-114308624D03*
D29*
X95247764Y-114308624D03*
D18*
X100327764Y-114308624D03*
D30*
X99057764Y-116848624D03*
D33*
X102607764Y-116848624D03*
X89157764Y-119388624D03*
D30*
X92707764Y-119388624D03*
D18*
X245810564Y-38108624D03*
D29*
X250890564Y-38108624D03*
D18*
X255970564Y-38108624D03*
D30*
X254700564Y-40648624D03*
D33*
X258250564Y-40648624D03*
X244800564Y-43188624D03*
D30*
X248350564Y-43188624D03*
D18*
X109217764Y-100758624D03*
D29*
X114297764Y-100758624D03*
D18*
X119377764Y-100758624D03*
D30*
X118107764Y-103298624D03*
D33*
X121657764Y-103298624D03*
X108207764Y-105838624D03*
D30*
X111757764Y-105838624D03*
D18*
X90167764Y-57158624D03*
D29*
X95247764Y-57158624D03*
D18*
X100327764Y-57158624D03*
D30*
X99057764Y-59698624D03*
D33*
X102607764Y-59698624D03*
X89157764Y-62238624D03*
D30*
X92707764Y-62238624D03*
D18*
X71117764Y-81708624D03*
D29*
X76197764Y-81708624D03*
D18*
X81277764Y-81708624D03*
D30*
X80007764Y-84248624D03*
D33*
X83557764Y-84248624D03*
X70107764Y-86788624D03*
D30*
X73657764Y-86788624D03*
D18*
X226760564Y-43608624D03*
D29*
X231840564Y-43608624D03*
D18*
X236920564Y-43608624D03*
D30*
X235650564Y-46148624D03*
D33*
X239200564Y-46148624D03*
X225750564Y-48688624D03*
D30*
X229300564Y-48688624D03*
D18*
X226760564Y-119808624D03*
D29*
X231840564Y-119808624D03*
D18*
X236920564Y-119808624D03*
D30*
X235650564Y-122348624D03*
D33*
X239200564Y-122348624D03*
X225750564Y-124888624D03*
D30*
X229300564Y-124888624D03*
D18*
X52067764Y-74658624D03*
D29*
X57147764Y-74658624D03*
D18*
X62227764Y-74658624D03*
D30*
X60957764Y-77198624D03*
D33*
X64507764Y-77198624D03*
X51057764Y-79738624D03*
D30*
X54607764Y-79738624D03*
D35*
X166248599Y-39114999D03*
D36*
X167148599Y-39114999D03*
D35*
X166248599Y-41654999D03*
D36*
X167148599Y-41654999D03*
D37*
X166248599Y-44194999D03*
D36*
X167148599Y-44194999D03*
D35*
X166248599Y-46734999D03*
D36*
X167148599Y-46734999D03*
D35*
X166248599Y-49274999D03*
D36*
X167148599Y-49274999D03*
D35*
X166248599Y-51814999D03*
D36*
X167148599Y-51814999D03*
D35*
X166248599Y-54354999D03*
D36*
X167148599Y-54354999D03*
D37*
X166248599Y-56894999D03*
D36*
X167148599Y-56894999D03*
D35*
X166248599Y-59434999D03*
D36*
X167148599Y-59434999D03*
D35*
X166248599Y-61974999D03*
D36*
X167148599Y-61974999D03*
D35*
X166248599Y-64514999D03*
D36*
X167148599Y-64514999D03*
D35*
X166248599Y-67054999D03*
D36*
X167148599Y-67054999D03*
D37*
X166248599Y-69594999D03*
D36*
X167148599Y-69594999D03*
D35*
X166248599Y-72134999D03*
D36*
X167148599Y-72134999D03*
D35*
X166248599Y-74674999D03*
D36*
X167148599Y-74674999D03*
D35*
X166248599Y-77214999D03*
D36*
X167148599Y-77214999D03*
D35*
X166248599Y-79754999D03*
D36*
X167148599Y-79754999D03*
D37*
X166248599Y-82294999D03*
D36*
X167148599Y-82294999D03*
D35*
X166248599Y-84834999D03*
D36*
X167148599Y-84834999D03*
D35*
X166248599Y-87374999D03*
D36*
X167148599Y-87374999D03*
D35*
X148468599Y-87374999D03*
D36*
X147568599Y-87374999D03*
D35*
X148468599Y-84834999D03*
D36*
X147568599Y-84834999D03*
D37*
X148468599Y-82294999D03*
D36*
X147568599Y-82294999D03*
D35*
X148468599Y-79754999D03*
D36*
X147568599Y-79754999D03*
D35*
X148468599Y-77214999D03*
D36*
X147568599Y-77214999D03*
D35*
X148468599Y-74674999D03*
D36*
X147568599Y-74674999D03*
D35*
X148468599Y-72134999D03*
D36*
X147568599Y-72134999D03*
D37*
X148468599Y-69594999D03*
D36*
X147568599Y-69594999D03*
D35*
X148468599Y-67054999D03*
D36*
X147568599Y-67054999D03*
D35*
X148468599Y-64514999D03*
D36*
X147568599Y-64514999D03*
D35*
X148468599Y-61974999D03*
D36*
X147568599Y-61974999D03*
D35*
X148468599Y-59434999D03*
D36*
X147568599Y-59434999D03*
D37*
X148468599Y-56894999D03*
D36*
X147568599Y-56894999D03*
D35*
X148468599Y-54354999D03*
D36*
X147568599Y-54354999D03*
D35*
X148468599Y-51814999D03*
D36*
X147568599Y-51814999D03*
D35*
X148468599Y-49274999D03*
D36*
X147568599Y-49274999D03*
D35*
X148468599Y-46734999D03*
D36*
X147568599Y-46734999D03*
D37*
X148468599Y-44194999D03*
D36*
X147568599Y-44194999D03*
D35*
X148468599Y-41654999D03*
D36*
X147568599Y-41654999D03*
D35*
X148468599Y-39114999D03*
D36*
X147568599Y-39114999D03*
D35*
X159898599Y-87144999D03*
D38*
X159898599Y-88044999D03*
D37*
X157358599Y-87144999D03*
D38*
X157358599Y-88044999D03*
D35*
X154818599Y-87144999D03*
D38*
X154818599Y-88044999D03*
D18*
X90167764Y-95258624D03*
D29*
X95247764Y-95258624D03*
D18*
X100327764Y-95258624D03*
D30*
X99057764Y-97798624D03*
D33*
X102607764Y-97798624D03*
X89157764Y-100338624D03*
D30*
X92707764Y-100338624D03*
D18*
X283910564Y-93708624D03*
D29*
X288990564Y-93708624D03*
D18*
X294070564Y-93708624D03*
D30*
X292800564Y-96248624D03*
D33*
X296350564Y-96248624D03*
X282900564Y-98788624D03*
D30*
X286450564Y-98788624D03*
D18*
X207710564Y-65158624D03*
D29*
X212790564Y-65158624D03*
D18*
X217870564Y-65158624D03*
D30*
X216600564Y-67698624D03*
D33*
X220150564Y-67698624D03*
X206700564Y-70238624D03*
D30*
X210250564Y-70238624D03*
D18*
X71117764Y-62658624D03*
D29*
X76197764Y-62658624D03*
D18*
X81277764Y-62658624D03*
D30*
X80007764Y-65198624D03*
D33*
X83557764Y-65198624D03*
X70107764Y-67738624D03*
D30*
X73657764Y-67738624D03*
D24*
X29800000Y-121050000D03*
D18*
X226760564Y-62658624D03*
D29*
X231840564Y-62658624D03*
D18*
X236920564Y-62658624D03*
D30*
X235650564Y-65198624D03*
D33*
X239200564Y-65198624D03*
X225750564Y-67738624D03*
D30*
X229300564Y-67738624D03*
D18*
X226760564Y-100758624D03*
D29*
X231840564Y-100758624D03*
D18*
X236920564Y-100758624D03*
D30*
X235650564Y-103298624D03*
D33*
X239200564Y-103298624D03*
X225750564Y-105838624D03*
D30*
X229300564Y-105838624D03*
D41*
X153258599Y-103249999D03*
X164458599Y-103249999D03*
D23*
X156358599Y-110749999D03*
D24*
X161358600Y-110750000D03*
X158858600Y-110750000D03*
X161358600Y-96250000D03*
X156358600Y-96250000D03*
D18*
X264860564Y-43608624D03*
D29*
X269940564Y-43608624D03*
D18*
X275020564Y-43608624D03*
D30*
X273750564Y-46148624D03*
D33*
X277300564Y-46148624D03*
X263850564Y-48688624D03*
D30*
X267400564Y-48688624D03*
D18*
X109217764Y-62658624D03*
D29*
X114297764Y-62658624D03*
D18*
X119377764Y-62658624D03*
D30*
X118107764Y-65198624D03*
D33*
X121657764Y-65198624D03*
X108207764Y-67738624D03*
D30*
X111757764Y-67738624D03*
D18*
X33017764Y-55608624D03*
D29*
X38097764Y-55608624D03*
D18*
X43177764Y-55608624D03*
D30*
X41907764Y-58148624D03*
D33*
X45457764Y-58148624D03*
X32007764Y-60688624D03*
D30*
X35557764Y-60688624D03*
D18*
X33017764Y-74658624D03*
D29*
X38097764Y-74658624D03*
D18*
X43177764Y-74658624D03*
D30*
X41907764Y-77198624D03*
D33*
X45457764Y-77198624D03*
X32007764Y-79738624D03*
D30*
X35557764Y-79738624D03*
D41*
X181678599Y-103249999D03*
X192878599Y-103249999D03*
D23*
X184778599Y-110749999D03*
D24*
X189778600Y-110750000D03*
X187278600Y-110750000D03*
X189778600Y-96250000D03*
X184778600Y-96250000D03*
D18*
X52067764Y-55608624D03*
D29*
X57147764Y-55608624D03*
D18*
X62227764Y-55608624D03*
D30*
X60957764Y-58148624D03*
D33*
X64507764Y-58148624D03*
X51057764Y-60688624D03*
D30*
X54607764Y-60688624D03*
M02*
