M48
; DRILL file {KiCad 7.0.5-0} date 2023 June 12, Monday 12:02:41
; FORMAT={-:-/ absolute / metric / decimal}
; #@! TF.CreationDate,2023-06-12T12:02:41-07:00
; #@! TF.GenerationSoftware,Kicad,Pcbnew,7.0.5-0
; #@! TF.FileFunction,NonPlated,1,2,NPTH
FMAT,2
METRIC
; #@! TA.AperFunction,NonPlated,NPTH,ComponentDrill
T1C0.300
; #@! TA.AperFunction,NonPlated,NPTH,ComponentDrill
T2C0.500
; #@! TA.AperFunction,NonPlated,NPTH,ComponentDrill
T3C0.800
; #@! TA.AperFunction,NonPlated,NPTH,ComponentDrill
T4C1.000
; #@! TA.AperFunction,NonPlated,NPTH,ComponentDrill
T5C1.500
; #@! TA.AperFunction,NonPlated,NPTH,ComponentDrill
T6C1.750
; #@! TA.AperFunction,NonPlated,NPTH,ComponentDrill
T7C3.000
; #@! TA.AperFunction,NonPlated,NPTH,ComponentDrill
T8C3.200
; #@! TA.AperFunction,NonPlated,NPTH,ComponentDrill
T9C3.988
; #@! TA.AperFunction,NonPlated,NPTH,ComponentDrill
T10C4.000
%
G90
G05
T2
X172.694Y-78.453
X172.694Y-79.203
X172.694Y-79.953
X172.694Y-80.703
X173.444Y-78.453
X173.444Y-79.203
X173.444Y-79.953
X173.444Y-80.703
T3
X161.569Y-115.913
X168.569Y-115.913
X177.569Y-115.913
X184.569Y-115.913
T6
X33.018Y-55.609
X33.018Y-74.659
X33.018Y-93.709
X33.02Y-112.75
X43.178Y-55.609
X43.178Y-74.659
X43.178Y-93.709
X43.18Y-112.75
X52.068Y-55.609
X52.068Y-74.659
X52.068Y-93.709
X52.068Y-112.759
X62.228Y-55.609
X62.228Y-74.659
X62.228Y-93.709
X62.228Y-112.759
X71.118Y-43.609
X71.118Y-62.659
X71.118Y-81.709
X71.118Y-100.759
X71.118Y-119.809
X81.278Y-43.609
X81.278Y-62.659
X81.278Y-81.709
X81.278Y-100.759
X81.278Y-119.809
X90.168Y-38.109
X90.168Y-57.159
X90.168Y-76.209
X90.168Y-95.259
X90.168Y-114.309
X100.328Y-38.109
X100.328Y-57.159
X100.328Y-76.209
X100.328Y-95.259
X100.328Y-114.309
X109.218Y-43.609
X109.218Y-62.659
X109.218Y-81.709
X109.218Y-100.759
X109.218Y-119.809
X119.378Y-43.609
X119.378Y-62.659
X119.378Y-81.709
X119.378Y-100.759
X119.378Y-119.809
X128.268Y-46.109
X128.268Y-65.159
X128.268Y-84.209
X128.268Y-103.259
X132.445Y-134.408
X136.251Y-124.988
X138.428Y-46.109
X138.428Y-65.159
X138.428Y-84.209
X138.428Y-103.259
X152.295Y-136.532
X156.101Y-127.112
X190.128Y-127.212
X193.934Y-136.632
X207.711Y-46.109
X207.711Y-65.159
X207.711Y-84.209
X207.711Y-103.259
X209.978Y-125.076
X213.784Y-134.496
X217.871Y-46.109
X217.871Y-65.159
X217.871Y-84.209
X217.871Y-103.259
X226.761Y-43.609
X226.761Y-62.659
X226.761Y-81.709
X226.761Y-100.759
X226.761Y-119.809
X236.921Y-43.609
X236.921Y-62.659
X236.921Y-81.709
X236.921Y-100.759
X236.921Y-119.809
X245.811Y-38.109
X245.811Y-57.159
X245.811Y-76.209
X245.811Y-95.259
X245.811Y-114.309
X255.971Y-38.109
X255.971Y-57.159
X255.971Y-76.209
X255.971Y-95.259
X255.971Y-114.309
X264.861Y-43.609
X264.861Y-62.659
X264.861Y-81.709
X264.861Y-100.759
X264.861Y-119.809
X275.021Y-43.609
X275.021Y-62.659
X275.021Y-81.709
X275.021Y-100.759
X275.021Y-119.809
X283.911Y-55.609
X283.911Y-74.659
X283.911Y-93.709
X283.911Y-112.759
X294.071Y-55.609
X294.071Y-74.659
X294.071Y-93.709
X294.071Y-112.759
X302.957Y-112.75
X302.961Y-55.609
X302.961Y-74.659
X302.961Y-93.709
X313.117Y-112.75
X313.121Y-55.609
X313.121Y-74.659
X313.121Y-93.709
T7
X35.56Y-117.83
X41.91Y-115.29
X305.497Y-117.83
X311.847Y-115.29
T9
X38.098Y-55.609
X38.098Y-74.659
X38.098Y-93.709
X57.148Y-55.609
X57.148Y-74.659
X57.148Y-93.709
X57.148Y-112.759
X76.198Y-43.609
X76.198Y-62.659
X76.198Y-81.709
X76.198Y-100.759
X76.198Y-119.809
X95.248Y-38.109
X95.248Y-57.159
X95.248Y-76.209
X95.248Y-95.259
X95.248Y-114.309
X114.298Y-43.609
X114.298Y-62.659
X114.298Y-81.709
X114.298Y-100.759
X114.298Y-119.809
X133.348Y-46.109
X133.348Y-65.159
X133.348Y-84.209
X133.348Y-103.259
X134.348Y-129.698
X154.198Y-131.822
X192.031Y-131.922
X211.881Y-129.786
X212.791Y-46.109
X212.791Y-65.159
X212.791Y-84.209
X212.791Y-103.259
X231.841Y-43.609
X231.841Y-62.659
X231.841Y-81.709
X231.841Y-100.759
X231.841Y-119.809
X250.891Y-38.109
X250.891Y-57.159
X250.891Y-76.209
X250.891Y-95.259
X250.891Y-114.309
X269.941Y-43.609
X269.941Y-62.659
X269.941Y-81.709
X269.941Y-100.759
X269.941Y-119.809
X288.991Y-55.609
X288.991Y-74.659
X288.991Y-93.709
X288.991Y-112.759
X308.041Y-55.609
X308.041Y-74.659
X308.041Y-93.709
T10
X38.1Y-112.75
X308.037Y-112.75
T1
X36.468Y-51.979G85X36.468Y-49.079
G05
X36.468Y-71.029G85X36.468Y-68.129
G05
X36.468Y-90.079G85X36.468Y-87.179
G05
X36.47Y-110.4G85X36.47Y-107.5
G05
X39.768Y-49.079G85X36.468Y-49.079
G05
X39.768Y-51.979G85X36.468Y-51.979
G05
X39.768Y-68.129G85X36.468Y-68.129
G05
X39.768Y-71.029G85X36.468Y-71.029
G05
X39.768Y-87.179G85X36.468Y-87.179
G05
X39.768Y-90.079G85X36.468Y-90.079
G05
X39.77Y-107.5G85X36.47Y-107.5
G05
X39.77Y-110.4G85X36.47Y-110.4
G05
X39.768Y-51.979G85X39.768Y-49.079
G05
X39.768Y-71.029G85X39.768Y-68.129
G05
X39.768Y-90.079G85X39.768Y-87.179
G05
X39.77Y-110.4G85X39.77Y-107.5
G05
X45.955Y-63.65G85X45.955Y-66.55
G05
X45.955Y-101.8G85X45.955Y-104.7
G05
X45.955Y-63.65G85X49.255Y-63.65
G05
X45.955Y-66.55G85X49.255Y-66.55
G05
X45.955Y-101.8G85X49.255Y-101.8
G05
X45.955Y-104.7G85X49.255Y-104.7
G05
X49.255Y-63.65G85X49.255Y-66.55
G05
X49.255Y-101.8G85X49.255Y-104.7
G05
X55.518Y-51.979G85X55.518Y-49.079
G05
X55.518Y-71.029G85X55.518Y-68.129
G05
X55.518Y-90.079G85X55.518Y-87.179
G05
X55.518Y-109.129G85X55.518Y-106.229
G05
X58.818Y-49.079G85X55.518Y-49.079
G05
X58.818Y-51.979G85X55.518Y-51.979
G05
X58.818Y-68.129G85X55.518Y-68.129
G05
X58.818Y-71.029G85X55.518Y-71.029
G05
X58.818Y-87.179G85X55.518Y-87.179
G05
X58.818Y-90.079G85X55.518Y-90.079
G05
X58.818Y-106.229G85X55.518Y-106.229
G05
X58.818Y-109.129G85X55.518Y-109.129
G05
X58.818Y-51.979G85X58.818Y-49.079
G05
X58.818Y-71.029G85X58.818Y-68.129
G05
X58.818Y-90.079G85X58.818Y-87.179
G05
X58.818Y-109.129G85X58.818Y-106.229
G05
X74.568Y-39.979G85X74.568Y-37.079
G05
X74.568Y-59.029G85X74.568Y-56.129
G05
X74.568Y-78.079G85X74.568Y-75.179
G05
X74.568Y-97.129G85X74.568Y-94.229
G05
X74.568Y-116.179G85X74.568Y-113.279
G05
X77.868Y-37.079G85X74.568Y-37.079
G05
X77.868Y-39.979G85X74.568Y-39.979
G05
X77.868Y-56.129G85X74.568Y-56.129
G05
X77.868Y-59.029G85X74.568Y-59.029
G05
X77.868Y-75.179G85X74.568Y-75.179
G05
X77.868Y-78.079G85X74.568Y-78.079
G05
X77.868Y-94.229G85X74.568Y-94.229
G05
X77.868Y-97.129G85X74.568Y-97.129
G05
X77.868Y-113.279G85X74.568Y-113.279
G05
X77.868Y-116.179G85X74.568Y-116.179
G05
X77.868Y-39.979G85X77.868Y-37.079
G05
X77.868Y-59.029G85X77.868Y-56.129
G05
X77.868Y-78.079G85X77.868Y-75.179
G05
X77.868Y-97.129G85X77.868Y-94.229
G05
X77.868Y-116.179G85X77.868Y-113.279
G05
X93.535Y-122.385G85X93.535Y-125.285
G05
X93.58Y-46.145G85X93.58Y-49.045
G05
X93.58Y-84.28G85X93.58Y-87.18
G05
X93.618Y-34.479G85X93.618Y-31.579
G05
X93.618Y-53.529G85X93.618Y-50.629
G05
X93.618Y-72.579G85X93.618Y-69.679
G05
X93.618Y-91.629G85X93.618Y-88.729
G05
X93.618Y-110.679G85X93.618Y-107.779
G05
X93.535Y-122.385G85X96.835Y-122.385
G05
X93.535Y-125.285G85X96.835Y-125.285
G05
X93.58Y-46.145G85X96.88Y-46.145
G05
X93.58Y-49.045G85X96.88Y-49.045
G05
X93.58Y-84.28G85X96.88Y-84.28
G05
X93.58Y-87.18G85X96.88Y-87.18
G05
X96.918Y-31.579G85X93.618Y-31.579
G05
X96.918Y-34.479G85X93.618Y-34.479
G05
X96.918Y-50.629G85X93.618Y-50.629
G05
X96.918Y-53.529G85X93.618Y-53.529
G05
X96.918Y-69.679G85X93.618Y-69.679
G05
X96.918Y-72.579G85X93.618Y-72.579
G05
X96.918Y-88.729G85X93.618Y-88.729
G05
X96.918Y-91.629G85X93.618Y-91.629
G05
X96.918Y-107.779G85X93.618Y-107.779
G05
X96.918Y-110.679G85X93.618Y-110.679
G05
X96.835Y-122.385G85X96.835Y-125.285
G05
X96.88Y-46.145G85X96.88Y-49.045
G05
X96.88Y-84.28G85X96.88Y-87.18
G05
X96.918Y-34.479G85X96.918Y-31.579
G05
X96.918Y-53.529G85X96.918Y-50.629
G05
X96.918Y-72.579G85X96.918Y-69.679
G05
X96.918Y-91.629G85X96.918Y-88.729
G05
X96.918Y-110.679G85X96.918Y-107.779
G05
X112.668Y-39.979G85X112.668Y-37.079
G05
X112.668Y-59.029G85X112.668Y-56.129
G05
X112.668Y-78.079G85X112.668Y-75.179
G05
X112.668Y-97.129G85X112.668Y-94.229
G05
X112.668Y-116.179G85X112.668Y-113.279
G05
X115.968Y-37.079G85X112.668Y-37.079
G05
X115.968Y-39.979G85X112.668Y-39.979
G05
X115.968Y-56.129G85X112.668Y-56.129
G05
X115.968Y-59.029G85X112.668Y-59.029
G05
X115.968Y-75.179G85X112.668Y-75.179
G05
X115.968Y-78.079G85X112.668Y-78.079
G05
X115.968Y-94.229G85X112.668Y-94.229
G05
X115.968Y-97.129G85X112.668Y-97.129
G05
X115.968Y-113.279G85X112.668Y-113.279
G05
X115.968Y-116.179G85X112.668Y-116.179
G05
X115.968Y-39.979G85X115.968Y-37.079
G05
X115.968Y-59.029G85X115.968Y-56.129
G05
X115.968Y-78.079G85X115.968Y-75.179
G05
X115.968Y-97.129G85X115.968Y-94.229
G05
X115.968Y-116.179G85X115.968Y-113.279
G05
X128.919Y-125.704G85X127.683Y-128.763
G05
X130.371Y-129.85G85X127.683Y-128.763
G05
X131.608Y-126.79G85X128.919Y-125.704
G05
X131.608Y-126.79G85X130.371Y-129.85
G05
X131.68Y-92.28G85X131.68Y-95.18
G05
X131.718Y-42.479G85X131.718Y-39.579
G05
X131.718Y-61.529G85X131.718Y-58.629
G05
X131.718Y-80.579G85X131.718Y-77.679
G05
X131.718Y-99.629G85X131.718Y-96.729
G05
X131.835Y-54.135G85X131.835Y-57.035
G05
X131.68Y-92.28G85X134.98Y-92.28
G05
X131.68Y-95.18G85X134.98Y-95.18
G05
X135.018Y-39.579G85X131.718Y-39.579
G05
X135.018Y-42.479G85X131.718Y-42.479
G05
X135.018Y-58.629G85X131.718Y-58.629
G05
X135.018Y-61.529G85X131.718Y-61.529
G05
X135.018Y-77.679G85X131.718Y-77.679
G05
X135.018Y-80.579G85X131.718Y-80.579
G05
X135.018Y-96.729G85X131.718Y-96.729
G05
X135.018Y-99.629G85X131.718Y-99.629
G05
X131.835Y-54.135G85X135.135Y-54.135
G05
X131.835Y-57.035G85X135.135Y-57.035
G05
X134.98Y-92.28G85X134.98Y-95.18
G05
X135.018Y-42.479G85X135.018Y-39.579
G05
X135.018Y-61.529G85X135.018Y-58.629
G05
X135.018Y-80.579G85X135.018Y-77.679
G05
X135.018Y-99.629G85X135.018Y-96.729
G05
X135.135Y-54.135G85X135.135Y-57.035
G05
X138.346Y-140.054G85X138.346Y-142.954
G05
X138.346Y-140.054G85X141.646Y-140.054
G05
X138.346Y-142.954G85X141.646Y-142.954
G05
X141.646Y-140.054G85X141.646Y-142.954
G05
X148.769Y-127.827G85X147.533Y-130.887
G05
X150.221Y-131.974G85X147.533Y-130.887
G05
X151.458Y-128.914G85X148.769Y-127.827
G05
X151.458Y-128.914G85X150.221Y-131.974
G05
X196.022Y-132.111G85X194.786Y-129.051
G05
X194.786Y-129.051G85X197.475Y-127.965
G05
X196.022Y-132.111G85X198.711Y-131.024
G05
X198.711Y-131.024G85X197.475Y-127.965
G05
X204.545Y-140.151G85X204.545Y-143.051
G05
X204.545Y-140.151G85X207.845Y-140.151
G05
X204.545Y-143.051G85X207.845Y-143.051
G05
X207.845Y-140.151G85X207.845Y-143.051
G05
X211.117Y-54.205G85X211.117Y-57.105
G05
X211.117Y-92.245G85X211.117Y-95.145
G05
X211.161Y-42.479G85X211.161Y-39.579
G05
X211.161Y-61.529G85X211.161Y-58.629
G05
X211.161Y-80.579G85X211.161Y-77.679
G05
X211.161Y-99.629G85X211.161Y-96.729
G05
X211.117Y-54.205G85X214.417Y-54.205
G05
X211.117Y-57.105G85X214.417Y-57.105
G05
X211.117Y-92.245G85X214.417Y-92.245
G05
X211.117Y-95.145G85X214.417Y-95.145
G05
X214.461Y-39.579G85X211.161Y-39.579
G05
X214.461Y-42.479G85X211.161Y-42.479
G05
X214.461Y-58.629G85X211.161Y-58.629
G05
X214.461Y-61.529G85X211.161Y-61.529
G05
X214.461Y-77.679G85X211.161Y-77.679
G05
X214.461Y-80.579G85X211.161Y-80.579
G05
X214.461Y-96.729G85X211.161Y-96.729
G05
X214.461Y-99.629G85X211.161Y-99.629
G05
X214.417Y-54.205G85X214.417Y-57.105
G05
X214.417Y-92.245G85X214.417Y-95.145
G05
X214.461Y-42.479G85X214.461Y-39.579
G05
X214.461Y-61.529G85X214.461Y-58.629
G05
X214.461Y-80.579G85X214.461Y-77.679
G05
X214.461Y-99.629G85X214.461Y-96.729
G05
X215.872Y-129.975G85X214.636Y-126.915
G05
X214.636Y-126.915G85X217.325Y-125.828
G05
X215.872Y-129.975G85X218.561Y-128.888
G05
X218.561Y-128.888G85X217.325Y-125.828
G05
X230.211Y-39.979G85X230.211Y-37.079
G05
X230.211Y-59.029G85X230.211Y-56.129
G05
X230.211Y-78.079G85X230.211Y-75.179
G05
X230.211Y-97.129G85X230.211Y-94.229
G05
X230.211Y-116.179G85X230.211Y-113.279
G05
X233.511Y-37.079G85X230.211Y-37.079
G05
X233.511Y-39.979G85X230.211Y-39.979
G05
X233.511Y-56.129G85X230.211Y-56.129
G05
X233.511Y-59.029G85X230.211Y-59.029
G05
X233.511Y-75.179G85X230.211Y-75.179
G05
X233.511Y-78.079G85X230.211Y-78.079
G05
X233.511Y-94.229G85X230.211Y-94.229
G05
X233.511Y-97.129G85X230.211Y-97.129
G05
X233.511Y-113.279G85X230.211Y-113.279
G05
X233.511Y-116.179G85X230.211Y-116.179
G05
X233.511Y-39.979G85X233.511Y-37.079
G05
X233.511Y-59.029G85X233.511Y-56.129
G05
X233.511Y-78.079G85X233.511Y-75.179
G05
X233.511Y-97.129G85X233.511Y-94.229
G05
X233.511Y-116.179G85X233.511Y-113.279
G05
X249.165Y-46.175G85X249.165Y-49.075
G05
X249.217Y-84.215G85X249.217Y-87.115
G05
X249.217Y-122.365G85X249.217Y-125.265
G05
X249.261Y-34.479G85X249.261Y-31.579
G05
X249.261Y-53.529G85X249.261Y-50.629
G05
X249.261Y-72.579G85X249.261Y-69.679
G05
X249.261Y-91.629G85X249.261Y-88.729
G05
X249.261Y-110.679G85X249.261Y-107.779
G05
X249.165Y-46.175G85X252.465Y-46.175
G05
X249.165Y-49.075G85X252.465Y-49.075
G05
X249.217Y-84.215G85X252.517Y-84.215
G05
X249.217Y-87.115G85X252.517Y-87.115
G05
X249.217Y-122.365G85X252.517Y-122.365
G05
X249.217Y-125.265G85X252.517Y-125.265
G05
X252.561Y-31.579G85X249.261Y-31.579
G05
X252.561Y-34.479G85X249.261Y-34.479
G05
X252.561Y-50.629G85X249.261Y-50.629
G05
X252.561Y-53.529G85X249.261Y-53.529
G05
X252.561Y-69.679G85X249.261Y-69.679
G05
X252.561Y-72.579G85X249.261Y-72.579
G05
X252.561Y-88.729G85X249.261Y-88.729
G05
X252.561Y-91.629G85X249.261Y-91.629
G05
X252.561Y-107.779G85X249.261Y-107.779
G05
X252.561Y-110.679G85X249.261Y-110.679
G05
X252.465Y-46.175G85X252.465Y-49.075
G05
X252.517Y-84.215G85X252.517Y-87.115
G05
X252.517Y-122.365G85X252.517Y-125.265
G05
X252.561Y-34.479G85X252.561Y-31.579
G05
X252.561Y-53.529G85X252.561Y-50.629
G05
X252.561Y-72.579G85X252.561Y-69.679
G05
X252.561Y-91.629G85X252.561Y-88.729
G05
X252.561Y-110.679G85X252.561Y-107.779
G05
X268.311Y-39.979G85X268.311Y-37.079
G05
X268.311Y-59.029G85X268.311Y-56.129
G05
X268.311Y-78.079G85X268.311Y-75.179
G05
X268.311Y-97.129G85X268.311Y-94.229
G05
X268.311Y-116.179G85X268.311Y-113.279
G05
X271.611Y-37.079G85X268.311Y-37.079
G05
X271.611Y-39.979G85X268.311Y-39.979
G05
X271.611Y-56.129G85X268.311Y-56.129
G05
X271.611Y-59.029G85X268.311Y-59.029
G05
X271.611Y-75.179G85X268.311Y-75.179
G05
X271.611Y-78.079G85X268.311Y-78.079
G05
X271.611Y-94.229G85X268.311Y-94.229
G05
X271.611Y-97.129G85X268.311Y-97.129
G05
X271.611Y-113.279G85X268.311Y-113.279
G05
X271.611Y-116.179G85X268.311Y-116.179
G05
X271.611Y-39.979G85X271.611Y-37.079
G05
X271.611Y-59.029G85X271.611Y-56.129
G05
X271.611Y-78.079G85X271.611Y-75.179
G05
X271.611Y-97.129G85X271.611Y-94.229
G05
X271.611Y-116.179G85X271.611Y-113.279
G05
X287.361Y-51.979G85X287.361Y-49.079
G05
X287.361Y-71.029G85X287.361Y-68.129
G05
X287.361Y-90.079G85X287.361Y-87.179
G05
X287.361Y-109.129G85X287.361Y-106.229
G05
X290.661Y-49.079G85X287.361Y-49.079
G05
X290.661Y-51.979G85X287.361Y-51.979
G05
X290.661Y-68.129G85X287.361Y-68.129
G05
X290.661Y-71.029G85X287.361Y-71.029
G05
X290.661Y-87.179G85X287.361Y-87.179
G05
X290.661Y-90.079G85X287.361Y-90.079
G05
X290.661Y-106.229G85X287.361Y-106.229
G05
X290.661Y-109.129G85X287.361Y-109.129
G05
X290.661Y-51.979G85X290.661Y-49.079
G05
X290.661Y-71.029G85X290.661Y-68.129
G05
X290.661Y-90.079G85X290.661Y-87.179
G05
X290.661Y-109.129G85X290.661Y-106.229
G05
X296.842Y-63.69G85X296.842Y-66.59
G05
X296.842Y-101.77G85X296.842Y-104.67
G05
X296.842Y-63.69G85X300.142Y-63.69
G05
X296.842Y-66.59G85X300.142Y-66.59
G05
X296.842Y-101.77G85X300.142Y-101.77
G05
X296.842Y-104.67G85X300.142Y-104.67
G05
X300.142Y-63.69G85X300.142Y-66.59
G05
X300.142Y-101.77G85X300.142Y-104.67
G05
X306.407Y-110.4G85X306.407Y-107.5
G05
X306.411Y-51.979G85X306.411Y-49.079
G05
X306.411Y-71.029G85X306.411Y-68.129
G05
X306.411Y-90.079G85X306.411Y-87.179
G05
X309.707Y-107.5G85X306.407Y-107.5
G05
X309.707Y-110.4G85X306.407Y-110.4
G05
X309.711Y-49.079G85X306.411Y-49.079
G05
X309.711Y-51.979G85X306.411Y-51.979
G05
X309.711Y-68.129G85X306.411Y-68.129
G05
X309.711Y-71.029G85X306.411Y-71.029
G05
X309.711Y-87.179G85X306.411Y-87.179
G05
X309.711Y-90.079G85X306.411Y-90.079
G05
X309.707Y-110.4G85X309.707Y-107.5
G05
X309.711Y-51.979G85X309.711Y-49.079
G05
X309.711Y-71.029G85X309.711Y-68.129
G05
X309.711Y-90.079G85X309.711Y-87.179
G05
T4
X36.818Y-51.629G85X36.818Y-49.429
G05
X36.818Y-70.679G85X36.818Y-68.479
G05
X36.818Y-89.729G85X36.818Y-87.529
G05
X36.82Y-110.05G85X36.82Y-107.85
G05
X39.418Y-51.629G85X39.418Y-49.429
G05
X39.418Y-70.679G85X39.418Y-68.479
G05
X39.418Y-89.729G85X39.418Y-87.529
G05
X39.42Y-110.05G85X39.42Y-107.85
G05
X46.305Y-64.0G85X46.305Y-66.2
G05
X46.305Y-102.15G85X46.305Y-104.35
G05
X48.905Y-64.0G85X48.905Y-66.2
G05
X48.905Y-102.15G85X48.905Y-104.35
G05
X55.868Y-51.629G85X55.868Y-49.429
G05
X55.868Y-70.679G85X55.868Y-68.479
G05
X55.868Y-89.729G85X55.868Y-87.529
G05
X55.868Y-108.779G85X55.868Y-106.579
G05
X58.468Y-51.629G85X58.468Y-49.429
G05
X58.468Y-70.679G85X58.468Y-68.479
G05
X58.468Y-89.729G85X58.468Y-87.529
G05
X58.468Y-108.779G85X58.468Y-106.579
G05
X74.918Y-39.629G85X74.918Y-37.429
G05
X74.918Y-58.679G85X74.918Y-56.479
G05
X74.918Y-77.729G85X74.918Y-75.529
G05
X74.918Y-96.779G85X74.918Y-94.579
G05
X74.918Y-115.829G85X74.918Y-113.629
G05
X77.518Y-39.629G85X77.518Y-37.429
G05
X77.518Y-58.679G85X77.518Y-56.479
G05
X77.518Y-77.729G85X77.518Y-75.529
G05
X77.518Y-96.779G85X77.518Y-94.579
G05
X77.518Y-115.829G85X77.518Y-113.629
G05
X93.885Y-122.735G85X93.885Y-124.935
G05
X93.93Y-46.495G85X93.93Y-48.695
G05
X93.93Y-84.63G85X93.93Y-86.83
G05
X93.968Y-34.129G85X93.968Y-31.929
G05
X93.968Y-53.179G85X93.968Y-50.979
G05
X93.968Y-72.229G85X93.968Y-70.029
G05
X93.968Y-91.279G85X93.968Y-89.079
G05
X93.968Y-110.329G85X93.968Y-108.129
G05
X96.485Y-122.735G85X96.485Y-124.935
G05
X96.53Y-46.495G85X96.53Y-48.695
G05
X96.53Y-84.63G85X96.53Y-86.83
G05
X96.568Y-34.129G85X96.568Y-31.929
G05
X96.568Y-53.179G85X96.568Y-50.979
G05
X96.568Y-72.229G85X96.568Y-70.029
G05
X96.568Y-91.279G85X96.568Y-89.079
G05
X96.568Y-110.329G85X96.568Y-108.129
G05
X113.018Y-39.629G85X113.018Y-37.429
G05
X113.018Y-58.679G85X113.018Y-56.479
G05
X113.018Y-77.729G85X113.018Y-75.529
G05
X113.018Y-96.779G85X113.018Y-94.579
G05
X113.018Y-115.829G85X113.018Y-113.629
G05
X115.618Y-39.629G85X115.618Y-37.429
G05
X115.618Y-58.679G85X115.618Y-56.479
G05
X115.618Y-77.729G85X115.618Y-75.529
G05
X115.618Y-96.779G85X115.618Y-94.579
G05
X115.618Y-115.829G85X115.618Y-113.629
G05
X130.178Y-129.394G85X128.138Y-128.57
G05
X131.152Y-126.984G85X129.112Y-126.159
G05
X132.03Y-92.63G85X132.03Y-94.83
G05
X132.068Y-42.129G85X132.068Y-39.929
G05
X132.068Y-61.179G85X132.068Y-58.979
G05
X132.068Y-80.229G85X132.068Y-78.029
G05
X132.068Y-99.279G85X132.068Y-97.079
G05
X132.185Y-54.485G85X132.185Y-56.685
G05
X134.63Y-92.63G85X134.63Y-94.83
G05
X134.668Y-42.129G85X134.668Y-39.929
G05
X134.668Y-61.179G85X134.668Y-58.979
G05
X134.668Y-80.229G85X134.668Y-78.029
G05
X134.668Y-99.279G85X134.668Y-97.079
G05
X134.785Y-54.485G85X134.785Y-56.685
G05
X138.696Y-140.404G85X138.696Y-142.604
G05
X141.296Y-140.404G85X141.296Y-142.604
G05
X150.028Y-131.518G85X147.988Y-130.694
G05
X151.002Y-129.107G85X148.962Y-128.283
G05
X195.242Y-129.245G85X197.282Y-128.42
G05
X196.216Y-131.655G85X198.256Y-130.831
G05
X204.895Y-140.501G85X204.895Y-142.701
G05
X207.495Y-140.501G85X207.495Y-142.701
G05
X211.467Y-54.555G85X211.467Y-56.755
G05
X211.467Y-92.595G85X211.467Y-94.795
G05
X211.511Y-42.129G85X211.511Y-39.929
G05
X211.511Y-61.179G85X211.511Y-58.979
G05
X211.511Y-80.229G85X211.511Y-78.029
G05
X211.511Y-99.279G85X211.511Y-97.079
G05
X214.067Y-54.555G85X214.067Y-56.755
G05
X214.067Y-92.595G85X214.067Y-94.795
G05
X214.111Y-42.129G85X214.111Y-39.929
G05
X214.111Y-61.179G85X214.111Y-58.979
G05
X214.111Y-80.229G85X214.111Y-78.029
G05
X214.111Y-99.279G85X214.111Y-97.079
G05
X215.092Y-127.108G85X217.132Y-126.284
G05
X216.066Y-129.519G85X218.106Y-128.695
G05
X230.561Y-39.629G85X230.561Y-37.429
G05
X230.561Y-58.679G85X230.561Y-56.479
G05
X230.561Y-77.729G85X230.561Y-75.529
G05
X230.561Y-96.779G85X230.561Y-94.579
G05
X230.561Y-115.829G85X230.561Y-113.629
G05
X233.161Y-39.629G85X233.161Y-37.429
G05
X233.161Y-58.679G85X233.161Y-56.479
G05
X233.161Y-77.729G85X233.161Y-75.529
G05
X233.161Y-96.779G85X233.161Y-94.579
G05
X233.161Y-115.829G85X233.161Y-113.629
G05
X249.515Y-46.525G85X249.515Y-48.725
G05
X249.567Y-84.565G85X249.567Y-86.765
G05
X249.567Y-122.715G85X249.567Y-124.915
G05
X249.611Y-34.129G85X249.611Y-31.929
G05
X249.611Y-53.179G85X249.611Y-50.979
G05
X249.611Y-72.229G85X249.611Y-70.029
G05
X249.611Y-91.279G85X249.611Y-89.079
G05
X249.611Y-110.329G85X249.611Y-108.129
G05
X252.115Y-46.525G85X252.115Y-48.725
G05
X252.167Y-84.565G85X252.167Y-86.765
G05
X252.167Y-122.715G85X252.167Y-124.915
G05
X252.211Y-34.129G85X252.211Y-31.929
G05
X252.211Y-53.179G85X252.211Y-50.979
G05
X252.211Y-72.229G85X252.211Y-70.029
G05
X252.211Y-91.279G85X252.211Y-89.079
G05
X252.211Y-110.329G85X252.211Y-108.129
G05
X268.661Y-39.629G85X268.661Y-37.429
G05
X268.661Y-58.679G85X268.661Y-56.479
G05
X268.661Y-77.729G85X268.661Y-75.529
G05
X268.661Y-96.779G85X268.661Y-94.579
G05
X268.661Y-115.829G85X268.661Y-113.629
G05
X271.261Y-39.629G85X271.261Y-37.429
G05
X271.261Y-58.679G85X271.261Y-56.479
G05
X271.261Y-77.729G85X271.261Y-75.529
G05
X271.261Y-96.779G85X271.261Y-94.579
G05
X271.261Y-115.829G85X271.261Y-113.629
G05
X287.711Y-51.629G85X287.711Y-49.429
G05
X287.711Y-70.679G85X287.711Y-68.479
G05
X287.711Y-89.729G85X287.711Y-87.529
G05
X287.711Y-108.779G85X287.711Y-106.579
G05
X290.311Y-51.629G85X290.311Y-49.429
G05
X290.311Y-70.679G85X290.311Y-68.479
G05
X290.311Y-89.729G85X290.311Y-87.529
G05
X290.311Y-108.779G85X290.311Y-106.579
G05
X297.192Y-64.04G85X297.192Y-66.24
G05
X297.192Y-102.12G85X297.192Y-104.32
G05
X299.792Y-64.04G85X299.792Y-66.24
G05
X299.792Y-102.12G85X299.792Y-104.32
G05
X306.757Y-110.05G85X306.757Y-107.85
G05
X306.761Y-51.629G85X306.761Y-49.429
G05
X306.761Y-70.679G85X306.761Y-68.479
G05
X306.761Y-89.729G85X306.761Y-87.529
G05
X309.357Y-110.05G85X309.357Y-107.85
G05
X309.361Y-51.629G85X309.361Y-49.429
G05
X309.361Y-70.679G85X309.361Y-68.479
G05
X309.361Y-89.729G85X309.361Y-87.529
G05
T5
X32.5Y-112.7G85X32.5Y-114.0
G05
X43.7Y-112.7G85X43.7Y-114.0
G05
X153.259Y-103.9G85X153.259Y-102.6
G05
X164.459Y-103.9G85X164.459Y-102.6
G05
X181.679Y-103.9G85X181.679Y-102.6
G05
X192.879Y-103.9G85X192.879Y-102.6
G05
X302.437Y-112.7G85X302.437Y-114.0
G05
X313.637Y-112.7G85X313.637Y-114.0
G05
T8
X38.298Y-50.529G85X37.898Y-50.529
G05
X38.298Y-69.579G85X37.898Y-69.579
G05
X38.298Y-88.629G85X37.898Y-88.629
G05
X38.3Y-108.95G85X37.9Y-108.95
G05
X47.425Y-65.1G85X47.825Y-65.1
G05
X47.425Y-103.25G85X47.825Y-103.25
G05
X57.348Y-50.529G85X56.948Y-50.529
G05
X57.348Y-69.579G85X56.948Y-69.579
G05
X57.348Y-88.629G85X56.948Y-88.629
G05
X57.348Y-107.679G85X56.948Y-107.679
G05
X76.398Y-38.529G85X75.998Y-38.529
G05
X76.398Y-57.579G85X75.998Y-57.579
G05
X76.398Y-76.629G85X75.998Y-76.629
G05
X76.398Y-95.679G85X75.998Y-95.679
G05
X76.398Y-114.729G85X75.998Y-114.729
G05
X95.005Y-123.835G85X95.405Y-123.835
G05
X95.448Y-33.029G85X95.048Y-33.029
G05
X95.448Y-52.079G85X95.048Y-52.079
G05
X95.448Y-71.129G85X95.048Y-71.129
G05
X95.448Y-90.179G85X95.048Y-90.179
G05
X95.448Y-109.229G85X95.048Y-109.229
G05
X95.05Y-47.595G85X95.45Y-47.595
G05
X95.05Y-85.73G85X95.45Y-85.73
G05
X114.498Y-38.529G85X114.098Y-38.529
G05
X114.498Y-57.579G85X114.098Y-57.579
G05
X114.498Y-76.629G85X114.098Y-76.629
G05
X114.498Y-95.679G85X114.098Y-95.679
G05
X114.498Y-114.729G85X114.098Y-114.729
G05
X129.713Y-127.61G85X129.563Y-127.981
G05
X133.548Y-41.029G85X133.148Y-41.029
G05
X133.548Y-60.079G85X133.148Y-60.079
G05
X133.548Y-79.129G85X133.148Y-79.129
G05
X133.548Y-98.179G85X133.148Y-98.179
G05
X133.15Y-93.73G85X133.55Y-93.73
G05
X133.305Y-55.585G85X133.705Y-55.585
G05
X139.816Y-141.504G85X140.216Y-141.504
G05
X149.563Y-129.734G85X149.413Y-130.104
G05
X196.816Y-130.205G85X196.666Y-129.834
G05
X206.015Y-141.601G85X206.415Y-141.601
G05
X212.587Y-55.655G85X212.987Y-55.655
G05
X212.587Y-93.695G85X212.987Y-93.695
G05
X212.991Y-41.029G85X212.591Y-41.029
G05
X212.991Y-60.079G85X212.591Y-60.079
G05
X212.991Y-79.129G85X212.591Y-79.129
G05
X212.991Y-98.179G85X212.591Y-98.179
G05
X216.666Y-128.068G85X216.516Y-127.698
G05
X232.041Y-38.529G85X231.641Y-38.529
G05
X232.041Y-57.579G85X231.641Y-57.579
G05
X232.041Y-76.629G85X231.641Y-76.629
G05
X232.041Y-95.679G85X231.641Y-95.679
G05
X232.041Y-114.729G85X231.641Y-114.729
G05
X250.635Y-47.625G85X251.035Y-47.625
G05
X250.687Y-85.665G85X251.087Y-85.665
G05
X250.687Y-123.815G85X251.087Y-123.815
G05
X251.091Y-33.029G85X250.691Y-33.029
G05
X251.091Y-52.079G85X250.691Y-52.079
G05
X251.091Y-71.129G85X250.691Y-71.129
G05
X251.091Y-90.179G85X250.691Y-90.179
G05
X251.091Y-109.229G85X250.691Y-109.229
G05
X270.141Y-38.529G85X269.741Y-38.529
G05
X270.141Y-57.579G85X269.741Y-57.579
G05
X270.141Y-76.629G85X269.741Y-76.629
G05
X270.141Y-95.679G85X269.741Y-95.679
G05
X270.141Y-114.729G85X269.741Y-114.729
G05
X289.191Y-50.529G85X288.791Y-50.529
G05
X289.191Y-69.579G85X288.791Y-69.579
G05
X289.191Y-88.629G85X288.791Y-88.629
G05
X289.191Y-107.679G85X288.791Y-107.679
G05
X298.312Y-65.14G85X298.712Y-65.14
G05
X298.312Y-103.22G85X298.712Y-103.22
G05
X308.237Y-108.95G85X307.837Y-108.95
G05
X308.241Y-50.529G85X307.841Y-50.529
G05
X308.241Y-69.579G85X307.841Y-69.579
G05
X308.241Y-88.629G85X307.841Y-88.629
G05
T0
M30
