G04 #@! TF.GenerationSoftware,KiCad,Pcbnew,7.0.5-0*
G04 #@! TF.CreationDate,2023-09-04T12:44:45-07:00*
G04 #@! TF.ProjectId,Junco,4a756e63-6f2e-46b6-9963-61645f706362,rev?*
G04 #@! TF.SameCoordinates,Original*
G04 #@! TF.FileFunction,Profile,NP*
%FSLAX46Y46*%
G04 Gerber Fmt 4.6, Leading zero omitted, Abs format (unit mm)*
G04 Created by KiCad (PCBNEW 7.0.5-0) date 2023-09-04 12:44:45*
%MOMM*%
%LPD*%
G01*
G04 APERTURE LIST*
G04 #@! TA.AperFunction,Profile*
%ADD10C,0.100000*%
G04 #@! TD*
G04 APERTURE END LIST*
D10*
X173943600Y-120675770D02*
X173943600Y-81202885D01*
X95250000Y-24765000D02*
X99060000Y-24765000D01*
X110641382Y-139369312D02*
X120166382Y-143179312D01*
X24765000Y-46075000D02*
X24765000Y-122275000D01*
X172193599Y-38480000D02*
G75*
G03*
X170288601Y-36575001I-1904999J0D01*
G01*
X93345000Y-24765000D02*
G75*
G03*
X28575000Y-42265001I270350J-129612110D01*
G01*
X175848599Y-36575000D02*
G75*
G03*
X173943600Y-38480000I1J-1905000D01*
G01*
X317410818Y-126034302D02*
G75*
G03*
X321372199Y-122275000I100982J3860402D01*
G01*
X247077201Y-24765018D02*
G75*
G03*
X200613600Y-36575001I3403999J-110697282D01*
G01*
X184070818Y-148519312D02*
X174718600Y-124122587D01*
X247077200Y-24765000D02*
X250887200Y-24765000D01*
X172193600Y-77952885D02*
X173943600Y-77952885D01*
X28726382Y-126034311D02*
G75*
G03*
X105878882Y-137464311I81986058J287301181D01*
G01*
X171418600Y-124122587D02*
X162066382Y-148519312D01*
X170288601Y-36575001D02*
X145523600Y-36575000D01*
X173943600Y-77952885D02*
X173943600Y-38480000D01*
X235495818Y-139369312D02*
X240258318Y-137464312D01*
X321372200Y-122275000D02*
X321372200Y-46075000D01*
X321372200Y-46075000D02*
G75*
G03*
X317562200Y-42265000I-3810000J0D01*
G01*
X172193600Y-81202885D02*
X172193600Y-120675770D01*
X317562200Y-42264999D02*
G75*
G03*
X252792200Y-24765001I-65040340J-112112091D01*
G01*
X197723530Y-154498335D02*
X225970818Y-143179312D01*
X28575000Y-42265000D02*
G75*
G03*
X24765000Y-46075000I0J-3810000D01*
G01*
X225970818Y-143179312D02*
X235495818Y-139369312D01*
X184070800Y-148519319D02*
G75*
G03*
X197723530Y-154498334I9815900J3836919D01*
G01*
X240258318Y-137464301D02*
G75*
G03*
X317410818Y-126034312I-4833518J298731201D01*
G01*
X200613600Y-36575000D02*
X175848599Y-36575001D01*
X24764992Y-122275000D02*
G75*
G03*
X28726382Y-126034311I3860408J101100D01*
G01*
X95250000Y-24765000D02*
X93345000Y-24765000D01*
X173943603Y-120675770D02*
G75*
G03*
X174718601Y-124122587I9252197J269770D01*
G01*
X173943600Y-81202885D02*
X172193600Y-81202885D01*
X172193600Y-77952885D02*
X172193600Y-38480000D01*
X145523600Y-36575001D02*
G75*
G03*
X99060000Y-24765001I-49867630J-98887259D01*
G01*
X252792200Y-24765000D02*
X250887200Y-24765000D01*
X105878882Y-137464312D02*
X110641382Y-139369312D01*
X171418602Y-124122588D02*
G75*
G03*
X172193600Y-120675770I-8477202J3716588D01*
G01*
X120166382Y-143179312D02*
X148413670Y-154498335D01*
X148413671Y-154498332D02*
G75*
G03*
X162066382Y-148519312I3836829J9815902D01*
G01*
M02*
