M48
; DRILL file {KiCad (7.0.0-0)} date Thursday, May 04, 2023 at 05:38:18 PM
; FORMAT={-:-/ absolute / metric / decimal}
; #@! TF.CreationDate,2023-05-04T17:38:18-07:00
; #@! TF.GenerationSoftware,Kicad,Pcbnew,(7.0.0-0)
; #@! TF.FileFunction,Plated,1,2,PTH
FMAT,2
METRIC
; #@! TA.AperFunction,Plated,PTH,ViaDrill
T1C0.250
; #@! TA.AperFunction,Plated,PTH,ComponentDrill
T2C0.250
; #@! TA.AperFunction,Plated,PTH,ComponentDrill
T3C0.900
; #@! TA.AperFunction,Plated,PTH,ComponentDrill
T4C1.000
; #@! TA.AperFunction,Plated,PTH,ComponentDrill
T5C1.020
; #@! TA.AperFunction,Plated,PTH,ComponentDrill
T6C3.000
%
G90
G05
T1
X42.7Y-122.95
X43.33Y-105.03
X45.42Y-67.15
X47.595Y-121.067
X49.82Y-101.45
X64.508Y-115.299
X72.99Y-91.23
X73.0Y-53.17
X81.59Y-124.9
X83.629Y-103.234
X88.3Y-47.56
X88.59Y-85.75
X89.35Y-128.629
X90.01Y-74.02
X90.14Y-112.25
X90.52Y-54.89
X90.678Y-35.342
X90.831Y-92.977
X92.04Y-104.76
X92.19Y-95.24
X101.35Y-82.17
X102.608Y-116.849
X103.58Y-129.99
X103.6Y-129.08
X104.714Y-85.606
X104.805Y-124.235
X105.92Y-92.22
X106.04Y-72.13
X107.11Y-127.022
X111.08Y-53.04
X111.09Y-89.67
X111.098Y-110.29
X116.52Y-116.352
X118.6Y-115.48
X119.48Y-111.92
X121.658Y-103.19
X121.658Y-122.349
X122.56Y-89.829
X123.77Y-81.24
X123.82Y-129.3
X123.82Y-130.34
X123.825Y-127.335
X123.829Y-128.271
X128.33Y-81.95
X128.48Y-53.66
X130.73Y-122.73
X135.548Y-43.049
X135.705Y-53.95
X136.55Y-89.58
X139.46Y-123.826
X140.708Y-92.57
X144.823Y-118.213
X149.43Y-106.06
X151.3Y-90.58
X151.48Y-118.213
X152.651Y-91.724
X153.27Y-91.2
X153.821Y-94.599
X155.41Y-108.14
X157.392Y-55.592
X157.397Y-58.127
X157.397Y-60.667
X157.407Y-80.977
X157.417Y-63.187
X157.427Y-75.877
X157.442Y-73.322
X160.56Y-116.1
X163.322Y-77.602
X163.902Y-64.322
X163.905Y-82.145
X163.907Y-79.557
X163.907Y-87.177
X167.37Y-106.92
X170.39Y-43.27
X170.75Y-87.71
X191.795Y-147.185
X192.433Y-139.698
X192.77Y-147.19
X195.17Y-82.65
X195.18Y-87.65
X200.39Y-129.55
X201.09Y-146.1
X207.72Y-63.39
X209.58Y-74.65
X211.215Y-53.285
X212.283Y-137.562
X214.991Y-43.049
X215.48Y-51.89
X219.54Y-97.49
X220.151Y-67.699
X220.151Y-86.749
X226.6Y-97.57
X228.64Y-52.4
X239.201Y-51.34
X240.55Y-107.2
X240.879Y-127.063
X244.03Y-47.62
X244.663Y-93.798
X245.4Y-85.02
X245.67Y-54.79
X245.82Y-73.87
X245.94Y-35.84
X246.65Y-83.8
X255.8Y-127.87
X256.53Y-43.85
X256.955Y-31.085
X258.309Y-116.734
X266.74Y-34.18
X266.74Y-72.23
X277.107Y-30.485
X277.301Y-103.299
X277.301Y-122.349
X278.836Y-82.174
X279.386Y-100.164
X279.576Y-62.004
X281.0Y-42.948
X281.66Y-65.13
X285.78Y-84.19
X285.79Y-103.24
X287.15Y-44.5
X289.765Y-85.305
X296.351Y-48.72
X296.351Y-115.299
X300.712Y-101.45
X302.994Y-123.394
X303.573Y-64.563
X308.459Y-122.929
X313.57Y-120.57
X315.122Y-104.56
X315.401Y-58.149
T2
X34.898Y-49.767
X34.898Y-68.817
X34.898Y-87.867
X34.9Y-108.188
X35.898Y-51.291
X35.898Y-70.341
X35.898Y-89.391
X35.9Y-109.712
X40.298Y-49.767
X40.298Y-68.817
X40.298Y-87.867
X40.3Y-108.188
X45.425Y-64.35
X45.425Y-102.5
X49.825Y-65.85
X49.825Y-104.0
X50.825Y-64.338
X50.825Y-102.488
X53.948Y-49.767
X53.948Y-68.817
X53.948Y-87.867
X53.948Y-106.917
X54.948Y-51.291
X54.948Y-70.341
X54.948Y-89.391
X54.948Y-108.441
X59.348Y-49.767
X59.348Y-68.817
X59.348Y-87.867
X59.348Y-106.917
X72.998Y-37.767
X72.998Y-56.817
X72.998Y-75.867
X72.998Y-94.917
X72.998Y-113.967
X73.998Y-39.291
X73.998Y-58.341
X73.998Y-77.391
X73.998Y-96.441
X73.998Y-115.491
X78.398Y-37.767
X78.398Y-56.817
X78.398Y-75.867
X78.398Y-94.917
X78.398Y-113.967
X92.048Y-32.267
X92.048Y-51.317
X92.048Y-70.367
X92.048Y-89.417
X92.048Y-108.467
X93.005Y-123.085
X93.048Y-33.791
X93.048Y-52.841
X93.048Y-71.891
X93.048Y-90.941
X93.048Y-109.991
X93.05Y-46.845
X93.05Y-84.98
X97.405Y-124.585
X97.448Y-32.267
X97.448Y-51.317
X97.448Y-70.367
X97.448Y-89.417
X97.448Y-108.467
X97.45Y-48.345
X97.45Y-86.48
X98.405Y-123.073
X98.45Y-46.833
X98.45Y-84.968
X111.098Y-37.767
X111.098Y-56.817
X111.098Y-75.867
X111.098Y-94.917
X111.098Y-113.967
X112.098Y-39.291
X112.098Y-58.341
X112.098Y-77.391
X112.098Y-96.441
X112.098Y-115.491
X116.498Y-37.767
X116.498Y-56.817
X116.498Y-75.867
X116.498Y-94.917
X116.498Y-113.967
X127.732Y-130.477
X129.52Y-130.121
X129.755Y-125.47
X130.148Y-40.267
X130.148Y-59.317
X130.148Y-78.367
X130.148Y-97.417
X131.148Y-41.791
X131.148Y-60.841
X131.148Y-79.891
X131.148Y-98.941
X131.15Y-92.98
X131.305Y-54.835
X135.548Y-40.267
X135.548Y-59.317
X135.548Y-78.367
X135.548Y-97.417
X135.55Y-94.48
X135.705Y-56.335
X136.55Y-92.968
X136.705Y-54.823
X137.816Y-140.754
X142.216Y-142.254
X143.216Y-140.742
X147.582Y-132.601
X149.37Y-132.244
X149.605Y-127.594
X195.21Y-128.265
X196.249Y-126.767
X198.272Y-131.774
X204.015Y-140.851
X208.415Y-142.351
X209.415Y-140.839
X209.591Y-40.267
X209.591Y-59.317
X209.591Y-78.367
X209.591Y-97.417
X210.587Y-54.905
X210.587Y-92.945
X210.591Y-41.791
X210.591Y-60.841
X210.591Y-79.891
X210.591Y-98.941
X214.987Y-56.405
X214.987Y-94.445
X214.991Y-40.267
X214.991Y-59.317
X214.991Y-78.367
X214.991Y-97.417
X215.06Y-126.129
X215.987Y-54.893
X215.987Y-92.933
X216.099Y-124.631
X218.122Y-129.637
X228.641Y-37.767
X228.641Y-56.817
X228.641Y-75.867
X228.641Y-94.917
X228.641Y-113.967
X229.641Y-39.291
X229.641Y-58.341
X229.641Y-77.391
X229.641Y-96.441
X229.641Y-115.491
X234.041Y-37.767
X234.041Y-56.817
X234.041Y-75.867
X234.041Y-94.917
X234.041Y-113.967
X247.691Y-32.267
X247.691Y-51.317
X247.691Y-70.367
X247.691Y-89.417
X247.691Y-108.467
X248.635Y-46.875
X248.687Y-84.915
X248.687Y-123.065
X248.691Y-33.791
X248.691Y-52.841
X248.691Y-71.891
X248.691Y-90.941
X248.691Y-109.991
X253.035Y-48.375
X253.087Y-86.415
X253.087Y-124.565
X253.091Y-32.267
X253.091Y-51.317
X253.091Y-70.367
X253.091Y-89.417
X253.091Y-108.467
X254.035Y-46.863
X254.087Y-84.903
X254.087Y-123.053
X266.741Y-37.767
X266.741Y-56.817
X266.741Y-75.867
X266.741Y-94.917
X266.741Y-113.967
X267.741Y-39.291
X267.741Y-58.341
X267.741Y-77.391
X267.741Y-96.441
X267.741Y-115.491
X272.141Y-37.767
X272.141Y-56.817
X272.141Y-75.867
X272.141Y-94.917
X272.141Y-113.967
X285.791Y-49.767
X285.791Y-68.817
X285.791Y-87.867
X285.791Y-106.917
X286.791Y-51.291
X286.791Y-70.341
X286.791Y-89.391
X286.791Y-108.441
X291.191Y-49.767
X291.191Y-68.817
X291.191Y-87.867
X291.191Y-106.917
X296.312Y-64.39
X296.312Y-102.47
X300.712Y-65.89
X300.712Y-103.97
X301.712Y-64.378
X301.712Y-102.458
X304.837Y-108.188
X304.841Y-49.767
X304.841Y-68.817
X304.841Y-87.867
X305.837Y-109.712
X305.841Y-51.291
X305.841Y-70.341
X305.841Y-89.391
X310.237Y-108.188
X310.241Y-49.767
X310.241Y-68.817
X310.241Y-87.867
T3
X30.026Y-106.727
X30.026Y-114.727
X30.159Y-49.526
X30.159Y-57.526
X30.159Y-68.576
X30.159Y-76.576
X30.159Y-87.626
X30.159Y-95.626
X49.209Y-49.526
X49.209Y-57.526
X49.209Y-68.576
X49.209Y-76.576
X49.209Y-87.626
X49.209Y-95.626
X49.209Y-106.676
X49.209Y-114.676
X68.259Y-37.526
X68.259Y-45.526
X68.259Y-56.576
X68.259Y-64.576
X68.259Y-75.626
X68.259Y-83.626
X68.259Y-94.676
X68.259Y-102.676
X68.259Y-113.726
X68.259Y-121.726
X87.309Y-32.026
X87.309Y-40.026
X87.309Y-51.076
X87.309Y-59.076
X87.309Y-70.126
X87.309Y-78.126
X87.309Y-89.176
X87.309Y-97.176
X87.309Y-108.226
X87.309Y-116.226
X106.359Y-37.526
X106.359Y-45.526
X106.359Y-56.576
X106.359Y-64.576
X106.359Y-75.626
X106.359Y-83.626
X106.359Y-94.676
X106.359Y-102.676
X106.359Y-113.726
X106.359Y-121.726
X125.409Y-40.026
X125.409Y-48.026
X125.409Y-59.076
X125.409Y-67.076
X125.409Y-78.126
X125.409Y-86.126
X125.409Y-97.176
X125.409Y-105.176
X125.734Y-134.78
X133.152Y-137.777
X143.929Y-39.277
X143.929Y-47.277
X145.462Y-136.842
X152.879Y-139.839
X167.361Y-96.917
X167.361Y-104.917
X175.849Y-39.828
X175.849Y-47.828
X187.279Y-125.28
X194.697Y-122.283
X195.721Y-97.087
X195.721Y-105.087
X204.852Y-40.026
X204.852Y-48.026
X204.852Y-59.076
X204.852Y-67.076
X204.852Y-78.126
X204.852Y-86.126
X204.852Y-97.176
X204.852Y-105.176
X207.129Y-123.144
X214.547Y-120.147
X223.902Y-37.526
X223.902Y-45.526
X223.902Y-56.576
X223.902Y-64.576
X223.902Y-75.626
X223.902Y-83.626
X223.902Y-94.676
X223.902Y-102.676
X223.902Y-113.726
X223.902Y-121.726
X242.952Y-32.026
X242.952Y-40.026
X242.952Y-51.076
X242.952Y-59.076
X242.952Y-70.126
X242.952Y-78.126
X242.952Y-89.176
X242.952Y-97.176
X242.952Y-108.226
X242.952Y-116.226
X262.002Y-37.526
X262.002Y-45.526
X262.002Y-56.576
X262.002Y-64.576
X262.002Y-75.626
X262.002Y-83.626
X262.002Y-94.676
X262.002Y-102.676
X262.002Y-113.726
X262.002Y-121.726
X281.052Y-49.526
X281.052Y-57.526
X281.052Y-68.576
X281.052Y-76.576
X281.052Y-87.626
X281.052Y-95.626
X281.052Y-106.676
X281.052Y-114.676
X300.102Y-49.526
X300.102Y-57.526
X300.102Y-68.576
X300.102Y-76.576
X300.102Y-87.626
X300.102Y-95.626
X300.102Y-106.676
X300.102Y-114.676
T4
X35.6Y-106.35
X35.6Y-120.85
X38.1Y-120.85
X40.6Y-106.35
X40.6Y-120.85
X156.359Y-96.25
X156.359Y-110.75
X158.859Y-110.75
X161.359Y-96.25
X161.359Y-110.75
X184.779Y-96.25
X184.779Y-110.75
X187.279Y-110.75
X189.779Y-96.25
X189.779Y-110.75
X305.537Y-106.35
X305.537Y-120.85
X308.037Y-120.85
X310.537Y-106.35
X310.537Y-120.85
T5
X148.469Y-39.115
X148.469Y-41.655
X148.469Y-44.195
X148.469Y-46.735
X148.469Y-49.275
X148.469Y-51.815
X148.469Y-54.355
X148.469Y-56.895
X148.469Y-59.435
X148.469Y-61.975
X148.469Y-64.515
X148.469Y-67.055
X148.469Y-69.595
X148.469Y-72.135
X148.469Y-74.675
X148.469Y-77.215
X148.469Y-79.755
X148.469Y-82.295
X148.469Y-84.835
X148.469Y-87.375
X154.819Y-87.145
X157.359Y-87.145
X159.899Y-87.145
X166.249Y-39.115
X166.249Y-41.655
X166.249Y-44.195
X166.249Y-46.735
X166.249Y-49.275
X166.249Y-51.815
X166.249Y-54.355
X166.249Y-56.895
X166.249Y-59.435
X166.249Y-61.975
X166.249Y-64.515
X166.249Y-67.055
X166.249Y-69.595
X166.249Y-72.135
X166.249Y-74.675
X166.249Y-77.215
X166.249Y-79.755
X166.249Y-82.295
X166.249Y-84.835
X166.249Y-87.375
X180.156Y-39.115
X180.156Y-41.655
X180.156Y-44.195
X180.156Y-46.735
X180.156Y-49.275
X180.156Y-51.815
X180.156Y-54.355
X180.156Y-56.895
X180.156Y-59.435
X180.156Y-61.975
X180.156Y-64.515
X180.156Y-67.055
X180.156Y-69.595
X180.156Y-72.135
X180.156Y-74.675
X180.156Y-77.215
X180.156Y-79.755
X180.156Y-82.295
X180.156Y-84.835
X180.156Y-87.375
X186.506Y-87.145
X189.046Y-87.145
X191.586Y-87.145
X197.936Y-39.115
X197.936Y-41.655
X197.936Y-44.195
X197.936Y-46.735
X197.936Y-49.275
X197.936Y-51.815
X197.936Y-54.355
X197.936Y-56.895
X197.936Y-59.435
X197.936Y-61.975
X197.936Y-64.515
X197.936Y-67.055
X197.936Y-69.595
X197.936Y-72.135
X197.936Y-74.675
X197.936Y-77.215
X197.936Y-79.755
X197.936Y-82.295
X197.936Y-84.835
X197.936Y-87.375
T6
X35.558Y-60.689
X35.558Y-79.739
X35.558Y-98.789
X41.908Y-58.149
X41.908Y-77.199
X41.908Y-96.249
X54.608Y-60.689
X54.608Y-79.739
X54.608Y-98.789
X54.608Y-117.839
X60.958Y-58.149
X60.958Y-77.199
X60.958Y-96.249
X60.958Y-115.299
X73.658Y-48.689
X73.658Y-67.739
X73.658Y-86.789
X73.658Y-105.839
X73.658Y-124.889
X80.008Y-46.149
X80.008Y-65.199
X80.008Y-84.249
X80.008Y-103.299
X80.008Y-122.349
X92.708Y-43.189
X92.708Y-62.239
X92.708Y-81.289
X92.708Y-100.339
X92.708Y-119.389
X99.058Y-40.649
X99.058Y-59.699
X99.058Y-78.749
X99.058Y-97.799
X99.058Y-116.849
X111.758Y-48.689
X111.758Y-67.739
X111.758Y-86.789
X111.758Y-105.839
X111.758Y-124.889
X118.108Y-46.149
X118.108Y-65.199
X118.108Y-84.249
X118.108Y-103.299
X118.108Y-122.349
X130.808Y-51.189
X130.808Y-70.239
X130.808Y-89.289
X130.808Y-108.339
X137.158Y-48.649
X137.158Y-67.699
X137.158Y-86.749
X137.158Y-105.799
X138.106Y-133.956
X138.13Y-127.117
X157.956Y-136.08
X157.98Y-129.241
X186.369Y-131.47
X191.103Y-136.406
X206.219Y-129.334
X210.251Y-51.189
X210.251Y-70.239
X210.251Y-89.289
X210.251Y-108.339
X210.953Y-134.27
X216.601Y-48.649
X216.601Y-67.699
X216.601Y-86.749
X216.601Y-105.799
X229.301Y-48.689
X229.301Y-67.739
X229.301Y-86.789
X229.301Y-105.839
X229.301Y-124.889
X235.651Y-46.149
X235.651Y-65.199
X235.651Y-84.249
X235.651Y-103.299
X235.651Y-122.349
X248.351Y-43.189
X248.351Y-62.239
X248.351Y-81.289
X248.351Y-100.339
X248.351Y-119.389
X254.701Y-40.649
X254.701Y-59.699
X254.701Y-78.749
X254.701Y-97.799
X254.701Y-116.849
X267.401Y-48.689
X267.401Y-67.739
X267.401Y-86.789
X267.401Y-105.839
X267.401Y-124.889
X273.751Y-46.149
X273.751Y-65.199
X273.751Y-84.249
X273.751Y-103.299
X273.751Y-122.349
X286.451Y-60.689
X286.451Y-79.739
X286.451Y-98.789
X286.451Y-117.839
X292.801Y-58.149
X292.801Y-77.199
X292.801Y-96.249
X292.801Y-115.299
X305.501Y-60.689
X305.501Y-79.739
X305.501Y-98.789
X311.851Y-58.149
X311.851Y-77.199
X311.851Y-96.249
T3
X158.669Y-118.213G85X159.069Y-118.213
G05
X159.769Y-113.613G85X160.169Y-113.613
G05
X163.769Y-113.613G85X164.169Y-113.613
G05
X166.769Y-113.613G85X167.169Y-113.613
G05
X179.369Y-118.213G85X178.969Y-118.213
G05
X182.369Y-118.213G85X181.969Y-118.213
G05
X186.369Y-118.213G85X185.969Y-118.213
G05
X187.469Y-113.613G85X187.069Y-113.613
G05
T0
M30
