G04 #@! TF.GenerationSoftware,KiCad,Pcbnew,(7.0.0-0)*
G04 #@! TF.CreationDate,2023-05-21T14:37:32-07:00*
G04 #@! TF.ProjectId,Junco,4a756e63-6f2e-46b6-9963-61645f706362,rev?*
G04 #@! TF.SameCoordinates,Original*
G04 #@! TF.FileFunction,Profile,NP*
%FSLAX46Y46*%
G04 Gerber Fmt 4.6, Leading zero omitted, Abs format (unit mm)*
G04 Created by KiCad (PCBNEW (7.0.0-0)) date 2023-05-21 14:37:32*
%MOMM*%
%LPD*%
G01*
G04 APERTURE LIST*
G04 #@! TA.AperFunction,Profile*
%ADD10C,0.100000*%
G04 #@! TD*
G04 #@! TA.AperFunction,Profile*
%ADD11C,0.120000*%
G04 #@! TD*
G04 APERTURE END LIST*
D10*
X173943600Y-120675770D02*
X173943600Y-81202885D01*
X95250000Y-24765000D02*
X99060000Y-24765000D01*
X110641382Y-139369312D02*
X120166382Y-143179312D01*
X24765000Y-46075000D02*
X24765000Y-122275000D01*
X172193599Y-38480000D02*
G75*
G03*
X170288601Y-36575001I-1904999J0D01*
G01*
X93345000Y-24765000D02*
G75*
G03*
X28575000Y-42265001I270350J-129612110D01*
G01*
X175848599Y-36575000D02*
G75*
G03*
X173943600Y-38480000I1J-1905000D01*
G01*
X317410818Y-126034302D02*
G75*
G03*
X321372199Y-122275000I100982J3860402D01*
G01*
X247077201Y-24765018D02*
G75*
G03*
X200613600Y-36575001I3403999J-110697282D01*
G01*
X184070818Y-148519312D02*
X174718600Y-124122587D01*
X247077200Y-24765000D02*
X250887200Y-24765000D01*
X172193600Y-77952885D02*
X173943600Y-77952885D01*
X28726382Y-126034311D02*
G75*
G03*
X105878882Y-137464311I81986058J287301181D01*
G01*
X171418600Y-124122587D02*
X162066382Y-148519312D01*
X170288601Y-36575001D02*
X145523600Y-36575000D01*
X173943600Y-77952885D02*
X173943600Y-38480000D01*
X235495818Y-139369312D02*
X240258318Y-137464312D01*
X321372200Y-122275000D02*
X321372200Y-46075000D01*
X321372200Y-46075000D02*
G75*
G03*
X317562200Y-42265000I-3810000J0D01*
G01*
X172193600Y-81202885D02*
X172193600Y-120675770D01*
X317562200Y-42264999D02*
G75*
G03*
X252792200Y-24765001I-65040340J-112112091D01*
G01*
X197723530Y-154498335D02*
X225970818Y-143179312D01*
X28575000Y-42265000D02*
G75*
G03*
X24765000Y-46075000I0J-3810000D01*
G01*
X225970818Y-143179312D02*
X235495818Y-139369312D01*
X184070800Y-148519319D02*
G75*
G03*
X197723530Y-154498334I9815900J3836919D01*
G01*
X240258318Y-137464301D02*
G75*
G03*
X317410818Y-126034312I-4833518J298731201D01*
G01*
X200613600Y-36575000D02*
X175848599Y-36575001D01*
X24764992Y-122275000D02*
G75*
G03*
X28726382Y-126034311I3860408J101100D01*
G01*
X95250000Y-24765000D02*
X93345000Y-24765000D01*
X173943603Y-120675770D02*
G75*
G03*
X174718601Y-124122587I9252197J269770D01*
G01*
X173943600Y-81202885D02*
X172193600Y-81202885D01*
X172193600Y-77952885D02*
X172193600Y-38480000D01*
X145523600Y-36575001D02*
G75*
G03*
X99060000Y-24765001I-49867630J-98887259D01*
G01*
X252792200Y-24765000D02*
X250887200Y-24765000D01*
X105878882Y-137464312D02*
X110641382Y-139369312D01*
X171418602Y-124122588D02*
G75*
G03*
X172193600Y-120675770I-8477202J3716588D01*
G01*
X120166382Y-143179312D02*
X148413670Y-154498335D01*
X148413671Y-154498332D02*
G75*
G03*
X162066382Y-148519312I3836829J9815902D01*
G01*
D11*
X252687200Y-122215000D02*
X249087200Y-122215000D01*
X249087200Y-122215000D02*
X249087200Y-125415000D01*
X249087200Y-125415000D02*
X252687200Y-125415000D01*
X252687200Y-125415000D02*
X252687200Y-122215000D01*
X252687200Y-84065000D02*
X249087200Y-84065000D01*
X249087200Y-84065000D02*
X249087200Y-87265000D01*
X249087200Y-87265000D02*
X252687200Y-87265000D01*
X252687200Y-87265000D02*
X252687200Y-84065000D01*
X214587200Y-92095000D02*
X210987200Y-92095000D01*
X210987200Y-92095000D02*
X210987200Y-95295000D01*
X210987200Y-95295000D02*
X214587200Y-95295000D01*
X214587200Y-95295000D02*
X214587200Y-92095000D01*
X141816382Y-139903612D02*
X138216382Y-139903612D01*
X138216382Y-139903612D02*
X138216382Y-143103612D01*
X138216382Y-143103612D02*
X141816382Y-143103612D01*
X141816382Y-143103612D02*
X141816382Y-139903612D01*
X208014654Y-140001288D02*
X204414654Y-140001288D01*
X204414654Y-140001288D02*
X204414654Y-143201288D01*
X204414654Y-143201288D02*
X208014654Y-143201288D01*
X208014654Y-143201288D02*
X208014654Y-140001288D01*
X97050000Y-45995000D02*
X93450000Y-45995000D01*
X93450000Y-45995000D02*
X93450000Y-49195000D01*
X93450000Y-49195000D02*
X97050000Y-49195000D01*
X97050000Y-49195000D02*
X97050000Y-45995000D01*
X300312200Y-101620000D02*
X296712200Y-101620000D01*
X296712200Y-101620000D02*
X296712200Y-104820000D01*
X296712200Y-104820000D02*
X300312200Y-104820000D01*
X300312200Y-104820000D02*
X300312200Y-101620000D01*
X135150000Y-92130000D02*
X131550000Y-92130000D01*
X131550000Y-92130000D02*
X131550000Y-95330000D01*
X131550000Y-95330000D02*
X135150000Y-95330000D01*
X135150000Y-95330000D02*
X135150000Y-92130000D01*
X49425000Y-63500000D02*
X45825000Y-63500000D01*
X45825000Y-63500000D02*
X45825000Y-66700000D01*
X45825000Y-66700000D02*
X49425000Y-66700000D01*
X49425000Y-66700000D02*
X49425000Y-63500000D01*
X214587200Y-54055000D02*
X210987200Y-54055000D01*
X210987200Y-54055000D02*
X210987200Y-57255000D01*
X210987200Y-57255000D02*
X214587200Y-57255000D01*
X214587200Y-57255000D02*
X214587200Y-54055000D01*
X252635000Y-46025000D02*
X249035000Y-46025000D01*
X249035000Y-46025000D02*
X249035000Y-49225000D01*
X249035000Y-49225000D02*
X252635000Y-49225000D01*
X252635000Y-49225000D02*
X252635000Y-46025000D01*
X97050000Y-84130000D02*
X93450000Y-84130000D01*
X93450000Y-84130000D02*
X93450000Y-87330000D01*
X93450000Y-87330000D02*
X97050000Y-87330000D01*
X97050000Y-87330000D02*
X97050000Y-84130000D01*
X49425000Y-101650000D02*
X45825000Y-101650000D01*
X45825000Y-101650000D02*
X45825000Y-104850000D01*
X45825000Y-104850000D02*
X49425000Y-104850000D01*
X49425000Y-104850000D02*
X49425000Y-101650000D01*
X300312200Y-63540000D02*
X296712200Y-63540000D01*
X296712200Y-63540000D02*
X296712200Y-66740000D01*
X296712200Y-66740000D02*
X300312200Y-66740000D01*
X300312200Y-66740000D02*
X300312200Y-63540000D01*
X97005000Y-122235000D02*
X93405000Y-122235000D01*
X93405000Y-122235000D02*
X93405000Y-125435000D01*
X93405000Y-125435000D02*
X97005000Y-125435000D01*
X97005000Y-125435000D02*
X97005000Y-122235000D01*
X135305000Y-53985000D02*
X131705000Y-53985000D01*
X131705000Y-53985000D02*
X131705000Y-57185000D01*
X131705000Y-57185000D02*
X135305000Y-57185000D01*
X135305000Y-57185000D02*
X135305000Y-53985000D01*
X36297764Y-48928624D02*
X39897764Y-48928624D01*
X39897764Y-48928624D02*
X39897764Y-52128624D01*
X39897764Y-52128624D02*
X36297764Y-52128624D01*
X36297764Y-52128624D02*
X36297764Y-48928624D01*
X74397764Y-55978624D02*
X77997764Y-55978624D01*
X77997764Y-55978624D02*
X77997764Y-59178624D01*
X77997764Y-59178624D02*
X74397764Y-59178624D01*
X74397764Y-59178624D02*
X74397764Y-55978624D01*
X287190564Y-48928624D02*
X290790564Y-48928624D01*
X290790564Y-48928624D02*
X290790564Y-52128624D01*
X290790564Y-52128624D02*
X287190564Y-52128624D01*
X287190564Y-52128624D02*
X287190564Y-48928624D01*
X74397764Y-36928624D02*
X77997764Y-36928624D01*
X77997764Y-36928624D02*
X77997764Y-40128624D01*
X77997764Y-40128624D02*
X74397764Y-40128624D01*
X74397764Y-40128624D02*
X74397764Y-36928624D01*
X131547764Y-96578624D02*
X135147764Y-96578624D01*
X135147764Y-96578624D02*
X135147764Y-99778624D01*
X135147764Y-99778624D02*
X131547764Y-99778624D01*
X131547764Y-99778624D02*
X131547764Y-96578624D01*
X249090564Y-88578624D02*
X252690564Y-88578624D01*
X252690564Y-88578624D02*
X252690564Y-91778624D01*
X252690564Y-91778624D02*
X249090564Y-91778624D01*
X249090564Y-91778624D02*
X249090564Y-88578624D01*
X112497764Y-36928624D02*
X116097764Y-36928624D01*
X116097764Y-36928624D02*
X116097764Y-40128624D01*
X116097764Y-40128624D02*
X112497764Y-40128624D01*
X112497764Y-40128624D02*
X112497764Y-36928624D01*
X230040564Y-36928624D02*
X233640564Y-36928624D01*
X233640564Y-36928624D02*
X233640564Y-40128624D01*
X233640564Y-40128624D02*
X230040564Y-40128624D01*
X230040564Y-40128624D02*
X230040564Y-36928624D01*
X268140564Y-113128624D02*
X271740564Y-113128624D01*
X271740564Y-113128624D02*
X271740564Y-116328624D01*
X271740564Y-116328624D02*
X268140564Y-116328624D01*
X268140564Y-116328624D02*
X268140564Y-113128624D01*
X55347764Y-67978624D02*
X58947764Y-67978624D01*
X58947764Y-67978624D02*
X58947764Y-71178624D01*
X58947764Y-71178624D02*
X55347764Y-71178624D01*
X55347764Y-71178624D02*
X55347764Y-67978624D01*
X210990564Y-39428624D02*
X214590564Y-39428624D01*
X214590564Y-39428624D02*
X214590564Y-42628624D01*
X214590564Y-42628624D02*
X210990564Y-42628624D01*
X210990564Y-42628624D02*
X210990564Y-39428624D01*
X36297764Y-87028624D02*
X39897764Y-87028624D01*
X39897764Y-87028624D02*
X39897764Y-90228624D01*
X39897764Y-90228624D02*
X36297764Y-90228624D01*
X36297764Y-90228624D02*
X36297764Y-87028624D01*
X112497764Y-75028624D02*
X116097764Y-75028624D01*
X116097764Y-75028624D02*
X116097764Y-78228624D01*
X116097764Y-78228624D02*
X112497764Y-78228624D01*
X112497764Y-78228624D02*
X112497764Y-75028624D01*
X230040564Y-55978624D02*
X233640564Y-55978624D01*
X233640564Y-55978624D02*
X233640564Y-59178624D01*
X233640564Y-59178624D02*
X230040564Y-59178624D01*
X230040564Y-59178624D02*
X230040564Y-55978624D01*
X93447764Y-69528624D02*
X97047764Y-69528624D01*
X97047764Y-69528624D02*
X97047764Y-72728624D01*
X97047764Y-72728624D02*
X93447764Y-72728624D01*
X93447764Y-72728624D02*
X93447764Y-69528624D01*
X74397764Y-113128624D02*
X77997764Y-113128624D01*
X77997764Y-113128624D02*
X77997764Y-116328624D01*
X77997764Y-116328624D02*
X74397764Y-116328624D01*
X74397764Y-116328624D02*
X74397764Y-113128624D01*
X36300000Y-107350000D02*
X39900000Y-107350000D01*
X39900000Y-107350000D02*
X39900000Y-110550000D01*
X39900000Y-110550000D02*
X36300000Y-110550000D01*
X36300000Y-110550000D02*
X36300000Y-107350000D01*
X306237200Y-107350000D02*
X309837200Y-107350000D01*
X309837200Y-107350000D02*
X309837200Y-110550000D01*
X309837200Y-110550000D02*
X306237200Y-110550000D01*
X306237200Y-110550000D02*
X306237200Y-107350000D01*
X287190564Y-67978624D02*
X290790564Y-67978624D01*
X290790564Y-67978624D02*
X290790564Y-71178624D01*
X290790564Y-71178624D02*
X287190564Y-71178624D01*
X287190564Y-71178624D02*
X287190564Y-67978624D01*
X74397764Y-75028624D02*
X77997764Y-75028624D01*
X77997764Y-75028624D02*
X77997764Y-78228624D01*
X77997764Y-78228624D02*
X74397764Y-78228624D01*
X74397764Y-78228624D02*
X74397764Y-75028624D01*
X112497764Y-55978624D02*
X116097764Y-55978624D01*
X116097764Y-55978624D02*
X116097764Y-59178624D01*
X116097764Y-59178624D02*
X112497764Y-59178624D01*
X112497764Y-59178624D02*
X112497764Y-55978624D01*
X210990564Y-58478624D02*
X214590564Y-58478624D01*
X214590564Y-58478624D02*
X214590564Y-61678624D01*
X214590564Y-61678624D02*
X210990564Y-61678624D01*
X210990564Y-61678624D02*
X210990564Y-58478624D01*
X230040564Y-75028624D02*
X233640564Y-75028624D01*
X233640564Y-75028624D02*
X233640564Y-78228624D01*
X233640564Y-78228624D02*
X230040564Y-78228624D01*
X230040564Y-78228624D02*
X230040564Y-75028624D01*
X249090564Y-31428624D02*
X252690564Y-31428624D01*
X252690564Y-31428624D02*
X252690564Y-34628624D01*
X252690564Y-34628624D02*
X249090564Y-34628624D01*
X249090564Y-34628624D02*
X249090564Y-31428624D01*
X197550332Y-127750973D02*
X198898916Y-131088835D01*
X198898916Y-131088835D02*
X195931928Y-132287576D01*
X195931928Y-132287576D02*
X194583344Y-128949714D01*
X194583344Y-128949714D02*
X197550332Y-127750973D01*
X131547764Y-77528624D02*
X135147764Y-77528624D01*
X135147764Y-77528624D02*
X135147764Y-80728624D01*
X135147764Y-80728624D02*
X131547764Y-80728624D01*
X131547764Y-80728624D02*
X131547764Y-77528624D01*
X287190564Y-106078624D02*
X290790564Y-106078624D01*
X290790564Y-106078624D02*
X290790564Y-109278624D01*
X290790564Y-109278624D02*
X287190564Y-109278624D01*
X287190564Y-109278624D02*
X287190564Y-106078624D01*
X131547764Y-58478624D02*
X135147764Y-58478624D01*
X135147764Y-58478624D02*
X135147764Y-61678624D01*
X135147764Y-61678624D02*
X131547764Y-61678624D01*
X131547764Y-61678624D02*
X131547764Y-58478624D01*
X93447764Y-107628624D02*
X97047764Y-107628624D01*
X97047764Y-107628624D02*
X97047764Y-110828624D01*
X97047764Y-110828624D02*
X93447764Y-110828624D01*
X93447764Y-110828624D02*
X93447764Y-107628624D01*
X210990564Y-77528624D02*
X214590564Y-77528624D01*
X214590564Y-77528624D02*
X214590564Y-80728624D01*
X214590564Y-80728624D02*
X210990564Y-80728624D01*
X210990564Y-80728624D02*
X210990564Y-77528624D01*
X306240564Y-87028624D02*
X309840564Y-87028624D01*
X309840564Y-87028624D02*
X309840564Y-90228624D01*
X309840564Y-90228624D02*
X306240564Y-90228624D01*
X306240564Y-90228624D02*
X306240564Y-87028624D01*
X306240564Y-48928624D02*
X309840564Y-48928624D01*
X309840564Y-48928624D02*
X309840564Y-52128624D01*
X309840564Y-52128624D02*
X306240564Y-52128624D01*
X306240564Y-52128624D02*
X306240564Y-48928624D01*
X93447764Y-31428624D02*
X97047764Y-31428624D01*
X97047764Y-31428624D02*
X97047764Y-34628624D01*
X97047764Y-34628624D02*
X93447764Y-34628624D01*
X93447764Y-34628624D02*
X93447764Y-31428624D01*
X36297764Y-67978624D02*
X39897764Y-67978624D01*
X39897764Y-67978624D02*
X39897764Y-71178624D01*
X39897764Y-71178624D02*
X36297764Y-71178624D01*
X36297764Y-71178624D02*
X36297764Y-67978624D01*
X210990564Y-96578624D02*
X214590564Y-96578624D01*
X214590564Y-96578624D02*
X214590564Y-99778624D01*
X214590564Y-99778624D02*
X210990564Y-99778624D01*
X210990564Y-99778624D02*
X210990564Y-96578624D01*
X112497764Y-94078624D02*
X116097764Y-94078624D01*
X116097764Y-94078624D02*
X116097764Y-97278624D01*
X116097764Y-97278624D02*
X112497764Y-97278624D01*
X112497764Y-97278624D02*
X112497764Y-94078624D01*
X112497764Y-113128624D02*
X116097764Y-113128624D01*
X116097764Y-113128624D02*
X116097764Y-116328624D01*
X116097764Y-116328624D02*
X112497764Y-116328624D01*
X112497764Y-116328624D02*
X112497764Y-113128624D01*
X249090564Y-69528624D02*
X252690564Y-69528624D01*
X252690564Y-69528624D02*
X252690564Y-72728624D01*
X252690564Y-72728624D02*
X249090564Y-72728624D01*
X249090564Y-72728624D02*
X249090564Y-69528624D01*
X147329884Y-130988583D02*
X148678468Y-127650721D01*
X148678468Y-127650721D02*
X151645456Y-128849462D01*
X151645456Y-128849462D02*
X150296872Y-132187324D01*
X150296872Y-132187324D02*
X147329884Y-130988583D01*
X287190564Y-87028624D02*
X290790564Y-87028624D01*
X290790564Y-87028624D02*
X290790564Y-90228624D01*
X290790564Y-90228624D02*
X287190564Y-90228624D01*
X287190564Y-90228624D02*
X287190564Y-87028624D01*
X268140564Y-75028624D02*
X271740564Y-75028624D01*
X271740564Y-75028624D02*
X271740564Y-78228624D01*
X271740564Y-78228624D02*
X268140564Y-78228624D01*
X268140564Y-78228624D02*
X268140564Y-75028624D01*
X249090564Y-107628624D02*
X252690564Y-107628624D01*
X252690564Y-107628624D02*
X252690564Y-110828624D01*
X252690564Y-110828624D02*
X249090564Y-110828624D01*
X249090564Y-110828624D02*
X249090564Y-107628624D01*
X74397764Y-94078624D02*
X77997764Y-94078624D01*
X77997764Y-94078624D02*
X77997764Y-97278624D01*
X77997764Y-97278624D02*
X74397764Y-97278624D01*
X74397764Y-97278624D02*
X74397764Y-94078624D01*
X230040564Y-94078624D02*
X233640564Y-94078624D01*
X233640564Y-94078624D02*
X233640564Y-97278624D01*
X233640564Y-97278624D02*
X230040564Y-97278624D01*
X230040564Y-97278624D02*
X230040564Y-94078624D01*
X306240564Y-67978624D02*
X309840564Y-67978624D01*
X309840564Y-67978624D02*
X309840564Y-71178624D01*
X309840564Y-71178624D02*
X306240564Y-71178624D01*
X306240564Y-71178624D02*
X306240564Y-67978624D01*
X55347764Y-87028624D02*
X58947764Y-87028624D01*
X58947764Y-87028624D02*
X58947764Y-90228624D01*
X58947764Y-90228624D02*
X55347764Y-90228624D01*
X55347764Y-90228624D02*
X55347764Y-87028624D01*
X55347764Y-106078624D02*
X58947764Y-106078624D01*
X58947764Y-106078624D02*
X58947764Y-109278624D01*
X58947764Y-109278624D02*
X55347764Y-109278624D01*
X55347764Y-109278624D02*
X55347764Y-106078624D01*
X268140564Y-55978624D02*
X271740564Y-55978624D01*
X271740564Y-55978624D02*
X271740564Y-59178624D01*
X271740564Y-59178624D02*
X268140564Y-59178624D01*
X268140564Y-59178624D02*
X268140564Y-55978624D01*
X268140564Y-36928624D02*
X271740564Y-36928624D01*
X271740564Y-36928624D02*
X271740564Y-40128624D01*
X271740564Y-40128624D02*
X268140564Y-40128624D01*
X268140564Y-40128624D02*
X268140564Y-36928624D01*
X217400332Y-125614673D02*
X218748916Y-128952535D01*
X218748916Y-128952535D02*
X215781928Y-130151276D01*
X215781928Y-130151276D02*
X214433344Y-126813414D01*
X214433344Y-126813414D02*
X217400332Y-125614673D01*
X230040564Y-113128624D02*
X233640564Y-113128624D01*
X233640564Y-113128624D02*
X233640564Y-116328624D01*
X233640564Y-116328624D02*
X230040564Y-116328624D01*
X230040564Y-116328624D02*
X230040564Y-113128624D01*
X249090564Y-50478624D02*
X252690564Y-50478624D01*
X252690564Y-50478624D02*
X252690564Y-53678624D01*
X252690564Y-53678624D02*
X249090564Y-53678624D01*
X249090564Y-53678624D02*
X249090564Y-50478624D01*
X127479884Y-128864883D02*
X128828468Y-125527021D01*
X128828468Y-125527021D02*
X131795456Y-126725762D01*
X131795456Y-126725762D02*
X130446872Y-130063624D01*
X130446872Y-130063624D02*
X127479884Y-128864883D01*
X55347764Y-48928624D02*
X58947764Y-48928624D01*
X58947764Y-48928624D02*
X58947764Y-52128624D01*
X58947764Y-52128624D02*
X55347764Y-52128624D01*
X55347764Y-52128624D02*
X55347764Y-48928624D01*
X93447764Y-88578624D02*
X97047764Y-88578624D01*
X97047764Y-88578624D02*
X97047764Y-91778624D01*
X97047764Y-91778624D02*
X93447764Y-91778624D01*
X93447764Y-91778624D02*
X93447764Y-88578624D01*
X93447764Y-50478624D02*
X97047764Y-50478624D01*
X97047764Y-50478624D02*
X97047764Y-53678624D01*
X97047764Y-53678624D02*
X93447764Y-53678624D01*
X93447764Y-53678624D02*
X93447764Y-50478624D01*
X131547764Y-39428624D02*
X135147764Y-39428624D01*
X135147764Y-39428624D02*
X135147764Y-42628624D01*
X135147764Y-42628624D02*
X131547764Y-42628624D01*
X131547764Y-42628624D02*
X131547764Y-39428624D01*
X268140564Y-94078624D02*
X271740564Y-94078624D01*
X271740564Y-94078624D02*
X271740564Y-97278624D01*
X271740564Y-97278624D02*
X268140564Y-97278624D01*
X268140564Y-97278624D02*
X268140564Y-94078624D01*
M02*
