<?xml version="1.0" encoding="utf-8"?>
<!-- Generator: Adobe Illustrator 26.3.1, SVG Export Plug-In . SVG Version: 6.00 Build 0)  -->
<svg version="1.1" id="Layer_1" xmlns:svg="http://www.w3.org/2000/svg"
	 xmlns="http://www.w3.org/2000/svg" xmlns:xlink="http://www.w3.org/1999/xlink" x="0px" y="0px" viewBox="0 0 1190.5 841.9"
	 style="enable-background:new 0 0 1190.5 841.9;" xml:space="preserve">
<style type="text/css">
	.st0{opacity:0;fill:#FFFFFF;}
	.st1{fill:none;stroke:#000000;stroke-width:0.2835;stroke-linecap:round;stroke-linejoin:round;stroke-miterlimit:10;}
	.st2{fill:#FFFFFF;}
	.st3{fill:#0000FF;fill-opacity:0;}
	.st4{fill:none;stroke:#231F20;stroke-width:0.3402;stroke-linecap:round;stroke-linejoin:round;stroke-miterlimit:10;}
	.st5{fill:#0000FF;}
	.st6{fill:none;stroke:#000000;stroke-width:0.3402;stroke-linecap:round;stroke-linejoin:round;stroke-miterlimit:10;}
	.st7{fill:#FF0000;fill-opacity:0;}
	.st8{fill:#FF0000;}
	.st9{fill:none;}
</style>
<g transform="translate(0 0) scale(1 1)">
</g>
<g>
	<path class="st0" d="M488.1,342c-0.1,3.4-0.8,6.7-2.2,9.8L459.4,421c-6,15.3-23.3,22.9-38.7,16.9v0.1l-80.1-32.1l-27-10.8
		c0,0-13.5-5.4-13.5-5.4c-74-1.2-147.5-12.1-218.7-32.4c-6,0.1-11-4.7-11.2-10.7v-216c0-6,4.8-10.8,10.8-10.8
		c55.8-32.4,119.1-49.5,183.6-49.6h5.4h10.8c45.8,1.4,90.8,12.8,131.7,33.5h70.2c3,0,5.4,2.4,5.4,5.4v121.1v111.9"/>
	<path class="st1" d="M488.1,342c-0.1,3.4-0.8,6.7-2.2,9.8L459.4,421c-6,15.3-23.3,22.9-38.7,16.9v0.1l-80.1-32.1l-27-10.8
		c0,0-13.5-5.4-13.5-5.4c-74-1.2-147.5-12.1-218.7-32.4c-6,0.1-11-4.7-11.2-10.7v-216c0-6,4.8-10.8,10.8-10.8
		c55.8-32.4,119.1-49.5,183.6-49.6h5.4h10.8c45.8,1.4,90.8,12.8,131.7,33.5h70.2c3,0,5.4,2.4,5.4,5.4v121.1v111.9"/>
	<path class="st2" d="M488.1,342c-0.1,3.4-0.8,6.7-2.2,9.8L459.4,421c-6,15.3-23.3,22.9-38.7,16.9v0.1l-80.1-32.1l-27-10.8
		c0,0-13.5-5.4-13.5-5.4c-74-1.2-147.5-12.1-218.7-32.4c-6,0.1-11-4.7-11.2-10.7v-216c0-6,4.8-10.8,10.8-10.8
		c55.8-32.4,119.1-49.5,183.6-49.6h5.4h10.8c45.8,1.4,90.8,12.8,131.7,33.5h70.2c3,0,5.4,2.4,5.4,5.4v121.1v111.9"/>
</g>
<g>
	<polygon class="st3" points="113.1,176.5 102.9,176.5 102.9,167.5 102.9,167.5 113.1,167.5 113.1,176.6 	"/>
	<polygon class="st4" points="113.1,176.5 102.9,176.5 102.9,167.5 102.9,167.5 113.1,167.5 113.1,176.6 	"/>
	<polygon class="st5" points="113.1,176.5 102.9,176.5 102.9,167.5 102.9,167.5 113.1,167.5 113.1,176.6 	"/>
</g>
<g>
	<polyline class="st3" points="210.9,187.5 221.1,187.5 221.1,196.6 221.1,196.5 210.9,196.5 210.9,187.4 	"/>
	<polyline class="st6" points="210.9,187.5 221.1,187.5 221.1,196.6 221.1,196.5 210.9,196.5 210.9,187.4 	"/>
	<polyline class="st5" points="210.9,187.5 221.1,187.5 221.1,196.6 221.1,196.5 210.9,196.5 210.9,187.4 	"/>
</g>
<g>
	<polyline class="st3" points="221.1,142.5 210.9,142.5 210.9,133.4 210.9,133.5 221.1,133.5 221.1,142.6 	"/>
	<polyline class="st6" points="221.1,142.5 210.9,142.5 210.9,133.4 210.9,133.5 221.1,133.5 221.1,142.6 	"/>
	<polyline class="st5" points="221.1,142.5 210.9,142.5 210.9,133.4 210.9,133.5 221.1,133.5 221.1,142.6 	"/>
</g>
<g>
	<rect x="372.9" y="302.5" class="st3" width="10.2" height="9.1"/>
	<rect x="372.9" y="302.5" class="st6" width="10.2" height="9.1"/>
	<rect x="372.9" y="302.5" class="st5" width="10.2" height="9.1"/>
</g>
<g>
	<polyline class="st3" points="329.1,142.5 318.9,142.5 318.9,133.4 318.9,133.5 329.1,133.5 329.1,142.6 	"/>
	<polyline class="st5" points="329.1,142.5 318.9,142.5 318.9,133.4 318.9,133.5 329.1,133.5 329.1,142.6 	"/>
	<polyline class="st6" points="329.1,142.5 318.9,142.5 318.9,133.4 318.9,133.5 329.1,133.5 329.1,142.6 	"/>
</g>
<g>
	<polyline class="st7" points="391.8,396.6 402,396.6 402,405.7 402,405.6 391.8,405.6 391.8,396.5 	"/>
	<polyline class="st6" points="391.8,396.6 402,396.6 402,405.7 402,405.6 391.8,405.6 391.8,396.5 	"/>
	<polyline class="st8" points="391.8,396.6 402,396.6 402,405.7 402,405.6 391.8,405.6 391.8,396.5 	"/>
</g>
<g>
	<polyline class="st3" points="156.9,221.5 167.1,221.5 167.1,230.6 167.1,230.5 156.9,230.5 156.9,221.4 	"/>
	<polyline class="st6" points="156.9,221.5 167.1,221.5 167.1,230.6 167.1,230.5 156.9,230.5 156.9,221.4 	"/>
	<polyline class="st5" points="156.9,221.5 167.1,221.5 167.1,230.6 167.1,230.5 156.9,230.5 156.9,221.4 	"/>
</g>
<g>
	<polygon class="st3" points="113.1,284.5 102.9,284.5 102.9,275.4 102.9,275.5 113.1,275.5 113.1,284.6 	"/>
	<polygon class="st4" points="113.1,284.5 102.9,284.5 102.9,275.4 102.9,275.5 113.1,275.5 113.1,284.6 	"/>
	<polygon class="st5" points="113.1,284.5 102.9,284.5 102.9,275.4 102.9,275.5 113.1,275.5 113.1,284.6 	"/>
</g>
<g>
	<polyline class="st3" points="329.1,250.5 318.9,250.5 318.9,241.4 318.9,241.5 329.1,241.5 329.1,250.6 	"/>
	<polyline class="st5" points="329.1,250.5 318.9,250.5 318.9,241.4 318.9,241.5 329.1,241.5 329.1,250.6 	"/>
	<polyline class="st6" points="329.1,250.5 318.9,250.5 318.9,241.4 318.9,241.5 329.1,241.5 329.1,250.6 	"/>
</g>
<g>
	<polyline class="st3" points="275.1,234.9 264.9,234.9 264.9,225.8 264.9,225.9 275.1,225.9 275.1,235 	"/>
	<polyline class="st6" points="275.1,234.9 264.9,234.9 264.9,225.8 264.9,225.9 275.1,225.9 275.1,235 	"/>
	<polyline class="st5" points="275.1,234.9 264.9,234.9 264.9,225.8 264.9,225.9 275.1,225.9 275.1,235 	"/>
</g>
<g>
	<line class="st9" x1="264.9" y1="131" x2="275.1" y2="131"/>
	<line class="st6" x1="264.9" y1="131" x2="275.1" y2="131"/>
	<line class="st9" x1="264.9" y1="131" x2="275.1" y2="131"/>
</g>
<g>
	<polyline class="st7" points="264.9,131 264.9,140.1 275.1,140.1 275.1,131 	"/>
	<polyline class="st6" points="264.9,131 264.9,140.1 275.1,140.1 275.1,131 	"/>
	<polyline class="st8" points="264.9,131 264.9,140.1 275.1,140.1 275.1,131 	"/>
</g>
<g>
	<polyline class="st3" points="221.1,358.5 210.9,358.5 210.9,349.4 210.9,349.5 221.1,349.5 221.1,358.6 	"/>
	<polyline class="st6" points="221.1,358.5 210.9,358.5 210.9,349.4 210.9,349.5 221.1,349.5 221.1,358.6 	"/>
	<polyline class="st5" points="221.1,358.5 210.9,358.5 210.9,349.4 210.9,349.5 221.1,349.5 221.1,358.6 	"/>
</g>
<g>
	<polyline class="st3" points="221.1,250.5 210.9,250.5 210.9,241.4 210.9,241.5 221.1,241.5 221.1,250.6 	"/>
	<polyline class="st6" points="221.1,250.5 210.9,250.5 210.9,241.4 210.9,241.5 221.1,241.5 221.1,250.6 	"/>
	<polyline class="st5" points="221.1,250.5 210.9,250.5 210.9,241.4 210.9,241.5 221.1,241.5 221.1,250.6 	"/>
</g>
<g>
	<polyline class="st3" points="318.9,187.5 329.1,187.5 329.1,196.6 329.1,196.5 318.9,196.5 318.9,187.4 	"/>
	<polyline class="st5" points="318.9,187.5 329.1,187.5 329.1,196.6 329.1,196.5 318.9,196.5 318.9,187.4 	"/>
	<polyline class="st6" points="318.9,187.5 329.1,187.5 329.1,196.6 329.1,196.5 318.9,196.5 318.9,187.4 	"/>
</g>
<g>
	<rect x="372.9" y="248.5" class="st3" width="10.2" height="9.1"/>
	<rect x="372.9" y="248.5" class="st6" width="10.2" height="9.1"/>
	<rect x="372.9" y="248.5" class="st5" width="10.2" height="9.1"/>
</g>
<g>
	<line class="st9" x1="372.9" y1="261.7" x2="383.1" y2="261.7"/>
	<line class="st6" x1="372.9" y1="261.7" x2="383.1" y2="261.7"/>
	<line class="st9" x1="372.9" y1="261.7" x2="383.1" y2="261.7"/>
</g>
<g>
	<polyline class="st7" points="383.1,261.7 383.1,270.8 372.9,270.8 372.9,261.7 	"/>
	<polyline class="st6" points="383.1,261.7 383.1,270.8 372.9,270.8 372.9,261.7 	"/>
	<polyline class="st8" points="383.1,261.7 383.1,270.8 372.9,270.8 372.9,261.7 	"/>
</g>
<g>
	<rect x="372.9" y="194.5" class="st3" width="10.2" height="9.1"/>
	<rect x="372.9" y="194.5" class="st6" width="10.2" height="9.1"/>
	<rect x="372.9" y="194.5" class="st5" width="10.2" height="9.1"/>
</g>
<g>
	<polyline class="st3" points="275.1,342.9 264.9,342.9 264.9,333.8 264.9,333.9 275.1,333.9 275.1,343 	"/>
	<polyline class="st6" points="275.1,342.9 264.9,342.9 264.9,333.8 264.9,333.9 275.1,333.9 275.1,343 	"/>
	<polyline class="st5" points="275.1,342.9 264.9,342.9 264.9,333.8 264.9,333.9 275.1,333.9 275.1,343 	"/>
</g>
<g>
	<polyline class="st3" points="275.1,126.9 264.9,126.9 264.9,117.8 264.9,117.9 275.1,117.9 275.1,127 	"/>
	<polyline class="st6" points="275.1,126.9 264.9,126.9 264.9,117.8 264.9,117.9 275.1,117.9 275.1,127 	"/>
	<polyline class="st5" points="275.1,126.9 264.9,126.9 264.9,117.8 264.9,117.9 275.1,117.9 275.1,127 	"/>
</g>
<g>
	<polygon class="st3" points="102.9,221.5 113.1,221.5 113.1,230.6 113.1,230.5 102.9,230.5 	"/>
	<polygon class="st4" points="102.9,221.5 113.1,221.5 113.1,230.6 113.1,230.5 102.9,230.5 	"/>
	<polygon class="st5" points="102.9,221.5 113.1,221.5 113.1,230.6 113.1,230.5 102.9,230.5 	"/>
</g>
<g>
	<polyline class="st3" points="318.9,295.5 329.1,295.5 329.1,304.6 329.1,304.5 318.9,304.5 318.9,295.4 	"/>
	<polyline class="st5" points="318.9,295.5 329.1,295.5 329.1,304.6 329.1,304.5 318.9,304.5 318.9,295.4 	"/>
	<polyline class="st6" points="318.9,295.5 329.1,295.5 329.1,304.6 329.1,304.5 318.9,304.5 318.9,295.4 	"/>
</g>
<g>
	<line class="st9" x1="318.9" y1="349.5" x2="329.1" y2="349.5"/>
	<line class="st9" x1="318.9" y1="349.5" x2="329.1" y2="349.5"/>
	<line class="st6" x1="318.9" y1="349.5" x2="329.1" y2="349.5"/>
</g>
<g>
	<polyline class="st3" points="318.9,349.4 318.9,358.5 329.1,358.5 329.1,358.6 329.1,349.5 	"/>
	<polyline class="st5" points="318.9,349.4 318.9,358.5 329.1,358.5 329.1,358.6 329.1,349.5 	"/>
	<polyline class="st6" points="318.9,349.4 318.9,358.5 329.1,358.5 329.1,358.6 329.1,349.5 	"/>
</g>
<g>
	<rect x="129.9" y="180.9" class="st7" width="10.2" height="9.1"/>
	<rect x="129.9" y="180.9" class="st6" width="10.2" height="9.1"/>
	<rect x="129.9" y="180.9" class="st8" width="10.2" height="9.1"/>
</g>
<g>
	<polyline class="st3" points="448.2,372.6 456.6,376 452.8,385.5 452.7,385.5 444.3,382.1 448.1,372.6 	"/>
	<polyline class="st6" points="448.2,372.6 456.6,376 452.8,385.5 452.7,385.5 444.3,382.1 448.1,372.6 	"/>
	<polyline class="st5" points="448.2,372.6 456.6,376 452.8,385.5 452.7,385.5 444.3,382.1 448.1,372.6 	"/>
</g>
<g>
	<polyline class="st3" points="102.9,329.5 113.1,329.5 113.1,338.6 113.1,338.5 102.9,338.5 102.9,329.4 	"/>
	<polyline class="st4" points="102.9,329.5 113.1,329.5 113.1,338.6 113.1,338.5 102.9,338.5 102.9,329.4 	"/>
	<polyline class="st5" points="102.9,329.5 113.1,329.5 113.1,338.6 113.1,338.5 102.9,338.5 102.9,329.4 	"/>
</g>
<g>
	<polyline class="st3" points="210.9,295.5 221.1,295.5 221.1,304.6 221.1,304.5 210.9,304.5 210.9,295.4 	"/>
	<polyline class="st6" points="210.9,295.5 221.1,295.5 221.1,304.6 221.1,304.5 210.9,304.5 210.9,295.4 	"/>
	<polyline class="st5" points="210.9,295.5 221.1,295.5 221.1,304.6 221.1,304.5 210.9,304.5 210.9,295.4 	"/>
</g>
<g>
	<rect x="264.9" y="239" class="st7" width="10.2" height="9.1"/>
	<rect x="264.9" y="239" class="st6" width="10.2" height="9.1"/>
	<rect x="264.9" y="239" class="st8" width="10.2" height="9.1"/>
</g>
<g>
	<rect x="129.9" y="288.6" class="st7" width="10.2" height="9.1"/>
	<rect x="129.9" y="288.6" class="st6" width="10.2" height="9.1"/>
	<rect x="129.9" y="288.6" class="st8" width="10.2" height="9.1"/>
</g>
<g>
	<polyline class="st3" points="167.1,284.5 156.9,284.5 156.9,275.4 156.9,275.5 167.1,275.5 167.1,284.6 	"/>
	<polyline class="st6" points="167.1,284.5 156.9,284.5 156.9,275.4 156.9,275.5 167.1,275.5 167.1,284.6 	"/>
	<polyline class="st5" points="167.1,284.5 156.9,284.5 156.9,275.4 156.9,275.5 167.1,275.5 167.1,284.6 	"/>
</g>
<g>
	<polyline class="st3" points="156.9,329.5 167.1,329.5 167.1,338.6 167.1,338.5 156.9,338.5 156.9,329.4 	"/>
	<polyline class="st6" points="156.9,329.5 167.1,329.5 167.1,338.6 167.1,338.5 156.9,338.5 156.9,329.4 	"/>
	<polyline class="st5" points="156.9,329.5 167.1,329.5 167.1,338.6 167.1,338.5 156.9,338.5 156.9,329.4 	"/>
</g>
<g>
	<rect x="264.9" y="347" class="st7" width="10.2" height="9.1"/>
	<rect x="264.9" y="347" class="st6" width="10.2" height="9.1"/>
	<rect x="264.9" y="347" class="st8" width="10.2" height="9.1"/>
</g>
<g>
	<rect x="373.3" y="153.7" class="st7" width="10.2" height="9.1"/>
	<rect x="373.3" y="153.7" class="st6" width="10.2" height="9.1"/>
	<rect x="373.3" y="153.7" class="st8" width="10.2" height="9.1"/>
</g>
<g>
	<polygon class="st3" points="388.1,376.1 396.5,379.5 400.3,370 391.9,366.6 	"/>
	<polygon class="st6" points="388.1,376.1 396.5,379.5 400.3,370 391.9,366.6 	"/>
	<polygon class="st5" points="388.1,376.1 396.5,379.5 400.3,370 391.9,366.6 	"/>
</g>
<g>
	<polyline class="st3" points="167.1,176.5 156.9,176.5 156.9,167.4 156.9,167.5 167.1,167.5 167.1,176.6 	"/>
	<polyline class="st6" points="167.1,176.5 156.9,176.5 156.9,167.4 156.9,167.5 167.1,167.5 167.1,176.6 	"/>
	<polyline class="st5" points="167.1,176.5 156.9,176.5 156.9,167.4 156.9,167.5 167.1,167.5 167.1,176.6 	"/>
</g>
<g>
	<polyline class="st3" points="264.9,279.9 275.1,279.9 275.1,289 275.1,288.9 264.9,288.9 264.9,279.8 	"/>
	<polyline class="st6" points="264.9,279.9 275.1,279.9 275.1,289 275.1,288.9 264.9,288.9 264.9,279.8 	"/>
	<polyline class="st5" points="264.9,279.9 275.1,279.9 275.1,289 275.1,288.9 264.9,288.9 264.9,279.8 	"/>
</g>
<g>
	<polyline class="st3" points="264.9,171.9 275.1,171.9 275.1,181 275.1,180.9 264.9,180.9 264.9,171.8 	"/>
	<polyline class="st6" points="264.9,171.9 275.1,171.9 275.1,181 275.1,180.9 264.9,180.9 264.9,171.8 	"/>
	<polyline class="st5" points="264.9,171.9 275.1,171.9 275.1,181 275.1,180.9 264.9,180.9 264.9,171.8 	"/>
</g>
<g>
	<rect x="372.9" y="140.5" class="st3" width="10.2" height="9.1"/>
	<rect x="372.9" y="140.5" class="st6" width="10.2" height="9.1"/>
	<rect x="372.9" y="140.5" class="st5" width="10.2" height="9.1"/>
</g>
<g>
	<path class="st0" d="M728.5,70.2c64.5,0.1,127.8,17.2,183.6,49.6c6,0,10.8,4.8,10.8,10.8v216c-0.2,6-5.2,10.8-11.2,10.7
		C840.5,377.6,767,388.5,693,389.7l-13.5,5.4l-27,10.8L572.4,438v-0.1c-15.4,6-32.7-1.6-38.7-16.9l-26.5-69.2
		c-1.4-3.1-2.1-6.4-2.2-9.8v0.1V230.2V109.1c0-3,2.4-5.4,5.4-5.4c0,0,70.2,0,70.2,0c40.9-20.7,85.9-32.1,131.7-33.5v-0.5h10.8h5.4"
		/>
	<path class="st1" d="M728.5,70.2c64.5,0.1,127.8,17.2,183.6,49.6c6,0,10.8,4.8,10.8,10.8v216c-0.2,6-5.2,10.8-11.2,10.7
		C840.5,377.6,767,388.5,693,389.7l-13.5,5.4l-27,10.8L572.4,438v-0.1c-15.4,6-32.7-1.6-38.7-16.9l-26.5-69.2
		c-1.4-3.1-2.1-6.4-2.2-9.8v0.1V230.2V109.1c0-3,2.4-5.4,5.4-5.4c0,0,70.2,0,70.2,0c40.9-20.7,85.9-32.1,131.7-33.5v-0.5h10.8h5.4"
		/>
	<path class="st2" d="M728.5,70.2c64.5,0.1,127.8,17.2,183.6,49.6c6,0,10.8,4.8,10.8,10.8v216c-0.2,6-5.2,10.8-11.2,10.7
		C840.5,377.6,767,388.5,693,389.7l-13.5,5.4l-27,10.8L572.4,438v-0.1c-15.4,6-32.7-1.6-38.7-16.9l-26.5-69.2
		c-1.4-3.1-2.1-6.4-2.2-9.8v0.1V230.2V109.1c0-3,2.4-5.4,5.4-5.4c0,0,70.2,0,70.2,0c40.9-20.7,85.9-32.1,131.7-33.5v-0.5h10.8h5.4"
		/>
</g>
<g>
	<polygon class="st3" points="880,176.6 880,167.5 890.2,167.5 890.2,167.5 890.2,176.5 880,176.5 	"/>
	<polygon class="st4" points="880,176.6 880,167.5 890.2,167.5 890.2,167.5 890.2,176.5 880,176.5 	"/>
	<polygon class="st5" points="880,176.6 880,167.5 890.2,167.5 890.2,167.5 890.2,176.5 880,176.5 	"/>
</g>
<g>
	<polyline class="st3" points="782.2,187.4 782.2,196.5 772,196.5 772,196.6 772,187.5 782.2,187.5 	"/>
	<polyline class="st6" points="782.2,187.4 782.2,196.5 772,196.5 772,196.6 772,187.5 782.2,187.5 	"/>
	<polyline class="st5" points="782.2,187.4 782.2,196.5 772,196.5 772,196.6 772,187.5 782.2,187.5 	"/>
</g>
<g>
	<polyline class="st3" points="772,142.6 772,133.5 782.2,133.5 782.2,133.4 782.2,142.5 772,142.5 	"/>
	<polyline class="st6" points="772,142.6 772,133.5 782.2,133.5 782.2,133.4 782.2,142.5 772,142.5 	"/>
	<polyline class="st5" points="772,142.6 772,133.5 782.2,133.5 782.2,133.4 782.2,142.5 772,142.5 	"/>
</g>
<g>
	<rect x="610" y="302.5" class="st3" width="10.2" height="9.1"/>
	<rect x="610" y="302.5" class="st6" width="10.2" height="9.1"/>
	<rect x="610" y="302.5" class="st5" width="10.2" height="9.1"/>
</g>
<g>
	<polyline class="st3" points="664,142.6 664,133.5 674.2,133.5 674.2,133.4 674.2,142.5 664,142.5 	"/>
	<polyline class="st5" points="664,142.6 664,133.5 674.2,133.5 674.2,133.4 674.2,142.5 664,142.5 	"/>
	<polyline class="st6" points="664,142.6 664,133.5 674.2,133.5 674.2,133.4 674.2,142.5 664,142.5 	"/>
</g>
<g>
	<polyline class="st7" points="601.3,396.5 601.3,405.6 591.1,405.6 591.1,405.7 591.1,396.6 601.3,396.6 	"/>
	<polyline class="st6" points="601.3,396.5 601.3,405.6 591.1,405.6 591.1,405.7 591.1,396.6 601.3,396.6 	"/>
	<polyline class="st8" points="601.3,396.5 601.3,405.6 591.1,405.6 591.1,405.7 591.1,396.6 601.3,396.6 	"/>
</g>
<g>
	<polyline class="st3" points="836.2,221.4 836.2,230.5 826,230.5 826,230.6 826,221.5 836.2,221.5 	"/>
	<polyline class="st6" points="836.2,221.4 836.2,230.5 826,230.5 826,230.6 826,221.5 836.2,221.5 	"/>
	<polyline class="st5" points="836.2,221.4 836.2,230.5 826,230.5 826,230.6 826,221.5 836.2,221.5 	"/>
</g>
<g>
	<polygon class="st3" points="880,284.6 880,275.5 890.2,275.5 890.2,275.4 890.2,284.5 880,284.5 	"/>
	<polygon class="st4" points="880,284.6 880,275.5 890.2,275.5 890.2,275.4 890.2,284.5 880,284.5 	"/>
	<polygon class="st5" points="880,284.6 880,275.5 890.2,275.5 890.2,275.4 890.2,284.5 880,284.5 	"/>
</g>
<g>
	<polyline class="st3" points="664,250.6 664,241.5 674.2,241.5 674.2,241.4 674.2,250.5 664,250.5 	"/>
	<polyline class="st5" points="664,250.6 664,241.5 674.2,241.5 674.2,241.4 674.2,250.5 664,250.5 	"/>
	<polyline class="st6" points="664,250.6 664,241.5 674.2,241.5 674.2,241.4 674.2,250.5 664,250.5 	"/>
</g>
<g>
	<polyline class="st3" points="718,235 718,225.9 728.2,225.9 728.2,225.8 728.2,234.9 718,234.9 	"/>
	<polyline class="st6" points="718,235 718,225.9 728.2,225.9 728.2,225.8 728.2,234.9 718,234.9 	"/>
	<polyline class="st5" points="718,235 718,225.9 728.2,225.9 728.2,225.8 728.2,234.9 718,234.9 	"/>
</g>
<g>
	<line class="st9" x1="718" y1="131" x2="728.2" y2="131"/>
	<line class="st6" x1="718" y1="131" x2="728.2" y2="131"/>
	<line class="st9" x1="718" y1="131" x2="728.2" y2="131"/>
</g>
<g>
	<polyline class="st7" points="718,131 718,140.1 728.2,140.1 728.2,131 	"/>
	<polyline class="st6" points="718,131 718,140.1 728.2,140.1 728.2,131 	"/>
	<polyline class="st8" points="718,131 718,140.1 728.2,140.1 728.2,131 	"/>
</g>
<g>
	<polyline class="st3" points="772,358.6 772,349.5 782.2,349.5 782.2,349.4 782.2,358.5 772,358.5 	"/>
	<polyline class="st6" points="772,358.6 772,349.5 782.2,349.5 782.2,349.4 782.2,358.5 772,358.5 	"/>
	<polyline class="st5" points="772,358.6 772,349.5 782.2,349.5 782.2,349.4 782.2,358.5 772,358.5 	"/>
</g>
<g>
	<polyline class="st3" points="772,250.6 772,241.5 782.2,241.5 782.2,241.4 782.2,250.5 772,250.5 	"/>
	<polyline class="st6" points="772,250.6 772,241.5 782.2,241.5 782.2,241.4 782.2,250.5 772,250.5 	"/>
	<polyline class="st5" points="772,250.6 772,241.5 782.2,241.5 782.2,241.4 782.2,250.5 772,250.5 	"/>
</g>
<g>
	<polyline class="st3" points="674.2,187.4 674.2,196.5 664,196.5 664,196.6 664,187.5 674.2,187.5 	"/>
	<polyline class="st5" points="674.2,187.4 674.2,196.5 664,196.5 664,196.6 664,187.5 674.2,187.5 	"/>
	<polyline class="st6" points="674.2,187.4 674.2,196.5 664,196.5 664,196.6 664,187.5 674.2,187.5 	"/>
</g>
<g>
	<rect x="610" y="248.5" class="st3" width="10.2" height="9.1"/>
	<rect x="610" y="248.5" class="st6" width="10.2" height="9.1"/>
	<rect x="610" y="248.5" class="st5" width="10.2" height="9.1"/>
</g>
<g>
	<line class="st9" x1="610" y1="261.7" x2="620.2" y2="261.7"/>
	<line class="st6" x1="610" y1="261.7" x2="620.2" y2="261.7"/>
	<line class="st9" x1="610" y1="261.7" x2="620.2" y2="261.7"/>
</g>
<g>
	<polyline class="st7" points="620.2,261.7 620.2,270.8 610,270.8 610,261.7 	"/>
	<polyline class="st6" points="620.2,261.7 620.2,270.8 610,270.8 610,261.7 	"/>
	<polyline class="st8" points="620.2,261.7 620.2,270.8 610,270.8 610,261.7 	"/>
</g>
<g>
	<rect x="610" y="194.5" class="st3" width="10.2" height="9.1"/>
	<rect x="610" y="194.5" class="st6" width="10.2" height="9.1"/>
	<rect x="610" y="194.5" class="st5" width="10.2" height="9.1"/>
</g>
<g>
	<polyline class="st3" points="718,343 718,333.9 728.2,333.9 728.2,333.8 728.2,342.9 718,342.9 	"/>
	<polyline class="st6" points="718,343 718,333.9 728.2,333.9 728.2,333.8 728.2,342.9 718,342.9 	"/>
	<polyline class="st5" points="718,343 718,333.9 728.2,333.9 728.2,333.8 728.2,342.9 718,342.9 	"/>
</g>
<g>
	<polyline class="st3" points="718,127 718,117.9 728.2,117.9 728.2,117.8 728.2,126.9 718,126.9 	"/>
	<polyline class="st6" points="718,127 718,117.9 728.2,117.9 728.2,117.8 728.2,126.9 718,126.9 	"/>
	<polyline class="st5" points="718,127 718,117.9 728.2,117.9 728.2,117.8 728.2,126.9 718,126.9 	"/>
</g>
<g>
	<polygon class="st3" points="890.2,221.5 890.2,230.5 880,230.5 880,230.6 880,221.5 	"/>
	<polygon class="st4" points="890.2,221.5 890.2,230.5 880,230.5 880,230.6 880,221.5 	"/>
	<polygon class="st5" points="890.2,221.5 890.2,230.5 880,230.5 880,230.6 880,221.5 	"/>
</g>
<g>
	<polyline class="st3" points="674.2,295.4 674.2,304.5 664,304.5 664,304.6 664,295.5 674.2,295.5 	"/>
	<polyline class="st5" points="674.2,295.4 674.2,304.5 664,304.5 664,304.6 664,295.5 674.2,295.5 	"/>
	<polyline class="st6" points="674.2,295.4 674.2,304.5 664,304.5 664,304.6 664,295.5 674.2,295.5 	"/>
</g>
<g>
	<line class="st9" x1="664" y1="349.5" x2="674.2" y2="349.5"/>
	<line class="st9" x1="664" y1="349.5" x2="674.2" y2="349.5"/>
	<line class="st6" x1="664" y1="349.5" x2="674.2" y2="349.5"/>
</g>
<g>
	<polyline class="st3" points="664,349.5 664,358.6 664,358.5 674.2,358.5 674.2,349.4 	"/>
	<polyline class="st5" points="664,349.5 664,358.6 664,358.5 674.2,358.5 674.2,349.4 	"/>
	<polyline class="st6" points="664,349.5 664,358.6 664,358.5 674.2,358.5 674.2,349.4 	"/>
</g>
<g>
	<rect x="853" y="180.9" class="st7" width="10.2" height="9.1"/>
	<rect x="853" y="180.9" class="st6" width="10.2" height="9.1"/>
	<rect x="853" y="180.9" class="st8" width="10.2" height="9.1"/>
</g>
<g>
	<polyline class="st3" points="545,372.6 548.8,382.1 540.4,385.5 540.3,385.5 536.5,376 544.9,372.6 	"/>
	<polyline class="st6" points="545,372.6 548.8,382.1 540.4,385.5 540.3,385.5 536.5,376 544.9,372.6 	"/>
	<polyline class="st5" points="545,372.6 548.8,382.1 540.4,385.5 540.3,385.5 536.5,376 544.9,372.6 	"/>
</g>
<g>
	<polyline class="st3" points="890.2,329.4 890.2,338.5 880,338.5 880,338.6 880,329.5 890.2,329.5 	"/>
	<polyline class="st4" points="890.2,329.4 890.2,338.5 880,338.5 880,338.6 880,329.5 890.2,329.5 	"/>
	<polyline class="st5" points="890.2,329.4 890.2,338.5 880,338.5 880,338.6 880,329.5 890.2,329.5 	"/>
</g>
<g>
	<polyline class="st3" points="782.2,295.4 782.2,304.5 772,304.5 772,304.6 772,295.5 782.2,295.5 	"/>
	<polyline class="st6" points="782.2,295.4 782.2,304.5 772,304.5 772,304.6 772,295.5 782.2,295.5 	"/>
	<polyline class="st5" points="782.2,295.4 782.2,304.5 772,304.5 772,304.6 772,295.5 782.2,295.5 	"/>
</g>
<g>
	<rect x="718" y="239" class="st7" width="10.2" height="9.1"/>
	<rect x="718" y="239" class="st6" width="10.2" height="9.1"/>
	<rect x="718" y="239" class="st8" width="10.2" height="9.1"/>
</g>
<g>
	<rect x="853" y="288.6" class="st7" width="10.2" height="9.1"/>
	<rect x="853" y="288.6" class="st6" width="10.2" height="9.1"/>
	<rect x="853" y="288.6" class="st8" width="10.2" height="9.1"/>
</g>
<g>
	<polyline class="st3" points="826,284.6 826,275.5 836.2,275.5 836.2,275.4 836.2,284.5 826,284.5 	"/>
	<polyline class="st6" points="826,284.6 826,275.5 836.2,275.5 836.2,275.4 836.2,284.5 826,284.5 	"/>
	<polyline class="st5" points="826,284.6 826,275.5 836.2,275.5 836.2,275.4 836.2,284.5 826,284.5 	"/>
</g>
<g>
	<polyline class="st3" points="836.2,329.4 836.2,338.5 826,338.5 826,338.6 826,329.5 836.2,329.5 	"/>
	<polyline class="st6" points="836.2,329.4 836.2,338.5 826,338.5 826,338.6 826,329.5 836.2,329.5 	"/>
	<polyline class="st5" points="836.2,329.4 836.2,338.5 826,338.5 826,338.6 826,329.5 836.2,329.5 	"/>
</g>
<g>
	<rect x="718" y="347" class="st7" width="10.2" height="9.1"/>
	<rect x="718" y="347" class="st6" width="10.2" height="9.1"/>
	<rect x="718" y="347" class="st8" width="10.2" height="9.1"/>
</g>
<g>
	<rect x="609.6" y="153.7" class="st7" width="10.2" height="9.1"/>
	<rect x="609.6" y="153.7" class="st6" width="10.2" height="9.1"/>
	<rect x="609.6" y="153.7" class="st8" width="10.2" height="9.1"/>
</g>
<g>
	<polygon class="st3" points="601.2,366.6 592.8,370 596.6,379.5 605,376.1 	"/>
	<polygon class="st6" points="601.2,366.6 592.8,370 596.6,379.5 605,376.1 	"/>
	<polygon class="st5" points="601.2,366.6 592.8,370 596.6,379.5 605,376.1 	"/>
</g>
<g>
	<polyline class="st3" points="826,176.6 826,167.5 836.2,167.5 836.2,167.4 836.2,176.5 826,176.5 	"/>
	<polyline class="st6" points="826,176.6 826,167.5 836.2,167.5 836.2,167.4 836.2,176.5 826,176.5 	"/>
	<polyline class="st5" points="826,176.6 826,167.5 836.2,167.5 836.2,167.4 836.2,176.5 826,176.5 	"/>
</g>
<g>
	<polyline class="st3" points="728.2,279.8 728.2,288.9 718,288.9 718,289 718,279.9 728.2,279.9 	"/>
	<polyline class="st6" points="728.2,279.8 728.2,288.9 718,288.9 718,289 718,279.9 728.2,279.9 	"/>
	<polyline class="st5" points="728.2,279.8 728.2,288.9 718,288.9 718,289 718,279.9 728.2,279.9 	"/>
</g>
<g>
	<polyline class="st3" points="728.2,171.8 728.2,180.9 718,180.9 718,181 718,171.9 728.2,171.9 	"/>
	<polyline class="st6" points="728.2,171.8 728.2,180.9 718,180.9 718,181 718,171.9 728.2,171.9 	"/>
	<polyline class="st5" points="728.2,171.8 728.2,180.9 718,180.9 718,181 718,171.9 728.2,171.9 	"/>
</g>
<g>
	<rect x="610" y="140.5" class="st3" width="10.2" height="9.1"/>
	<rect x="610" y="140.5" class="st6" width="10.2" height="9.1"/>
	<rect x="610" y="140.5" class="st5" width="10.2" height="9.1"/>
</g>
</svg>
