<?xml version="1.0" encoding="UTF-8" standalone="no"?>
<!-- Generator: Adobe Illustrator 26.3.1, SVG Export Plug-In . SVG Version: 6.00 Build 0)  -->

<svg
   version="1.1"
   id="Layer_1"
   x="0px"
   y="0px"
   viewBox="0 0 852.98352 370.53673"
   xml:space="preserve"
   sodipodi:docname="LED_orientation.svg"
   width="852.98352"
   height="370.53674"
   inkscape:version="1.2 (dc2aeda, 2022-05-15)"
   xmlns:inkscape="http://www.inkscape.org/namespaces/inkscape"
   xmlns:sodipodi="http://sodipodi.sourceforge.net/DTD/sodipodi-0.dtd"
   xmlns="http://www.w3.org/2000/svg"
   xmlns:svg="http://www.w3.org/2000/svg"><defs
   id="defs665" /><sodipodi:namedview
   id="namedview663"
   pagecolor="#ffffff"
   bordercolor="#000000"
   borderopacity="0.25"
   inkscape:showpageshadow="2"
   inkscape:pageopacity="0.0"
   inkscape:pagecheckerboard="0"
   inkscape:deskcolor="#d1d1d1"
   showgrid="false"
   inkscape:zoom="1.0466191"
   inkscape:cx="226.92115"
   inkscape:cy="284.2486"
   inkscape:window-width="2044"
   inkscape:window-height="1227"
   inkscape:window-x="2240"
   inkscape:window-y="332"
   inkscape:window-maximized="0"
   inkscape:current-layer="Layer_1" />
<style
   type="text/css"
   id="style2">
	.st0{opacity:0;fill:#FFFFFF;}
	.st1{fill:none;stroke:#000000;stroke-width:0.2835;stroke-linecap:round;stroke-linejoin:round;stroke-miterlimit:10;}
	.st2{fill:#FFFFFF;}
	.st3{fill:#0000FF;fill-opacity:0;}
	.st4{fill:none;stroke:#231F20;stroke-width:0.3402;stroke-linecap:round;stroke-linejoin:round;stroke-miterlimit:10;}
	.st5{fill:#0000FF;}
	.st6{fill:none;stroke:#000000;stroke-width:0.3402;stroke-linecap:round;stroke-linejoin:round;stroke-miterlimit:10;}
	.st7{fill:#FF0000;fill-opacity:0;}
	.st8{fill:#FF0000;}
	.st9{fill:none;}
</style>
<g
   id="g4"
   transform="translate(-70.05825,-69.55825)">
</g>
<g
   id="g12"
   transform="translate(-70.05825,-69.55825)">
	<path
   class="st0"
   d="m 488.1,342 c -0.1,3.4 -0.8,6.7 -2.2,9.8 L 459.4,421 c -6,15.3 -23.3,22.9 -38.7,16.9 v 0.1 l -80.1,-32.1 -27,-10.8 c 0,0 -13.5,-5.4 -13.5,-5.4 -74,-1.2 -147.5,-12.1 -218.7,-32.4 -6,0.1 -11,-4.7 -11.2,-10.7 v -216 c 0,-6 4.8,-10.8 10.8,-10.8 55.8,-32.4 119.1,-49.5 183.6,-49.6 h 5.4 10.8 c 45.8,1.4 90.8,12.8 131.7,33.5 h 70.2 c 3,0 5.4,2.4 5.4,5.4 v 121.1 111.9"
   id="path6" />
	<path
   class="st1"
   d="m 488.1,342 c -0.1,3.4 -0.8,6.7 -2.2,9.8 L 459.4,421 c -6,15.3 -23.3,22.9 -38.7,16.9 v 0.1 l -80.1,-32.1 -27,-10.8 c 0,0 -13.5,-5.4 -13.5,-5.4 -74,-1.2 -147.5,-12.1 -218.7,-32.4 -6,0.1 -11,-4.7 -11.2,-10.7 v -216 c 0,-6 4.8,-10.8 10.8,-10.8 55.8,-32.4 119.1,-49.5 183.6,-49.6 h 5.4 10.8 c 45.8,1.4 90.8,12.8 131.7,33.5 h 70.2 c 3,0 5.4,2.4 5.4,5.4 v 121.1 111.9"
   id="path8" />
	<path
   class="st2"
   d="m 488.1,342 c -0.1,3.4 -0.8,6.7 -2.2,9.8 L 459.4,421 c -6,15.3 -23.3,22.9 -38.7,16.9 v 0.1 l -80.1,-32.1 -27,-10.8 c 0,0 -13.5,-5.4 -13.5,-5.4 -74,-1.2 -147.5,-12.1 -218.7,-32.4 -6,0.1 -11,-4.7 -11.2,-10.7 v -216 c 0,-6 4.8,-10.8 10.8,-10.8 55.8,-32.4 119.1,-49.5 183.6,-49.6 h 5.4 10.8 c 45.8,1.4 90.8,12.8 131.7,33.5 h 70.2 c 3,0 5.4,2.4 5.4,5.4 v 121.1 111.9"
   id="path10" />
</g>
<g
   id="g20"
   transform="translate(-70.05825,-69.55825)">
	<polygon
   class="st3"
   points="102.9,167.5 102.9,167.5 113.1,167.5 113.1,176.6 113.1,176.5 102.9,176.5 "
   id="polygon14" />
	<polygon
   class="st4"
   points="102.9,167.5 102.9,167.5 113.1,167.5 113.1,176.6 113.1,176.5 102.9,176.5 "
   id="polygon16" />
	<polygon
   class="st5"
   points="102.9,167.5 102.9,167.5 113.1,167.5 113.1,176.6 113.1,176.5 102.9,176.5 "
   id="polygon18" />
</g>
<g
   id="g28"
   transform="translate(-70.05825,-69.55825)">
	<polyline
   class="st3"
   points="210.9,187.5 221.1,187.5 221.1,196.6 221.1,196.5 210.9,196.5 210.9,187.4  "
   id="polyline22" />
	<polyline
   class="st6"
   points="210.9,187.5 221.1,187.5 221.1,196.6 221.1,196.5 210.9,196.5 210.9,187.4  "
   id="polyline24" />
	<polyline
   class="st5"
   points="210.9,187.5 221.1,187.5 221.1,196.6 221.1,196.5 210.9,196.5 210.9,187.4  "
   id="polyline26" />
</g>
<g
   id="g36"
   transform="translate(-70.05825,-69.55825)">
	<polyline
   class="st3"
   points="221.1,142.5 210.9,142.5 210.9,133.4 210.9,133.5 221.1,133.5 221.1,142.6  "
   id="polyline30" />
	<polyline
   class="st6"
   points="221.1,142.5 210.9,142.5 210.9,133.4 210.9,133.5 221.1,133.5 221.1,142.6  "
   id="polyline32" />
	<polyline
   class="st5"
   points="221.1,142.5 210.9,142.5 210.9,133.4 210.9,133.5 221.1,133.5 221.1,142.6  "
   id="polyline34" />
</g>
<g
   id="g44"
   transform="translate(-70.05825,-69.55825)">
	<rect
   x="372.89999"
   y="302.5"
   class="st3"
   width="10.2"
   height="9.1000004"
   id="rect38" />
	<rect
   x="372.89999"
   y="302.5"
   class="st6"
   width="10.2"
   height="9.1000004"
   id="rect40" />
	<rect
   x="372.89999"
   y="302.5"
   class="st5"
   width="10.2"
   height="9.1000004"
   id="rect42" />
</g>
<g
   id="g52"
   transform="translate(-70.05825,-69.55825)">
	<polyline
   class="st3"
   points="329.1,142.5 318.9,142.5 318.9,133.4 318.9,133.5 329.1,133.5 329.1,142.6  "
   id="polyline46" />
	<polyline
   class="st5"
   points="329.1,142.5 318.9,142.5 318.9,133.4 318.9,133.5 329.1,133.5 329.1,142.6  "
   id="polyline48" />
	<polyline
   class="st6"
   points="329.1,142.5 318.9,142.5 318.9,133.4 318.9,133.5 329.1,133.5 329.1,142.6  "
   id="polyline50" />
</g>
<g
   id="g60"
   transform="translate(-70.05825,-69.55825)">
	<polyline
   class="st7"
   points="391.8,396.6 402,396.6 402,405.7 402,405.6 391.8,405.6 391.8,396.5  "
   id="polyline54" />
	<polyline
   class="st6"
   points="391.8,396.6 402,396.6 402,405.7 402,405.6 391.8,405.6 391.8,396.5  "
   id="polyline56" />
	<polyline
   class="st8"
   points="391.8,396.6 402,396.6 402,405.7 402,405.6 391.8,405.6 391.8,396.5  "
   id="polyline58" />
</g>
<g
   id="g68"
   transform="translate(-70.05825,-69.55825)">
	<polyline
   class="st3"
   points="156.9,221.5 167.1,221.5 167.1,230.6 167.1,230.5 156.9,230.5 156.9,221.4  "
   id="polyline62" />
	<polyline
   class="st6"
   points="156.9,221.5 167.1,221.5 167.1,230.6 167.1,230.5 156.9,230.5 156.9,221.4  "
   id="polyline64" />
	<polyline
   class="st5"
   points="156.9,221.5 167.1,221.5 167.1,230.6 167.1,230.5 156.9,230.5 156.9,221.4  "
   id="polyline66" />
</g>
<g
   id="g76"
   transform="translate(-70.05825,-69.55825)">
	<polygon
   class="st3"
   points="102.9,275.4 102.9,275.5 113.1,275.5 113.1,284.6 113.1,284.5 102.9,284.5 "
   id="polygon70" />
	<polygon
   class="st4"
   points="102.9,275.4 102.9,275.5 113.1,275.5 113.1,284.6 113.1,284.5 102.9,284.5 "
   id="polygon72" />
	<polygon
   class="st5"
   points="102.9,275.4 102.9,275.5 113.1,275.5 113.1,284.6 113.1,284.5 102.9,284.5 "
   id="polygon74" />
</g>
<g
   id="g84"
   transform="translate(-70.05825,-69.55825)">
	<polyline
   class="st3"
   points="329.1,250.5 318.9,250.5 318.9,241.4 318.9,241.5 329.1,241.5 329.1,250.6  "
   id="polyline78" />
	<polyline
   class="st5"
   points="329.1,250.5 318.9,250.5 318.9,241.4 318.9,241.5 329.1,241.5 329.1,250.6  "
   id="polyline80" />
	<polyline
   class="st6"
   points="329.1,250.5 318.9,250.5 318.9,241.4 318.9,241.5 329.1,241.5 329.1,250.6  "
   id="polyline82" />
</g>
<g
   id="g92"
   transform="translate(-70.05825,-69.55825)">
	<polyline
   class="st3"
   points="275.1,234.9 264.9,234.9 264.9,225.8 264.9,225.9 275.1,225.9 275.1,235  "
   id="polyline86" />
	<polyline
   class="st6"
   points="275.1,234.9 264.9,234.9 264.9,225.8 264.9,225.9 275.1,225.9 275.1,235  "
   id="polyline88" />
	<polyline
   class="st5"
   points="275.1,234.9 264.9,234.9 264.9,225.8 264.9,225.9 275.1,225.9 275.1,235  "
   id="polyline90" />
</g>
<g
   id="g100"
   transform="translate(-70.05825,-69.55825)">
	<line
   class="st9"
   x1="264.89999"
   y1="131"
   x2="275.10001"
   y2="131"
   id="line94" />
	<line
   class="st6"
   x1="264.89999"
   y1="131"
   x2="275.10001"
   y2="131"
   id="line96" />
	<line
   class="st9"
   x1="264.89999"
   y1="131"
   x2="275.10001"
   y2="131"
   id="line98" />
</g>
<g
   id="g108"
   transform="translate(-70.05825,-69.55825)">
	<polyline
   class="st7"
   points="264.9,131 264.9,140.1 275.1,140.1 275.1,131  "
   id="polyline102" />
	<polyline
   class="st6"
   points="264.9,131 264.9,140.1 275.1,140.1 275.1,131  "
   id="polyline104" />
	<polyline
   class="st8"
   points="264.9,131 264.9,140.1 275.1,140.1 275.1,131  "
   id="polyline106" />
</g>
<g
   id="g116"
   transform="translate(-70.05825,-69.55825)">
	<polyline
   class="st3"
   points="221.1,358.5 210.9,358.5 210.9,349.4 210.9,349.5 221.1,349.5 221.1,358.6  "
   id="polyline110" />
	<polyline
   class="st6"
   points="221.1,358.5 210.9,358.5 210.9,349.4 210.9,349.5 221.1,349.5 221.1,358.6  "
   id="polyline112" />
	<polyline
   class="st5"
   points="221.1,358.5 210.9,358.5 210.9,349.4 210.9,349.5 221.1,349.5 221.1,358.6  "
   id="polyline114" />
</g>
<g
   id="g124"
   transform="translate(-70.05825,-69.55825)">
	<polyline
   class="st3"
   points="221.1,250.5 210.9,250.5 210.9,241.4 210.9,241.5 221.1,241.5 221.1,250.6  "
   id="polyline118" />
	<polyline
   class="st6"
   points="221.1,250.5 210.9,250.5 210.9,241.4 210.9,241.5 221.1,241.5 221.1,250.6  "
   id="polyline120" />
	<polyline
   class="st5"
   points="221.1,250.5 210.9,250.5 210.9,241.4 210.9,241.5 221.1,241.5 221.1,250.6  "
   id="polyline122" />
</g>
<g
   id="g132"
   transform="translate(-70.05825,-69.55825)">
	<polyline
   class="st3"
   points="318.9,187.5 329.1,187.5 329.1,196.6 329.1,196.5 318.9,196.5 318.9,187.4  "
   id="polyline126" />
	<polyline
   class="st5"
   points="318.9,187.5 329.1,187.5 329.1,196.6 329.1,196.5 318.9,196.5 318.9,187.4  "
   id="polyline128" />
	<polyline
   class="st6"
   points="318.9,187.5 329.1,187.5 329.1,196.6 329.1,196.5 318.9,196.5 318.9,187.4  "
   id="polyline130" />
</g>
<g
   id="g140"
   transform="translate(-70.05825,-69.55825)">
	<rect
   x="372.89999"
   y="248.5"
   class="st3"
   width="10.2"
   height="9.1000004"
   id="rect134" />
	<rect
   x="372.89999"
   y="248.5"
   class="st6"
   width="10.2"
   height="9.1000004"
   id="rect136" />
	<rect
   x="372.89999"
   y="248.5"
   class="st5"
   width="10.2"
   height="9.1000004"
   id="rect138" />
</g>
<g
   id="g148"
   transform="translate(-70.05825,-69.55825)">
	<line
   class="st9"
   x1="372.89999"
   y1="261.70001"
   x2="383.10001"
   y2="261.70001"
   id="line142" />
	<line
   class="st6"
   x1="372.89999"
   y1="261.70001"
   x2="383.10001"
   y2="261.70001"
   id="line144" />
	<line
   class="st9"
   x1="372.89999"
   y1="261.70001"
   x2="383.10001"
   y2="261.70001"
   id="line146" />
</g>
<g
   id="g156"
   transform="translate(-70.05825,-69.55825)">
	<polyline
   class="st7"
   points="383.1,261.7 383.1,270.8 372.9,270.8 372.9,261.7  "
   id="polyline150" />
	<polyline
   class="st6"
   points="383.1,261.7 383.1,270.8 372.9,270.8 372.9,261.7  "
   id="polyline152" />
	<polyline
   class="st8"
   points="383.1,261.7 383.1,270.8 372.9,270.8 372.9,261.7  "
   id="polyline154" />
</g>
<g
   id="g164"
   transform="translate(-70.05825,-69.55825)">
	<rect
   x="372.89999"
   y="194.5"
   class="st3"
   width="10.2"
   height="9.1000004"
   id="rect158" />
	<rect
   x="372.89999"
   y="194.5"
   class="st6"
   width="10.2"
   height="9.1000004"
   id="rect160" />
	<rect
   x="372.89999"
   y="194.5"
   class="st5"
   width="10.2"
   height="9.1000004"
   id="rect162" />
</g>
<g
   id="g172"
   transform="translate(-70.05825,-69.55825)">
	<polyline
   class="st3"
   points="275.1,342.9 264.9,342.9 264.9,333.8 264.9,333.9 275.1,333.9 275.1,343  "
   id="polyline166" />
	<polyline
   class="st6"
   points="275.1,342.9 264.9,342.9 264.9,333.8 264.9,333.9 275.1,333.9 275.1,343  "
   id="polyline168" />
	<polyline
   class="st5"
   points="275.1,342.9 264.9,342.9 264.9,333.8 264.9,333.9 275.1,333.9 275.1,343  "
   id="polyline170" />
</g>
<g
   id="g180"
   transform="translate(-70.05825,-69.55825)">
	<polyline
   class="st3"
   points="275.1,126.9 264.9,126.9 264.9,117.8 264.9,117.9 275.1,117.9 275.1,127  "
   id="polyline174" />
	<polyline
   class="st6"
   points="275.1,126.9 264.9,126.9 264.9,117.8 264.9,117.9 275.1,117.9 275.1,127  "
   id="polyline176" />
	<polyline
   class="st5"
   points="275.1,126.9 264.9,126.9 264.9,117.8 264.9,117.9 275.1,117.9 275.1,127  "
   id="polyline178" />
</g>
<g
   id="g188"
   transform="translate(-70.05825,-69.55825)">
	<polygon
   class="st3"
   points="113.1,230.6 113.1,230.5 102.9,230.5 102.9,221.5 113.1,221.5 "
   id="polygon182" />
	<polygon
   class="st4"
   points="113.1,230.6 113.1,230.5 102.9,230.5 102.9,221.5 113.1,221.5 "
   id="polygon184" />
	<polygon
   class="st5"
   points="113.1,230.6 113.1,230.5 102.9,230.5 102.9,221.5 113.1,221.5 "
   id="polygon186" />
</g>
<g
   id="g196"
   transform="translate(-70.05825,-69.55825)">
	<polyline
   class="st3"
   points="318.9,295.5 329.1,295.5 329.1,304.6 329.1,304.5 318.9,304.5 318.9,295.4  "
   id="polyline190" />
	<polyline
   class="st5"
   points="318.9,295.5 329.1,295.5 329.1,304.6 329.1,304.5 318.9,304.5 318.9,295.4  "
   id="polyline192" />
	<polyline
   class="st6"
   points="318.9,295.5 329.1,295.5 329.1,304.6 329.1,304.5 318.9,304.5 318.9,295.4  "
   id="polyline194" />
</g>
<g
   id="g204"
   transform="translate(-70.05825,-69.55825)">
	<line
   class="st9"
   x1="318.89999"
   y1="349.5"
   x2="329.10001"
   y2="349.5"
   id="line198" />
	<line
   class="st9"
   x1="318.89999"
   y1="349.5"
   x2="329.10001"
   y2="349.5"
   id="line200" />
	<line
   class="st6"
   x1="318.89999"
   y1="349.5"
   x2="329.10001"
   y2="349.5"
   id="line202" />
</g>
<g
   id="g212"
   transform="translate(-70.05825,-69.55825)">
	<polyline
   class="st3"
   points="318.9,349.4 318.9,358.5 329.1,358.5 329.1,358.6 329.1,349.5  "
   id="polyline206" />
	<polyline
   class="st5"
   points="318.9,349.4 318.9,358.5 329.1,358.5 329.1,358.6 329.1,349.5  "
   id="polyline208" />
	<polyline
   class="st6"
   points="318.9,349.4 318.9,358.5 329.1,358.5 329.1,358.6 329.1,349.5  "
   id="polyline210" />
</g>
<g
   id="g220"
   transform="translate(-70.05825,-69.55825)">
	<rect
   x="129.89999"
   y="180.89999"
   class="st7"
   width="10.2"
   height="9.1000004"
   id="rect214" />
	<rect
   x="129.89999"
   y="180.89999"
   class="st6"
   width="10.2"
   height="9.1000004"
   id="rect216" />
	<rect
   x="129.89999"
   y="180.89999"
   class="st8"
   width="10.2"
   height="9.1000004"
   id="rect218" />
</g>
<g
   id="g228"
   transform="translate(-70.05825,-69.55825)">
	<polyline
   class="st3"
   points="448.2,372.6 456.6,376 452.8,385.5 452.7,385.5 444.3,382.1 448.1,372.6  "
   id="polyline222" />
	<polyline
   class="st6"
   points="448.2,372.6 456.6,376 452.8,385.5 452.7,385.5 444.3,382.1 448.1,372.6  "
   id="polyline224" />
	<polyline
   class="st5"
   points="448.2,372.6 456.6,376 452.8,385.5 452.7,385.5 444.3,382.1 448.1,372.6  "
   id="polyline226" />
</g>
<g
   id="g236"
   transform="translate(-70.05825,-69.55825)">
	<polyline
   class="st3"
   points="102.9,329.5 113.1,329.5 113.1,338.6 113.1,338.5 102.9,338.5 102.9,329.4  "
   id="polyline230" />
	<polyline
   class="st4"
   points="102.9,329.5 113.1,329.5 113.1,338.6 113.1,338.5 102.9,338.5 102.9,329.4  "
   id="polyline232" />
	<polyline
   class="st5"
   points="102.9,329.5 113.1,329.5 113.1,338.6 113.1,338.5 102.9,338.5 102.9,329.4  "
   id="polyline234" />
</g>
<g
   id="g244"
   transform="translate(-70.05825,-69.55825)">
	<polyline
   class="st3"
   points="210.9,295.5 221.1,295.5 221.1,304.6 221.1,304.5 210.9,304.5 210.9,295.4  "
   id="polyline238" />
	<polyline
   class="st6"
   points="210.9,295.5 221.1,295.5 221.1,304.6 221.1,304.5 210.9,304.5 210.9,295.4  "
   id="polyline240" />
	<polyline
   class="st5"
   points="210.9,295.5 221.1,295.5 221.1,304.6 221.1,304.5 210.9,304.5 210.9,295.4  "
   id="polyline242" />
</g>
<g
   id="g252"
   transform="translate(-70.05825,-69.55825)">
	<rect
   x="264.89999"
   y="239"
   class="st7"
   width="10.2"
   height="9.1000004"
   id="rect246" />
	<rect
   x="264.89999"
   y="239"
   class="st6"
   width="10.2"
   height="9.1000004"
   id="rect248" />
	<rect
   x="264.89999"
   y="239"
   class="st8"
   width="10.2"
   height="9.1000004"
   id="rect250" />
</g>
<g
   id="g260"
   transform="translate(-70.05825,-69.55825)">
	<rect
   x="129.89999"
   y="288.60001"
   class="st7"
   width="10.2"
   height="9.1000004"
   id="rect254" />
	<rect
   x="129.89999"
   y="288.60001"
   class="st6"
   width="10.2"
   height="9.1000004"
   id="rect256" />
	<rect
   x="129.89999"
   y="288.60001"
   class="st8"
   width="10.2"
   height="9.1000004"
   id="rect258" />
</g>
<g
   id="g268"
   transform="translate(-70.05825,-69.55825)">
	<polyline
   class="st3"
   points="167.1,284.5 156.9,284.5 156.9,275.4 156.9,275.5 167.1,275.5 167.1,284.6  "
   id="polyline262" />
	<polyline
   class="st6"
   points="167.1,284.5 156.9,284.5 156.9,275.4 156.9,275.5 167.1,275.5 167.1,284.6  "
   id="polyline264" />
	<polyline
   class="st5"
   points="167.1,284.5 156.9,284.5 156.9,275.4 156.9,275.5 167.1,275.5 167.1,284.6  "
   id="polyline266" />
</g>
<g
   id="g276"
   transform="translate(-70.05825,-69.55825)">
	<polyline
   class="st3"
   points="156.9,329.5 167.1,329.5 167.1,338.6 167.1,338.5 156.9,338.5 156.9,329.4  "
   id="polyline270" />
	<polyline
   class="st6"
   points="156.9,329.5 167.1,329.5 167.1,338.6 167.1,338.5 156.9,338.5 156.9,329.4  "
   id="polyline272" />
	<polyline
   class="st5"
   points="156.9,329.5 167.1,329.5 167.1,338.6 167.1,338.5 156.9,338.5 156.9,329.4  "
   id="polyline274" />
</g>
<g
   id="g284"
   transform="translate(-70.05825,-69.55825)">
	<rect
   x="264.89999"
   y="347"
   class="st7"
   width="10.2"
   height="9.1000004"
   id="rect278" />
	<rect
   x="264.89999"
   y="347"
   class="st6"
   width="10.2"
   height="9.1000004"
   id="rect280" />
	<rect
   x="264.89999"
   y="347"
   class="st8"
   width="10.2"
   height="9.1000004"
   id="rect282" />
</g>
<g
   id="g292"
   transform="translate(-70.05825,-69.55825)">
	<rect
   x="373.29999"
   y="153.7"
   class="st7"
   width="10.2"
   height="9.1000004"
   id="rect286" />
	<rect
   x="373.29999"
   y="153.7"
   class="st6"
   width="10.2"
   height="9.1000004"
   id="rect288" />
	<rect
   x="373.29999"
   y="153.7"
   class="st8"
   width="10.2"
   height="9.1000004"
   id="rect290" />
</g>
<g
   id="g300"
   transform="translate(-70.05825,-69.55825)">
	<polygon
   class="st3"
   points="400.3,370 391.9,366.6 388.1,376.1 396.5,379.5 "
   id="polygon294" />
	<polygon
   class="st6"
   points="400.3,370 391.9,366.6 388.1,376.1 396.5,379.5 "
   id="polygon296" />
	<polygon
   class="st5"
   points="400.3,370 391.9,366.6 388.1,376.1 396.5,379.5 "
   id="polygon298" />
</g>
<g
   id="g308"
   transform="translate(-70.05825,-69.55825)">
	<polyline
   class="st3"
   points="167.1,176.5 156.9,176.5 156.9,167.4 156.9,167.5 167.1,167.5 167.1,176.6  "
   id="polyline302" />
	<polyline
   class="st6"
   points="167.1,176.5 156.9,176.5 156.9,167.4 156.9,167.5 167.1,167.5 167.1,176.6  "
   id="polyline304" />
	<polyline
   class="st5"
   points="167.1,176.5 156.9,176.5 156.9,167.4 156.9,167.5 167.1,167.5 167.1,176.6  "
   id="polyline306" />
</g>
<g
   id="g316"
   transform="translate(-70.05825,-69.55825)">
	<polyline
   class="st3"
   points="264.9,279.9 275.1,279.9 275.1,289 275.1,288.9 264.9,288.9 264.9,279.8  "
   id="polyline310" />
	<polyline
   class="st6"
   points="264.9,279.9 275.1,279.9 275.1,289 275.1,288.9 264.9,288.9 264.9,279.8  "
   id="polyline312" />
	<polyline
   class="st5"
   points="264.9,279.9 275.1,279.9 275.1,289 275.1,288.9 264.9,288.9 264.9,279.8  "
   id="polyline314" />
</g>
<g
   id="g324"
   transform="translate(-70.05825,-69.55825)">
	<polyline
   class="st3"
   points="264.9,171.9 275.1,171.9 275.1,181 275.1,180.9 264.9,180.9 264.9,171.8  "
   id="polyline318" />
	<polyline
   class="st6"
   points="264.9,171.9 275.1,171.9 275.1,181 275.1,180.9 264.9,180.9 264.9,171.8  "
   id="polyline320" />
	<polyline
   class="st5"
   points="264.9,171.9 275.1,171.9 275.1,181 275.1,180.9 264.9,180.9 264.9,171.8  "
   id="polyline322" />
</g>
<g
   id="g332"
   transform="translate(-70.05825,-69.55825)">
	<rect
   x="372.89999"
   y="140.5"
   class="st3"
   width="10.2"
   height="9.1000004"
   id="rect326" />
	<rect
   x="372.89999"
   y="140.5"
   class="st6"
   width="10.2"
   height="9.1000004"
   id="rect328" />
	<rect
   x="372.89999"
   y="140.5"
   class="st5"
   width="10.2"
   height="9.1000004"
   id="rect330" />
</g>
<g
   id="g340"
   transform="translate(-70.05825,-69.55825)">
	<path
   class="st0"
   d="m 728.5,70.2 c 64.5,0.1 127.8,17.2 183.6,49.6 6,0 10.8,4.8 10.8,10.8 v 216 c -0.2,6 -5.2,10.8 -11.2,10.7 C 840.5,377.6 767,388.5 693,389.7 l -13.5,5.4 -27,10.8 -80.1,32.1 v -0.1 c -15.4,6 -32.7,-1.6 -38.7,-16.9 l -26.5,-69.2 c -1.4,-3.1 -2.1,-6.4 -2.2,-9.8 v 0.1 -111.9 -121.1 c 0,-3 2.4,-5.4 5.4,-5.4 0,0 70.2,0 70.2,0 C 621.5,83 666.5,71.6 712.3,70.2 v -0.5 h 10.8 5.4"
   id="path334" />
	<path
   class="st1"
   d="m 728.5,70.2 c 64.5,0.1 127.8,17.2 183.6,49.6 6,0 10.8,4.8 10.8,10.8 v 216 c -0.2,6 -5.2,10.8 -11.2,10.7 C 840.5,377.6 767,388.5 693,389.7 l -13.5,5.4 -27,10.8 -80.1,32.1 v -0.1 c -15.4,6 -32.7,-1.6 -38.7,-16.9 l -26.5,-69.2 c -1.4,-3.1 -2.1,-6.4 -2.2,-9.8 v 0.1 -111.9 -121.1 c 0,-3 2.4,-5.4 5.4,-5.4 0,0 70.2,0 70.2,0 C 621.5,83 666.5,71.6 712.3,70.2 v -0.5 h 10.8 5.4"
   id="path336" />
	<path
   class="st2"
   d="m 728.5,70.2 c 64.5,0.1 127.8,17.2 183.6,49.6 6,0 10.8,4.8 10.8,10.8 v 216 c -0.2,6 -5.2,10.8 -11.2,10.7 C 840.5,377.6 767,388.5 693,389.7 l -13.5,5.4 -27,10.8 -80.1,32.1 v -0.1 c -15.4,6 -32.7,-1.6 -38.7,-16.9 l -26.5,-69.2 c -1.4,-3.1 -2.1,-6.4 -2.2,-9.8 v 0.1 -111.9 -121.1 c 0,-3 2.4,-5.4 5.4,-5.4 0,0 70.2,0 70.2,0 C 621.5,83 666.5,71.6 712.3,70.2 v -0.5 h 10.8 5.4"
   id="path338" />
</g>
<g
   id="g348"
   transform="translate(-70.05825,-69.55825)">
	<polygon
   class="st3"
   points="890.2,167.5 890.2,167.5 890.2,176.5 880,176.5 880,176.6 880,167.5 "
   id="polygon342" />
	<polygon
   class="st4"
   points="890.2,167.5 890.2,167.5 890.2,176.5 880,176.5 880,176.6 880,167.5 "
   id="polygon344" />
	<polygon
   class="st5"
   points="890.2,167.5 890.2,167.5 890.2,176.5 880,176.5 880,176.6 880,167.5 "
   id="polygon346" />
</g>
<g
   id="g356"
   transform="translate(-70.05825,-69.55825)">
	<polyline
   class="st3"
   points="782.2,187.4 782.2,196.5 772,196.5 772,196.6 772,187.5 782.2,187.5  "
   id="polyline350" />
	<polyline
   class="st6"
   points="782.2,187.4 782.2,196.5 772,196.5 772,196.6 772,187.5 782.2,187.5  "
   id="polyline352" />
	<polyline
   class="st5"
   points="782.2,187.4 782.2,196.5 772,196.5 772,196.6 772,187.5 782.2,187.5  "
   id="polyline354" />
</g>
<g
   id="g364"
   transform="translate(-70.05825,-69.55825)">
	<polyline
   class="st3"
   points="772,142.6 772,133.5 782.2,133.5 782.2,133.4 782.2,142.5 772,142.5  "
   id="polyline358" />
	<polyline
   class="st6"
   points="772,142.6 772,133.5 782.2,133.5 782.2,133.4 782.2,142.5 772,142.5  "
   id="polyline360" />
	<polyline
   class="st5"
   points="772,142.6 772,133.5 782.2,133.5 782.2,133.4 782.2,142.5 772,142.5  "
   id="polyline362" />
</g>
<g
   id="g372"
   transform="translate(-70.05825,-69.55825)">
	<rect
   x="610"
   y="302.5"
   class="st3"
   width="10.2"
   height="9.1000004"
   id="rect366" />
	<rect
   x="610"
   y="302.5"
   class="st6"
   width="10.2"
   height="9.1000004"
   id="rect368" />
	<rect
   x="610"
   y="302.5"
   class="st5"
   width="10.2"
   height="9.1000004"
   id="rect370" />
</g>
<g
   id="g380"
   transform="translate(-70.05825,-69.55825)">
	<polyline
   class="st3"
   points="664,142.6 664,133.5 674.2,133.5 674.2,133.4 674.2,142.5 664,142.5  "
   id="polyline374" />
	<polyline
   class="st5"
   points="664,142.6 664,133.5 674.2,133.5 674.2,133.4 674.2,142.5 664,142.5  "
   id="polyline376" />
	<polyline
   class="st6"
   points="664,142.6 664,133.5 674.2,133.5 674.2,133.4 674.2,142.5 664,142.5  "
   id="polyline378" />
</g>
<g
   id="g388"
   transform="translate(-70.05825,-69.55825)">
	<polyline
   class="st7"
   points="601.3,396.5 601.3,405.6 591.1,405.6 591.1,405.7 591.1,396.6 601.3,396.6  "
   id="polyline382" />
	<polyline
   class="st6"
   points="601.3,396.5 601.3,405.6 591.1,405.6 591.1,405.7 591.1,396.6 601.3,396.6  "
   id="polyline384" />
	<polyline
   class="st8"
   points="601.3,396.5 601.3,405.6 591.1,405.6 591.1,405.7 591.1,396.6 601.3,396.6  "
   id="polyline386" />
</g>
<g
   id="g396"
   transform="translate(-70.05825,-69.55825)">
	<polyline
   class="st3"
   points="836.2,221.4 836.2,230.5 826,230.5 826,230.6 826,221.5 836.2,221.5  "
   id="polyline390" />
	<polyline
   class="st6"
   points="836.2,221.4 836.2,230.5 826,230.5 826,230.6 826,221.5 836.2,221.5  "
   id="polyline392" />
	<polyline
   class="st5"
   points="836.2,221.4 836.2,230.5 826,230.5 826,230.6 826,221.5 836.2,221.5  "
   id="polyline394" />
</g>
<g
   id="g404"
   transform="translate(-70.05825,-69.55825)">
	<polygon
   class="st3"
   points="890.2,275.5 890.2,275.4 890.2,284.5 880,284.5 880,284.6 880,275.5 "
   id="polygon398" />
	<polygon
   class="st4"
   points="890.2,275.5 890.2,275.4 890.2,284.5 880,284.5 880,284.6 880,275.5 "
   id="polygon400" />
	<polygon
   class="st5"
   points="890.2,275.5 890.2,275.4 890.2,284.5 880,284.5 880,284.6 880,275.5 "
   id="polygon402" />
</g>
<g
   id="g412"
   transform="translate(-70.05825,-69.55825)">
	<polyline
   class="st3"
   points="664,250.6 664,241.5 674.2,241.5 674.2,241.4 674.2,250.5 664,250.5  "
   id="polyline406" />
	<polyline
   class="st5"
   points="664,250.6 664,241.5 674.2,241.5 674.2,241.4 674.2,250.5 664,250.5  "
   id="polyline408" />
	<polyline
   class="st6"
   points="664,250.6 664,241.5 674.2,241.5 674.2,241.4 674.2,250.5 664,250.5  "
   id="polyline410" />
</g>
<g
   id="g420"
   transform="translate(-70.05825,-69.55825)">
	<polyline
   class="st3"
   points="718,235 718,225.9 728.2,225.9 728.2,225.8 728.2,234.9 718,234.9  "
   id="polyline414" />
	<polyline
   class="st6"
   points="718,235 718,225.9 728.2,225.9 728.2,225.8 728.2,234.9 718,234.9  "
   id="polyline416" />
	<polyline
   class="st5"
   points="718,235 718,225.9 728.2,225.9 728.2,225.8 728.2,234.9 718,234.9  "
   id="polyline418" />
</g>
<g
   id="g428"
   transform="translate(-70.05825,-69.55825)">
	<line
   class="st9"
   x1="718"
   y1="131"
   x2="728.20001"
   y2="131"
   id="line422" />
	<line
   class="st6"
   x1="718"
   y1="131"
   x2="728.20001"
   y2="131"
   id="line424" />
	<line
   class="st9"
   x1="718"
   y1="131"
   x2="728.20001"
   y2="131"
   id="line426" />
</g>
<g
   id="g436"
   transform="translate(-70.05825,-69.55825)">
	<polyline
   class="st7"
   points="718,131 718,140.1 728.2,140.1 728.2,131  "
   id="polyline430" />
	<polyline
   class="st6"
   points="718,131 718,140.1 728.2,140.1 728.2,131  "
   id="polyline432" />
	<polyline
   class="st8"
   points="718,131 718,140.1 728.2,140.1 728.2,131  "
   id="polyline434" />
</g>
<g
   id="g444"
   transform="translate(-70.05825,-69.55825)">
	<polyline
   class="st3"
   points="772,358.6 772,349.5 782.2,349.5 782.2,349.4 782.2,358.5 772,358.5  "
   id="polyline438" />
	<polyline
   class="st6"
   points="772,358.6 772,349.5 782.2,349.5 782.2,349.4 782.2,358.5 772,358.5  "
   id="polyline440" />
	<polyline
   class="st5"
   points="772,358.6 772,349.5 782.2,349.5 782.2,349.4 782.2,358.5 772,358.5  "
   id="polyline442" />
</g>
<g
   id="g452"
   transform="translate(-70.05825,-69.55825)">
	<polyline
   class="st3"
   points="772,250.6 772,241.5 782.2,241.5 782.2,241.4 782.2,250.5 772,250.5  "
   id="polyline446" />
	<polyline
   class="st6"
   points="772,250.6 772,241.5 782.2,241.5 782.2,241.4 782.2,250.5 772,250.5  "
   id="polyline448" />
	<polyline
   class="st5"
   points="772,250.6 772,241.5 782.2,241.5 782.2,241.4 782.2,250.5 772,250.5  "
   id="polyline450" />
</g>
<g
   id="g460"
   transform="translate(-70.05825,-69.55825)">
	<polyline
   class="st3"
   points="674.2,187.4 674.2,196.5 664,196.5 664,196.6 664,187.5 674.2,187.5  "
   id="polyline454" />
	<polyline
   class="st5"
   points="674.2,187.4 674.2,196.5 664,196.5 664,196.6 664,187.5 674.2,187.5  "
   id="polyline456" />
	<polyline
   class="st6"
   points="674.2,187.4 674.2,196.5 664,196.5 664,196.6 664,187.5 674.2,187.5  "
   id="polyline458" />
</g>
<g
   id="g468"
   transform="translate(-70.05825,-69.55825)">
	<rect
   x="610"
   y="248.5"
   class="st3"
   width="10.2"
   height="9.1000004"
   id="rect462" />
	<rect
   x="610"
   y="248.5"
   class="st6"
   width="10.2"
   height="9.1000004"
   id="rect464" />
	<rect
   x="610"
   y="248.5"
   class="st5"
   width="10.2"
   height="9.1000004"
   id="rect466" />
</g>
<g
   id="g476"
   transform="translate(-70.05825,-69.55825)">
	<line
   class="st9"
   x1="610"
   y1="261.70001"
   x2="620.20001"
   y2="261.70001"
   id="line470" />
	<line
   class="st6"
   x1="610"
   y1="261.70001"
   x2="620.20001"
   y2="261.70001"
   id="line472" />
	<line
   class="st9"
   x1="610"
   y1="261.70001"
   x2="620.20001"
   y2="261.70001"
   id="line474" />
</g>
<g
   id="g484"
   transform="translate(-70.05825,-69.55825)">
	<polyline
   class="st7"
   points="620.2,261.7 620.2,270.8 610,270.8 610,261.7  "
   id="polyline478" />
	<polyline
   class="st6"
   points="620.2,261.7 620.2,270.8 610,270.8 610,261.7  "
   id="polyline480" />
	<polyline
   class="st8"
   points="620.2,261.7 620.2,270.8 610,270.8 610,261.7  "
   id="polyline482" />
</g>
<g
   id="g492"
   transform="translate(-70.05825,-69.55825)">
	<rect
   x="610"
   y="194.5"
   class="st3"
   width="10.2"
   height="9.1000004"
   id="rect486" />
	<rect
   x="610"
   y="194.5"
   class="st6"
   width="10.2"
   height="9.1000004"
   id="rect488" />
	<rect
   x="610"
   y="194.5"
   class="st5"
   width="10.2"
   height="9.1000004"
   id="rect490" />
</g>
<g
   id="g500"
   transform="translate(-70.05825,-69.55825)">
	<polyline
   class="st3"
   points="718,343 718,333.9 728.2,333.9 728.2,333.8 728.2,342.9 718,342.9  "
   id="polyline494" />
	<polyline
   class="st6"
   points="718,343 718,333.9 728.2,333.9 728.2,333.8 728.2,342.9 718,342.9  "
   id="polyline496" />
	<polyline
   class="st5"
   points="718,343 718,333.9 728.2,333.9 728.2,333.8 728.2,342.9 718,342.9  "
   id="polyline498" />
</g>
<g
   id="g508"
   transform="translate(-70.05825,-69.55825)">
	<polyline
   class="st3"
   points="718,127 718,117.9 728.2,117.9 728.2,117.8 728.2,126.9 718,126.9  "
   id="polyline502" />
	<polyline
   class="st6"
   points="718,127 718,117.9 728.2,117.9 728.2,117.8 728.2,126.9 718,126.9  "
   id="polyline504" />
	<polyline
   class="st5"
   points="718,127 718,117.9 728.2,117.9 728.2,117.8 728.2,126.9 718,126.9  "
   id="polyline506" />
</g>
<g
   id="g516"
   transform="translate(-70.05825,-69.55825)">
	<polygon
   class="st3"
   points="880,230.5 880,230.6 880,221.5 890.2,221.5 890.2,230.5 "
   id="polygon510" />
	<polygon
   class="st4"
   points="880,230.5 880,230.6 880,221.5 890.2,221.5 890.2,230.5 "
   id="polygon512" />
	<polygon
   class="st5"
   points="880,230.5 880,230.6 880,221.5 890.2,221.5 890.2,230.5 "
   id="polygon514" />
</g>
<g
   id="g524"
   transform="translate(-70.05825,-69.55825)">
	<polyline
   class="st3"
   points="674.2,295.4 674.2,304.5 664,304.5 664,304.6 664,295.5 674.2,295.5  "
   id="polyline518" />
	<polyline
   class="st5"
   points="674.2,295.4 674.2,304.5 664,304.5 664,304.6 664,295.5 674.2,295.5  "
   id="polyline520" />
	<polyline
   class="st6"
   points="674.2,295.4 674.2,304.5 664,304.5 664,304.6 664,295.5 674.2,295.5  "
   id="polyline522" />
</g>
<g
   id="g532"
   transform="translate(-70.05825,-69.55825)">
	<line
   class="st9"
   x1="664"
   y1="349.5"
   x2="674.20001"
   y2="349.5"
   id="line526" />
	<line
   class="st9"
   x1="664"
   y1="349.5"
   x2="674.20001"
   y2="349.5"
   id="line528" />
	<line
   class="st6"
   x1="664"
   y1="349.5"
   x2="674.20001"
   y2="349.5"
   id="line530" />
</g>
<g
   id="g540"
   transform="translate(-70.05825,-69.55825)">
	<polyline
   class="st3"
   points="664,349.5 664,358.6 664,358.5 674.2,358.5 674.2,349.4  "
   id="polyline534" />
	<polyline
   class="st5"
   points="664,349.5 664,358.6 664,358.5 674.2,358.5 674.2,349.4  "
   id="polyline536" />
	<polyline
   class="st6"
   points="664,349.5 664,358.6 664,358.5 674.2,358.5 674.2,349.4  "
   id="polyline538" />
</g>
<g
   id="g548"
   transform="translate(-70.05825,-69.55825)">
	<rect
   x="853"
   y="180.89999"
   class="st7"
   width="10.2"
   height="9.1000004"
   id="rect542" />
	<rect
   x="853"
   y="180.89999"
   class="st6"
   width="10.2"
   height="9.1000004"
   id="rect544" />
	<rect
   x="853"
   y="180.89999"
   class="st8"
   width="10.2"
   height="9.1000004"
   id="rect546" />
</g>
<g
   id="g556"
   transform="translate(-70.05825,-69.55825)">
	<polyline
   class="st3"
   points="545,372.6 548.8,382.1 540.4,385.5 540.3,385.5 536.5,376 544.9,372.6  "
   id="polyline550" />
	<polyline
   class="st6"
   points="545,372.6 548.8,382.1 540.4,385.5 540.3,385.5 536.5,376 544.9,372.6  "
   id="polyline552" />
	<polyline
   class="st5"
   points="545,372.6 548.8,382.1 540.4,385.5 540.3,385.5 536.5,376 544.9,372.6  "
   id="polyline554" />
</g>
<g
   id="g564"
   transform="translate(-70.05825,-69.55825)">
	<polyline
   class="st3"
   points="890.2,329.4 890.2,338.5 880,338.5 880,338.6 880,329.5 890.2,329.5  "
   id="polyline558" />
	<polyline
   class="st4"
   points="890.2,329.4 890.2,338.5 880,338.5 880,338.6 880,329.5 890.2,329.5  "
   id="polyline560" />
	<polyline
   class="st5"
   points="890.2,329.4 890.2,338.5 880,338.5 880,338.6 880,329.5 890.2,329.5  "
   id="polyline562" />
</g>
<g
   id="g572"
   transform="translate(-70.05825,-69.55825)">
	<polyline
   class="st3"
   points="782.2,295.4 782.2,304.5 772,304.5 772,304.6 772,295.5 782.2,295.5  "
   id="polyline566" />
	<polyline
   class="st6"
   points="782.2,295.4 782.2,304.5 772,304.5 772,304.6 772,295.5 782.2,295.5  "
   id="polyline568" />
	<polyline
   class="st5"
   points="782.2,295.4 782.2,304.5 772,304.5 772,304.6 772,295.5 782.2,295.5  "
   id="polyline570" />
</g>
<g
   id="g580"
   transform="translate(-70.05825,-69.55825)">
	<rect
   x="718"
   y="239"
   class="st7"
   width="10.2"
   height="9.1000004"
   id="rect574" />
	<rect
   x="718"
   y="239"
   class="st6"
   width="10.2"
   height="9.1000004"
   id="rect576" />
	<rect
   x="718"
   y="239"
   class="st8"
   width="10.2"
   height="9.1000004"
   id="rect578" />
</g>
<g
   id="g588"
   transform="translate(-70.05825,-69.55825)">
	<rect
   x="853"
   y="288.60001"
   class="st7"
   width="10.2"
   height="9.1000004"
   id="rect582" />
	<rect
   x="853"
   y="288.60001"
   class="st6"
   width="10.2"
   height="9.1000004"
   id="rect584" />
	<rect
   x="853"
   y="288.60001"
   class="st8"
   width="10.2"
   height="9.1000004"
   id="rect586" />
</g>
<g
   id="g596"
   transform="translate(-70.05825,-69.55825)">
	<polyline
   class="st3"
   points="826,284.6 826,275.5 836.2,275.5 836.2,275.4 836.2,284.5 826,284.5  "
   id="polyline590" />
	<polyline
   class="st6"
   points="826,284.6 826,275.5 836.2,275.5 836.2,275.4 836.2,284.5 826,284.5  "
   id="polyline592" />
	<polyline
   class="st5"
   points="826,284.6 826,275.5 836.2,275.5 836.2,275.4 836.2,284.5 826,284.5  "
   id="polyline594" />
</g>
<g
   id="g604"
   transform="translate(-70.05825,-69.55825)">
	<polyline
   class="st3"
   points="836.2,329.4 836.2,338.5 826,338.5 826,338.6 826,329.5 836.2,329.5  "
   id="polyline598" />
	<polyline
   class="st6"
   points="836.2,329.4 836.2,338.5 826,338.5 826,338.6 826,329.5 836.2,329.5  "
   id="polyline600" />
	<polyline
   class="st5"
   points="836.2,329.4 836.2,338.5 826,338.5 826,338.6 826,329.5 836.2,329.5  "
   id="polyline602" />
</g>
<g
   id="g612"
   transform="translate(-70.05825,-69.55825)">
	<rect
   x="718"
   y="347"
   class="st7"
   width="10.2"
   height="9.1000004"
   id="rect606" />
	<rect
   x="718"
   y="347"
   class="st6"
   width="10.2"
   height="9.1000004"
   id="rect608" />
	<rect
   x="718"
   y="347"
   class="st8"
   width="10.2"
   height="9.1000004"
   id="rect610" />
</g>
<g
   id="g620"
   transform="translate(-70.05825,-69.55825)">
	<rect
   x="609.59998"
   y="153.7"
   class="st7"
   width="10.2"
   height="9.1000004"
   id="rect614" />
	<rect
   x="609.59998"
   y="153.7"
   class="st6"
   width="10.2"
   height="9.1000004"
   id="rect616" />
	<rect
   x="609.59998"
   y="153.7"
   class="st8"
   width="10.2"
   height="9.1000004"
   id="rect618" />
</g>
<g
   id="g628"
   transform="translate(-70.05825,-69.55825)">
	<polygon
   class="st3"
   points="596.6,379.5 605,376.1 601.2,366.6 592.8,370 "
   id="polygon622" />
	<polygon
   class="st6"
   points="596.6,379.5 605,376.1 601.2,366.6 592.8,370 "
   id="polygon624" />
	<polygon
   class="st5"
   points="596.6,379.5 605,376.1 601.2,366.6 592.8,370 "
   id="polygon626" />
</g>
<g
   id="g636"
   transform="translate(-70.05825,-69.55825)">
	<polyline
   class="st3"
   points="826,176.6 826,167.5 836.2,167.5 836.2,167.4 836.2,176.5 826,176.5  "
   id="polyline630" />
	<polyline
   class="st6"
   points="826,176.6 826,167.5 836.2,167.5 836.2,167.4 836.2,176.5 826,176.5  "
   id="polyline632" />
	<polyline
   class="st5"
   points="826,176.6 826,167.5 836.2,167.5 836.2,167.4 836.2,176.5 826,176.5  "
   id="polyline634" />
</g>
<g
   id="g644"
   transform="translate(-70.05825,-69.55825)">
	<polyline
   class="st3"
   points="728.2,279.8 728.2,288.9 718,288.9 718,289 718,279.9 728.2,279.9  "
   id="polyline638" />
	<polyline
   class="st6"
   points="728.2,279.8 728.2,288.9 718,288.9 718,289 718,279.9 728.2,279.9  "
   id="polyline640" />
	<polyline
   class="st5"
   points="728.2,279.8 728.2,288.9 718,288.9 718,289 718,279.9 728.2,279.9  "
   id="polyline642" />
</g>
<g
   id="g652"
   transform="translate(-70.05825,-69.55825)">
	<polyline
   class="st3"
   points="728.2,171.8 728.2,180.9 718,180.9 718,181 718,171.9 728.2,171.9  "
   id="polyline646" />
	<polyline
   class="st6"
   points="728.2,171.8 728.2,180.9 718,180.9 718,181 718,171.9 728.2,171.9  "
   id="polyline648" />
	<polyline
   class="st5"
   points="728.2,171.8 728.2,180.9 718,180.9 718,181 718,171.9 728.2,171.9  "
   id="polyline650" />
</g>
<g
   id="g660"
   transform="translate(-70.05825,-69.55825)">
	<rect
   x="610"
   y="140.5"
   class="st3"
   width="10.2"
   height="9.1000004"
   id="rect654" />
	<rect
   x="610"
   y="140.5"
   class="st6"
   width="10.2"
   height="9.1000004"
   id="rect656" />
	<rect
   x="610"
   y="140.5"
   class="st5"
   width="10.2"
   height="9.1000004"
   id="rect658" />
</g>
</svg>
